<svg width="170" height="57" viewBox="0 0 170 57" fill="none" xmlns="http://www.w3.org/2000/svg">
<path d="M169.012 53.0158C166.049 53.8311 163.878 54.2766 161.821 55.0303C157.745 56.5233 154.119 56.0398 150.73 53.2385C149.17 51.954 147.364 50.9634 145.824 49.9206C144.98 50.2761 144.312 50.333 144.065 50.6885C141.221 54.8075 136.813 55.8408 132.344 56.0778C125.134 56.457 117.901 56.3385 110.682 56.4333L106.558 56.4807C105.008 56.4807 103.444 56.675 101.913 56.5091C88.8973 55.0871 75.7915 55.3194 62.7567 54.2766C56.4004 53.7695 50.0584 53.4661 43.6832 53.4993C41.7939 53.4918 39.9238 53.12 38.1754 52.4043C35.2603 51.2193 32.587 50.9824 29.8331 52.7551C28.9733 53.3278 27.9737 53.6556 26.9417 53.7031C22.837 53.7031 18.7985 54.5326 14.6179 53.9211C11.1483 53.414 7.45115 53.139 4.0147 54.8975C2.40787 55.7175 0.886378 54.8644 0.545103 53.1011C0.184574 51.417 0.00186357 49.6996 0 47.9772C0.156418 40.7346 0.68255 33.5347 3.31795 26.6476C3.57544 25.8406 3.75325 25.0103 3.84882 24.1686C4.18061 22.1683 4.49344 20.1586 4.90581 17.5706C4.60975 17.0162 4.27889 16.4811 3.91518 15.9685C1.49308 12.7264 1.8296 9.13356 2.74441 5.57861C3.2184 3.79166 4.33229 2.69671 6.60746 3.03799C8.30756 3.27739 10.0244 3.3773 11.7408 3.33663C30.6752 3.087 49.6112 2.81364 68.5488 2.51661C91.6165 2.17533 114.684 1.83249 137.752 1.48805C145.843 1.36007 153.934 1.16574 162.02 1.01406C163.224 1.01406 164.438 0.90978 165.637 1.01406C167.77 1.15626 168.481 2.10425 168.315 4.40312C168.272 4.90555 167.841 5.53121 168.04 5.87723C169.618 8.8539 168.485 11.4371 167.296 14.2053C166.401 16.4416 166.104 18.8722 166.433 21.2583C166.85 25.3527 166.933 29.4743 166.68 33.5821C166.433 37.8054 167.282 41.7775 168.362 45.7637C168.722 47.0956 169.249 48.4038 169.381 49.7547C169.476 50.8733 169.135 52.0441 169.012 53.0158ZM163.291 9.94881C163.343 6.63086 163.129 6.24217 161.395 6.08101C160.878 6.03361 160.361 6.03837 159.845 6.03837C150.892 6.05733 141.94 6.07946 132.988 6.10474C132.135 6.10474 131.272 6.20428 130.419 6.2896C128.049 6.52186 125.679 6.96739 123.281 6.98161C105.373 7.07641 87.4706 7.07644 69.5679 7.13332C67.672 7.13332 65.776 7.29443 63.9179 7.44137C61.8703 7.60253 59.8321 8.00546 57.7892 8.01494C42.6214 8.09552 27.4916 8.10021 12.3428 8.14287C10.6553 8.14287 8.9632 8.27086 7.28527 8.33722C5.71161 12.186 8.77834 13.7976 10.1292 16.2102C11.378 16.2201 12.6251 16.3024 13.8643 16.4567C14.8655 16.6472 15.8354 16.9758 16.7462 17.4332C17.8174 17.9546 18.0497 18.9926 17.8127 20.0733C17.7176 20.4972 17.4744 20.8733 17.1269 21.1339C16.7794 21.3946 16.3502 21.5227 15.9167 21.4953C14.3715 21.5427 12.8167 21.4669 11.2715 21.5285C9.08169 21.6185 8.85891 22.0309 9.25706 25.2066L13.4092 26.2399C13.6368 29.046 13.4519 29.6859 11.9114 30.1788C10.371 30.6718 8.65985 30.9751 6.96295 31.378C6.5411 33.8807 6.15717 36.1701 5.74953 38.6064C8.44655 39.4643 10.8639 39.1183 13.2339 39.1562C14.7933 39.1799 16.3812 39.0994 17.6799 40.1042C18.1539 40.4929 18.8033 41.2181 18.7322 41.6968C18.6232 42.4457 18.1302 43.4269 17.5093 43.7493C16.6561 44.1948 15.5327 44.2232 14.5184 44.2517C12.1105 44.3275 9.69789 44.2185 7.29001 44.3323C6.90101 44.3277 6.51617 44.4126 6.16515 44.5803C5.81412 44.748 5.50628 44.994 5.26539 45.2995C5.02449 45.6049 4.85699 45.9617 4.77574 46.3421C4.6945 46.7225 4.7017 47.1165 4.7968 47.4938C5.04328 48.6313 6.08607 49.2475 7.61707 48.9157C10.5274 48.2758 13.3429 48.4702 16.2769 49.0011C20.6945 49.8021 25.1311 49.9491 29.2738 47.4701C30.5299 46.6925 31.9625 46.2459 33.438 46.1722C34.9134 46.0984 36.3835 46.3998 37.7109 47.0482C40.332 48.2901 42.9674 48.4702 45.7356 48.4702C49.3521 48.4702 53.0493 48.0626 56.5568 48.6835C60.1592 49.3234 63.7189 49.3945 67.3165 49.4798C68.3498 49.5035 69.4542 49.3519 70.3927 49.6694C73.2366 50.6174 76.1706 50.423 79.0809 50.4467C83.7308 50.4894 88.3807 50.4894 93.0258 50.5605C94.3909 50.5605 95.7608 50.7691 97.1211 50.9113C99.0171 51.1056 100.861 51.5037 102.728 51.5132C111.507 51.5701 120.29 51.5132 129.068 51.5132C133.529 51.5132 137.6 50.4468 140.738 47.0672C142.814 44.8394 145.35 44.8631 147.848 45.7969C149.597 46.4415 151.166 47.5601 152.782 48.5508C153.649 49.0911 154.346 49.9064 155.218 50.4467C157.37 51.7597 161.049 51.3473 162.802 49.4987C163.276 48.9868 163.423 47.9251 163.347 47.1525C163.191 45.4603 162.783 43.7871 162.508 42.1045C162.148 39.8862 161.162 39.18 158.968 39.4833C156.944 39.763 154.901 39.9857 152.863 40.1421C152.18 40.2326 151.487 40.1049 150.881 39.7772C150.211 39.3084 149.699 38.6473 149.412 37.8812C149.118 36.9332 149.815 36.1606 150.673 35.9236C152.149 35.537 153.65 35.2566 155.166 35.0847C157.157 34.8287 159.281 35.5065 161.205 34.2978C161.679 32.198 161.778 30.2167 160.935 28.0553C159.465 27.951 158.124 27.8041 156.783 27.7709C154.716 27.7283 152.649 27.8231 150.583 27.7425C148.516 27.6619 147.293 26.7519 147.194 25.3062C147.094 23.8605 148.312 22.8035 150.374 22.6945C152.09 22.6044 153.82 22.6945 155.536 22.6329C157.38 22.5475 159.328 23.0121 161.139 21.9788C161.674 20.0304 161.674 17.9737 161.139 16.0254C159.124 15.4376 157.309 15.0063 155.583 14.3427C155.109 14.1531 154.484 13.2336 154.569 12.7643C154.731 11.9524 155.191 11.2306 155.858 10.7404C156.522 10.3233 157.494 10.3422 158.337 10.2664C159.887 10.0768 161.404 10.0341 163.291 9.94881Z" fill="#1B1615"/>
<path d="M163.291 9.94913C161.395 10.0439 159.888 10.0866 158.371 10.2098C157.527 10.2809 156.555 10.262 155.892 10.6838C155.225 11.174 154.765 11.8959 154.603 12.7077C154.517 13.1817 155.119 14.0966 155.617 14.2862C157.342 14.9498 159.158 15.3811 161.172 15.9688C161.708 17.9171 161.708 19.9739 161.172 21.9222C159.343 22.9555 157.413 22.491 155.57 22.5763C153.854 22.6569 152.124 22.5479 150.408 22.6379C148.346 22.7469 147.132 23.8039 147.227 25.2496C147.322 26.6953 148.498 27.6196 150.616 27.686C152.735 27.7523 154.75 27.6859 156.816 27.7144C158.158 27.7475 159.499 27.8945 160.968 27.9987C161.812 30.1602 161.727 32.1415 161.239 34.2413C159.314 35.4499 157.191 34.7721 155.2 35.0281C153.684 35.2001 152.182 35.4805 150.706 35.8671C149.848 36.1041 149.152 36.8909 149.446 37.8247C149.732 38.5907 150.245 39.2518 150.915 39.7206C151.52 40.0484 152.214 40.1761 152.896 40.0856C154.934 39.9291 156.977 39.7064 159.001 39.4267C161.196 39.1234 162.182 39.8296 162.542 42.0479C162.817 43.7306 163.225 45.4038 163.381 47.0959C163.457 47.8685 163.319 48.9303 162.836 49.4422C161.073 51.305 157.394 51.7173 155.252 50.3902C154.38 49.8593 153.683 49.044 152.816 48.4942C151.214 47.5035 149.63 46.385 147.881 45.7403C145.36 44.7923 142.824 44.7923 140.771 47.0106C137.615 50.3902 133.562 51.4566 129.102 51.4566C120.323 51.4566 111.54 51.5135 102.762 51.4566C100.895 51.4566 99.0269 51.0491 97.1547 50.8547C95.7943 50.7125 94.4245 50.5229 93.0594 50.504C88.4142 50.4329 83.7644 50.4328 79.1145 50.3902C76.2042 50.3665 73.2796 50.5845 70.4262 49.6129C69.4782 49.2953 68.3833 49.447 67.35 49.4233C63.7524 49.3379 60.1927 49.2668 56.5904 48.6269C53.0828 48.006 49.3857 48.3899 45.7691 48.4136C43.001 48.4136 40.3656 48.2572 37.7444 46.9917C36.4171 46.3433 34.947 46.0418 33.4716 46.1156C31.9961 46.1894 30.5634 46.6359 29.3074 47.4135C25.1647 49.9115 20.7281 49.7456 16.3105 48.9445C13.3765 48.4136 10.561 48.2193 7.65064 48.8592C6.11965 49.1957 5.07686 48.5795 4.83038 47.4372C4.73528 47.06 4.72808 46.666 4.80932 46.2855C4.89057 45.9051 5.05807 45.5484 5.29896 45.2429C5.53986 44.9374 5.8477 44.6914 6.19872 44.5237C6.54975 44.356 6.93459 44.2712 7.32359 44.2757C9.73147 44.1619 12.1441 44.2757 14.552 44.1951C15.5663 44.1667 16.6897 44.1382 17.5429 43.6926C18.1638 43.3703 18.6567 42.3892 18.7658 41.6403C18.8369 41.1663 18.2065 40.4363 17.7135 40.0477C16.4148 39.0286 14.8269 39.0997 13.2674 39.0997C10.8975 39.0618 8.48013 39.4078 5.78311 38.5498C6.19075 36.1135 6.57468 33.8099 6.99653 31.3214C8.69343 30.9185 10.3571 30.6342 11.945 30.1223C13.5329 29.6104 13.6703 28.9894 13.4428 26.1834L9.29064 25.15C8.89249 21.9743 9.11526 21.562 11.3051 21.4719C12.8503 21.4103 14.405 21.4719 15.9503 21.4387C16.3838 21.4662 16.8129 21.338 17.1605 21.0774C17.508 20.8167 17.7512 20.4406 17.8462 20.0167C18.0832 18.936 17.8462 17.898 16.7797 17.3766C15.869 16.9193 14.8991 16.5906 13.8979 16.4002C12.6587 16.2458 11.4115 16.1635 10.1628 16.1537C8.80244 13.7411 5.73571 12.1295 7.31884 8.28066C8.99678 8.21431 10.6889 8.09105 12.3763 8.08631C27.5441 8.04365 42.674 8.03896 57.8228 7.95838C59.8657 7.95838 61.9038 7.54597 63.9515 7.38481C65.8475 7.23787 67.715 7.08618 69.6015 7.0767C87.5042 7.01983 105.407 7.01985 123.314 6.92505C125.684 6.92505 128.054 6.45108 130.453 6.23304C131.306 6.14772 132.169 6.05292 133.022 6.04818C141.974 6.01342 150.926 5.99129 159.878 5.98181C160.395 5.98181 160.911 5.9818 161.428 6.02445C163.111 6.23301 163.343 6.63118 163.291 9.94913Z" fill="#5E5950"/>
</svg>
