<svg width="524" height="714" viewBox="0 0 524 714" fill="none" xmlns="http://www.w3.org/2000/svg">
<g clip-path="url(#clip0)" filter="url(#filter0_d)">
<path d="M464.428 593.183L459.517 598.6C461.226 601.456 463.298 604.079 465.68 606.404C467.348 608.088 467.755 609.682 467.105 612.064C465.4 618.362 464.412 624.904 465.22 631.356C465.938 637.122 465.79 642.835 465.949 648.579C466.033 651.441 466.26 654.303 466.477 657.165C466.715 660.57 467.443 663.992 466.091 667.276C462.611 667.904 462.622 667.92 459.11 670.444C458.339 671.003 457.526 671.7 456.633 671.853C449.768 673.073 443.21 676.051 435.848 675.116C430.176 674.398 424.357 674.863 418.601 674.784C412.465 674.705 406.323 674.704 400.192 674.477C390.781 674.134 381.403 674.699 372.019 675.232C361.106 675.913 350.164 675.967 339.246 675.396C337.357 675.232 335.455 675.321 333.59 675.66C332.212 675.961 331.071 676.098 329.735 675.533C328.654 675.157 327.521 674.951 326.376 674.921C323.641 674.699 321.771 673.216 320.356 671.003C319.659 669.947 318.988 668.828 318.075 667.376C314.795 671.663 310.682 671.864 306.013 671.431C298.578 670.739 291.079 670.745 283.628 670.185C273.119 669.393 262.621 668.384 252.122 667.418C241.244 666.415 230.392 665.047 219.492 664.388C199.425 663.178 179.279 662.276 159.164 661.415C145.943 660.875 132.7 661.377 119.557 662.914C115.56 663.374 111.536 663.574 107.528 663.97C105.252 664.192 103.44 663.305 101.719 661.975C99.7543 660.465 97.7952 658.902 94.9488 658.516C93.7817 659.699 92.5988 660.913 91.3948 662.107C89.4778 664.002 87.3919 664.535 84.6089 663.875C79.402 662.64 74.0895 661.827 68.8033 660.993C67.1399 660.729 65.4025 660.95 63.5912 660.95C60.7448 658.495 60.2748 654.958 59.847 651.621C58.2628 639.055 56.9478 626.451 57.7928 613.753C57.9078 610.883 58.4069 608.042 59.2767 605.305C60.5599 601.646 61.1461 597.913 61.7481 594.154C59.4721 592.723 57.1485 593.795 54.9147 593.626C52.6809 593.457 50.3415 593.283 48.1236 593.098C46.9037 594.006 47.0674 596.224 45.0184 596.076C43.6454 595.976 42.7001 594.492 42.5787 592.01C42.4255 588.943 42.283 585.865 42.3939 582.802C42.8797 569.544 42.1192 556.323 41.3377 543.113C40.1917 523.746 40.2815 504.364 40.1442 484.981C40.0967 478.075 39.8379 471.169 39.8274 464.258C39.8274 455.81 40.0333 447.362 40.0492 438.914C40.0808 421.448 39.9699 403.982 40.0492 386.516C40.0808 380.576 40.6406 374.641 40.8783 368.702C41.0895 363.527 41.4063 358.342 41.2954 353.168C41.1317 343.163 42.2196 333.236 42.8427 323.284C42.9853 320.987 43.2177 318.695 43.3127 316.393C43.8936 302.402 44.427 288.41 45.0132 274.413C45.3652 265.965 45.7507 257.533 46.1696 249.117C46.4601 243.156 46.2489 237.269 44.9128 231.392C43.3286 224.296 41.8605 217.136 40.8149 209.94C39.6003 201.597 38.5494 193.197 38.1058 184.786C37.8344 179.225 38.2083 173.651 39.2201 168.176C41.6915 154.733 42.3305 141.137 43.5873 127.584C44.3616 119.565 44.4658 111.496 43.8989 103.46C43.5451 98.7077 43.9939 93.8607 43.7457 89.0719C43.4236 82.736 42.6896 76.4581 42.2882 70.1433C41.6991 62.4801 42.0538 54.7736 43.3444 47.1968C43.6085 45.7343 44.1418 44.3193 44.5696 42.8303C43.7246 42.3499 42.6104 41.9222 41.8077 41.1672C41.3905 40.7765 41.3483 39.7733 41.475 39.1133C41.5822 38.8564 41.7469 38.6276 41.9566 38.4445C42.1663 38.2614 42.4153 38.1289 42.6843 38.0573C43.4319 37.8926 44.2036 37.8675 44.9603 37.9834C55.0468 39.1766 65.149 40.0953 75.3199 40.0953C84.9099 40.0953 94.5474 40.7606 104.074 40.0109C119.388 38.8123 134.735 38.8757 150.065 38.6909C162.739 38.5378 175.381 38.9338 188.039 39.1344C198.205 39.2928 208.365 39.6624 218.531 39.6624C229.457 39.6941 240.388 39.4248 251.314 39.3298C263.587 39.2294 275.86 39.2083 288.127 39.108C305.776 38.9654 323.419 38.5166 341.062 38.712C351.587 38.8282 362.101 40.0425 372.631 40.523C378.556 40.7923 384.508 40.7448 390.438 40.523C398.676 40.2326 406.925 39.0499 415.126 39.3403C427.188 39.768 439.265 39.6624 451.316 40.9243C459.3 41.7427 467.406 41.4523 475.46 41.5209C476.959 41.5209 478.465 40.9929 479.97 40.7606C481.205 40.5441 482.283 40.8345 482.927 41.975C483.571 43.1155 483.814 44.4249 482.721 45.0954C480.804 46.2623 481.1 47.9624 481.137 49.6467C481.228 63.0788 481.332 76.5145 481.448 89.9536C481.691 114.711 481.976 139.469 482.198 164.226C482.733 226.033 483.245 287.836 483.735 349.636C484.087 393.396 484.471 437.157 484.886 480.921C485.182 514.318 485.477 547.714 485.773 581.107C485.773 583.409 485.958 585.706 486.021 588.008C486.074 590.12 485.208 591.234 483.17 591.583C482.04 591.778 480.878 591.773 479.732 591.863L464.428 593.183ZM67.7683 591.878C70.4562 591.878 73.1495 591.783 75.8216 591.963C77.3281 592.105 78.8033 592.481 80.1941 593.077C80.5042 593.264 80.763 593.525 80.9473 593.836C81.1316 594.148 81.2358 594.5 81.2503 594.862C81.1975 595.39 80.4159 596.055 79.8086 596.303C79.0699 596.507 78.2985 596.564 77.5378 596.472C73.7568 596.377 69.9757 596.25 65.9622 596.123C65.2071 598.061 65.4342 600.126 65.6454 602.301C66.4701 602.753 67.2672 603.254 68.0323 603.8C69.0621 604.629 68.8509 606.266 67.6838 606.562C66.4058 606.884 65.0803 607.011 64.0189 607.185C63.3716 607.83 62.8631 608.601 62.5243 609.45C62.1856 610.299 62.0239 611.208 62.0492 612.122C61.8168 625.321 61.9013 638.521 64.2829 651.6C64.811 654.482 66.2368 655.956 69.0885 656.431C73.9785 657.244 78.8897 658.015 83.6847 659.234C86.5205 659.958 88.2051 659.519 90.0217 657.091C92.6146 653.627 95.0913 653.395 99.1206 655.322C100.356 655.85 101.523 656.525 102.595 657.334C105.87 660.069 109.524 659.974 113.463 659.393C119.109 658.532 124.754 657.492 130.505 657.503C145.858 657.531 161.206 657.545 176.548 657.545C177.89 657.545 179.3 657.318 180.562 657.65C186.423 659.182 192.386 658.453 198.3 658.664C200.597 658.749 203 658.353 205.165 658.891C208.772 659.789 212.374 659.736 216.007 659.805C219.07 659.863 222.254 659.445 225.18 660.116C231.2 661.489 237.368 660.676 243.404 661.985C248.03 662.994 252.878 662.962 257.62 663.495C263.107 664.113 268.572 665.021 274.075 665.459C278.268 665.792 282.524 665.502 286.749 665.644C289.215 665.729 291.671 666.172 294.142 666.373C298.303 666.727 302.465 667.059 306.784 666.246C307.312 661.848 307.978 657.719 308.295 653.574C308.382 651.271 308.941 649.01 309.937 646.932C310.111 646.72 310.333 646.552 310.584 646.443C310.836 646.333 311.11 646.286 311.384 646.304C311.854 646.362 312.636 646.922 312.63 647.259C312.712 649.917 312.597 652.576 312.287 655.216C311.711 659.039 311.59 661.874 312.525 665.987C313.222 665.57 313.834 665.174 314.479 664.831C315.303 664.342 316.163 663.915 317.05 663.553C317.945 663.174 318.945 663.122 319.875 663.405C320.805 663.689 321.605 664.291 322.136 665.106C322.682 665.886 323.104 666.746 323.387 667.656C323.915 669.308 325.22 670.037 326.667 670.628C328.283 671.288 329.835 670.47 329.999 668.68C330.189 666.568 330.089 664.456 330.215 662.344C330.284 661.214 330.316 659.968 330.828 659.018C331.091 658.645 331.432 658.334 331.827 658.105C332.221 657.877 332.661 657.736 333.115 657.693C334.171 657.619 334.762 658.643 334.699 659.673C334.596 661.382 334.39 663.083 334.081 664.768C333.706 666.843 333.384 668.87 334.509 670.956C335.565 671.061 336.51 671.236 337.445 671.236C348.957 671.257 360.468 671.257 371.976 671.236C373.124 671.207 374.27 671.121 375.409 670.977C378.049 670.713 380.69 670.195 383.367 670.185C399.1 670.125 414.83 670.136 430.557 670.217C432.466 670.23 434.369 670.43 436.239 670.813C439.236 671.509 442.368 671.352 445.28 670.359C447.973 669.403 450.714 668.39 453.523 667.988C455.82 667.661 457.489 666.864 458.804 665.011C459.453 664.081 460.087 663.031 460.985 662.397C462.738 661.156 462.907 659.398 462.358 657.782C461.207 654.403 461.539 650.966 461.444 647.534C461.275 641.615 462.046 635.649 460.43 629.799C460.14 628.743 460.43 627.513 460.541 626.367C460.811 623.727 461.159 621.087 461.439 618.415C461.735 615.622 461.967 612.824 462.295 609.761C460.71 610.559 459.443 611.488 458.033 611.831C456.192 612.246 454.303 612.405 452.419 612.301C451.949 612.301 451.538 611.002 450.862 609.93C453.09 609.133 454.849 608.473 456.633 607.882C457.806 607.496 458.746 606.947 458.809 605.2C458.107 604.442 457.483 603.616 456.945 602.734C456.331 601.576 455.902 600.329 455.672 599.038C455.292 596.752 456.422 595.02 458.054 593.484C462.976 588.864 466.313 583.452 466.192 576.408C466.192 575.669 466.609 574.935 466.72 574.18C467.707 567.781 467.042 561.566 464.116 555.759C461.909 551.376 458.677 548.409 453.212 549.106C451.516 549.322 449.658 549.428 448.063 548.947C444.482 547.891 440.865 548.082 437.237 547.976C435.531 547.928 433.847 547.448 432.141 547.337C429.669 547.184 427.071 546.709 424.748 547.247C421.5 547.997 418.295 547.997 415.052 548.013C410.064 548.038 405.075 548.038 400.086 548.013C398.162 547.937 396.254 548.387 394.568 549.317C393.295 550.046 392.514 551.038 392.487 552.517C392.45 555.009 392.487 557.506 392.434 560.004C392.434 561.556 391.584 562.797 390.85 562.517C390.306 562.323 389.836 561.965 389.506 561.492C389.176 561.018 389.001 560.454 389.007 559.877C388.923 558.346 388.975 556.804 388.886 555.273C388.796 553.742 388.616 552.316 388.474 550.811C386.499 550.225 384.862 549.349 383.193 549.312C377.833 549.206 372.415 549.005 367.113 549.644C364.094 550.077 361.052 550.329 358.003 550.399C348.793 550.399 339.584 550.399 330.374 550.357C329.033 550.357 327.607 550.579 326.366 550.209C322.035 548.905 317.621 549.296 313.227 549.275C303.257 549.227 293.276 549.275 283.3 549.306C281.959 549.306 280.533 549.064 279.292 549.428C274.772 550.737 270.135 550.04 265.562 550.484C260.239 551.012 255 550.827 249.667 550.484C243.932 550.13 238.16 550.484 232.409 550.347C227.334 550.23 222.592 551.403 217.707 553.251C217.126 555.484 216.619 557.712 215.949 559.882C215.808 560.449 215.469 560.948 214.994 561.288C214.519 561.629 213.938 561.789 213.356 561.741C212.347 561.698 211.56 560.41 211.798 559.101C211.967 558.166 212.458 557.274 212.532 556.339C212.548 555.28 212.479 554.22 212.326 553.171C206.433 552.554 204.933 553.768 204.78 559.043C204.7 561.339 204.78 563.647 204.537 565.906C204.438 566.25 204.255 566.563 204.005 566.818C203.756 567.073 203.447 567.263 203.106 567.369C202.738 567.379 202.372 567.313 202.03 567.176C201.689 567.039 201.379 566.833 201.12 566.572C199.89 565.379 200.101 563.721 200.238 562.221C200.407 560.363 200.824 558.525 201.141 556.677C198.422 554.396 196.003 552.654 192.38 552.48C188.23 552.284 184.116 551.197 179.991 550.447C175.867 549.697 171.774 548.462 167.618 548.177C161.868 547.781 156.291 546.593 150.672 545.537C147.303 544.892 143.966 544.032 140.57 543.594C138.31 543.308 135.87 543.166 133.705 543.726C130.087 544.65 126.481 544.533 122.853 544.549C114.224 544.597 105.59 544.496 96.9766 544.591C90.835 544.66 84.7409 544.481 78.8105 542.648C78.0797 542.406 77.3065 542.317 76.5396 542.387C75.7726 542.457 75.0284 542.684 74.3535 543.055C73.0227 543.778 71.7131 544.528 70.7467 545.061C68.5446 549.248 68.5182 553.34 69.305 557.274C69.8131 560.094 70.0921 562.951 70.1394 565.817C70.1975 567.316 70.3506 568.816 70.4404 570.088C72.9541 571.899 77.015 570.859 77.7015 574.803C77.316 575.109 77.1735 575.294 77.0203 575.331C76.2867 575.512 75.5397 575.634 74.7865 575.695C69.6324 575.933 69.6166 575.917 68.1327 580.875C68.0555 581.448 68.0555 582.029 68.1327 582.602C71.5494 582.602 74.9397 582.681 78.33 582.57C80.8256 582.541 83.2948 583.083 85.5489 584.154C85.8672 584.327 86.1396 584.573 86.3435 584.873C86.5474 585.172 86.6769 585.516 86.7212 585.875C86.7212 586.319 85.7812 587 85.1739 587.111C84.0327 587.24 82.8821 587.267 81.7361 587.19H67.7313V591.762L67.4884 592.29C67.5835 592.201 67.6732 592.021 67.7683 591.878ZM481.58 587.221C481.58 584.465 481.607 582.369 481.58 580.273C481.49 572.982 481.353 565.69 481.284 558.393C480.932 518.086 480.58 477.783 480.228 437.483C479.813 390.263 479.403 343.046 478.998 295.833C478.748 266.083 478.517 236.339 478.306 206.603C478.01 168.024 477.708 129.444 477.398 90.8618C477.282 77.2343 477.044 63.6121 476.822 49.9846C476.732 48.73 476.568 47.4818 476.331 46.2464C475.664 46.0721 474.984 45.9521 474.298 45.8874C463.944 46.1084 453.585 45.74 443.273 44.7839C435.072 44.0342 426.802 43.9233 418.559 43.7755C413.191 43.6477 407.82 43.7975 402.468 44.2242C389.826 45.3225 377.157 45.7396 364.546 44.4671C351.344 43.1313 338.142 42.9571 324.903 43.3583C310.338 43.7966 295.753 43.654 281.172 43.6646C250.29 43.6646 219.386 44.0025 188.531 43.5009C165.511 43.1313 142.508 43.0785 119.494 43.5748C117.002 43.6276 114.509 43.7385 112.027 43.9761C94.7798 45.634 77.5326 44.9265 60.3065 43.7649C56.2085 43.4903 52.3852 43.4006 48.8418 45.7818C48.3823 46.0933 47.9546 46.4471 47.4054 46.8642C46.4865 55.2434 45.7102 63.6015 46.703 72.0705C47.5168 78.335 47.9752 84.6405 48.076 90.9568C48.1236 105.519 49.4068 120.123 47.1519 134.643C47.1388 134.834 47.1388 135.027 47.1519 135.218C46.9723 145.414 45.6733 155.488 43.9042 165.52C42.5998 172.912 41.9344 180.367 42.5312 187.87C42.9431 193.028 43.3761 198.208 44.1999 203.313C45.5993 212.02 47.1572 220.705 48.9527 229.338C50.2856 235.531 50.818 241.87 50.5369 248.198C50.1144 256.625 49.7184 265.055 49.3487 273.489C48.6358 289.402 47.9757 305.316 47.2364 321.225C46.8086 330.227 46.1802 339.229 45.763 348.231C45.3722 356.283 45.029 364.335 44.8178 372.387C44.5643 381.785 44.4006 391.183 44.3266 400.582C44.2157 414.595 44.2105 428.608 44.1577 442.615C44.126 450.672 44.0415 458.729 44.089 466.781C44.1154 471.581 44.427 476.375 44.4692 481.169C44.6171 496.138 44.5484 511.117 44.8494 526.08C45.0607 536.439 45.837 546.783 46.2066 557.137C46.4548 564.032 46.534 570.933 46.5129 577.834C46.4446 581.494 46.6795 585.153 47.2153 588.774C52.4644 590.057 57.5023 589.719 62.5931 588.959C63.1687 585.263 63.2901 581.762 64.3199 578.536C65.8999 573.596 66.3758 568.369 65.7141 563.224C65.3486 560.563 65.1195 557.884 65.0275 555.199C64.9593 552.523 65.1059 549.847 65.4658 547.194C66.0837 542.971 68.8086 540.405 72.7481 539.111C75.288 538.194 78.0389 538.031 80.6694 538.641C83.2623 539.28 85.9502 539.892 88.5906 539.903C102.78 539.966 116.986 540.088 131.165 539.671C138.711 539.449 146.078 539.861 153.418 541.577C157.141 542.443 160.959 542.923 164.74 543.53C168.331 544.106 171.938 544.586 175.529 545.172C180.81 546.065 186.091 547.284 191.372 547.881C195.221 548.309 198.892 548.868 201.859 551.334C204.928 550.04 207.336 547.854 210.663 548.113C215.479 548.493 220.168 547.675 224.921 546.841C233.286 545.368 241.746 545.933 250.179 546.218C254.773 546.376 259.378 546.445 263.967 546.313C272.417 546.07 280.824 545.589 289.257 545.315C295.77 545.104 302.283 544.984 308.796 544.956C312.82 544.956 316.844 545.104 320.868 545.236C324.507 545.362 328.145 545.6 331.784 545.711C347.516 546.186 363.237 546.36 378.905 544.459C381.419 544.153 383.895 544.232 386.229 545.346C388.674 546.519 391.014 546.318 393.38 545.056C395.967 543.673 398.755 543.24 401.702 543.245C409.56 543.245 417.423 543.066 425.281 543.039C430.641 543.039 436.001 543.129 441.361 543.219C442.324 543.191 443.285 543.306 444.213 543.562C447.524 544.598 451.026 544.87 454.458 544.359C459.828 543.662 463.219 547.068 466.123 550.352C468.9 553.593 470.525 557.663 470.744 561.925C471.272 570.373 471.753 578.821 468.404 586.889C468.278 587.185 468.463 587.612 468.547 588.378C470.786 588.283 473.067 588.246 475.333 588.061C477.208 587.903 479.066 587.565 481.58 587.221Z" fill="#1B1615"/>
<path d="M481.58 587.222C479.066 587.566 477.207 587.903 475.333 588.062C473.067 588.247 470.786 588.284 468.547 588.379C468.462 587.613 468.278 587.185 468.404 586.89C471.752 578.806 471.282 570.379 470.744 561.926C470.525 557.664 468.9 553.594 466.123 550.353C463.218 547.069 459.828 543.663 454.458 544.36C451.026 544.871 447.524 544.598 444.213 543.563C443.285 543.307 442.323 543.192 441.361 543.22C436.001 543.13 430.641 543.024 425.281 543.04C417.423 543.04 409.56 543.267 401.702 543.246C398.755 543.246 395.967 543.674 393.379 545.057C391.014 546.319 388.674 546.52 386.229 545.347C383.895 544.233 381.418 544.154 378.905 544.46C363.236 546.361 347.515 546.187 331.784 545.712C328.145 545.601 324.507 545.363 320.868 545.236C316.844 545.104 312.82 544.936 308.796 544.957C302.276 544.992 295.763 545.112 289.257 545.316C280.808 545.59 272.401 546.071 263.967 546.314C259.378 546.446 254.773 546.377 250.179 546.219C241.73 545.933 233.28 545.368 224.921 546.842C220.168 547.676 215.489 548.494 210.662 548.114C207.335 547.855 204.927 550.041 201.859 551.335C198.891 548.869 195.221 548.309 191.371 547.882C186.048 547.285 180.81 546.065 175.529 545.173C171.938 544.571 168.331 544.117 164.74 543.531C160.959 542.924 157.141 542.443 153.418 541.578C146.078 539.862 138.711 539.466 131.165 539.671C116.986 540.089 102.78 539.967 88.5904 539.904C85.95 539.904 83.2568 539.281 80.6692 538.642C78.0387 538.032 75.2878 538.195 72.7479 539.112C68.8084 540.405 66.0835 542.971 65.4656 547.195C65.1057 549.847 64.9591 552.524 65.0273 555.2C65.1193 557.885 65.3484 560.563 65.7139 563.225C66.3756 568.37 65.8997 573.597 64.3197 578.537C63.2899 581.763 63.1685 585.274 62.5929 588.96C57.5021 589.72 52.4642 590.058 47.2151 588.775C46.6793 585.154 46.4444 581.494 46.5127 577.835C46.5127 570.934 46.4546 564.033 46.2064 557.137C45.8368 546.784 45.0605 536.44 44.8492 526.081C44.5482 511.118 44.6169 496.139 44.469 481.17C44.4268 476.376 44.1152 471.582 44.0888 466.782C44.0413 458.73 44.1258 450.673 44.1574 442.616C44.2103 428.608 44.2155 414.595 44.3264 400.583C44.4039 391.184 44.5676 381.786 44.8176 372.388C45.0288 364.336 45.372 356.284 45.7628 348.232C46.1959 339.256 46.819 330.228 47.2362 321.225C47.9861 305.317 48.6462 289.403 49.3485 273.49C49.7287 265.042 50.1248 256.612 50.5367 248.199C50.8178 241.87 50.2854 235.532 48.9525 229.339C47.1623 220.706 45.6044 212.021 44.1997 203.314C43.3759 198.209 42.9429 193.029 42.531 187.87C41.9342 180.368 42.5996 172.912 43.904 165.521C45.6731 155.489 46.9721 145.415 47.1517 135.219C47.1386 135.028 47.1386 134.835 47.1517 134.644C49.4066 120.124 48.1234 105.52 48.0758 90.9576C47.9698 84.625 47.5043 78.3036 46.6817 72.0238C45.6889 63.576 46.4652 55.1967 47.384 46.8175C47.9121 46.4004 48.361 46.0466 48.8204 45.7351C52.3428 43.3539 56.1872 43.4436 60.2851 43.7182C77.5112 44.8798 94.7585 45.5873 112.006 43.9294C114.488 43.6918 116.98 43.5809 119.473 43.5281C142.487 43.0318 165.49 43.0846 188.509 43.4542C219.381 43.9558 250.295 43.639 281.151 43.6178C295.731 43.6178 310.317 43.7499 324.882 43.3116C338.137 42.9103 351.312 43.0846 364.525 44.4204C377.136 45.6929 389.804 45.2757 402.447 44.1775C407.799 43.7508 413.17 43.601 418.537 43.7287C426.781 43.8766 435.051 43.9874 443.252 44.7372C453.564 45.6933 463.922 46.0617 474.277 45.8407C474.963 45.9053 475.643 46.0254 476.31 46.1997C476.546 47.4351 476.71 48.6833 476.801 49.9379C477.023 63.5654 477.26 77.1876 477.376 90.815C477.707 129.394 478.01 167.974 478.285 206.556C478.517 236.31 478.748 266.063 478.977 295.813C479.374 343.03 479.784 390.246 480.207 437.463C480.559 477.77 480.911 518.073 481.263 558.373C481.332 565.67 481.469 572.961 481.559 580.253C481.606 582.37 481.58 584.466 481.58 587.222Z" fill="#283444"/>
<g clip-path="url(#clip1)">
<path d="M316.715 369.977L420.202 358.261L418.533 343.507L388.98 346.846L387.296 331.972L372.436 333.596L374.121 348.47L314.94 355.163L316.444 369.601L316.715 369.977Z" fill="#243746"/>
<path d="M365.834 274.55C366.947 284.386 368.065 294.212 369.188 304.028L370.436 303.862L476.135 291.831L476.135 261.947L469.517 262.699C470.059 267.511 470.6 272.339 471.172 277.287L456.358 278.957C455.816 274.144 455.26 269.316 454.704 264.368L439.889 266.053C440.446 270.865 440.987 275.708 441.544 280.641L426.745 282.326C426.188 277.498 425.647 272.655 425.09 267.722L410.276 269.391C410.833 274.234 411.374 279.077 411.931 284.01L382.318 287.364C381.776 282.521 381.235 277.678 380.663 272.745L365.834 274.55Z" fill="#243746"/>
<path d="M324.761 309.096L339.575 307.412L341.244 322.226L355.998 320.541L357.683 335.385L372.557 333.686L369.203 304.028L354.449 305.712L351.095 276.129L336.221 277.814L337.89 292.613L323.091 294.297L324.761 309.096Z" fill="#243746"/>
<path d="M474.601 307.216L476.105 320L476.21 308.66L476.21 307.036L474.601 307.216Z" fill="#243746"/>
<path d="M448.297 340.078L433.528 341.747L435.197 356.456L464.584 353.117L459.592 308.931L444.958 310.585L448.297 340.078Z" fill="#243746"/>
<path d="M387.296 331.972L431.603 326.948L429.948 312.254L385.686 317.263C386.243 322.211 386.799 327.114 387.356 332.017L387.296 331.972Z" fill="#243746"/>
<path d="M355.758 185.636C355.186 180.552 354.63 175.694 354.088 170.822L476.15 157L476.15 187.079L476 187.079C476 187.531 476.105 187.967 476.15 188.418L476.15 246.817L467.683 247.779C467.126 242.831 466.57 237.989 466.029 233.206L451.229 234.875C451.786 239.823 452.327 244.666 452.884 249.449L438.07 251.133C437.513 246.17 436.957 241.342 436.415 236.56L421.616 238.229C422.173 243.192 422.714 248.02 423.256 252.803L408.457 254.487C407.9 249.524 407.344 244.681 406.802 239.823L377.295 243.177C377.851 248.065 378.407 252.938 378.964 257.856L349.336 261.225C346.538 236.51 343.746 211.86 340.959 187.275L355.758 185.636ZM390.499 226.573L464.359 218.196C463.818 213.309 463.261 208.511 462.705 203.563L448.011 205.232C447.439 200.254 446.898 195.411 446.326 190.463L387.16 197.171C388.273 206.932 389.371 216.692 390.499 226.573ZM362.541 244.817L377.249 243.147C376.136 233.371 375.039 223.596 373.911 213.7L359.202 215.369C360.315 225.145 361.413 234.905 362.541 244.847L362.541 244.817Z" fill="#243746"/>
</g>
<g clip-path="url(#clip2)">
<path d="M316.715 369.977L420.202 358.261L418.533 343.507L388.98 346.846L387.296 331.972L372.436 333.596L374.121 348.47L314.94 355.163L316.444 369.601L316.715 369.977Z" fill="#243746"/>
<path d="M365.834 274.55C366.947 284.386 368.065 294.212 369.188 304.028L370.436 303.862L476.135 291.831L476.135 261.947L469.517 262.699C470.059 267.511 470.6 272.339 471.172 277.287L456.358 278.957C455.816 274.144 455.26 269.316 454.704 264.368L439.889 266.053C440.446 270.865 440.987 275.708 441.544 280.641L426.745 282.326C426.188 277.498 425.647 272.655 425.09 267.722L410.276 269.391C410.833 274.234 411.374 279.077 411.931 284.01L382.318 287.364C381.776 282.521 381.235 277.678 380.663 272.745L365.834 274.55Z" fill="#243746"/>
<path d="M324.761 309.096L339.575 307.412L341.244 322.226L355.998 320.541L357.683 335.385L372.557 333.686L369.203 304.028L354.449 305.712L351.095 276.129L336.221 277.814L337.89 292.613L323.091 294.297L324.761 309.096Z" fill="#243746"/>
<path d="M474.601 307.216L476.105 320L476.21 308.66L476.21 307.036L474.601 307.216Z" fill="#243746"/>
<path d="M448.297 340.078L433.528 341.747L435.197 356.456L464.584 353.117L459.592 308.931L444.958 310.585L448.297 340.078Z" fill="#243746"/>
<path d="M387.296 331.972L431.603 326.948L429.948 312.254L385.686 317.263C386.243 322.211 386.799 327.114 387.356 332.017L387.296 331.972Z" fill="#243746"/>
<path d="M355.758 185.636C355.186 180.552 354.63 175.694 354.088 170.822L476.15 157L476.15 187.079L476 187.079C476 187.531 476.105 187.967 476.15 188.418L476.15 246.817L467.683 247.779C467.126 242.831 466.57 237.989 466.029 233.206L451.229 234.875C451.786 239.823 452.327 244.666 452.884 249.449L438.07 251.133C437.513 246.17 436.957 241.342 436.415 236.56L421.616 238.229C422.173 243.192 422.714 248.02 423.256 252.803L408.457 254.487C407.9 249.524 407.344 244.681 406.802 239.823L377.295 243.177C377.851 248.065 378.407 252.938 378.964 257.856L349.336 261.225C346.538 236.51 343.746 211.86 340.959 187.275L355.758 185.636ZM390.499 226.573L464.359 218.196C463.818 213.309 463.261 208.511 462.705 203.563L448.011 205.232C447.439 200.254 446.898 195.411 446.326 190.463L387.16 197.171C388.273 206.932 389.371 216.692 390.499 226.573ZM362.541 244.817L377.249 243.147C376.136 233.371 375.039 223.596 373.911 213.7L359.202 215.369C360.315 225.145 361.413 234.905 362.541 244.847L362.541 244.817Z" fill="#243746"/>
</g>
<g clip-path="url(#clip3)">
<path d="M316.715 369.977L420.202 358.261L418.533 343.507L388.98 346.846L387.296 331.972L372.436 333.596L374.121 348.47L314.94 355.163L316.444 369.601L316.715 369.977Z" fill="#243746"/>
<path d="M365.834 274.55C366.947 284.386 368.065 294.212 369.188 304.028L370.436 303.862L476.135 291.831L476.135 261.947L469.517 262.699C470.059 267.511 470.6 272.339 471.172 277.287L456.358 278.957C455.816 274.144 455.26 269.316 454.704 264.368L439.889 266.053C440.446 270.865 440.987 275.708 441.544 280.641L426.745 282.326C426.188 277.498 425.647 272.655 425.09 267.722L410.276 269.391C410.833 274.234 411.374 279.077 411.931 284.01L382.318 287.364C381.776 282.521 381.235 277.678 380.663 272.745L365.834 274.55Z" fill="#243746"/>
<path d="M324.761 309.096L339.575 307.412L341.244 322.226L355.998 320.541L357.683 335.385L372.557 333.686L369.203 304.028L354.449 305.712L351.095 276.129L336.221 277.814L337.89 292.613L323.091 294.297L324.761 309.096Z" fill="#243746"/>
<path d="M474.601 307.216L476.105 320L476.21 308.66L476.21 307.036L474.601 307.216Z" fill="#243746"/>
<path d="M448.297 340.078L433.528 341.747L435.197 356.456L464.584 353.117L459.592 308.931L444.958 310.585L448.297 340.078Z" fill="#243746"/>
<path d="M387.296 331.972L431.603 326.948L429.948 312.254L385.686 317.263C386.243 322.211 386.799 327.114 387.356 332.017L387.296 331.972Z" fill="#243746"/>
<path d="M355.758 185.636C355.186 180.552 354.63 175.694 354.088 170.822L476.15 157L476.15 187.079L476 187.079C476 187.531 476.105 187.967 476.15 188.418L476.15 246.817L467.683 247.779C467.126 242.831 466.57 237.989 466.029 233.206L451.229 234.875C451.786 239.823 452.327 244.666 452.884 249.449L438.07 251.133C437.513 246.17 436.957 241.342 436.415 236.56L421.616 238.229C422.173 243.192 422.714 248.02 423.256 252.803L408.457 254.487C407.9 249.524 407.344 244.681 406.802 239.823L377.295 243.177C377.851 248.065 378.407 252.938 378.964 257.856L349.336 261.225C346.538 236.51 343.746 211.86 340.959 187.275L355.758 185.636ZM390.499 226.573L464.359 218.196C463.818 213.309 463.261 208.511 462.705 203.563L448.011 205.232C447.439 200.254 446.898 195.411 446.326 190.463L387.16 197.171C388.273 206.932 389.371 216.692 390.499 226.573ZM362.541 244.817L377.249 243.147C376.136 233.371 375.039 223.596 373.911 213.7L359.202 215.369C360.315 225.145 361.413 234.905 362.541 244.847L362.541 244.817Z" fill="#243746"/>
</g>
<path d="M67.7311 591.842V587.27H81.6778C82.8238 587.347 83.9744 587.32 85.1156 587.191C85.7229 587.08 86.6471 586.399 86.6629 585.955C86.6186 585.596 86.4891 585.252 86.2852 584.953C86.0813 584.653 85.8089 584.407 85.4905 584.234C83.2365 583.163 80.7672 582.621 78.2716 582.65C74.8813 582.761 71.491 582.682 68.0743 582.682C67.9972 582.109 67.9972 581.528 68.0743 580.955C69.5583 575.997 69.5741 576.013 74.7282 575.775C75.4814 575.714 76.2284 575.592 76.962 575.411C77.1257 575.379 77.2577 575.195 77.6432 574.883C76.9567 570.939 72.8905 571.979 70.3821 570.168C70.2923 568.896 70.1391 567.396 70.0811 565.897C70.0338 563.031 69.7548 560.174 69.2467 557.354C68.4599 553.42 68.4863 549.328 70.6884 545.141C71.6495 544.613 72.9644 543.858 74.2952 543.135C74.9701 542.764 75.7143 542.536 76.4812 542.466C77.2482 542.397 78.0213 542.486 78.7522 542.728C84.6826 544.561 90.7767 544.74 96.9183 544.671C105.552 544.576 114.187 544.671 122.794 544.629C126.422 544.629 130.029 544.73 133.647 543.806C135.812 543.246 138.251 543.388 140.512 543.674C143.907 544.112 147.245 544.972 150.614 545.617C156.233 546.673 161.809 547.861 167.56 548.257C171.716 548.542 175.803 549.772 179.933 550.527C184.063 551.282 188.171 552.364 192.322 552.56C195.945 552.734 198.363 554.476 201.083 556.757C200.766 558.605 200.349 560.453 200.18 562.301C200.042 563.801 199.831 565.469 201.062 566.652C201.321 566.913 201.63 567.119 201.972 567.256C202.313 567.393 202.679 567.459 203.047 567.449C203.388 567.343 203.697 567.153 203.947 566.898C204.197 566.643 204.379 566.33 204.478 565.986C204.695 563.7 204.642 561.393 204.721 559.123C204.896 553.843 206.374 552.634 212.268 553.251C212.42 554.3 212.489 555.359 212.474 556.419C212.4 557.354 211.909 558.246 211.74 559.181C211.502 560.506 212.268 561.821 213.297 561.821C213.88 561.869 214.461 561.709 214.936 561.368C215.411 561.028 215.749 560.529 215.89 559.962C216.561 557.792 217.068 555.564 217.649 553.33C222.534 551.493 227.276 550.31 232.351 550.427C238.102 550.564 243.873 550.21 249.608 550.564C254.926 550.886 260.17 551.092 265.504 550.564C270.051 550.11 274.687 550.807 279.234 549.508C280.475 549.144 281.874 549.386 283.242 549.386C293.218 549.386 303.198 549.307 313.169 549.355C317.562 549.355 321.977 548.985 326.307 550.289C327.548 550.659 328.948 550.432 330.316 550.437C339.525 550.437 348.735 550.495 357.945 550.479C360.994 550.409 364.036 550.157 367.054 549.724C372.335 549.085 377.774 549.286 383.135 549.392C384.787 549.429 386.424 550.305 388.415 550.891C388.558 552.396 388.748 553.874 388.827 555.353C388.906 556.831 388.864 558.426 388.949 559.957C388.943 560.534 389.117 561.098 389.448 561.572C389.778 562.045 390.248 562.403 390.792 562.597C391.552 562.877 392.376 561.636 392.376 560.084C392.424 557.586 392.376 555.089 392.429 552.597C392.429 551.118 393.237 550.126 394.509 549.397C396.196 548.467 398.104 548.016 400.028 548.093C405.013 548.135 410.002 548.135 414.994 548.093C418.236 548.093 421.442 548.093 424.689 547.327C427.029 546.799 429.627 547.264 432.083 547.417C433.788 547.528 435.473 548.008 437.179 548.056C440.807 548.161 444.424 547.95 448.004 549.027C449.589 549.508 451.458 549.402 453.153 549.186C458.619 548.489 461.851 551.456 464.058 555.838C466.984 561.646 467.649 567.861 466.662 574.26C466.545 575.015 466.133 575.749 466.133 576.488C466.255 583.542 462.917 588.944 457.996 593.563C456.364 595.1 455.234 596.832 455.614 599.118C455.844 600.409 456.273 601.655 456.887 602.814C457.425 603.696 458.049 604.522 458.751 605.28C458.666 607.027 457.747 607.576 456.575 607.962C454.79 608.553 453.032 609.213 450.803 610.01C451.479 611.066 451.891 612.36 452.361 612.381C454.245 612.485 456.134 612.326 457.975 611.911C459.385 611.568 460.657 610.639 462.236 609.841C461.935 612.904 461.676 615.702 461.381 618.495C461.101 621.135 460.752 623.775 460.483 626.447C460.367 627.593 460.082 628.823 460.372 629.879C461.988 635.729 461.217 641.695 461.386 647.614C461.481 651.046 461.148 654.478 462.3 657.862C462.828 659.478 462.68 661.236 460.927 662.477C460.029 663.111 459.395 664.161 458.746 665.09C457.452 666.944 455.783 667.73 453.465 668.068C450.655 668.47 447.915 669.483 445.221 670.439C442.309 671.432 439.177 671.589 436.181 670.893C434.31 670.51 432.407 670.31 430.498 670.296C414.768 670.237 399.039 670.226 383.309 670.265C380.668 670.265 378.028 670.793 375.351 671.057C374.211 671.201 373.066 671.287 371.918 671.316C360.413 671.337 348.902 671.337 337.387 671.316C336.452 671.316 335.522 671.141 334.45 671.036C333.326 668.95 333.648 666.923 334.023 664.848C334.332 663.163 334.538 661.462 334.641 659.753C334.704 658.723 334.112 657.699 333.056 657.773C332.602 657.816 332.163 657.957 331.768 658.185C331.374 658.414 331.033 658.725 330.77 659.098C330.242 660.048 330.242 661.294 330.157 662.424C330.03 664.536 330.131 666.648 329.941 668.76C329.782 670.55 328.224 671.368 326.608 670.708C325.161 670.117 323.868 669.388 323.329 667.736C323.046 666.826 322.624 665.966 322.077 665.186C321.547 664.371 320.747 663.769 319.817 663.485C318.887 663.201 317.887 663.254 316.992 663.633C316.104 663.995 315.245 664.422 314.42 664.911C313.776 665.254 313.163 665.65 312.466 666.067C311.532 661.954 311.653 659.119 312.229 655.296C312.539 652.656 312.654 649.997 312.572 647.339C312.572 647.002 311.796 646.442 311.326 646.384C311.052 646.366 310.778 646.413 310.526 646.522C310.274 646.632 310.052 646.8 309.879 647.012C308.879 649.079 308.313 651.329 308.215 653.623C307.898 657.778 307.249 661.907 306.705 666.294C302.385 667.107 298.224 666.775 294.063 666.421C291.596 666.205 289.141 665.777 286.669 665.692C282.445 665.55 278.22 665.84 273.995 665.508C268.493 665.069 263.027 664.161 257.54 663.543C252.788 663.015 247.95 663.015 243.324 662.033C237.288 660.724 231.12 661.537 225.1 660.164C222.174 659.494 218.99 659.911 215.927 659.853C212.294 659.784 208.693 659.853 205.086 658.939C202.905 658.411 200.502 658.797 198.221 658.712C192.306 658.501 186.344 659.24 180.482 657.699C179.22 657.366 177.81 657.593 176.469 657.593C161.123 657.593 145.775 657.579 130.425 657.551C124.674 657.551 119.029 658.607 113.384 659.441C109.444 660.043 105.79 660.117 102.516 657.382C101.443 656.574 100.276 655.898 99.0412 655.37C95.0119 653.427 92.5352 653.675 89.9423 657.139C88.1204 659.568 86.4358 660.006 83.6053 659.283C78.8103 658.058 73.8991 657.292 69.0091 656.479C66.1574 656.004 64.7263 654.531 64.2035 651.648C61.8218 638.575 61.7373 625.386 61.9697 612.17C61.9445 611.256 62.1062 610.347 62.4449 609.498C62.7836 608.649 63.2922 607.879 63.9394 607.233C64.9956 607.059 66.3264 606.932 67.6043 606.61C68.7714 606.314 68.9827 604.678 67.9529 603.849C67.1878 603.302 66.3907 602.801 65.5659 602.349C65.3389 600.174 65.1276 598.125 65.8828 596.172C69.8962 596.298 73.6773 596.425 77.4584 596.52C78.2191 596.612 78.9905 596.555 79.7292 596.351C80.3365 596.103 81.118 595.448 81.1708 594.91C81.1563 594.548 81.0522 594.196 80.8679 593.884C80.6835 593.573 80.4247 593.312 80.1147 593.125C78.7238 592.529 77.2487 592.153 75.7421 592.011C73.07 591.832 70.3768 591.937 67.6889 591.927L67.7311 591.842ZM458.112 586.325C455.625 586.673 453.56 586.905 451.521 587.259C448.913 587.713 446.309 588.215 443.727 588.79C442.996 589.017 442.312 589.374 441.71 589.846C441.186 590.263 440.841 590.863 440.743 591.524C440.645 592.186 440.802 592.86 441.181 593.41C441.915 594.319 442.887 594.192 443.753 593.727C445.928 592.539 448.328 591.82 450.798 591.615C452.87 591.415 454.916 591.001 456.903 590.38C457.33 590.217 457.718 589.967 458.044 589.646C458.369 589.325 458.624 588.94 458.793 588.516C459.015 587.909 458.355 587.011 458.112 586.325ZM127.32 649.409C123.671 649.826 119.599 651.41 115.607 653.211C114.757 653.591 113.928 654.335 114.398 655.46C114.868 656.585 115.95 656.4 116.869 656.352C117.63 656.32 118.382 656.17 119.098 655.909C122.289 654.623 125.691 653.939 129.131 653.892C130.816 653.892 132.004 652.63 131.73 651.505C131.429 650.243 130.483 649.673 129.253 649.531C128.857 649.483 128.477 649.478 127.32 649.409ZM322.975 645.988C323.287 644.515 322.447 643.1 321.254 642.941C320.287 642.809 319.141 643.717 318.909 645C318.381 647.588 317.974 650.196 317.515 652.794C317.282 654.082 316.881 655.375 316.897 656.664C316.897 657.218 317.7 658.058 318.286 658.211C318.872 658.364 319.659 657.873 320.187 657.45C320.571 657.035 320.816 656.511 320.889 655.951C321.602 652.635 322.278 649.309 322.975 645.988ZM441.456 602.84C443.403 602.708 445.342 602.477 447.265 602.149C448.913 601.773 450.509 601.199 452.018 600.438C452.467 600.211 452.688 599.197 452.694 598.537C452.694 598.257 451.844 597.682 451.432 597.729C448.263 598.099 445.031 598.363 441.926 599.139C440.484 599.498 440.4 601.119 441.446 602.84H441.456ZM379.67 554.265C379.713 557.607 379.449 559.973 381.022 561.879C381.257 562.143 381.549 562.349 381.875 562.483C382.202 562.616 382.555 562.673 382.907 562.65C383.436 562.512 384.207 561.594 384.159 561.092C383.847 557.924 383.377 554.756 382.839 551.588C382.775 551.224 381.994 550.77 381.529 550.743C381.064 550.717 380.283 551.108 380.182 551.461C379.935 552.385 379.756 553.326 379.649 554.276L379.67 554.265ZM98.2121 652.635C99.2683 650.027 98.888 647.746 98.7402 645.502C98.7085 645.069 98.0854 644.303 97.8213 644.335C97.1612 644.42 96.2107 644.721 95.9783 645.217C95.5285 646.164 95.2951 647.199 95.2951 648.248C95.2951 649.296 95.5285 650.331 95.9783 651.278C96.216 651.891 97.3144 652.128 98.2121 652.635Z" fill="#604723"/>
<path d="M67.768 591.879C67.673 592.038 67.5832 592.201 67.4882 592.365L67.7311 591.837L67.768 591.879Z" fill="#604723"/>
<path d="M458.112 586.325C458.355 587.011 459.015 587.909 458.809 588.526C458.64 588.951 458.385 589.336 458.059 589.657C457.734 589.978 457.345 590.227 456.918 590.39C454.932 591.012 452.886 591.426 450.814 591.626C448.344 591.83 445.944 592.55 443.769 593.738C442.903 594.202 441.931 594.329 441.197 593.421C440.818 592.87 440.661 592.196 440.759 591.535C440.857 590.873 441.202 590.274 441.725 589.857C442.328 589.385 443.012 589.027 443.743 588.801C446.325 588.225 448.929 587.745 451.537 587.27C453.56 586.905 455.625 586.673 458.112 586.325Z" fill="#1B150A"/>
<path d="M127.32 649.409C128.477 649.478 128.857 649.483 129.237 649.531C130.468 649.673 131.413 650.243 131.714 651.505C131.988 652.63 130.8 653.897 129.116 653.892C125.675 653.939 122.273 654.623 119.082 655.909C118.366 656.17 117.615 656.32 116.854 656.352C115.935 656.4 114.836 656.542 114.382 655.46C113.928 654.378 114.741 653.591 115.591 653.211C119.6 651.41 123.671 649.826 127.32 649.409Z" fill="#1B150A"/>
<path d="M322.975 645.988C322.289 649.309 321.613 652.635 320.863 655.951C320.79 656.511 320.544 657.035 320.161 657.45C319.632 657.873 318.803 658.353 318.259 658.211C317.716 658.068 316.876 657.218 316.871 656.664C316.871 655.375 317.256 654.082 317.488 652.794C317.948 650.196 318.376 647.588 318.883 645C319.136 643.717 320.261 642.809 321.227 642.941C322.447 643.1 323.276 644.515 322.975 645.988Z" fill="#604723"/>
<path d="M441.446 602.84C440.389 601.119 440.484 599.498 441.916 599.144C445.005 598.368 448.252 598.088 451.421 597.735C451.833 597.687 452.683 598.263 452.683 598.542C452.683 599.202 452.456 600.216 452.007 600.443C450.498 601.204 448.902 601.779 447.254 602.154C445.331 602.481 443.392 602.71 441.446 602.84Z" fill="#1B150A"/>
<path d="M379.649 554.276C379.755 553.326 379.931 552.385 380.177 551.461C380.278 551.108 381.07 550.717 381.524 550.743C381.978 550.77 382.77 551.224 382.834 551.588C383.362 554.756 383.842 557.924 384.154 561.092C384.201 561.62 383.436 562.512 382.902 562.65C382.55 562.673 382.197 562.616 381.87 562.483C381.543 562.349 381.252 562.143 381.017 561.879C379.427 559.983 379.691 557.618 379.649 554.276Z" fill="#1B150A"/>
<path d="M98.2121 652.635C97.3143 652.107 96.2159 651.891 95.936 651.278C95.4862 650.331 95.2528 649.296 95.2528 648.248C95.2528 647.199 95.4862 646.164 95.936 645.217C96.1684 644.721 97.1189 644.42 97.779 644.335C98.0431 644.304 98.6662 645.069 98.6979 645.502C98.888 647.746 99.2577 650.027 98.2121 652.635Z" fill="#1B150A"/>
</g>
<defs>
<filter id="filter0_d" x="0.838711" y="0.838711" width="522.323" height="712.258" filterUnits="userSpaceOnUse" color-interpolation-filters="sRGB">
<feFlood flood-opacity="0" result="BackgroundImageFix"/>
<feColorMatrix in="SourceAlpha" type="matrix" values="0 0 0 0 0 0 0 0 0 0 0 0 0 0 0 0 0 0 127 0" result="hardAlpha"/>
<feOffset/>
<feGaussianBlur stdDeviation="18.5806"/>
<feColorMatrix type="matrix" values="0 0 0 0 1 0 0 0 0 1 0 0 0 0 1 0 0 0 0.3 0"/>
<feBlend mode="normal" in2="BackgroundImageFix" result="effect1_dropShadow"/>
<feBlend mode="normal" in="SourceGraphic" in2="effect1_dropShadow" result="shape"/>
</filter>
<clipPath id="clip0">
<rect width="448" height="637.935" fill="white" transform="translate(38 38)"/>
</clipPath>
<clipPath id="clip1">
<rect width="161.15" height="212.977" fill="white" transform="matrix(-1 -8.81555e-09 -8.81555e-09 1 476.15 157)"/>
</clipPath>
<clipPath id="clip2">
<rect width="161.15" height="212.977" fill="white" transform="matrix(-1 -8.81555e-09 -8.81555e-09 1 476.15 157)"/>
</clipPath>
<clipPath id="clip3">
<rect width="161.15" height="212.977" fill="white" transform="matrix(-1 -8.81555e-09 -8.81555e-09 1 476.15 157)"/>
</clipPath>
</defs>
</svg>
