<svg width="207" height="59" viewBox="0 0 207 59" fill="none" xmlns="http://www.w3.org/2000/svg">
<path d="M17.5293 5.70755L18.243 2.28108L7.96355 0.140123L7.2499 3.56659L17.5293 5.70755ZM5.82259 10.4195L16.102 12.5605L14.6747 19.4134L18.1012 20.1271L20.9558 6.4212L17.5293 5.70755L16.8157 9.13402L6.53625 6.99306L7.2499 3.56659L3.82343 2.85294L0.968819 16.5588L4.39529 17.2725L5.82259 10.4195ZM40.801 14.1296L41.5146 10.7031L38.0881 9.98946L37.3745 13.4159L40.801 14.1296ZM26.3814 14.7014L36.6608 16.8424L37.3745 13.4159L27.0951 11.275L27.8087 7.84851L38.0881 9.98946L38.8018 6.56299L25.0959 3.70838L21.5276 20.8407L24.9541 21.5544L26.3814 14.7014ZM62.0734 14.985L62.7871 11.5586L49.0812 8.70395L48.3675 12.1304L62.0734 14.985ZM46.9402 18.9834L60.6461 21.838L61.3598 18.4115L47.6539 15.5569L48.3675 12.1304L44.9411 11.4168L42.8001 21.6962L46.2266 22.4098L46.9402 18.9834ZM59.2188 28.6909L59.9325 25.2644L46.2266 22.4098L45.5129 25.8363L59.2188 28.6909ZM86.0587 19.9806L89.4852 20.6942L90.1988 17.2678L79.9194 15.1268L79.2058 18.5533L82.6323 19.2669L80.4913 29.5464L77.0648 28.8327L76.3512 32.2592L86.6306 34.4001L87.3442 30.9737L83.9178 30.26L86.0587 19.9806ZM96.3381 22.1216L97.0518 18.6951L93.6253 17.9814L90.0571 35.1138L93.4835 35.8274L95.6245 25.548L99.051 26.2617L99.7646 22.8352L96.3381 22.1216ZM107.331 20.836L105.19 31.1154L101.764 30.4018L101.05 33.8283L104.477 34.5419L103.763 37.9684L107.189 38.682L110.758 21.5497L107.331 20.836ZM99.051 26.2617L98.3373 29.6881L101.764 30.4018L102.477 26.9753L99.051 26.2617ZM140.882 31.399L141.596 27.9726L131.316 25.8316L130.603 29.2581L140.882 31.399ZM129.176 36.111L139.455 38.252L138.028 45.1049L141.454 45.8186L144.309 32.1127L140.882 31.399L140.169 34.8255L129.889 32.6845L130.603 29.2581L127.176 28.5444L124.322 42.2503L127.748 42.964L129.176 36.111ZM151.162 33.54L151.875 30.1135L148.449 29.3999L144.881 46.5322L148.307 47.2459L150.448 36.9665L153.874 37.6801L154.588 34.2536L151.162 33.54ZM162.155 32.2545L160.014 42.5339L156.587 41.8202L155.874 45.2467L159.3 45.9604L158.586 49.3868L162.013 50.1005L165.581 32.9681L162.155 32.2545ZM153.874 37.6801L153.161 41.1066L156.587 41.8202L157.301 38.3938L153.874 37.6801ZM182 39.9629L182.714 36.5364L172.434 34.3954L171.72 37.8219L182 39.9629ZM171.72 37.8219L168.294 37.1082L166.153 47.3877L169.58 48.1013L171.72 37.8219ZM179.859 50.2423L183.285 50.9559L185.426 40.6765L182 39.9629L179.859 50.2423ZM169.58 48.1013L168.866 51.5278L179.145 53.6687L179.859 50.2423L169.58 48.1013ZM192.279 42.1038L192.993 38.6773L189.566 37.9637L185.998 55.096L189.425 55.8097L191.566 45.5303L194.992 46.2439L195.706 42.8175L192.279 42.1038ZM203.272 40.8183L201.131 51.0977L197.705 50.3841L196.991 53.8105L200.418 54.5242L199.704 57.9507L203.131 58.6643L206.699 41.5319L203.272 40.8183ZM194.992 46.2439L194.278 49.6704L197.705 50.3841L198.419 46.9576L194.992 46.2439Z" fill="#B6BCF8"/>
</svg>
