<svg width="259" height="379" viewBox="0 0 259 379" fill="none" xmlns="http://www.w3.org/2000/svg">
<g clip-path="url(#clip0)">
<path d="M26.3139 91.5982C25.9392 92.2665 25.5713 92.9542 25.2418 93.6286C24.583 94.9773 24.0143 96.3382 23.4459 97.699C23.181 98.3728 22.9423 99.0593 22.7226 99.7392C21.832 102.412 21.232 105.172 20.933 107.973C20.782 109.346 20.7084 110.725 20.7128 112.106C20.7133 112.862 20.7523 113.604 20.7981 114.365C20.8438 115.126 20.8939 115.649 20.9837 116.287C21.0735 116.925 21.158 117.673 21.2804 118.343C21.4069 119.157 21.5759 119.963 21.7867 120.759C21.9525 121.242 22.0217 121.758 22.1749 122.266C22.3281 122.775 22.7255 123.869 23.0041 124.679C23.5442 126.253 24.1682 127.796 24.8735 129.303C37.0001 156.213 55.0109 180.058 77.5782 199.082C97.9654 216.078 118.155 233.314 138.388 250.427C140.001 251.493 141.352 252.911 142.338 254.574C142.829 256.002 141.913 257.482 139.788 260.781C139.346 261.347 138.987 261.971 138.72 262.637C138.368 263.622 137.848 264.685 137.458 265.747C137.351 265.992 137.265 266.246 137.2 266.505L137.088 266.932C137.017 267.213 136.964 267.498 136.928 267.786L136.9 268.205C136.86 268.661 136.916 269.12 137.064 269.552C137.213 269.984 137.451 270.38 137.762 270.715C139.743 272.775 142.664 270.973 145.008 269.693C149.536 267.23 154.288 267.993 159.015 268.937C161.57 269.463 164.124 269.988 166.732 270.603C169.339 271.218 171.938 271.684 174.641 272.202C174.778 267.463 174.061 262.737 172.524 258.252C170.253 250.701 167.397 243.33 165.615 235.632C165.512 235.11 165.378 234.594 165.214 234.087C165.109 233.639 164.893 233.224 164.586 232.881C164.28 232.538 163.892 232.276 163.459 232.121C161.459 231.578 160.579 233.413 159.564 234.668C157.941 236.747 156.78 239.148 156.156 241.71C155.488 244.098 154.067 246.183 151.148 245.978C150.427 245.96 149.731 245.713 149.16 245.273C148.59 244.832 148.175 244.221 147.975 243.528L147.803 243.026L147.625 241.944L147.581 241.376C147.568 240.996 147.497 240.62 147.37 240.261C146.767 238.505 144.997 237.753 143.581 236.707C134.917 230.338 126.081 224.158 117.584 217.581C99.7246 203.861 85.8542 186.547 73.6874 167.784C72.2057 165.544 71.0061 163.129 70.1159 160.594C69.5861 159.06 69.2022 157.479 68.9687 155.873C67.1912 144.418 75.6259 137.182 86.5451 141.07C88.4103 141.724 90.2373 142.456 92.0457 143.26C92.9595 143.658 93.8541 144.063 94.6395 144.527L97.2332 145.794C98.1151 146.225 99.0036 146.675 99.827 147.061C102.454 148.425 105.107 149.865 107.587 151.366C144.103 172.273 180.276 193.752 215.189 217.282C230.13 227.626 244.438 238.854 258.039 250.905C258.254 251.09 258.893 251.82 259.931 253.018L261.034 254.344L264.128 258.072L265.506 259.757C265.631 259.879 265.743 260.015 265.839 260.161L267.732 262.467L268.698 263.646L270.487 265.837L274.6 270.899L276.858 273.512C282.368 280.252 289.055 288.595 296.669 298.065L299.758 301.904L301.345 303.884L303.304 306.319L303.99 307.184L304.669 308.03C314.138 304.891 325.112 301.235 337.592 297.062L336.894 296.223L336.195 295.383L321.021 277.352L317.927 273.688L313.966 269.006L312.008 266.7L310.083 264.426L308.164 262.172L306.924 260.699L305.005 258.444L298.976 251.386L295.791 247.646L287.178 237.655L284.816 234.927L282.494 232.25L274.697 223.317L273.627 222.088L272.258 220.551L268.729 216.562L268.35 216.152L267.117 214.763C262.069 209.116 257.857 204.52 254.585 201.155L253.888 200.445C251.974 198.349 249.871 196.435 247.606 194.725C226.689 181.214 207.124 165.857 186.494 151.988C158.401 133.043 129.987 114.294 99.2411 99.6274C83.7904 92.5718 67.9117 86.494 51.6988 81.4298C39.4217 77.2955 32.5739 80.231 26.3139 91.5982Z" fill="#FF6C0E"/>
<path d="M54.5024 73.2573C71.0484 78.4226 87.252 84.6271 103.017 91.8334C133.315 106.265 160.942 124.356 191.386 144.803C200.707 151.075 209.915 157.71 218.811 164.128C229.709 171.974 240.958 180.088 252.361 187.458C259.627 192.148 292.771 230.186 345.006 292.443L345.704 293.282L346.402 294.121C343.429 295.142 340.611 296.111 337.696 297.112L336.998 296.273L336.299 295.434L321.125 277.403L318.031 273.739L314.07 269.057L312.112 266.751L310.187 264.477L308.268 262.223L307.028 260.749L305.109 258.495L299.08 251.437L295.895 247.696L287.282 237.706L284.92 234.978L282.597 232.301L274.801 223.368L273.731 222.138L272.361 220.602L268.832 216.613L268.454 216.203L267.221 214.814C262.173 209.167 257.96 204.571 254.689 201.205L253.992 200.495C252.078 198.4 249.975 196.485 247.71 194.776C226.793 181.264 207.228 165.907 186.598 152.038C158.505 133.093 130.091 114.344 99.3449 99.6779C83.8942 92.6223 68.0155 86.5445 51.8026 81.4802C39.4096 77.3857 32.5619 80.3216 26.3019 91.6888C25.9272 92.3571 25.5593 93.0447 25.2298 93.7191C24.5516 95.0745 23.9959 96.4093 23.4341 97.7895C23.1692 98.4633 22.9301 99.1496 22.7105 99.8295C21.825 102.503 21.2251 105.263 20.9209 108.063C20.7699 109.436 20.6964 110.816 20.7008 112.197C20.7013 112.952 20.7405 113.694 20.7863 114.455C20.832 115.217 20.8818 115.739 20.9716 116.377C21.0614 117.016 21.1525 117.783 21.2683 118.434C21.3948 119.247 21.5639 120.054 21.7747 120.85C21.9405 121.332 22.0099 121.848 22.1631 122.357C22.3163 122.865 22.7137 123.959 22.9922 124.77C23.5324 126.343 24.1562 127.887 24.8614 129.394C36.988 156.303 54.9988 180.149 77.566 199.172C97.9533 216.168 118.143 233.404 138.376 250.518C139.989 251.584 141.34 253.001 142.326 254.664C142.817 256.093 141.901 257.573 139.775 260.872C139.334 261.437 138.975 262.062 138.708 262.728C138.356 263.712 137.836 264.776 137.446 265.838C137.339 266.083 137.253 266.336 137.188 266.596L137.076 267.022C136.983 267.298 136.929 267.585 136.916 267.876C136.888 268.014 136.878 268.155 136.888 268.296C136.859 268.709 136.913 269.123 137.047 269.515C137.213 269.99 137.487 270.42 137.846 270.772C139.828 272.833 142.748 271.031 145.093 269.75C149.621 267.288 154.372 268.051 159.1 268.995C161.654 269.52 164.209 270.045 166.816 270.66C169.423 271.275 172.029 271.761 174.726 272.259C174.862 267.52 174.145 262.795 172.609 258.31C170.338 250.759 167.481 243.387 165.7 235.69C165.596 235.167 165.462 234.651 165.298 234.144C165.193 233.696 164.977 233.282 164.671 232.938C164.364 232.595 163.977 232.334 163.543 232.179C161.544 231.636 160.663 233.47 159.649 234.726C158.026 236.804 156.864 239.205 156.241 241.767C155.572 244.155 154.152 246.241 151.232 246.035C150.512 246.018 149.815 245.771 149.245 245.33C148.674 244.89 148.259 244.278 148.059 243.586L147.887 243.084L147.709 242.001L147.665 241.433C147.652 241.053 147.581 240.677 147.455 240.319C146.851 238.562 145.082 237.81 143.665 236.764C135.002 230.396 126.166 224.216 117.668 217.639C99.8092 203.918 85.9386 186.604 73.7719 167.842C72.2902 165.601 71.0907 163.186 70.2005 160.651C69.6707 159.117 69.2864 157.536 69.053 155.93C67.2754 144.476 75.7102 137.239 86.6295 141.128C88.4819 141.808 90.3285 142.533 92.1303 143.317L94.724 144.584L97.3178 145.851C98.1996 146.282 99.0882 146.732 99.9115 147.118C102.538 148.482 105.192 149.923 107.672 151.423C144.188 172.33 180.361 193.809 215.274 217.339C230.214 227.683 244.523 238.911 258.124 250.962C258.338 251.148 258.978 251.878 260.015 253.075L261.118 254.401L264.212 258.13L265.59 259.815C265.715 259.937 265.827 260.072 265.923 260.218L267.816 262.525L268.782 263.704L270.571 265.895L274.685 270.956L276.858 273.512C282.368 280.252 289.055 288.595 296.669 298.065L299.758 301.904L301.345 303.884L303.304 306.319L303.99 307.184L304.669 308.029C301.638 309.071 298.762 310.059 296.04 310.995L295.361 310.149L294.682 309.303C270.847 279.635 255.156 260.292 252.489 257.366C239.221 245.624 225.269 234.678 210.706 224.585C173.357 199.432 135.622 177.303 103.623 158.987C97.2996 155.173 90.6559 151.916 83.7673 149.255C82.973 148.854 82.093 148.653 81.2034 148.669C80.3138 148.685 79.4415 148.918 78.6622 149.348C78.0516 150.09 77.6289 150.968 77.4297 151.908C77.2305 152.848 77.2608 153.822 77.5179 154.748C77.6889 155.83 77.9535 156.894 78.3089 157.93C78.9768 159.805 79.8666 161.593 80.9595 163.257C94.6443 184.239 107.881 199.332 122.893 210.922C128.464 215.202 134.294 219.415 139.954 223.514C142.887 225.643 145.781 227.785 148.637 229.941L149.254 230.354C149.78 230.692 150.475 231.144 151.21 231.712C151.711 230.913 152.263 230.147 152.86 229.418L153.109 229.073C157.574 223.222 162.362 223.088 165.734 224.044C167.505 224.557 169.119 225.503 170.43 226.797C171.742 228.092 172.71 229.693 173.245 231.457C173.488 232.181 173.691 232.918 173.853 233.665L173.906 233.82C175.001 238.451 176.502 243.007 178.096 247.834C178.991 250.44 179.92 253.143 180.682 255.924C182.502 261.347 183.344 267.051 183.167 272.769L182.679 282.779L172.867 280.732L167.939 279.706C164.311 278.946 160.792 278.191 157.287 277.474C153.148 276.738 150.809 276.398 149.068 277.363L148.682 277.495C137.956 283.339 133.127 278.394 131.55 276.756C130.325 275.496 129.391 273.982 128.817 272.321C127.755 268.575 128.178 264.565 129.998 261.123L130.453 259.996C130.865 258.803 131.444 257.674 132.171 256.643L112.249 239.746C99.0424 228.571 85.3992 217.007 71.9008 205.738C48.31 185.953 29.5072 161.082 16.9033 132.992C16.0802 131.217 15.3481 129.401 14.71 127.551C12.4236 120.99 11.5935 114.009 12.2777 107.094C12.962 100.18 15.144 93.4975 18.6721 87.5116C27.0607 72.4776 38.4123 67.9511 54.5024 73.2573Z" fill="#101820"/>
</g>
<defs>
<clipPath id="clip0">
<rect width="311" height="259.418" fill="white" transform="matrix(-0.324963 -0.945727 -0.945727 0.324963 346.402 294.121)"/>
</clipPath>
</defs>
</svg>
