<svg width="251" height="174" viewBox="0 0 251 174" fill="none" xmlns="http://www.w3.org/2000/svg">
<g clip-path="url(#clip0)">
<path d="M198.449 164.047L198.336 171.556L39.6201 169.171L39.7331 161.662L92.5982 162.5L92.7177 154.893L77.6733 154.658L77.7859 147.132L85.339 147.235L92.9187 147.346L100.463 147.459L100.575 139.914L108.041 140.073L107.818 155.233L100.398 155.117L100.265 162.555L115.346 162.789L115.796 132.665L123.367 132.785L122.916 162.892L137.934 163.118L138.047 155.591L130.618 155.467L130.851 140.387L138.36 140.5L138.239 148.054L168.496 148.51L168.386 156.107L145.734 155.736L145.622 163.28L198.495 164.108L198.449 164.047Z" fill="#24272A"/>
<path d="M184.78 65.5699L184.471 88.2466L176.926 88.1167L177.159 73.0011L175.844 72.9823L158.765 72.7391L71.3245 71.4172L71.4633 63.8631L78.9888 63.9405L86.551 64.0523L101.657 64.2764L109.229 64.3967L131.897 64.7326L139.459 64.8444L154.575 65.0772L162.137 65.1889L169.681 65.3011L177.261 65.4126L184.78 65.5699Z" fill="#24272A"/>
<path d="M131.915 64.7322L109.246 64.3963C109.278 62.2281 109.265 60.0521 109.359 57.8912C109.399 57.0285 109.101 56.8321 108.275 56.8627C106.099 56.8756 103.93 56.8083 101.762 56.7766L101.865 49.2237L109.374 49.3369L109.507 41.8987L124.676 42.1299L124.534 49.5774C122.313 49.547 120.074 49.5347 117.852 49.4689C117.229 49.4497 116.94 49.5906 116.914 50.3108C116.922 52.2914 116.885 54.2645 116.822 56.247C116.811 56.8602 117.012 57.0681 117.66 57.0422C119.605 57.0354 121.56 57.0548 123.507 57.1368C124.29 57.1695 124.45 56.8543 124.441 56.1528C124.445 53.9587 124.494 51.7547 124.534 49.5596L132.078 49.6717L131.915 64.7322Z" fill="#FF8672"/>
<path d="M184.471 88.2467L191.998 88.3594L191.885 95.8859L199.474 96.006L199.354 103.595L191.818 103.491L191.595 118.598L191.483 126.178L191.362 133.731L183.765 133.62L184.091 110.943L184.203 103.363L184.462 88.2558L184.471 88.2467Z" fill="#24272A"/>
<path d="M101.666 64.285L86.5601 64.0609C86.5991 61.8303 86.6026 59.6008 86.6684 57.3784C86.6953 56.7115 86.4589 56.5045 85.7574 56.5141C83.5277 56.5106 81.3059 56.4624 79.0758 56.4411L79.1975 48.9232L86.7419 49.0355L86.8546 41.5089L102.014 41.7317L101.864 49.1881C99.625 49.1582 97.3948 49.1371 95.1633 49.0626C94.4878 49.0449 94.2894 49.2722 94.299 49.9736C94.3028 51.9159 94.2742 53.8677 94.2133 55.8294C94.1865 56.4963 94.4224 56.6855 95.1244 56.6937C97.3627 56.6881 99.5938 56.7447 101.824 56.7837L101.666 64.285Z" fill="#FF8672"/>
<path d="M169.69 65.3098L162.146 65.1975C162.218 60.5056 162.263 55.8233 162.38 51.139C162.393 50.286 162.13 50.0709 161.287 50.1019C159.129 50.1143 156.95 50.0384 154.782 49.9889L154.923 42.5416L170.012 42.766L169.87 50.2135L177.477 50.333L177.357 57.9041C175.135 57.8738 172.905 57.8527 170.673 57.7782C170.025 57.7686 169.79 57.9613 169.809 58.6892C169.786 60.8483 169.729 63.0792 169.69 65.3098Z" fill="#FF8672"/>
<path d="M40.5344 108.762L40.6471 101.236L48.1651 101.358L48.2759 93.7599L55.8736 93.8708L55.7978 101.45L55.4442 124.119L47.8902 123.98L48.1144 108.873L40.5344 108.762Z" fill="#24272A"/>
<path d="M154.584 65.0859L139.468 64.8531C139.54 60.1434 139.594 55.4341 139.691 50.7149C139.707 49.9683 139.497 49.734 138.707 49.7814C136.505 49.8038 134.31 49.7463 132.106 49.7154L132.256 42.259L147.416 42.4815L147.257 49.9473C147.21 52.2047 147.189 54.4704 147.116 56.7374C147.098 57.3952 147.376 57.5211 147.954 57.5326C149.811 57.5636 151.705 57.6291 153.614 57.5877C154.422 57.5753 154.72 57.7718 154.698 58.6163C154.603 60.7417 154.616 62.9177 154.584 65.0859Z" fill="#FF8672"/>
<path d="M214.263 118.934L221.72 119.084L221.272 149.314L213.763 149.201L213.797 146.464L214.072 126.524L214.219 118.961L214.263 118.934Z" fill="#24272A"/>
<path d="M32.5155 138.872L25.0158 138.768L25.3603 116.09L32.8168 116.24L32.6202 131.373L32.4181 138.884L32.5155 138.872Z" fill="#24272A"/>
<path d="M39.8454 154.118L39.9659 146.546L47.527 146.623L55.107 146.734L62.5544 146.875L62.4431 154.455L39.8276 154.118L39.8454 154.118Z" fill="#24272A"/>
<path d="M154.584 65.0859C154.616 62.9177 154.603 60.7417 154.706 58.5716C154.745 57.709 154.447 57.5125 153.621 57.5431C151.73 57.5662 149.879 57.4552 147.962 57.4879C147.384 57.4765 147.105 57.3505 147.124 56.6927C147.197 54.4257 147.217 52.1601 147.265 49.9027L154.79 49.9798C156.959 50.0293 159.137 50.1053 161.295 50.0929C162.112 50.0891 162.376 50.3042 162.389 51.13C162.272 55.8142 162.19 60.462 162.155 65.1885L154.584 65.0859Z" fill="#BC2F2C"/>
<path d="M63.5566 86.4292L63.7803 71.3048L71.3423 71.4168L71.2569 78.9692L71.0377 86.4986L63.5019 86.3772L63.5566 86.4292Z" fill="#24272A"/>
<path d="M199.354 103.595L206.916 103.707L206.804 111.269L199.242 111.157L199.354 103.595Z" fill="#24272A"/>
<path d="M32.8773 116.177L32.9896 108.632L40.5603 108.735L40.4304 116.28L32.8865 116.185L32.8773 116.177Z" fill="#24272A"/>
<path d="M206.123 156.597L206.011 164.159L198.449 164.047L198.543 156.468L206.123 156.597Z" fill="#24272A"/>
<path d="M55.8736 93.8707L55.9944 86.3173L63.548 86.4382L63.4271 93.9915C60.9264 93.9271 58.4116 93.8898 55.8827 93.8794L55.8736 93.8707Z" fill="#24272A"/>
<path d="M184.78 65.5699L177.296 65.3939L177.382 57.8769L184.857 58.0444L184.78 65.5699Z" fill="#FF8672"/>
<path d="M39.9659 146.546L32.4038 146.435L32.5154 138.872L40.0777 138.984L39.9659 146.546Z" fill="#24272A"/>
<path d="M78.9979 63.9492L71.4724 63.8718L71.5837 56.292L79.0926 56.4052L78.9979 63.9492Z" fill="#FF8672"/>
<path d="M213.798 149.165L213.677 156.718L206.123 156.597L206.217 149.035L213.789 149.156L213.798 149.165Z" fill="#24272A"/>
<path d="M39.7331 161.662L32.2333 161.557L32.3458 154.013L39.8454 154.118L39.7336 161.68L39.7331 161.662Z" fill="#24272A"/>
<path d="M206.804 111.269L213.211 111.358C214.286 111.374 214.372 111.611 214.294 112.679C214.195 114.006 214.284 115.336 214.283 116.668C214.294 117.423 214.27 118.178 214.263 118.934L206.718 118.804L206.821 111.251L206.804 111.269Z" fill="#24272A"/>
<path d="M71.2391 78.9696L71.3245 71.4172L158.765 72.7391L175.844 72.9823L177.159 73.001L176.926 88.1167L169.338 88.0143C169.386 85.8101 169.382 83.6075 169.466 81.4024C169.49 80.6467 169.218 80.4228 168.463 80.4516C166.575 80.4599 164.685 80.4327 162.794 80.37C162.1 80.335 161.849 80.5814 161.93 81.281C161.899 83.1383 161.914 85.0564 161.839 86.9414C161.823 87.6703 162.035 87.9579 162.789 87.947C164.992 87.9423 167.196 87.9907 169.4 88.0215C169.37 90.2608 169.349 92.491 169.283 94.7134C169.265 95.3712 169.485 95.614 170.151 95.6231C172.07 95.6258 173.989 95.6465 175.9 95.7117C176.665 95.7448 176.879 95.446 176.851 94.7094C176.846 92.5067 176.913 90.3022 176.953 88.1071L184.497 88.237L184.238 103.344C182.043 103.322 179.84 103.309 177.644 103.251C176.96 103.225 176.681 103.446 176.682 104.156C176.643 106.023 176.668 107.985 176.594 109.906C176.577 110.617 176.84 110.832 177.505 110.77C179.708 110.783 181.904 110.841 184.107 110.872L183.781 133.549L176.218 133.437L176.098 141.008L168.527 140.888L168.415 148.468L138.158 148.012L138.279 140.458L145.745 140.617L145.895 133.161L138.438 133.01L138.288 140.467L130.779 140.354L130.546 155.434L137.975 155.558L137.862 163.084L122.844 162.858L123.295 132.752L115.724 132.631L115.274 162.755L100.194 162.522L100.326 155.083L107.746 155.199L107.969 140.039L100.504 139.88L100.616 132.336L93.0714 132.224C90.9295 132.183 88.7978 132.185 86.6546 132.091C85.7742 132.052 85.452 132.3 85.45 133.233C85.4213 137.879 85.3034 142.51 85.2487 147.184L77.6958 147.081L77.8074 139.519L70.2364 139.398L70.3477 131.818L62.7678 131.707L62.8615 124.128L70.4325 124.248L138.456 125.273L146.018 125.385L153.554 125.488C153.491 130.171 153.445 134.854 153.355 139.546C153.332 140.355 153.536 140.669 154.397 140.656C156.185 140.62 157.977 140.647 159.773 140.736C160.698 140.783 160.938 140.457 160.914 139.534C160.951 134.878 161.07 130.247 161.124 125.573C163.337 125.613 165.531 125.617 167.727 125.71C168.501 125.735 168.68 125.437 168.67 124.717C168.754 117.804 168.859 110.888 168.985 103.968C168.992 103.231 168.781 102.979 168.035 102.981C165.832 102.985 163.628 102.919 161.432 102.879C161.463 100.675 161.468 98.481 161.543 96.285C161.576 95.5203 161.305 95.3143 160.55 95.343C158.356 95.3386 156.151 95.2723 153.956 95.2324L154.051 87.7061C154.092 85.5465 154.097 83.3703 154.182 81.2007C154.214 80.3827 153.976 80.1047 153.132 80.1002C150.396 80.1012 147.624 80.0675 144.921 79.9965C135.81 79.8692 126.702 79.7389 117.597 79.6056C116.69 79.5939 116.386 79.8419 116.401 80.7564C116.44 82.905 116.372 85.0386 116.348 87.1799L116.236 94.7064L138.913 95.051L138.81 102.622L87.4035 101.834C86.9059 101.83 86.3989 101.799 85.9014 101.794L86.0687 94.3193L93.6024 94.3698L108.7 94.6028L108.859 87.1373L108.973 80.9963C108.997 79.5656 108.997 79.5655 107.567 79.541L71.2391 78.9696Z" fill="#4A9462"/>
<path d="M39.7245 161.671L39.8363 154.109L62.4517 154.446L62.563 146.866L55.1156 146.725L55.3309 131.628L62.8934 131.757L62.7822 139.337L70.3621 139.448L70.2415 147.02L77.8215 147.131L77.7087 154.657L92.7532 154.892L92.6337 162.499L39.7245 161.671Z" fill="#4A9462"/>
<path d="M198.561 156.485L198.468 164.065L145.594 163.236L145.706 155.692L168.313 156.038L168.424 148.441L176.003 148.552L175.892 156.132L198.578 156.467L198.561 156.485Z" fill="#4A9462"/>
<path d="M85.2938 147.209C85.3666 142.553 85.4662 137.905 85.4949 133.258C85.497 132.326 85.8192 132.077 86.6996 132.116C88.8429 132.211 90.9745 132.208 93.1163 132.249L92.9403 139.733L92.828 147.278L85.2938 147.209Z" fill="#2A7050"/>
<path d="M92.8735 147.321L92.986 139.776L100.548 139.906L100.436 147.45L92.8735 147.321Z" fill="#4A9462"/>
<path d="M132.149 49.6698C134.353 49.7006 136.548 49.7584 138.75 49.736C139.497 49.7341 139.707 49.9685 139.734 50.6695C139.637 55.3887 139.583 60.0978 139.512 64.8075L131.95 64.6957L132.149 49.6698Z" fill="#BC2F2C"/>
<path d="M177.366 57.9127L177.279 65.4298L169.7 65.3184C169.739 63.0878 169.795 60.8569 169.799 58.6272C169.799 57.9699 170.034 57.7772 170.663 57.7162C172.905 57.8526 175.135 57.8737 177.366 57.9127Z" fill="#BC2F2C"/>
<path d="M101.666 64.285L101.779 56.7583C103.947 56.79 106.117 56.8573 108.293 56.8444C109.092 56.8411 109.39 57.0375 109.377 57.8729C109.283 60.0338 109.295 62.2098 109.264 64.378L101.666 64.285Z" fill="#BC2F2C"/>
<path d="M78.9979 63.9492L79.1655 56.4743C81.3956 56.4955 83.6174 56.5438 85.8471 56.5473C86.4953 56.5391 86.7317 56.746 86.7581 57.4115C86.6922 59.6339 86.6888 61.8635 86.6498 64.0941L78.9979 63.9492Z" fill="#BC2F2C"/>
<path d="M124.577 49.5316C124.538 51.7267 124.489 53.9309 124.484 56.1251C124.494 56.8266 124.334 57.1415 123.551 57.1088C121.621 57.0086 119.649 57.0075 117.704 57.0142C117.091 57.0037 116.89 56.7958 116.866 56.2191C116.974 54.2798 116.966 52.2637 116.958 50.2831C116.958 49.5902 117.247 49.4493 117.895 49.4412C120.118 49.507 122.356 49.5191 124.578 49.5494L124.577 49.5316Z" fill="#BC2F2C"/>
<path d="M101.788 56.7669C99.5578 56.7279 97.3268 56.6713 95.0885 56.677C94.4398 56.6674 94.2039 56.4782 94.1775 55.8127C94.2441 53.8449 94.2725 51.893 94.263 49.9568C94.2635 49.2995 94.4618 49.0722 95.1273 49.0458C97.3588 49.1203 99.589 49.1413 101.828 49.1712L101.788 56.7669Z" fill="#BC2F2C"/>
<path d="M206.821 111.251L206.718 118.804C206.678 120.999 206.674 123.193 206.581 125.389C206.557 126.198 206.865 126.403 207.637 126.392C209.805 126.388 211.965 126.447 214.133 126.478L213.858 146.418L213.824 149.155L206.253 149.035C206.333 144.316 206.387 139.607 206.484 134.887C206.501 134.176 206.298 133.88 205.543 133.891C203.722 133.894 201.892 133.889 200.026 133.849C199.101 133.803 198.852 134.12 198.885 135.052C198.856 139.698 198.738 144.329 198.702 149.003L176.015 148.649L176.118 141.079L183.689 141.199L183.8 133.619L191.398 133.73L191.519 126.177C193.722 126.207 195.916 126.212 198.121 126.278C198.797 126.296 199.066 126.084 198.985 125.367C199.025 123.501 199.009 121.529 199.074 119.618C199.1 118.915 198.828 118.691 198.163 118.753C195.96 118.74 193.755 118.692 191.56 118.652L191.784 103.546L199.32 103.649L199.208 111.211L206.821 111.251Z" fill="#4A9462"/>
<path d="M184.154 110.968C181.95 110.937 179.755 110.879 177.552 110.866C176.868 110.875 176.605 110.66 176.641 110.002C176.724 108.09 176.781 106.206 176.729 104.253C176.728 103.542 177.007 103.322 177.691 103.348C179.887 103.406 182.09 103.419 184.285 103.441L184.154 110.968Z" fill="#2A7050"/>
<path d="M191.612 118.579C193.807 118.619 196.011 118.668 198.214 118.681C198.889 118.681 199.162 118.905 199.125 119.545C199.051 121.448 198.985 123.342 199.037 125.295C199.038 126.005 198.768 126.217 198.173 126.206C195.968 126.139 193.774 126.135 191.57 126.104L191.612 118.579Z" fill="#2A7050"/>
<path d="M85.9919 101.863C86.4894 101.868 86.9965 101.898 87.4941 101.903L138.901 102.69L138.78 110.226C138.398 110.227 138.016 110.246 137.643 110.238L64.3589 109.139L63.2303 109.124L63.118 116.668L62.9161 124.179L55.3718 124.067L55.7254 101.398C58.2079 101.445 60.7133 101.474 63.2422 101.485C68.2833 101.547 73.3278 101.619 78.3753 101.699L85.9919 101.863Z" fill="#9BAE88"/>
<path d="M39.9486 146.564L40.0604 139.002L32.4982 138.891L32.7003 131.379C34.8949 131.401 37.0981 131.415 39.2936 131.472C39.9783 131.499 40.248 131.287 40.2125 130.613C40.2651 125.863 40.3298 121.118 40.4064 116.378L40.5363 108.833L48.1162 108.945L47.892 124.051L47.5207 146.721L39.9486 146.564Z" fill="#4A9462"/>
<path d="M47.5096 146.641L47.8811 123.971L55.435 124.11L55.3233 131.672L55.1078 146.769L47.5096 146.641Z" fill="#2A7050"/>
<path d="M63.2965 101.519C60.8019 101.46 58.2964 101.431 55.7796 101.432L55.8554 93.8535C58.35 93.9122 60.8649 93.9496 63.3998 93.9657L63.2965 101.519Z" fill="#4A9462"/>
<path d="M214.116 126.496C211.948 126.465 209.788 126.406 207.62 126.41C206.865 126.403 206.558 126.198 206.564 125.407C206.657 123.211 206.661 121.017 206.701 118.822L214.246 118.952L214.116 126.496Z" fill="#2A7050"/>
<path d="M40.3953 116.298C40.3249 121.044 40.2603 125.789 40.2016 130.534C40.2026 131.244 39.9327 131.456 39.2826 131.393C37.0871 131.335 34.8838 131.322 32.6892 131.3L32.886 116.167L40.3953 116.298Z" fill="#2A7050"/>
<path d="M71.2392 78.9697L107.575 79.5319C109.006 79.5564 109.006 79.5565 108.981 80.9872L108.868 87.1282C103.832 87.0476 98.7997 86.9757 93.7704 86.9127C88.3436 86.8187 82.9139 86.7278 77.4814 86.6399C75.3487 86.6072 73.2078 86.6014 71.0842 86.5774L71.2392 78.9697Z" fill="#2A7050"/>
<path d="M63.4089 93.9744L63.5297 86.4209L71.0655 86.5423L70.9699 94.0507L63.4266 93.9738L63.4089 93.9744Z" fill="#4A9462"/>
<path d="M206.218 149.071L206.124 156.633L198.544 156.504L198.656 148.942L206.2 149.054L206.218 149.071Z" fill="#4A9462"/>
<path d="M138.556 125.35L70.5324 124.326L70.6999 116.851L71.4541 116.822L137.977 117.86L138.733 117.884L138.556 125.35Z" fill="#9BAE88"/>
<path d="M161.578 102.999C163.773 103.039 165.978 103.106 168.18 103.101C168.926 103.099 169.137 103.351 169.13 104.089C169.01 111.003 168.905 117.919 168.815 124.838C168.807 125.54 168.628 125.838 167.873 125.831C165.676 125.738 163.482 125.733 161.269 125.694L161.337 118.142L161.457 110.571L146.369 110.346L146.464 102.838L161.578 102.999Z" fill="#9BAE88"/>
<path d="M116.474 87.2299C116.498 85.0885 116.566 82.9549 116.527 80.8063C116.512 79.8918 116.816 79.6439 117.722 79.6555C126.816 79.801 135.924 79.9314 145.047 80.0465C147.784 80.081 150.521 80.1512 153.257 80.1502C154.101 80.1546 154.339 80.4326 154.308 81.2507C154.223 83.4203 154.218 85.5967 154.177 87.7563L139.071 87.5499L116.474 87.2299Z" fill="#2A7050"/>
<path d="M70.9886 94.0858L71.0842 86.5774C73.2078 86.6014 75.3487 86.6073 77.4814 86.6399C82.9079 86.7221 88.3375 86.813 93.7704 86.9127L93.6202 94.3694L86.0865 94.3189L78.5066 94.2077L70.9886 94.0858Z" fill="#EA0029"/>
<path d="M116.474 87.2299L139.117 87.5932L139.039 95.1009L116.407 94.7999L116.474 87.2299Z" fill="#EA0029"/>
<path d="M161.319 118.125L161.251 125.677C161.178 130.333 161.079 134.981 161.041 139.637C161.038 140.534 160.798 140.86 159.901 140.839C158.11 140.744 156.317 140.718 154.524 140.759C153.663 140.773 153.459 140.458 153.482 139.649C153.572 134.957 153.618 130.275 153.681 125.592L153.803 118.074L161.319 118.125Z" fill="#2A7050"/>
<path d="M93.6567 94.4039L93.8069 86.9473C98.8483 87.0218 103.881 87.0937 108.904 87.1628L108.745 94.6283L93.6567 94.4039Z" fill="#24272A"/>
<path d="M139.039 95.1009L139.117 87.5932L154.222 87.7996L154.128 95.3255C151.604 95.3031 149.09 95.2896 146.575 95.2581L139.004 95.1196L139.039 95.1009Z" fill="#24272A"/>
<path d="M146.576 95.2581C149.09 95.2896 151.604 95.3032 154.128 95.3256C156.323 95.3655 158.527 95.4317 160.721 95.4362C161.45 95.4347 161.722 95.6408 161.715 96.3783C161.639 98.5743 161.635 100.768 161.604 102.972L146.516 102.765L146.576 95.2581Z" fill="#AD7F66"/>
<path d="M146.576 95.258L146.49 102.793L138.944 102.645L139.047 95.0742L146.576 95.258Z" fill="#9E6850"/>
<path d="M78.543 94.2422L86.123 94.3535L85.9554 101.828L78.4021 101.707L78.543 94.2422Z" fill="#9E6850"/>
<path d="M70.6543 116.807L70.4868 124.282L62.9157 124.162L63.1176 116.65L70.6543 116.807Z" fill="#2A7050"/>
<path d="M176.935 88.1075C176.895 90.3025 176.829 92.507 176.833 94.7098C176.834 95.4204 176.62 95.7192 175.883 95.712C173.98 95.6378 172.095 95.5807 170.133 95.6234C169.476 95.623 169.256 95.3802 169.265 94.7138C169.331 92.4914 169.353 90.2611 169.382 88.0219L176.971 88.1242L176.935 88.1075Z" fill="#2A7050"/>
<path d="M138.556 125.35L138.66 117.815L146.24 117.944L146.073 125.419L138.556 125.35Z" fill="#2A7050"/>
<path d="M146.146 125.488L146.313 118.013L153.848 118.117L153.726 125.635L146.146 125.488Z" fill="#9BAE88"/>
<path d="M169.364 88.0047C167.16 87.9739 164.956 87.9254 162.753 87.9301C161.999 87.9411 161.787 87.6536 161.803 86.9247C161.869 85.031 161.908 83.1647 161.894 81.2642C161.884 80.5627 162.135 80.3163 162.758 80.3532C164.643 80.4102 166.533 80.4374 168.427 80.4349C169.156 80.4335 169.428 80.6572 169.43 81.3856C169.345 83.5907 169.35 85.7933 169.302 87.9975L169.364 88.0047Z" fill="#2A7050"/>
<path d="M55.3051 131.655L55.4168 124.093L62.9612 124.205L62.8675 131.784L55.3051 131.655Z" fill="#24272A"/>
<path d="M70.3179 139.458L62.738 139.347L62.8492 131.767L70.4292 131.878L70.3179 139.458Z" fill="#24272A"/>
<path d="M100.548 139.906L92.986 139.776L93.162 132.293L100.706 132.405L100.548 139.906Z" fill="#24272A"/>
<path d="M138.342 140.483L138.492 133.027L145.948 133.177L145.798 140.633L138.333 140.474L138.342 140.483Z" fill="#24272A"/>
<path d="M183.799 133.584L183.688 141.164L176.117 141.043L176.237 133.472L183.799 133.584Z" fill="#24272A"/>
<path d="M77.759 147.124L70.1791 147.012L70.2997 139.441L77.8708 139.562L77.759 147.124Z" fill="#24272A"/>
<path d="M176.125 141.034L176.023 148.605L168.443 148.494L168.554 140.914L176.125 141.034Z" fill="#24272A"/>
<path d="M198.734 148.895L198.623 156.457L175.893 156.167L176.004 148.588L198.734 148.895Z" fill="#24272A"/>
<path d="M206.218 149.071L198.674 148.959C198.738 144.312 198.838 139.663 198.858 135.008C198.861 134.111 199.11 133.794 199.998 133.806C201.865 133.846 203.643 133.905 205.515 133.847C206.27 133.836 206.473 134.133 206.457 134.844C206.369 139.625 206.316 144.334 206.218 149.071Z" fill="#2A7050"/>
<path d="M153.775 118.048L146.24 117.944L138.66 117.815L137.904 117.791L71.3812 116.753L70.6269 116.782L63.1249 116.588L63.2371 109.044L64.3657 109.059L137.65 110.158C138.023 110.166 138.405 110.147 138.787 110.146L146.358 110.266L161.446 110.491L161.326 118.062L153.775 118.048Z" fill="#24272A"/>
<path d="M78.5429 94.2421L78.3929 101.699C73.3576 101.63 68.3132 101.558 63.26 101.484L63.4361 94.0002L70.9794 94.0772L78.5429 94.2421Z" fill="#AD7F66"/>
<path d="M146.351 110.329L138.779 110.208L138.901 102.673L146.446 102.82L146.351 110.329Z" fill="#2A7050"/>
</g>
<defs>
<clipPath id="clip0">
<rect width="181.483" height="172.605" fill="white" transform="translate(0.081665 131.661) rotate(-46.5081)"/>
</clipPath>
</defs>
</svg>
