<svg width="246" height="213" viewBox="0 0 246 213" fill="none" xmlns="http://www.w3.org/2000/svg">
<g clip-path="url(#clip0)">
<path d="M235.645 225.41C233.64 225.052 231.664 224.708 229.751 224.349L224.142 223.389C176.622 214.873 152.763 210.585 113.59 210.445C79.9517 210.25 44.2308 211.229 10.5543 212.162L6.26872 212.288C-22.2707 213.045 -51.2606 213.819 -79.3886 214.014C-86.411 214.068 -93.3751 214.081 -100.281 214.052C-101.472 213.824 -102.662 213.577 -103.879 213.296L-107.411 212.485L-107.901 212.386C-122.442 209.184 -136.964 205.8 -151.907 204.864C-155.698 204.619 -156.16 203.697 -154.971 199.947C-152.944 193.758 -148.259 190.03 -142.895 186.877C-141.707 186.184 -140.438 185.638 -139.117 185.254C-126.157 181.501 -113.422 176.797 -99.7204 176.226C-96.7888 175.988 -93.8381 176.287 -91.014 177.11C-82.1852 179.994 -72.9079 180.351 -63.8378 181.902C-59.3381 182.476 -54.7667 182.007 -50.4769 180.533C-44.4832 178.777 -41.2118 173.852 -40.0716 168.077C-38.4177 159.629 -40.7131 152.257 -47.7798 146.657C-54.0616 141.694 -61.2743 139.711 -69.0809 139.333C-79.2325 138.84 -89.3997 137.876 -99.4914 140.347C-101.988 140.952 -102.089 140.626 -106.268 139.232C-102.873 134.426 -98.433 130.451 -93.2812 127.607C-88.7126 124.91 -83.7292 122.986 -78.5329 121.915C-62.574 118.891 -46.7339 117.619 -31.1069 123.925C-26.2104 125.918 -25.9491 126.168 -27.5463 131.185C-28.6644 134.728 -29.7641 138.293 -30.8033 141.864C-31.1944 142.88 -31.3108 143.98 -31.1408 145.055C-30.9708 146.13 -30.5205 147.14 -29.8352 147.986C-27.3957 150.812 -22.9165 149.951 -21.2638 146.153C-19.7918 142.746 -18.78 139.142 -17.5335 135.642C-14.7999 127.876 -11.3769 120.37 -7.30549 113.214C-2.67883 105.033 4.22804 100.796 13.5674 98.7215C29.7446 95.1263 43.294 99.6096 55.8035 109.357C57.9776 111.026 60.2613 112.512 62.5854 114.001C64.9126 115.477 66.8616 117.478 68.2764 119.843C69.6911 122.208 70.5321 124.872 70.7322 127.62C71.3546 132.683 71.5836 137.786 71.4172 142.884C70.7587 154.009 71.4199 165.2 69.5006 176.284C69.1312 177.833 69.3911 179.466 70.2233 180.823C71.0555 182.181 72.392 183.153 73.94 183.527C77.0079 184.181 79.6376 182.406 80.8196 178.624C81.4512 176.565 81.9112 174.457 82.1946 172.322C83.2762 164.94 86.3525 161.923 93.8522 161.047C105.549 159.691 116.917 161.954 128.181 164.543C130.711 165.114 132.963 166.547 134.551 168.597C136.376 170.813 138.415 173.04 140.155 175.401C145.743 183.316 153.427 188.65 161.802 193.06C167.43 196.033 173.436 198.154 179.777 197.972C194.49 197.499 206.619 204.323 218.722 211.206C224.428 214.544 229.588 218.738 234.022 223.641L234.855 224.517L235.645 225.41Z" fill="#9DC944" stroke="#24272A" stroke-width="7.17844" stroke-miterlimit="10"/>
<path d="M240.457 225.539L239.253 224.076C233.982 217.713 227.648 212.314 220.531 208.117C208.233 201.134 195.52 193.917 179.693 194.415C174.762 194.57 169.616 193.154 163.504 189.911C153.879 184.818 147.663 179.708 143.115 173.373C141.95 171.71 140.648 170.197 139.403 168.73C138.746 167.932 138.089 167.134 137.432 166.336C135.356 163.66 132.407 161.798 129.098 161.072C117.313 158.392 105.752 156.12 93.553 157.5C84.4953 158.561 80.0623 162.844 78.7545 171.825C78.4991 173.771 78.0847 175.692 77.5152 177.57C76.6162 180.431 75.2374 180.134 74.7875 180.04C74.474 179.944 74.1828 179.786 73.9307 179.576C73.6787 179.366 73.4709 179.108 73.3196 178.818C73.1684 178.527 73.0765 178.208 73.0495 177.882C73.0225 177.555 73.0609 177.226 73.1623 176.914C74.2637 169.404 74.7964 161.822 74.7558 154.232C74.8138 150.576 74.8946 146.79 75.1071 143.118C75.2852 137.837 75.0536 132.549 74.4143 127.304C74.1799 124.018 73.1804 120.834 71.4956 118.003C69.8108 115.173 67.4875 112.776 64.7112 111.004L63.2445 110.036C61.4407 108.862 59.7339 107.738 58.14 106.503C43.7452 95.3696 28.9449 91.6934 12.9039 95.2508C1.90613 97.7052 -5.39804 102.883 -10.3285 111.463C-14.4959 118.815 -18.0093 126.519 -20.8283 134.487C-21.2334 135.651 -21.6225 136.827 -21.9958 138.015C-22.7762 140.387 -23.5135 142.631 -24.4451 144.774C-24.5598 145.104 -24.7562 145.4 -25.016 145.633C-25.2758 145.867 -25.5906 146.031 -25.9309 146.109C-26.1307 146.141 -26.3352 146.119 -26.5236 146.045C-26.7119 145.972 -26.8771 145.849 -27.002 145.69C-27.2393 145.402 -27.7595 144.77 -27.234 142.924C-26.3448 139.848 -25.3551 136.578 -24.005 132.323C-21.7298 125.149 -23.327 123.209 -29.6375 120.65C-46.7514 113.69 -64.2187 115.651 -79.0732 118.436C-84.6626 119.574 -90.0227 121.637 -94.9323 124.541C-100.552 127.642 -105.394 131.979 -109.093 137.225L-111.838 141.141L-107.307 142.691L-105.707 143.233C-102.649 144.305 -101.546 144.605 -98.5266 143.867C-90.1802 141.829 -81.7378 142.279 -72.8196 142.765L-69.1461 142.957C-61.1778 143.351 -55.0557 145.433 -49.9376 149.457C-44.1773 154.013 -42.0645 159.898 -43.5326 167.375C-44.2798 170.984 -46.1442 175.496 -51.4384 177.084C-55.208 178.377 -59.2192 178.807 -63.1773 178.345C-66.1578 177.842 -69.1796 177.448 -72.091 177.075C-78.0867 176.498 -84.0138 175.35 -89.7918 173.648C-93.0275 172.691 -96.409 172.326 -99.7744 172.57C-111.378 173.068 -122.276 176.389 -132.826 179.59C-135.222 180.317 -137.618 181.044 -140.005 181.782C-141.615 182.242 -143.164 182.893 -144.619 183.722C-149.636 186.664 -155.761 191.038 -158.309 198.716C-159.031 200.911 -159.686 203.458 -158.184 205.643L-157.865 206.031C-156.441 207.76 -154.265 208.144 -152.074 208.275C-143.233 208.932 -134.448 210.191 -125.778 212.043C-124.456 212.294 -123.147 212.573 -121.838 212.853C-120.529 213.133 -119.438 213.351 -118.251 213.619C-112.337 213.708 -106.349 213.767 -100.286 213.797C-93.3808 213.826 -86.4169 213.813 -79.3945 213.758C-80.9245 213.549 -82.4526 213.319 -83.9586 213.072C-85.4645 212.824 -86.8622 212.617 -88.2834 212.337C-94.4668 211.31 -100.702 210.084 -107.034 208.697L-110.06 208.026C-123.48 205.055 -137.35 201.989 -151.501 201.089L-151.441 200.89C-150.021 196.54 -146.976 193.326 -140.965 189.808C-140.03 189.266 -139.033 188.839 -137.996 188.535C-135.592 187.795 -133.181 187.049 -130.763 186.297C-120.134 183.124 -110.186 180.027 -99.5046 179.582C-96.9994 179.372 -94.4767 179.613 -92.0564 180.293C-85.8338 182.126 -79.4516 183.365 -72.9952 183.994C-70.1535 184.35 -67.1652 184.772 -64.3718 185.206C-59.3324 185.875 -54.2068 185.376 -49.3908 183.749C-42.5978 181.744 -38.0058 176.344 -36.475 168.537C-34.9443 160.73 -36.5433 153.436 -41.2344 147.739C-42.4944 146.218 -43.9172 144.838 -45.4772 143.626C-51.7864 138.63 -59.4235 135.973 -68.8678 135.549L-72.5008 135.361C-81.2462 134.881 -90.2765 134.395 -99.3563 136.423C-96.9984 134.12 -94.3478 132.137 -91.4727 130.526C-87.2479 128.019 -82.6356 126.231 -77.8243 125.238C-63.2867 122.565 -47.7671 120.813 -32.4192 127.051C-31.8103 127.294 -30.9192 127.676 -30.3416 127.926C-30.498 128.594 -30.7882 129.484 -30.9212 129.91C-32.2863 134.214 -33.3021 137.543 -34.2063 140.668C-34.7865 142.255 -34.9352 143.967 -34.6374 145.63C-34.3396 147.293 -33.606 148.847 -32.5113 150.134C-31.5908 151.208 -30.4118 152.031 -29.0854 152.523C-27.7589 153.015 -26.3289 153.162 -24.9302 152.948C-23.3853 152.693 -21.9313 152.047 -20.7067 151.071C-19.4822 150.095 -18.5278 148.822 -17.9345 147.373C-16.8725 144.936 -16.0582 142.424 -15.2518 139.993C-14.8886 138.876 -14.5236 137.738 -14.1292 136.614C-11.4707 129.061 -8.14948 121.757 -4.20437 114.789C-0.355443 107.9 5.39507 104.02 14.3387 102.029C28.3678 98.9197 40.8624 102.077 53.645 111.953C55.4567 113.362 57.3557 114.607 59.1869 115.814L60.6244 116.769C62.5193 117.959 64.1041 119.583 65.248 121.506C66.3919 123.429 67.0622 125.597 67.2035 127.83C67.7941 132.675 68.017 137.559 67.8703 142.438C67.6786 146.316 67.5756 150.121 67.528 153.879C67.6001 161.124 67.1142 168.364 66.0748 175.535C65.5396 177.999 65.9978 180.574 67.35 182.703C68.7022 184.831 70.8392 186.34 73.2972 186.902C78.2745 187.955 82.613 185.07 84.3947 179.623C85.0901 177.385 85.605 175.095 85.9345 172.775C86.7677 167.012 88.6017 165.241 94.4402 164.562C105.497 163.286 116.415 165.455 127.562 167.992C129.296 168.359 130.838 169.341 131.904 170.758C132.607 171.611 133.31 172.465 134.013 173.318C135.181 174.736 136.285 176.077 137.371 177.396C142.566 184.743 149.626 190.515 160.259 196.155C167.527 199.989 173.836 201.712 180.029 201.485C193.851 201.038 205.654 207.759 217.093 214.241C221.059 216.523 224.731 219.283 228.026 222.459L228.97 223.356L229.864 224.238C231.74 224.552 233.753 224.941 235.758 225.298L241.278 226.332L240.457 225.539Z" fill="#24272A"/>
<path d="M2.73312 123.936C9.54454 118.217 18.072 114.939 26.9602 114.623C30.9148 114.368 34.8345 115.501 38.0427 117.827C38.7522 118.27 39.3651 118.852 39.845 119.537C40.3249 120.223 40.6619 120.997 40.8359 121.816C41.0099 122.634 41.0174 123.479 40.8578 124.3C40.6982 125.121 40.3749 125.902 39.9072 126.595C38.0082 129.461 35.2642 129.991 31.8364 127.365C30.8338 126.598 29.6709 126.067 28.4344 125.813C27.1978 125.559 25.9199 125.589 24.6961 125.898C20.904 126.458 17.2725 127.812 14.0384 129.869C10.8042 131.927 8.04012 134.643 5.9262 137.841C5.13395 139.19 4.2084 140.457 3.16339 141.623C2.27654 142.552 1.08858 143.137 -0.188956 143.273C-1.4665 143.409 -2.75077 143.087 -3.81339 142.365C-4.88687 141.652 -5.67977 140.588 -6.05707 139.356C-6.43436 138.124 -6.37264 136.799 -5.88246 135.607C-4.00981 131.069 -1.05135 127.062 2.73312 123.936Z" fill="#9DC944" stroke="#24272A" stroke-width="7.17844" stroke-miterlimit="10"/>
</g>
<defs>
<clipPath id="clip0">
<rect width="298.925" height="295.58" fill="white" transform="translate(55.1678) rotate(50.5278)"/>
</clipPath>
</defs>
</svg>
