<svg width="342" height="211" viewBox="0 0 342 211" fill="none" xmlns="http://www.w3.org/2000/svg">
<g clip-path="url(#clip0)">
<path d="M9.54983 225.41C11.5551 225.052 13.5311 224.708 15.4444 224.349L21.0529 223.389C68.5734 214.873 92.4327 210.585 131.605 210.445C165.244 210.25 200.964 211.229 234.641 212.162L238.927 212.288C267.466 213.045 296.456 213.819 324.584 214.014C331.606 214.068 338.57 214.081 345.476 214.052C346.668 213.824 347.857 213.577 349.074 213.296L352.606 212.485L353.097 212.386C367.637 209.184 382.16 205.8 397.103 204.864C400.894 204.619 401.355 203.697 400.166 199.947C398.139 193.758 393.454 190.03 388.09 186.877C386.902 186.184 385.633 185.638 384.312 185.254C371.353 181.501 358.618 176.797 344.916 176.226C341.984 175.988 339.033 176.287 336.209 177.11C327.38 179.994 318.103 180.351 309.033 181.902C304.533 182.476 299.962 182.007 295.672 180.533C289.678 178.777 286.407 173.852 285.267 168.077C283.613 159.629 285.908 152.257 292.975 146.657C299.257 141.694 306.47 139.711 314.276 139.333C324.428 138.84 334.595 137.876 344.687 140.347C347.183 140.952 347.284 140.626 351.463 139.232C348.068 134.426 343.628 130.451 338.476 127.607C333.908 124.91 328.924 122.986 323.728 121.915C307.769 118.891 291.929 117.619 276.302 123.925C271.406 125.918 271.144 126.168 272.742 131.185C273.86 134.728 274.959 138.293 275.999 141.864C276.39 142.88 276.506 143.98 276.336 145.055C276.166 146.13 275.716 147.14 275.03 147.986C272.591 150.812 268.112 149.951 266.459 146.153C264.987 142.746 263.975 139.142 262.729 135.642C259.995 127.876 256.572 120.37 252.501 113.214C247.874 105.033 240.967 100.796 231.628 98.7215C215.451 95.1263 201.901 99.6096 189.392 109.357C187.218 111.026 184.934 112.512 182.61 114.001C180.283 115.477 178.334 117.478 176.919 119.843C175.504 122.208 174.663 124.872 174.463 127.62C173.841 132.683 173.612 137.786 173.778 142.884C174.437 154.009 173.775 165.2 175.695 176.284C176.064 177.833 175.804 179.466 174.972 180.823C174.14 182.181 172.803 183.153 171.255 183.527C168.187 184.181 165.558 182.406 164.376 178.624C163.744 176.565 163.284 174.457 163.001 172.322C161.919 164.94 158.843 161.923 151.343 161.047C139.646 159.691 128.278 161.954 117.014 164.543C114.485 165.114 112.233 166.547 110.644 168.597C108.819 170.813 106.78 173.04 105.04 175.401C99.4523 183.316 91.7683 188.65 83.3932 193.06C77.7652 196.033 71.7591 198.154 65.418 197.972C50.7056 197.499 38.5762 204.323 26.4728 211.206C20.767 214.544 15.6072 218.738 11.1737 223.641L10.3407 224.517L9.54983 225.41Z" fill="#9DC944" stroke="#24272A" stroke-width="7.17844" stroke-miterlimit="10"/>
<path d="M4.73803 225.539L5.9427 224.076C11.2129 217.713 17.5474 212.314 24.6642 208.117C36.9619 201.134 49.6755 193.917 65.502 194.415C70.4331 194.57 75.5793 193.154 81.691 189.911C91.3158 184.818 97.5323 179.708 102.08 173.373C103.245 171.71 104.547 170.197 105.792 168.73C106.449 167.932 107.106 167.134 107.763 166.336C109.84 163.66 112.789 161.798 116.097 161.072C127.883 158.392 139.443 156.12 151.642 157.5C160.7 158.561 165.133 162.844 166.441 171.825C166.696 173.771 167.111 175.692 167.68 177.57C168.579 180.431 169.958 180.134 170.408 180.04C170.721 179.944 171.012 179.786 171.265 179.576C171.517 179.366 171.724 179.108 171.876 178.818C172.027 178.527 172.119 178.208 172.146 177.882C172.173 177.555 172.134 177.226 172.033 176.914C170.932 169.404 170.399 161.822 170.439 154.232C170.381 150.576 170.301 146.79 170.088 143.118C169.91 137.837 170.142 132.549 170.781 127.304C171.015 124.018 172.015 120.834 173.7 118.003C175.384 115.173 177.708 112.776 180.484 111.004L181.951 110.036C183.755 108.862 185.461 107.738 187.055 106.503C201.45 95.3696 216.25 91.6934 232.291 95.2508C243.289 97.7052 250.593 102.883 255.524 111.463C259.691 118.815 263.205 126.519 266.024 134.487C266.429 135.651 266.818 136.827 267.191 138.015C267.971 140.387 268.709 142.631 269.64 144.774C269.755 145.104 269.951 145.4 270.211 145.633C270.471 145.867 270.786 146.031 271.126 146.109C271.326 146.141 271.53 146.119 271.719 146.045C271.907 145.972 272.072 145.849 272.197 145.69C272.435 145.402 272.955 144.77 272.429 142.924C271.54 139.848 270.55 136.578 269.2 132.323C266.925 125.149 268.522 123.209 274.833 120.65C291.947 113.69 309.414 115.651 324.268 118.436C329.858 119.574 335.218 121.637 340.128 124.541C345.747 127.642 350.589 131.979 354.288 137.225L357.033 141.141L352.502 142.691L350.902 143.233C347.844 144.305 346.741 144.605 343.722 143.867C335.375 141.829 326.933 142.279 318.015 142.765L314.341 142.957C306.373 143.351 300.251 145.433 295.133 149.457C289.373 154.013 287.26 159.898 288.728 167.375C289.475 170.984 291.339 175.496 296.634 177.084C300.403 178.377 304.414 178.807 308.373 178.345C311.353 177.842 314.375 177.448 317.286 177.075C323.282 176.498 329.209 175.35 334.987 173.648C338.223 172.691 341.604 172.326 344.97 172.57C356.574 173.068 367.472 176.389 378.022 179.59C380.417 180.317 382.813 181.044 385.2 181.782C386.81 182.242 388.359 182.893 389.814 183.722C394.831 186.664 400.956 191.038 403.504 198.716C404.227 200.911 404.881 203.458 403.379 205.643L403.06 206.031C401.636 207.76 399.46 208.144 397.27 208.275C388.429 208.932 379.643 210.191 370.973 212.043C369.651 212.294 368.342 212.573 367.033 212.853C365.724 213.133 364.634 213.351 363.446 213.619C357.532 213.708 351.544 213.767 345.482 213.797C338.576 213.826 331.612 213.813 324.59 213.758C326.12 213.549 327.648 213.319 329.154 213.072C330.66 212.824 332.057 212.617 333.479 212.337C339.662 211.31 345.898 210.084 352.23 208.697L355.255 208.026C368.675 205.055 382.545 201.989 396.696 201.089L396.637 200.89C395.216 196.54 392.171 193.326 386.16 189.808C385.225 189.266 384.228 188.839 383.191 188.535C380.788 187.795 378.376 187.049 375.958 186.297C365.329 183.124 355.381 180.027 344.7 179.582C342.195 179.372 339.672 179.613 337.252 180.293C331.029 182.126 324.647 183.365 318.19 183.994C315.349 184.35 312.36 184.772 309.567 185.206C304.528 185.875 299.402 185.376 294.586 183.749C287.793 181.744 283.201 176.344 281.67 168.537C280.14 160.73 281.739 153.436 286.43 147.739C287.69 146.218 289.112 144.838 290.672 143.626C296.982 138.63 304.619 135.973 314.063 135.549L317.696 135.361C326.441 134.881 335.472 134.395 344.552 136.423C342.194 134.12 339.543 132.137 336.668 130.526C332.443 128.019 327.831 126.231 323.02 125.238C308.482 122.565 292.962 120.813 277.614 127.051C277.006 127.294 276.114 127.676 275.537 127.926C275.693 128.594 275.983 129.484 276.116 129.91C277.482 134.214 278.497 137.543 279.402 140.668C279.982 142.255 280.13 143.967 279.833 145.63C279.535 147.293 278.801 148.847 277.707 150.134C276.786 151.208 275.607 152.031 274.281 152.523C272.954 153.015 271.524 153.162 270.125 152.948C268.581 152.693 267.127 152.047 265.902 151.071C264.677 150.095 263.723 148.822 263.13 147.373C262.068 144.936 261.253 142.424 260.447 139.993C260.084 138.876 259.719 137.738 259.324 136.614C256.666 129.061 253.345 121.757 249.4 114.789C245.551 107.9 239.8 104.02 230.857 102.029C216.827 98.9197 204.333 102.077 191.55 111.953C189.739 113.362 187.84 114.607 186.008 115.814L184.571 116.769C182.676 117.959 181.091 119.583 179.947 121.506C178.803 123.429 178.133 125.597 177.992 127.83C177.401 132.675 177.178 137.559 177.325 142.438C177.517 146.316 177.62 150.121 177.667 153.879C177.595 161.124 178.081 168.364 179.12 175.535C179.656 177.999 179.197 180.574 177.845 182.703C176.493 184.831 174.356 186.34 171.898 186.902C166.921 187.955 162.582 185.07 160.801 179.623C160.105 177.385 159.59 175.095 159.261 172.775C158.428 167.012 156.594 165.241 150.755 164.562C139.698 163.286 128.78 165.455 117.633 167.992C115.899 168.359 114.357 169.341 113.291 170.758C112.588 171.611 111.885 172.465 111.183 173.318C110.014 174.736 108.91 176.077 107.824 177.396C102.63 184.743 95.5694 190.515 84.9367 196.155C77.6686 199.989 71.3589 201.712 65.1663 201.485C51.3438 201.038 39.5411 207.759 28.1026 214.241C24.1359 216.523 20.4639 219.283 17.1688 222.459L16.2255 223.356L15.3316 224.238C13.4548 224.552 11.4423 224.941 9.43703 225.298L3.91728 226.332L4.73803 225.539Z" fill="#24272A"/>
<path d="M242.462 123.936C235.651 118.217 227.123 114.939 218.235 114.623C214.28 114.368 210.361 115.501 207.153 117.827C206.443 118.27 205.83 118.852 205.35 119.537C204.87 120.223 204.533 120.997 204.359 121.816C204.185 122.634 204.178 123.479 204.337 124.3C204.497 125.121 204.82 125.902 205.288 126.595C207.187 129.461 209.931 129.991 213.359 127.365C214.361 126.598 215.524 126.067 216.761 125.813C217.997 125.559 219.275 125.589 220.499 125.898C224.291 126.458 227.923 127.812 231.157 129.869C234.391 131.927 237.155 134.643 239.269 137.841C240.061 139.19 240.987 140.457 242.032 141.623C242.919 142.552 244.107 143.137 245.384 143.273C246.662 143.409 247.946 143.087 249.009 142.365C250.082 141.652 250.875 140.588 251.252 139.356C251.63 138.124 251.568 136.799 251.078 135.607C249.205 131.069 246.247 127.062 242.462 123.936Z" fill="#9DC944" stroke="#24272A" stroke-width="7.17844" stroke-miterlimit="10"/>
</g>
<defs>
<clipPath id="clip0">
<rect width="298.925" height="295.58" fill="white" transform="matrix(-0.635703 0.771934 0.771934 0.635703 190.027 0)"/>
</clipPath>
</defs>
</svg>
