<svg width="178" height="162" viewBox="0 0 178 162" fill="none" xmlns="http://www.w3.org/2000/svg">
<g clip-path="url(#clip0)">
<path d="M173.359 118.378L123.388 118.504L123.369 111.379L137.63 111.347L137.612 104.165L144.786 104.121L144.801 111.295L173.377 111.223L173.442 118.191L173.359 118.378Z" fill="#E5E1E6"/>
<path d="M44.6125 90.2031L44.5934 83.0783L58.863 83.0433L58.8412 75.9099L65.9946 75.8914L66.0154 82.9303L73.1688 82.9117L73.1481 75.8728L80.3014 75.8543L80.3137 82.8959L87.467 82.8774L87.4436 75.8299L94.5969 75.8113L94.6205 82.8589L101.765 82.8431L101.75 75.7927L108.895 75.777L108.919 82.8245L116.072 82.806L116.049 75.7584L123.199 75.7313L123.217 82.7902L137.515 82.7558L137.497 75.6969L144.68 75.679L144.707 89.894L144.08 89.8901L45.2208 90.1464L44.6125 90.2031Z" fill="#E5E1E6"/>
<path d="M23.2708 118.802L23.255 111.657L51.8113 111.582L51.7896 104.448L44.6734 104.464L44.6495 97.2937L58.9564 97.2567L58.9716 104.43L66.1337 104.409L66.1527 111.534L73.2575 111.511L73.2755 118.693L23.2708 118.802Z" fill="#E5E1E6"/>
<path d="M166.167 89.8383L159.022 89.854L159.041 97.0075L151.916 97.0266L151.937 104.189L144.744 104.201L144.713 89.8825L151.838 89.8634L151.797 75.5765L158.979 75.5586L158.998 82.712L166.151 82.6935L166.167 89.8383Z" fill="#E5E1E6"/>
<path d="M94.705 118.6L80.4954 118.645L80.4731 111.54L87.5433 111.528L87.5057 97.25L94.6304 97.2309L94.705 118.6Z" fill="#E5E1E6"/>
<path d="M109.001 111.435L116.135 111.414L116.155 118.51L101.945 118.554L101.93 97.1952L108.989 97.1777L109.001 111.435Z" fill="#E5E1E6"/>
<path d="M137.622 104.2L116.22 104.228L116.209 97.129L137.586 97.1089L137.605 104.234L137.622 104.2Z" fill="#E5E1E6"/>
<path d="M66.1077 104.417L66.0967 97.3182L80.3117 97.2907L80.326 104.37L66.0943 104.374L66.1077 104.417Z" fill="#E5E1E6"/>
<path d="M37.5188 97.3243L37.4776 90.1589L44.6595 90.1409L44.6749 97.3144L37.5188 97.3243Z" fill="#E5E1E6"/>
<path d="M51.6437 32.9491L58.7971 32.9306L58.7699 25.7798L144.554 25.5564L144.572 32.7097L151.726 32.6912L151.817 68.3924L137.51 68.4295C137.497 66.0439 137.495 63.693 137.482 61.3074L144.616 61.2856L144.58 47.0732L137.475 47.0956L137.502 61.3107L123.284 61.3295L123.299 68.4083L116.145 68.4269L116.136 61.3938L108.982 61.4124L109.001 68.4426L101.85 68.4698L101.829 61.4309L94.6842 61.4468L94.6963 68.4884L87.5516 68.5042L87.5307 61.4653L80.386 61.4811L80.3982 68.5228L73.2534 68.5386L73.2326 61.4997L66.0792 61.5182L66.1027 68.5657L58.9492 68.5843L58.929 61.5167L44.6022 61.5505L44.5869 54.3771L87.435 54.3075L87.4076 40.0924L58.9085 40.1689L58.9205 47.2105L51.7386 47.2284L51.6437 32.9491ZM94.6096 54.2349L130.282 54.1433L130.246 39.931L101.672 40.0117L101.691 47.1364L94.5866 47.1588L94.6096 54.2349Z" fill="#E5E1E6"/>
<path d="M30.2874 68.7776L51.6898 68.7496L51.7139 75.7685C51.6772 75.8086 51.6315 75.8391 51.5805 75.8575L30.3076 75.8453C30.3083 73.5029 30.2922 71.1373 30.2874 68.7776Z" fill="#E5E1E6"/>
<path d="M30.2874 68.7776C30.2922 71.1372 30.311 73.5115 30.313 75.8625L23.1676 75.907L23.1545 68.7708L30.2874 68.7776Z" fill="#FF5100"/>
<path d="M37.5056 90.1881L30.3468 90.1894L30.3298 83.1017L37.4919 83.0806L37.5056 90.1881Z" fill="#E5E1E6"/>
</g>
<defs>
<clipPath id="clip0">
<rect width="148.25" height="122.52" fill="white" transform="translate(0 44.0836) rotate(-17.2991)"/>
</clipPath>
</defs>
</svg>
