<svg width="162" height="213" viewBox="0 0 162 213" fill="none" xmlns="http://www.w3.org/2000/svg">
<g clip-path="url(#clip0)">
<path d="M1.71466 212.977L105.202 201.261L103.533 186.507L73.98 189.846L72.2957 174.972L57.4363 176.596L59.121 191.47L-0.0602801 198.163L1.44369 212.601L1.71466 212.977Z" fill="#243746"/>
<path d="M50.8341 117.55C51.947 127.386 53.0649 137.212 54.1879 147.028L55.4363 146.862L161.135 134.831L161.135 104.947L154.517 105.699C155.059 110.511 155.6 115.339 156.172 120.287L141.358 121.957C140.816 117.144 140.26 112.316 139.704 107.368L124.889 109.053C125.446 113.865 125.987 118.708 126.544 123.641L111.745 125.326C111.188 120.498 110.647 115.655 110.09 110.722L95.2764 112.391C95.8328 117.234 96.3741 122.077 96.9305 127.01L67.3175 130.364C66.7761 125.521 66.2349 120.678 65.6634 115.745L50.8341 117.55Z" fill="#243746"/>
<path d="M9.76066 152.096L24.5749 150.412L26.2441 165.226L40.9981 163.541L42.6827 178.385L57.5568 176.686L54.2029 147.028L39.4489 148.712L36.0951 119.129L21.2211 120.814L22.8903 135.613L8.09146 137.297L9.76066 152.096Z" fill="#243746"/>
<path d="M159.601 150.216L161.105 163L161.21 151.66L161.21 150.036L159.601 150.216Z" fill="#243746"/>
<path d="M133.297 183.078L118.528 184.747L120.197 199.456L149.584 196.117L144.592 151.931L129.958 153.585L133.297 183.078Z" fill="#243746"/>
<path d="M72.2957 174.972L116.602 169.948L114.948 155.254L70.6863 160.263C71.2428 165.211 71.7994 170.114 72.3559 175.017L72.2957 174.972Z" fill="#243746"/>
<path d="M40.7576 28.6355C40.1861 23.5521 39.6295 18.6943 39.088 13.8215L161.15 0L161.15 30.0793L161 30.0793C161 30.5305 161.105 30.9666 161.15 31.4178L161.15 89.8169L152.683 90.7793C152.126 85.8313 151.57 80.9886 151.029 76.206L136.229 77.8753C136.786 82.8234 137.327 87.6663 137.884 92.4489L123.07 94.1333C122.513 89.1702 121.957 84.3424 121.415 79.5598L106.616 81.2292C107.173 86.1922 107.714 91.0201 108.255 95.8027L93.4567 97.4871C92.9002 92.524 92.3436 87.6812 91.8021 82.8234L62.2945 86.1773C62.851 91.0652 63.4072 95.938 63.9637 100.856L34.3356 104.225C31.5383 79.5097 28.7458 54.8596 25.9585 30.2748L40.7576 28.6355ZM75.499 69.5734L149.359 61.1964C148.818 56.3085 148.261 51.5108 147.704 46.5627L133.011 48.2321C132.439 43.254 131.898 38.4113 131.326 33.4633L72.1603 40.1709C73.2732 49.9316 74.371 59.6924 75.499 69.5734ZM47.5405 87.8165L62.2494 86.1472C61.1364 76.3714 60.0386 66.5956 58.9106 56.6995L44.2018 58.3689C45.3147 68.1447 46.4125 77.9054 47.5405 87.8466L47.5405 87.8165Z" fill="#243746"/>
</g>
<defs>
<clipPath id="clip0">
<rect width="161.15" height="212.977" fill="white" transform="matrix(-1 -8.81555e-09 -8.81555e-09 1 161.15 0)"/>
</clipPath>
</defs>
</svg>
