<svg width="177" height="164" viewBox="0 0 177 164" fill="none" xmlns="http://www.w3.org/2000/svg">
<g clip-path="url(#clip0)">
<path d="M0.218567 154.093L0.299179 163.044L0.874451 162.975L1.44972 162.894L161.295 143.335C160.938 140.401 160.57 137.456 160.214 134.51L98.0841 142.15C97.7159 139.101 97.3593 136.202 96.9335 133.199L114.64 131.024L113.559 122.188L104.665 123.247L86.8663 125.433C86.4981 122.395 86.1414 119.484 85.7157 116.573L76.9139 117.655C77.6502 123.672 78.3637 129.505 79.1001 135.488L87.8327 134.418C88.2124 137.444 88.5575 140.309 88.9141 143.197L71.1727 145.383C69.723 133.525 68.2733 121.709 66.8236 109.935L57.9068 111.028C59.3642 122.894 60.8139 134.702 62.2559 146.453L44.5837 148.628C44.2155 145.671 43.8704 142.806 43.4331 139.78L52.2002 138.71C51.4638 132.727 50.7506 126.882 50.0142 120.957L41.2012 122.038C41.5578 124.972 41.926 127.918 42.3517 130.909L6.76511 135.281C7.12177 138.227 7.47838 141.161 7.85806 144.21L34.4703 140.942C34.8385 143.945 35.1836 146.833 35.5518 149.813L1.33455 154.012L0.759277 154.081L0.218567 154.093Z" fill="#24272A"/>
<path d="M-7.62939e-06 27.7742V36.7254L0.575264 36.6449L1.15054 36.5758L12.5869 35.1722C12.9666 38.2442 13.3232 41.1666 13.7374 44.0774L49.2892 39.7054C48.921 36.76 48.5644 33.8261 48.2078 30.8807L74.8889 27.6131L75.9706 36.4263L111.534 32.0428C111.177 29.1319 110.821 26.2095 110.383 23.1951L101.547 24.2766C101.179 21.2967 100.822 18.3858 100.454 15.4174C67.2954 19.4903 34.2517 23.4712 1.09296 27.6131L0.517685 27.6821L-7.62939e-06 27.7742Z" fill="#24272A"/>
<path d="M165.828 106.667L174.653 105.586L170.292 69.9993L161.479 71.0808L162.572 79.9399L153.678 81.0905L118.092 85.4741L119.242 94.3793L128.125 93.2287C128.504 96.3122 128.861 99.2346 129.275 102.145L138.215 100.995L137.122 92.1358L145.993 90.9852L154.875 89.8923L163.78 88.7417L165.966 106.506L165.828 106.667Z" fill="#24272A"/>
<path d="M161.479 71.1267L160.329 62.1985L142.541 64.3846L115.86 67.6751L117.01 76.6033L139.515 73.819L152.597 72.2542L161.479 71.1037V71.1267Z" fill="#24272A"/>
<path d="M132.589 56.5493L131.507 47.7132L122.671 48.7947L120.485 30.9727L111.534 32.0657C112.623 40.9632 113.712 49.8608 114.801 58.7584L132.589 56.5493Z" fill="#24272A"/>
<path d="M164.919 25.5075C165.955 34.0216 167.013 42.5357 168.026 51.0612C168.141 52.0047 168.474 52.2118 169.372 52.0737C171.673 51.74 173.882 51.4869 176.149 51.2453C176.873 51.1647 177.069 50.9001 176.977 50.1753C175.941 41.9143 174.929 33.6573 173.94 25.404C173.847 24.5987 173.537 24.4376 172.789 24.5296C170.166 24.8978 167.531 25.1969 164.908 25.5191L164.919 25.5075Z" fill="#839794"/>
<path d="M132.589 56.5494L114.801 58.7584L115.952 67.6752L142.645 64.3731C142.288 61.4852 141.931 58.6203 141.494 55.4908L132.589 56.5494Z" fill="#00B189"/>
<path d="M159.12 125.571L158.027 116.654L140.229 118.794L131.346 119.944L132.497 128.815L159.178 125.536L159.12 125.571Z" fill="#24272A"/>
<path d="M153.828 8.82464C153.506 6.18988 153.161 3.56666 152.873 0.931905C152.793 0.18405 152.562 -0.0805505 151.723 0.0229987C143.469 1.05849 135.212 2.07476 126.951 3.0719C126.226 3.15244 126.019 3.41713 126.123 4.14197C126.445 6.44307 126.744 8.80163 126.974 11.1372C127.066 12.0922 127.55 12.0462 128.251 11.9542C134.694 11.1488 141.137 10.3587 147.58 9.58403L153.805 8.81319L153.828 8.82464Z" fill="#839794"/>
<path d="M153.828 8.81322C154.507 14.3473 155.197 19.8929 155.841 25.4386C155.945 26.336 156.21 26.5891 157.153 26.4856C159.73 26.1059 162.319 25.8297 164.908 25.5076C164.229 19.9735 163.527 14.4279 162.894 8.88225C162.791 7.98482 162.526 7.73166 161.583 7.83521C159.005 8.21489 156.417 8.49106 153.828 8.81322Z" fill="#839794"/>
<path d="M158.028 116.654L166.921 115.503C166.553 112.489 166.196 109.555 165.771 106.61L156.865 107.703L158.016 116.596L158.028 116.654Z" fill="#24272A"/>
<path d="M160.214 134.407L169.038 133.325L167.888 124.443L159.063 125.594L160.214 134.499V134.407Z" fill="#24272A"/>
<path d="M6.80005 135.212H6.81116V135.223H6.80005V135.212Z" fill="#007481"/>
<path d="M0.575272 99.8905L1.15056 99.81H1.43819C2.20905 99.7064 2.49669 99.9249 2.58874 100.696C2.81884 102.997 3.16396 105.298 3.40558 107.599C3.48611 108.358 3.73923 108.692 4.55612 108.485C4.66702 108.473 4.77893 108.473 4.88982 108.485L118.575 94.5289L119.231 94.4484L128.113 93.2979L129.264 102.192L120.359 103.342C120.738 106.368 121.095 109.302 121.509 112.236L112.65 113.386C110.061 113.708 107.472 114.065 104.872 114.318C103.906 114.41 103.722 114.79 103.86 115.676C104.228 118.219 104.504 120.784 104.815 123.339L87.0158 125.525C86.6477 122.487 86.291 119.576 85.8653 116.665L77.0636 117.747C77.7999 123.764 78.5131 129.598 79.2495 135.58L87.9822 134.51C88.3619 137.536 88.707 140.401 89.0637 143.289L71.3224 145.475C69.8727 133.617 68.423 121.801 66.9733 110.027L58.0565 111.12C59.5139 122.986 60.9636 134.794 62.4056 146.545L44.7331 148.72C44.3649 145.763 44.0198 142.898 43.5826 139.872L52.3499 138.802C51.6135 132.819 50.9 126.974 50.1637 121.049L41.3506 122.13C41.7072 125.064 42.0754 128.01 42.5011 131.001L6.9148 135.373C6.54662 132.416 6.16695 129.46 5.76425 126.503L1.21965 127.055L0.644379 127.124L0.0691071 127.193V99.8905H0.575272ZM85.7847 116.527L94.5979 115.446C94.2297 112.466 93.873 109.578 93.4473 106.621L84.6456 107.703C85.0598 110.625 85.428 113.548 85.7847 116.493V116.527ZM32.4569 123.074L41.293 121.981C40.9363 119.07 40.5682 116.159 40.2115 113.179L31.3754 114.261C31.7321 117.149 32.0887 120.002 32.4569 123.039V123.074ZM4.72859 118.472C5.08526 121.095 5.38451 123.73 5.70667 126.353C8.2954 126.031 10.8726 125.686 13.4613 125.398C14.2782 125.306 14.6118 125.099 14.4967 124.167C14.1516 121.866 13.8869 119.565 13.6453 117.264C13.5648 116.539 13.2887 116.332 12.5754 116.424C10.2743 116.746 7.9156 117.045 5.57999 117.287C4.75159 117.379 4.63655 117.735 4.72859 118.46V118.472Z" fill="#007481"/>
<path d="M160.225 134.407L159.075 125.502L132.393 128.781C132.025 125.789 131.657 122.855 131.243 119.91C130.829 116.965 130.529 113.973 130.161 111.016L121.279 112.167L122.43 121.084L113.513 122.176L114.594 131.024L96.8875 133.199L98.038 142.15L160.225 134.407Z" fill="#007481"/>
<path d="M0.0575714 136.052L0.218525 154.093L0.793797 154.024L1.36907 153.955L35.5863 149.755C35.2181 146.775 34.873 143.887 34.5049 140.884L7.89258 144.152C7.5129 141.103 7.15628 138.169 6.79962 135.224L1.20812 135.914L0.632847 135.983L0.0575714 136.052Z" fill="#007481"/>
<path d="M112.489 113.225C109.9 113.547 107.311 113.904 104.711 114.157C103.745 114.249 103.561 114.617 103.699 115.515C104.067 118.058 104.343 120.623 104.654 123.177L113.57 122.119L112.489 113.225Z" fill="#00827E"/>
<path d="M111.534 32.0427C112.623 40.9403 113.712 49.8339 114.801 58.7238L79.238 63.0844C78.1411 54.2022 77.0521 45.3162 75.9706 36.4263L111.534 32.0427ZM87.0963 53.0632L104.746 50.9001C104.389 48.0238 104.032 45.1474 103.676 42.1445L86.0262 44.3075C86.3599 47.2644 86.7166 50.1408 87.0963 53.0632Z" fill="#FCE200"/>
<path d="M49.2319 39.7284L52.5108 66.3865L16.959 70.7471L13.6799 44.1005L49.2319 39.7284ZM24.8286 60.6913L42.4781 58.5168C42.1099 55.5714 41.7648 52.695 41.4081 49.7611L23.7587 51.9357C24.1153 54.8005 24.4719 57.6999 24.8401 60.6913H24.8286Z" fill="#FCE200"/>
<path d="M75.9476 36.4493L74.8661 27.6246L48.1848 30.8922C48.5376 33.8376 48.8983 36.783 49.2665 39.7284L58.1026 38.5779L61.37 65.2705L52.5454 66.352L53.6153 75.2458L80.3541 71.9667C79.9783 68.9982 79.5946 66.0337 79.2034 63.073L70.3788 64.1545L67.1 37.4733L75.9361 36.3918L75.9476 36.4493Z" fill="#007481"/>
<path d="M2.28882e-05 36.7255V72.8296L0.575296 72.7606L1.15057 72.6916L8.05385 71.8286C6.9033 62.9694 5.87921 54.1103 4.78619 45.1705L13.6569 44.02C13.3002 41.1091 12.9435 38.1867 12.5063 35.1147L1.06995 36.5184L0.494679 36.5874L2.28882e-05 36.7255Z" fill="#007481"/>
<path d="M0.575279 72.7606L1.15056 72.6915L8.05383 71.8286L16.9245 70.7701C17.2812 73.681 17.6378 76.6034 18.0175 79.6409L53.581 75.2803L80.3196 72.0012L112.213 68.1009L115.86 67.6752L117.011 76.5574L10.2628 89.6736C10.6195 92.5845 10.9761 95.5068 11.3558 98.5558L118.092 85.4511L119.242 94.3449L118.587 94.4254L4.90134 108.382C4.79045 108.37 4.67854 108.37 4.56764 108.382C3.78527 108.589 3.53215 108.255 3.4171 107.496C3.17548 105.194 2.83036 102.893 2.60026 100.592C2.51971 99.8214 2.23208 99.6028 1.44971 99.7063H1.16207L0.5868 99.787L0.011528 99.8674V72.7606H0.575279ZM0.50618 83.8978L0.575279 84.4386C0.782379 86.0148 0.977974 87.5912 1.15056 89.1674V89.4664C1.2426 90.3754 1.55322 90.7666 2.5657 90.617C5.09691 90.2373 7.65099 89.9727 10.1937 89.6506L9.11224 80.8144L2.11684 81.6774C2.02479 81.6774 1.94426 81.8268 1.84071 81.8498L1.116 82.034L0.770782 82.172L0.644379 82.2411C0.605698 82.2621 0.570618 82.2893 0.540733 82.3216C0.505974 82.3582 0.478546 82.4012 0.460114 82.4481C0.453629 82.4901 0.453629 82.5328 0.460114 82.5747C0.453766 82.6012 0.453766 82.6288 0.460114 82.6553C0.425484 83.0698 0.440979 83.487 0.50618 83.8978Z" fill="#00B189"/>
<path d="M158.039 116.665L156.888 107.772L165.794 106.679L163.608 88.9142L154.702 90.0647C155.025 92.6535 155.301 95.2422 155.68 97.8309C155.807 98.7283 155.531 98.9816 154.679 99.0851C152.447 99.3037 150.238 99.5683 148.018 99.902C147.166 100.029 146.867 99.8214 146.741 98.924C146.487 96.3238 146.131 93.7466 145.82 91.1578L136.949 92.3084L138.043 101.168L129.103 102.318L130.161 111.212C132.785 110.878 135.408 110.567 138.031 110.211C138.79 110.096 139.09 110.291 139.182 111.085C139.469 113.708 139.814 116.332 140.136 118.955L158.039 116.665Z" fill="#007481"/>
<path d="M152.585 72.2773L139.504 73.8421L116.999 76.6264L118.15 85.5201L153.736 81.1366C153.322 78.1298 152.938 75.1767 152.585 72.2773Z" fill="#E5E1E6"/>
<path d="M145.878 91.1003C146.188 93.689 146.545 96.2662 146.798 98.8665C146.89 99.7639 147.224 100.017 148.075 99.8444C150.296 99.5108 152.505 99.2462 154.737 99.0276C155.588 98.9355 155.887 98.6709 155.738 97.7735C155.358 95.1848 155.082 92.5961 154.76 90.0073L145.878 91.1003Z" fill="#00827E"/>
<path d="M152.585 72.2774C152.938 75.2074 153.299 78.149 153.667 81.1021L162.561 79.9515L161.468 71.0923L152.585 72.2774Z" fill="#FF5100"/>
<path d="M80.3426 72.0012L112.236 68.1009L115.86 67.6752L114.709 58.7584L79.1231 63.119C79.5603 66.072 79.9668 69.0328 80.3426 72.0012Z" fill="#24272A"/>
<path d="M140.24 118.805C139.918 116.182 139.573 113.559 139.285 110.936C139.205 110.142 138.905 109.946 138.135 110.061C135.511 110.418 132.888 110.729 130.265 111.062C130.633 114.023 130.993 116.987 131.346 119.956L140.24 118.805Z" fill="#00827E"/>
<path d="M130.23 111.028L129.172 102.134L120.255 103.284L121.406 112.201L130.23 111.028Z" fill="#24272A"/>
<path d="M85.7616 116.493L94.5979 115.411L93.4474 106.587L84.6456 107.668L85.7272 116.504L85.7616 116.493Z" fill="#24272A"/>
<path d="M41.293 121.969L40.2115 113.145L31.3754 114.226L32.4569 123.039L41.3045 121.946L41.293 121.969Z" fill="#24272A"/>
<path d="M5.6953 126.353C8.28402 126.031 10.8728 125.686 13.4615 125.398C14.2784 125.306 14.6119 125.099 14.4969 124.167C14.1517 121.866 13.8871 119.565 13.6455 117.264C13.5649 116.539 13.2889 116.332 12.5755 116.424C10.2744 116.746 7.91574 117.045 5.58013 117.287C4.75173 117.367 4.63669 117.724 4.72873 118.437C5.0854 121.061 5.38466 123.695 5.70681 126.318L5.6953 126.353Z" fill="#00827E"/>
<path d="M112.489 113.225L113.547 122.13L122.464 121.037L121.314 112.121L112.489 113.225Z" fill="#24272A"/>
<path d="M0.575295 126.963L2.19345e-05 127.032V129.552V136.052L0.575295 135.983L1.15057 135.914L6.74207 135.224C6.37389 132.267 5.99421 129.31 5.59152 126.353L1.04692 126.905L0.575295 126.963Z" fill="#24272A"/>
<path d="M75.9706 36.4377L67.1342 37.5193L70.4134 64.2235L79.238 63.1419L75.9706 36.4377Z" fill="#24272A"/>
<path d="M85.9458 44.3076L87.0158 53.0632L104.665 50.9002L103.595 42.1445L85.9458 44.3076Z" fill="#EA0029"/>
<path d="M16.913 70.747L18.006 79.6408L53.5695 75.2802L52.4993 66.3865L16.913 70.747Z" fill="#24272A"/>
<path d="M52.5223 66.3981L61.3472 65.3166L58.0796 38.6239L49.2435 39.7744L52.5223 66.3981Z" fill="#24272A"/>
<path d="M8.07688 71.8286L16.9706 70.7701L13.6914 44.0774L4.80923 45.2279L8.07688 71.8286Z" fill="#24272A"/>
<path d="M42.4896 58.4707L41.4197 49.7151L23.7702 51.8896L24.8401 60.6338L42.4896 58.4707Z" fill="#EA0029"/>
<path d="M118.103 85.4395L116.953 76.5459L10.1706 89.6621L11.2639 98.5673L118.103 85.4395Z" fill="#24272A"/>
<path d="M10.2282 89.6621L9.1468 80.8029L2.15139 81.6658C2.05935 81.6658 1.97882 81.8154 1.87527 81.8384C0.264506 82.2411 0.287584 82.2295 0.506188 83.8978C0.747803 85.7502 0.978013 87.6141 1.18511 89.4664C1.27715 90.3754 1.58778 90.7666 2.60026 90.617C5.14297 90.2373 7.69707 89.9727 10.2513 89.6506L10.2282 89.6621Z" fill="#24272A"/>
</g>
<defs>
<clipPath id="clip0">
<rect width="177" height="163.044" fill="white" transform="matrix(-1 0 0 1 177 0)"/>
</clipPath>
</defs>
</svg>
