<svg width="102" height="310" viewBox="0 0 102 310" fill="none" xmlns="http://www.w3.org/2000/svg">
<g clip-path="url(#clip0)">
<path d="M41.2551 151.535C52.636 147.706 60.9119 140.095 68.7794 131.107C78.2693 121.022 89.8604 112.583 98.2065 101.587C102.876 91.4084 88.4014 84.4515 81.8646 92.459C76.9621 96.4511 72.2462 101.891 66.3281 104.038C63.1765 103.898 61.1571 105.894 59.056 107.797C55.7293 110.272 31.7884 135.812 34.193 122.003C42.0371 114.416 50.138 106.922 57.2233 98.6573C66.865 86.7978 79.9268 76.304 82.4832 60.5341C82.2847 53.5304 72.9116 48.161 68.1375 55.2814C60.8303 65.4717 48.5389 71.915 44.3133 84.1597C42.9243 87.1246 40.0411 89.5292 38.0568 92.1789L37.1813 91.2684C37.6445 90.0543 38.2687 88.9079 39.0372 87.86C39.8438 86.7181 40.4079 85.423 40.6948 84.0547C35.9323 87.7666 32.8273 91.887 27.6329 95.027C22.1934 97.9568 23.956 90.1829 26.8975 88.2452C34.4732 79.654 42.7725 71.7633 50.4182 63.3122C55.204 58.5147 55.204 58.503 53.92 52.1413C54.2235 52.0123 54.4897 51.8088 54.6937 51.5497C54.8977 51.2906 55.0331 50.9843 55.0873 50.659C56.2242 49.301 57.6061 48.1685 59.161 47.3205C73.822 40.2118 87.0939 10.1195 66.0246 3.92128C51.7605 2.31044 36.7143 16.8314 35.6755 30.6636C32.0803 41.671 20.1741 48.1726 16.2754 59.0516C15.6457 59.419 14.9457 59.6496 14.221 59.7286C11.5596 59.7286 15.2014 53.0401 5.57141 52.5615C6.5169 41.7759 34.4733 14.4968 25.9755 7.46984C16.4155 6.69944 0.925739 32.5078 -8.93773 56.2618C-9.13617 56.7404 -9.33461 57.219 -9.52137 57.6976C-9.70813 58.1761 -9.90656 58.6432 -10.0933 59.1217V67.1409C-9.75481 167.13 -9.42802 244.567 -9.11285 299.137C-9.11285 300.876 -9.11285 302.638 -9.11285 304.273L-8.5409 303.444C-8.34246 303.164 -8.14403 302.872 -7.95726 302.58C-2.12089 293.942 3.16692 284.908 8.29125 275.803C10.8826 272.301 9.27176 268.286 9.45853 264.655C15.0731 257.768 11.0343 250.356 20.4775 244.041C27.3878 241.788 32.1503 231.528 37.0179 230.968C42.0371 232.485 45.5973 230.057 48.6205 226.415C52.0406 222.844 54.4569 217.194 59.4645 215.653C63.1881 215.14 66.0713 213.027 68.6042 210.506C72.8181 206.163 79.425 205.498 82.8568 200.222C91.0277 188.549 79.6 180.028 68.9194 177.95C66.7833 177.402 66.3165 175.546 68.1024 174.448C76.6002 167.06 82.7984 157.476 89.9771 148.85C93.7591 141.321 79.7402 140.772 75.8882 144.508C69.7016 146.515 56.9199 163.511 52.8811 157.873C44.8736 151.476 37.7765 163.955 30.3994 166.628C16.9991 168.775 38.6754 153.741 41.2551 151.535ZM35.1503 95.1555C35.1503 95.1555 35.1502 95.1555 35.0918 95.1555H35.1503Z" fill="#638C1C"/>
<path d="M96.4088 88.0934C93.8355 86.418 90.7447 85.726 87.7027 86.144C84.6607 86.562 81.871 88.0621 79.8451 90.3695C78.5377 91.4434 77.2422 92.6107 75.9932 93.743C72.7715 96.6611 69.4447 99.6611 65.8495 101.12C61.9975 101.202 59.4645 103.455 57.4101 105.392L57.235 105.556C56.4646 106.151 55.2624 107.295 53.1146 109.326C50.3365 111.976 43.0877 118.851 38.6521 121.793L39.9127 120.625C46.5428 114.264 53.3948 107.692 59.5346 100.537C61.7291 97.8402 64.2037 95.1321 66.5383 92.5057C74.7092 83.4127 83.2886 73.9928 85.3896 60.9893V60.7209V60.4406C85.2692 57.9312 84.374 55.5209 82.8271 53.5412C81.2802 51.5616 79.1578 50.1101 76.7519 49.3865C74.715 48.7702 72.5311 48.8459 70.5418 49.602C68.5525 50.358 66.8696 51.7518 65.7561 53.5655C62.8928 57.2877 59.6799 60.7273 56.1612 63.8374C51.7722 68.0046 47.2548 72.2768 44.0915 77.6696L38.8855 81.7318C36.8661 83.3076 35.1619 84.9301 33.5043 86.4942C31.7425 88.2436 29.8628 89.87 27.8781 91.3618C28.0346 91.0956 28.2405 90.8617 28.485 90.673L28.8119 90.463L29.0686 90.1712C33.1074 85.5955 37.4263 81.1364 41.6168 76.8175C45.2237 73.0939 48.9708 69.2419 52.5193 65.3082C57.4802 60.3356 58.1572 59.0516 57.1884 53.2269C57.4127 52.9209 57.5971 52.5875 57.737 52.2348L58.0522 51.9313C58.7036 51.1495 59.4954 50.4962 60.3867 50.0052L60.5268 49.9351C71.6743 44.5306 80.9191 28.6207 79.9152 16.5511C79.2732 8.87042 74.6625 3.38425 66.9351 1.10807L66.4448 1.01474C59.4412 0.22099 51.8889 2.76555 45.3172 8.20505C38.2318 14.0414 33.6444 22.2125 32.8973 30.0565C31.2048 34.9241 27.6095 38.9395 23.8042 43.1767C20.4279 46.6349 17.5022 50.5059 15.0964 54.6977C14.5505 53.5331 13.7374 52.5137 12.7232 51.7226C11.7091 50.9316 10.5225 50.3912 9.26003 50.1453C10.8825 46.1532 14.8513 40.3635 18.4348 35.1342C26.9209 22.7494 34.9285 11.0533 27.8665 5.20521L27.166 4.62158L26.2439 4.55161C22.3452 4.23645 18.0729 6.67594 13.1937 12.0221C5.8399 20.0879 -2.37771 34.3404 -8.98449 48.8379C-9.18292 49.2815 -9.36969 49.7251 -9.56812 50.157C-9.76656 50.5889 -9.95331 51.0207 -10.1401 51.4526C-10.1401 54.0206 -10.1401 56.5654 -10.1401 59.11V67.1292C-9.95331 66.6039 -9.76656 66.1019 -9.56812 65.5649C-9.38136 65.0397 -9.18292 64.5261 -8.98449 63.9891C-2.45942 46.6785 7.99932 26.2862 17.3842 15.9908C20.886 12.1622 23.2206 10.9131 24.5396 10.5396C25.6252 14.1815 18.1313 25.1189 13.5089 31.8657C7.89433 40.0366 3.00347 47.1454 2.58325 52.3281L2.3148 55.3513L5.34968 55.503C9.40013 55.7015 9.62191 56.7988 10.0188 58.4796C10.0864 59.2584 10.3401 60.0094 10.7586 60.6696C11.177 61.3298 11.7479 61.8798 12.4233 62.2733C14.1859 63.1254 16.0885 62.4017 17.536 61.678L18.5865 61.1527L18.9835 60.0554C20.7111 55.2579 24.2596 51.3009 28.0182 47.1104C32.1387 42.523 36.3875 37.7722 38.4185 31.5973L38.5237 31.2587V30.9086C38.9906 24.6053 42.9593 17.6366 48.8774 12.7341C54.0484 8.45018 60.0482 6.30246 65.371 6.81606C70.6237 8.43857 73.5419 11.8937 73.9388 17.0764C74.7325 26.6714 66.795 40.3285 57.8887 44.6941C56.2922 45.4591 54.8668 46.5392 53.6983 47.8692L52.9861 48.5812L52.3909 49.1999L52.2741 49.6433L50.4999 50.3204L50.9667 52.7249C51.4336 55.1528 51.7488 56.7637 51.527 57.394C51.3052 58.0243 50.0679 59.3551 48.212 61.211L48.107 61.316C44.6051 65.1914 40.8932 69.0201 37.298 72.732C33.1425 77.0276 28.8353 81.4516 24.7848 86.039C21.9017 88.2451 19.9523 93.4979 21.7499 96.5444C22.1608 97.2187 22.7499 97.7662 23.4523 98.1267C24.1547 98.4871 24.943 98.6465 25.7303 98.5872L12.7852 108.159L31.1114 100.186L30.5862 101.856L33.1192 99.3226L34.7766 98.5989L37.1112 100.186L37.8 96.2176L38.2435 96.6728L40.3095 93.9298C40.9398 93.0893 41.6986 92.2373 42.504 91.3385C44.2515 89.5903 45.7235 87.5869 46.8696 85.3969L46.9864 85.1168C49.321 78.2766 54.5737 73.3274 60.1066 68.0863C63.9149 64.6988 67.3898 60.9543 70.4837 56.9039C70.9045 56.0997 71.5942 55.4687 72.4325 55.121C73.2708 54.7733 74.2046 54.731 75.071 55.0012C76.242 55.3802 77.2795 56.0878 78.0597 57.0398C78.8399 57.9918 79.33 59.1479 79.4716 60.3706C77.569 71.4597 70.0517 79.7591 62.1026 88.5487C59.6746 91.2217 57.1766 93.9882 54.9238 96.7196C49.0874 103.595 42.2706 110.073 35.7456 116.33L32.0803 119.832L31.3915 120.485L31.2399 121.431C30.6212 124.933 31.3682 127.267 33.4576 128.434C37.7298 130.769 44.4534 125.446 57.0133 113.528C58.6591 111.964 60.2117 110.493 60.7136 110.108L61.2271 109.665C63.1998 107.855 64.3787 106.84 66.1179 106.922H66.7016L67.2386 106.723C72.0945 104.96 76.0048 101.435 79.7751 98.0152C81.1058 96.848 82.3549 95.6807 83.6155 94.6535L83.8489 94.4667L84.0474 94.2333C85.1638 92.9491 86.7095 92.1153 88.3958 91.8876C90.082 91.6599 91.7935 92.0538 93.2105 92.9959C94.4172 93.6476 95.3303 94.7345 95.764 96.0356C96.1977 97.3367 96.1194 98.7542 95.545 99.9995C90.6658 106.373 84.4793 112.034 78.4912 117.509C74.4757 121.174 70.3202 124.979 66.4565 129.088C59.5345 137.002 51.5504 144.846 40.1928 148.675L39.6559 148.85L39.2357 149.224C38.9089 149.492 38.0684 150.122 37.1346 150.846C26.3373 159.017 21.7966 163.359 23.4191 167.118C24.8198 170.386 29.2554 169.651 30.9596 169.371L31.485 169.242C34.4499 168.168 37.1579 165.939 39.7726 163.779C45.1304 159.367 47.8735 157.616 50.8851 159.834C51.7827 160.925 53.0748 161.617 54.4802 161.76C58.7291 162.239 63.4099 158.095 68.8261 153.297C71.7676 150.683 75.0944 147.729 76.8686 147.157L77.5222 146.947L78.0008 146.469C79.5533 144.975 85.3897 144.414 87.4908 145.967C87.7359 146.142 87.946 146.294 87.5841 147.134C85.4714 149.679 83.4286 152.328 81.4559 154.885C76.7868 160.861 72.1177 167.048 66.4098 171.997C65.6342 172.482 65.0155 173.18 64.6282 174.009C64.2409 174.837 64.1015 175.76 64.227 176.666C64.4311 177.66 64.9246 178.572 65.6453 179.286C66.366 180.001 67.2817 180.486 68.2775 180.682H68.4409C73.9388 181.755 80.3354 184.93 82.2497 189.623C83.3236 192.284 82.7517 195.249 80.4988 198.506C78.993 200.84 76.6002 202.008 73.8221 203.478C71.2134 204.74 68.8311 206.424 66.7717 208.463C64.1103 211.101 61.8107 212.431 59.2777 212.793L58.8225 212.887C54.4685 214.241 51.8188 217.801 49.4843 220.953C48.6337 222.178 47.706 223.347 46.7063 224.454L46.5661 224.618C43.6479 228.12 41.1851 229.182 38.0684 228.236L37.4848 228.061H36.8895C33.3876 228.458 30.6446 231.493 27.7264 234.691C25.1934 237.481 22.5786 240.353 19.7772 241.263L19.392 241.392L19.0535 241.613C12.5751 245.956 11.4545 250.952 10.474 255.27C9.84371 258.06 9.30674 260.477 7.39241 262.811L6.79709 263.546L6.73867 264.492C6.69428 265.758 6.74501 267.027 6.89042 268.286C7.12388 270.912 7.21737 272.604 6.13181 274.052L5.92164 274.379C1.68443 281.908 -2.82127 289.693 -7.81721 297.362C-8.00397 297.666 -8.20241 297.958 -8.40085 298.261C-8.59928 298.565 -8.77436 298.845 -8.9728 299.137C-8.9728 300.876 -8.9728 302.638 -8.9728 304.273C-8.9728 305.907 -8.9728 307.681 -8.9728 309.35C-8.77436 309.082 -8.57593 308.813 -8.38916 308.533C-8.2024 308.253 -8.00397 307.996 -7.81721 307.716C-0.813562 297.689 5.27961 287.324 10.8592 277.367C13.1937 274.099 12.902 270.573 12.6451 267.737C12.5751 267.002 12.5167 266.301 12.4934 265.648C14.3357 262.901 15.5694 259.793 16.1119 256.531C16.9757 252.679 17.6644 249.621 21.9483 246.644C26.0104 245.162 29.1737 241.683 31.9751 238.602C33.6677 236.746 35.7338 234.47 37.0878 233.933C44.6284 235.765 49.2975 230.291 50.9434 228.33C52.0763 227.068 53.1364 225.743 54.1185 224.361C56.0445 221.77 57.8538 219.318 60.27 218.466C64.3189 217.651 68.0003 215.56 70.7755 212.501C72.4756 210.96 74.4101 209.699 76.5067 208.766C79.565 207.179 83.0435 205.381 85.3431 201.856C89.5803 195.751 88.9383 190.685 87.6776 187.522C85.0279 180.985 77.604 177.016 71.3358 175.452C76.927 170.328 81.5727 164.328 86.0668 158.503C88.0745 155.889 90.1638 153.181 92.2883 150.624L92.4985 150.379L92.6502 150.076C94.3778 146.644 93.7357 143.364 90.9342 141.309C86.8721 138.321 78.421 138.695 74.4406 141.881C71.6625 143.049 68.5343 145.792 64.9391 148.967C62.1727 151.418 57.095 155.97 55.2624 155.97L55.0872 155.714L54.7721 155.468C47.6283 149.749 40.9398 155.258 36.0957 159.274C34.9284 160.278 33.6444 161.293 32.4421 162.122C34.4031 160.394 37.1541 158.184 40.6948 155.492L42.5975 154.033C55.0173 149.69 63.8534 140.948 70.7987 133.022C74.4523 129.146 78.5144 125.423 82.4715 121.828C88.7397 116.096 95.2181 110.155 100.448 103.268L100.646 103.011L100.786 102.708C102.025 100.167 102.263 97.2533 101.452 94.5455C100.641 91.8377 98.8406 89.5343 96.4088 88.0934Z" fill="#24272A"/>
</g>
<defs>
<clipPath id="clip0">
<rect width="112" height="308.464" fill="white" transform="translate(-10 0.89801)"/>
</clipPath>
</defs>
</svg>
