<svg width="105" height="298" viewBox="0 0 105 298" fill="none" xmlns="http://www.w3.org/2000/svg">
<g clip-path="url(#clip0)">
<path d="M58.5574 145.212C47.5863 141.521 39.6085 134.184 32.0244 125.52C22.8762 115.798 11.7025 107.663 3.65705 97.0628C-0.843895 87.2508 13.109 80.5444 19.4104 88.2635C24.1364 92.1119 28.6824 97.3555 34.3873 99.4259C37.4255 99.2909 39.3721 101.215 41.3975 103.049C44.6045 105.435 67.6831 130.055 65.3651 116.743C57.8036 109.429 49.9944 102.205 43.1642 94.2386C33.8698 82.8062 21.2784 72.6903 18.8141 57.4883C19.0054 50.7369 28.041 45.5608 32.6432 52.4248C39.6872 62.2481 51.5359 68.4594 55.6093 80.2631C56.9483 83.1212 59.7276 85.4392 61.6405 87.9935L62.4845 87.1158C62.0379 85.9454 61.4362 84.8404 60.6954 83.8302C59.9179 82.7294 59.374 81.4809 59.0975 80.1619C63.6885 83.7401 66.6817 87.7121 71.689 90.739C76.9326 93.5634 75.2335 86.0694 72.3979 84.2015C65.0951 75.9197 57.0946 68.3131 49.7243 60.1664C45.1109 55.5417 45.1109 55.5304 46.3486 49.3978C46.056 49.2735 45.7994 49.0773 45.6028 48.8275C45.4061 48.5777 45.2756 48.2825 45.2234 47.9689C44.1273 46.6598 42.7952 45.568 41.2963 44.7506C27.1633 37.8979 14.3694 8.88935 34.6799 2.91435C48.4303 1.36152 62.9346 15.3595 63.9361 28.6936C67.4018 39.3046 78.8792 45.5721 82.6375 56.0593C83.2445 56.4134 83.9193 56.6357 84.6179 56.7119C87.1835 56.7119 83.6728 50.2642 92.956 49.8029C92.0445 39.4057 65.095 13.109 73.2867 6.33512C82.5024 5.59246 97.4344 30.4714 106.943 53.3699C107.134 53.8313 107.325 54.2926 107.505 54.754C107.685 55.2153 107.877 55.6655 108.057 56.1269L108.057 63.8572C107.73 160.245 107.415 234.893 107.111 287.498C107.111 289.175 107.111 290.874 107.111 292.449L106.56 291.65C106.369 291.38 106.177 291.099 105.997 290.817C100.371 282.491 95.2739 273.781 90.3341 265.004C87.836 261.629 89.3889 257.758 89.2088 254.259C83.7964 247.62 87.6898 240.474 78.5867 234.387C71.9253 232.215 67.3343 222.324 62.642 221.784C57.8035 223.247 54.3716 220.907 51.4572 217.396C48.1603 213.953 45.831 208.506 41.0037 207.021C37.4142 206.526 34.6349 204.489 32.1932 202.059C28.1311 197.873 21.7621 197.231 18.4539 192.145C10.5773 180.893 21.5934 172.679 31.8893 170.676C33.9485 170.147 34.3986 168.358 32.6769 167.3C24.4852 160.177 18.5102 150.939 11.59 142.624C7.94426 135.366 21.4583 134.837 25.1716 138.438C31.1353 140.373 43.4568 156.757 47.3501 151.322C55.0692 145.156 61.9107 157.184 69.0222 159.761C81.9399 161.832 61.0442 147.338 58.5574 145.212ZM64.4424 90.8629C64.4424 90.8629 64.4424 90.8629 64.4987 90.8629L64.4424 90.8629Z" fill="#638C1C"/>
<path d="M5.38995 84.0552C7.87055 82.4401 10.8501 81.773 13.7825 82.176C16.715 82.5789 19.4041 84.025 21.3571 86.2493C22.6174 87.2845 23.8663 88.4098 25.0703 89.5013C28.176 92.3144 31.383 95.2063 34.8487 96.6128C38.562 96.6916 41.0037 98.8632 42.9842 100.731L43.153 100.889C43.8956 101.463 45.0545 102.565 47.1249 104.523C49.803 107.077 56.7908 113.705 61.0667 116.541L59.8514 115.416C53.4601 109.283 46.8549 102.948 40.9361 96.0502C38.8207 93.4509 36.4352 90.8404 34.1847 88.3086C26.3081 79.543 18.0377 70.4623 16.0123 57.9272L16.0123 57.6684L16.0123 57.3982C16.1283 54.9792 16.9913 52.6557 18.4825 50.7474C19.9737 48.839 22.0197 47.4397 24.3389 46.7423C26.3025 46.1481 28.4077 46.2211 30.3254 46.95C32.2431 47.6788 33.8653 49.0224 34.9387 50.7707C37.6989 54.3589 40.7961 57.6746 44.1881 60.6727C48.419 64.6898 52.7738 68.8081 55.8232 74.0067L60.8417 77.9227C62.7883 79.4418 64.4312 81.0058 66.029 82.5136C67.7274 84.2 69.5394 85.7678 71.4526 87.2059C71.3017 86.9492 71.1032 86.7238 70.8676 86.5419L70.5525 86.3394L70.3049 86.0581C66.4116 81.6472 62.2482 77.3487 58.2086 73.1853C54.7317 69.5958 51.1196 65.8826 47.6988 62.0905C42.9166 57.297 42.2639 56.0593 43.1979 50.4443C42.9816 50.1493 42.8039 49.8279 42.6691 49.4879L42.3652 49.1953C41.7372 48.4417 40.974 47.812 40.1147 47.3387L39.9797 47.2711C29.2337 42.0612 20.3219 26.7243 21.2896 15.0893C21.9084 7.68528 26.3531 2.39669 33.8022 0.202481L34.2748 0.112511C41.0263 -0.652649 48.3065 1.80027 54.6416 7.04387C61.4718 12.6701 65.894 20.5468 66.6141 28.1084C68.2457 32.8007 71.7115 36.6715 75.3798 40.7561C78.6345 44.0897 81.4549 47.8213 83.774 51.8622C84.3002 50.7395 85.0841 49.7568 86.0617 48.9943C87.0393 48.2317 88.1832 47.7107 89.4002 47.4737C87.8361 43.6254 84.0103 38.0442 80.5558 33.0032C72.3754 21.0644 64.6562 9.78951 71.4638 4.15208L72.1391 3.58946L73.0279 3.52202C76.7862 3.2182 80.9047 5.56984 85.6081 10.7234C92.6971 18.4988 100.619 32.238 106.988 46.2134C107.179 46.641 107.359 47.0686 107.55 47.485C107.742 47.9013 107.922 48.3176 108.102 48.734C108.102 51.2095 108.102 53.6626 108.102 56.1156L108.102 63.846C107.922 63.3396 107.742 62.8557 107.55 62.338C107.37 61.8317 107.179 61.3366 106.988 60.819C100.698 44.1317 90.6155 24.4738 81.5686 14.5493C78.1929 10.8585 75.9424 9.65443 74.6709 9.29435C73.6244 12.8051 80.8484 23.3486 85.3043 29.8525C90.7167 37.7291 95.4314 44.5818 95.8365 49.5779L96.0953 52.4922L93.1697 52.6385C89.2651 52.8298 89.0513 53.8876 88.6688 55.5079C88.6036 56.2586 88.359 56.9826 87.9556 57.619C87.5522 58.2554 87.0019 58.7856 86.3508 59.1649C84.6517 59.9864 82.8176 59.2887 81.4223 58.5911L80.4096 58.0847L80.0269 57.027C78.3615 52.4022 74.9408 48.5877 71.3176 44.5481C67.3455 40.1259 63.2497 35.5462 61.2918 29.5937L61.1904 29.2673L61.1904 28.9298C60.7403 22.8535 56.9145 16.1358 51.2096 11.4098C46.2248 7.28018 40.4411 5.2098 35.31 5.70491C30.2464 7.26898 27.4333 10.5997 27.0508 15.5958C26.2856 24.8452 33.9372 38.0104 42.5228 42.2188C44.0619 42.9563 45.4359 43.9975 46.5623 45.2795L47.2489 45.9659L47.8226 46.5623L47.9352 46.9898L49.6455 47.6425L49.1955 49.9604C48.7454 52.3009 48.4416 53.8538 48.6554 54.4614C48.8692 55.069 50.0619 56.3518 51.851 58.1409L51.9523 58.2422C55.328 61.9779 58.9062 65.6688 62.372 69.247C66.3778 73.3879 70.5299 77.6526 74.4345 82.0747C77.2138 84.2014 79.0929 89.265 77.3601 92.2019C76.9641 92.8518 76.3962 93.3796 75.719 93.7271C75.0419 94.0746 74.282 94.2283 73.5231 94.171L86.0019 103.398L68.3358 95.7126L68.8421 97.3218L66.4003 94.8799L64.8025 94.1823L62.552 95.7126L61.8881 91.8868L61.4605 92.3256L59.4689 89.6814C58.8613 88.8712 58.1299 88.0498 57.3535 87.1834C55.6689 85.4982 54.2499 83.5669 53.1451 81.4558L53.0324 81.1858C50.782 74.5919 45.7184 69.8209 40.3848 64.7686C36.7137 61.5031 33.3639 57.8934 30.3814 53.9889C29.9757 53.2137 29.3109 52.6054 28.5028 52.2702C27.6946 51.9351 26.7945 51.8942 25.9593 52.1547C24.8304 52.5201 23.8303 53.2022 23.0782 54.1199C22.3261 55.0376 21.8537 56.1521 21.7172 57.3308C23.5513 68.0205 30.7978 76.021 38.4607 84.494C40.8012 87.0708 43.2092 89.7376 45.3809 92.3707C51.0071 98.9983 57.5784 105.243 63.8685 111.275L67.4017 114.65L68.0657 115.28L68.2119 116.192C68.8083 119.568 68.0882 121.818 66.074 122.943C61.9557 125.194 55.4742 120.063 43.3667 108.574C41.7801 107.066 40.2835 105.648 39.7997 105.277L39.3046 104.85C37.403 103.105 36.2665 102.126 34.5899 102.205L34.0273 102.205L33.5096 102.014C28.8286 100.315 25.0591 96.9166 21.4246 93.6197C20.1418 92.4944 18.9378 91.3692 17.7225 90.379L17.4975 90.1989L17.3062 89.9739C16.23 88.736 14.74 87.9322 13.1144 87.7127C11.4889 87.4932 9.83905 87.873 8.47309 88.7811C7.30981 89.4093 6.42957 90.4571 6.0115 91.7114C5.59342 92.9656 5.66892 94.332 6.22262 95.5325C10.9261 101.676 16.8898 107.134 22.6623 112.411C26.5331 115.944 30.539 119.613 34.2636 123.573C40.9362 131.203 48.6328 138.764 59.5814 142.455L60.099 142.624L60.504 142.984C60.8191 143.243 61.6293 143.85 62.5295 144.548C72.938 152.425 77.3151 156.61 75.751 160.234C74.4008 163.384 70.1249 162.675 68.4821 162.405L67.9756 162.282C65.1175 161.246 62.507 159.097 59.9865 157.015C54.8216 152.762 52.1773 151.074 49.2742 153.212C48.4089 154.264 47.1633 154.931 45.8085 155.069C41.7126 155.53 37.2004 151.536 31.9793 146.911C29.1437 144.39 25.9368 141.543 24.2264 140.992L23.5963 140.79L23.135 140.328C21.6384 138.888 16.0122 138.348 13.9868 139.844C13.7505 140.013 13.548 140.159 13.8968 140.97C15.9335 143.423 17.9026 145.977 19.8043 148.441C24.3052 154.202 28.8062 160.166 34.3086 164.937C35.0562 165.404 35.6526 166.078 36.026 166.877C36.3994 167.675 36.5338 168.565 36.4128 169.438C36.216 170.396 35.7402 171.275 35.0455 171.964C34.3508 172.652 33.468 173.12 32.5081 173.309L32.3506 173.309C27.0507 174.344 20.8845 177.405 19.0391 181.928C18.0039 184.494 18.5552 187.352 20.7269 190.491C22.1785 192.742 24.4852 193.867 27.1633 195.285C29.678 196.501 31.9744 198.125 33.9597 200.09C36.5253 202.633 38.742 203.915 41.1838 204.264L41.6227 204.354C45.8198 205.66 48.3741 209.091 50.6246 212.13C51.4444 213.311 52.3388 214.438 53.3025 215.505L53.4376 215.663C56.2507 219.039 58.6249 220.062 61.6293 219.151L62.1919 218.982L62.7658 218.982C66.1415 219.365 68.7858 222.29 71.5988 225.374C74.0406 228.063 76.5612 230.831 79.2618 231.709L79.6331 231.832L79.9594 232.046C86.2045 236.232 87.2847 241.048 88.2299 245.212C88.8375 247.901 89.3551 250.23 91.2005 252.481L91.7744 253.189L91.8307 254.101C91.8735 255.322 91.8246 256.544 91.6844 257.758C91.4594 260.29 91.3693 261.921 92.4157 263.317L92.6183 263.632C96.7029 270.889 101.046 278.395 105.862 285.788C106.042 286.08 106.234 286.362 106.425 286.654C106.616 286.947 106.785 287.217 106.976 287.498C106.976 289.175 106.976 290.874 106.976 292.449C106.976 294.024 106.976 295.735 106.976 297.344C106.785 297.085 106.594 296.826 106.414 296.556C106.234 296.286 106.042 296.039 105.862 295.769C99.111 286.103 93.2372 276.111 87.8586 266.512C85.6081 263.362 85.8894 259.963 86.137 257.229C86.2045 256.52 86.2607 255.845 86.2832 255.215C84.5073 252.568 83.318 249.571 82.795 246.427C81.9624 242.714 81.2985 239.765 77.1688 236.896C73.253 235.467 70.2037 232.114 67.5031 229.143C65.8715 227.354 63.8798 225.16 62.5746 224.642C55.3055 226.409 50.8046 221.132 49.218 219.241C48.1259 218.025 47.1039 216.748 46.1573 215.415C44.3006 212.917 42.5565 210.554 40.2272 209.733C36.3242 208.947 32.7753 206.932 30.1001 203.983C28.4613 202.497 26.5964 201.282 24.5753 200.382C21.6272 198.852 18.2739 197.119 16.0572 193.721C11.9726 187.836 12.5914 182.952 13.8067 179.903C16.361 173.602 23.5175 169.776 29.56 168.268C24.1701 163.328 19.6917 157.544 15.3595 151.929C13.4241 149.409 11.41 146.798 9.36206 144.334L9.15946 144.098L9.01318 143.805C7.34783 140.497 7.96681 137.335 10.6674 135.355C14.5832 132.474 22.7299 132.834 26.567 135.906C29.245 137.031 32.2606 139.676 35.7263 142.736C38.3931 145.099 43.2879 149.488 45.0545 149.488L45.2234 149.24L45.5272 149.004C52.4136 143.49 58.8613 148.801 63.531 152.672C64.6562 153.64 65.894 154.619 67.053 155.418C65.1626 153.752 62.5107 151.622 59.0975 149.026L57.2633 147.62C45.2908 143.434 36.7729 135.006 30.0777 127.366C26.5557 123.63 22.6399 120.04 18.8254 116.575C12.7828 111.05 6.53773 105.322 1.49667 98.6832L1.30534 98.4357L1.17031 98.1431C-0.024369 95.6941 -0.253533 92.8852 0.528297 90.2749C1.31013 87.6646 3.0457 85.4442 5.38995 84.0552Z" fill="#24272A"/>
</g>
<defs>
<clipPath id="clip0">
<rect width="107.966" height="297.355" fill="white" transform="matrix(-1 -8.74228e-08 -8.74228e-08 1 107.967 0)"/>
</clipPath>
</defs>
</svg>
