<svg width="688" height="183" viewBox="0 0 688 183" fill="none" xmlns="http://www.w3.org/2000/svg">
<g clip-path="url(#clip0)">
<path d="M1373.46 122.967C1372.55 123.258 1371.65 123.797 1370.75 123.797C1338.23 123.754 1294.99 123.657 1262.47 123.581C1196.08 123.425 1059.95 123.269 993.561 123.129C974.673 123.085 955.79 123.129 936.901 123.048C918.994 122.951 901.081 122.692 883.173 122.509C881.238 122.509 879.304 122.509 877.106 122.509C876.211 124.26 875.407 125.991 874.458 127.64C873.579 129.16 872.395 130.513 871.623 132.081C871.015 133.287 870.673 134.611 870.62 135.962C870.559 138.898 870.666 141.835 870.942 144.758C871.65 151.927 870.063 158.772 868.364 165.634C868.037 166.972 867.436 168.226 866.6 169.317C865.764 170.409 864.711 171.313 863.508 171.972C858.598 174.813 854.45 173.886 851.646 168.97C849.395 165.03 847.969 160.767 848.227 156.104C848.312 154.536 848.484 152.973 848.473 151.41C848.473 146.074 845.718 140.349 837.968 139.552C835.833 139.308 833.682 139.232 831.536 139.325C821.743 139.864 812.047 138.711 802.474 137.078C795.849 135.951 789.026 134.841 783.044 131.24C782.568 130.888 782.018 130.651 781.436 130.545C776.205 130.206 770.974 129.57 765.775 130.976C763.303 131.669 761.192 133.292 759.879 135.509C757.36 139.428 753.645 141.94 749.883 144.365C746.356 146.634 743.66 145.917 741.494 142.446C740.006 140.119 739.311 137.368 739.516 134.609C739.672 132.453 740.015 130.335 740.363 128.211C740.685 126.255 740.899 124.352 739.463 122.282C738.31 122.223 736.986 122.094 735.663 122.094C710.744 122.045 685.815 121.954 660.897 122.007C653.307 122.007 645.723 122.638 638.133 122.606C627.413 122.563 616.726 122.067 606.016 121.959C587.133 121.77 568.245 121.738 549.362 121.625C536.905 121.549 524.454 121.409 511.998 121.382C508.723 121.382 505.448 121.684 501.717 121.873C501.337 121.253 500.737 120.304 500.163 119.339C499.273 117.841 498.33 116.364 497.531 114.817C495.832 111.529 494.015 108.285 492.643 104.857C492.032 103.326 492.268 101.402 492.332 99.666C492.463 98.3317 492.685 97.008 492.997 95.7044C484.512 93.5484 482.765 93.5107 477.056 95.5481C474.805 100.275 472.275 105.336 469.981 110.505C468.989 112.634 468.557 114.984 468.727 117.329C468.984 120.563 467.349 121.711 464.01 121.641C458.761 121.508 453.512 121.425 448.263 121.393C438.54 121.323 428.817 121.317 419.094 121.264C413.45 121.231 407.806 121.123 402.162 121.102C370.424 120.998 338.688 120.908 306.953 120.832C275.614 120.768 110.169 120.746 78.829 120.73C66.9568 120.73 55.0791 120.606 43.2176 120.924C37.7773 121.07 32.3745 120.876 26.9556 120.708C18.4333 120.455 9.91632 120.417 1.13675 121.528C0.896668 120.55 0.717654 119.558 0.600752 118.558C0.338115 111.707 -0.0263663 104.857 -0.0746057 98.0059C-0.122845 90.5624 0.161224 83.1188 0.252343 75.6753C0.397061 64.1192 0.788342 52.5578 0.525705 41.0125C0.364907 33.6929 3.50047 28.691 9.23024 24.8857C10.3812 24.1569 11.5915 23.5276 12.8482 23.0046C16.4018 21.4361 18.0688 18.3369 18.9907 14.8873C20.1377 10.6238 16.5841 6.06932 12.1568 5.96691C10.0128 5.92379 7.83129 6.50589 6.07323 4.80805C5.53723 4.30679 4.78683 3.43903 4.92619 2.98088C5.22073 2.11419 5.83729 1.39567 6.64674 0.975797C9.19807 -0.177656 11.9263 -0.172267 14.6867 0.199641C16.979 0.589794 19.2939 0.831059 21.617 0.92191C52.769 0.99737 218.027 0.92191 249.179 1.05666C291.04 1.1968 332.895 1.48245 374.757 1.64415C422.639 1.82741 470.535 1.97654 518.446 2.09152C535.598 2.15081 552.712 2.37181 569.848 2.46883C589.315 2.57663 608.782 2.61436 628.271 2.70599C649.489 2.8066 670.711 2.91979 691.936 3.04556H695.072C695.726 4.03731 696.396 4.95899 696.969 5.93996C698.905 9.37123 701.774 12.176 705.24 14.0249C708.351 15.6794 710.969 18.1369 712.824 21.145C713.558 22.2931 714.475 23.301 715.316 24.379C715.759 25.0294 716.396 25.5217 717.134 25.7852C717.873 26.0486 718.676 26.0696 719.427 25.8451C723.415 24.8805 727.563 24.7886 731.589 25.5756C735.266 26.2547 738.278 24.9719 740.202 21.9482C744.598 15.0328 750.606 9.9986 757.29 5.46025C760.2 3.48213 762.65 1.68728 766.209 3.21264C772.641 3.21264 779.073 3.24498 785.505 3.21264C791.342 3.16952 797.173 2.91079 803.005 2.9593C825.393 3.15873 847.782 3.49831 870.17 3.68157C898.578 3.89178 927.023 3.97263 955.447 4.11815C956.219 4.11815 956.99 4.19361 958.025 4.24751C960.832 7.68743 964.501 10.3111 968.654 11.8473C971.87 13.0116 972.765 15.4532 972.186 19.0268C971.875 20.9618 971.382 22.8591 970.991 24.7779C970.599 26.6967 970.637 28.5509 971.527 30.1301C973.408 30.5559 973.917 29.2084 974.603 28.4215C975.848 26.9091 977.402 25.6832 979.159 24.8268C980.916 23.9703 982.835 23.5034 984.787 23.4573C994.473 23.1232 1003.48 20.0886 1012.35 16.4504C1013.4 15.9298 1014.52 15.5667 1015.67 15.3724C1021.51 14.8765 1025.26 11.6318 1027.65 6.46817C1027.89 5.92917 1028.23 5.46562 1028.72 4.63557C1029.87 4.57628 1031.19 4.44694 1032.5 4.45233C1100.26 4.65176 1248.51 4.85658 1316.23 5.06679C1322.27 5.06679 1328.32 5.46565 1334.33 5.06679C1340.1 4.71106 1345.91 4.5278 1351.65 3.58995C1354.5 3.12102 1357.48 3.27731 1360.39 3.43901C1364.85 3.69234 1369.3 4.17743 1373.76 4.61402C1374.48 4.74559 1375.18 4.94038 1375.87 5.19615C1376.94 8.96912 1377.31 20.4551 1376.65 28.0119C1371.69 32.9868 1366.6 37.7515 1359.04 39.6164C1358.67 41.6181 1358.19 43.5975 1357.6 45.5454C1356.66 48.1919 1357.29 50.3964 1358.59 52.7464C1360.46 56.1474 1361.91 59.7533 1363.79 63.1706C1365.01 65.3266 1366.32 67.7359 1368.22 69.2127C1371.88 72.0694 1374.23 75.7669 1376.4 79.6962C1376.4 80.467 1376.4 81.2431 1376.4 82.0193C1375.99 82.7363 1375.77 83.5519 1375.78 84.3806C1375.79 85.2093 1376.02 86.0208 1376.44 86.7301L1376.36 92.589C1375.83 94.427 1375.38 96.2757 1374.81 98.0921C1373.93 100.922 1374.43 103.396 1376.52 105.514C1376.52 107.882 1376.5 110.248 1376.48 112.613C1375.49 116.087 1374.48 119.539 1373.46 122.967ZM865.872 136.981C865.941 135.903 866.016 134.825 866.086 133.747C866.793 130.588 868.814 128.179 870.658 125.662C872.241 123.506 872.278 121.341 870.771 119.167C870.106 118.208 869.339 117.313 868.707 116.332C866.525 112.925 862.811 111.325 859.943 108.705C857.105 105.983 853.401 104.358 849.486 104.118C846.388 103.946 843.301 103.444 840.214 103.455C829.622 103.493 820.484 99.7523 812.663 92.7507C809.88 90.3157 806.613 88.5041 803.08 87.4362C801.327 86.8649 799.666 86.687 798.02 87.5656C795.463 88.9346 792.842 90.2228 790.414 91.7967C786.335 94.4485 782.273 97.0303 777.583 98.5826C774.667 99.5475 771.874 99.79 769.071 98.6797C766.552 97.6941 764.099 96.5455 761.728 95.2409C759.439 93.9688 757.204 93.9581 755.103 95.2409C752.487 96.8579 749.947 98.6904 749.175 102.011V101.978C745.916 105.385 744.689 109.573 744.673 114.176C744.673 120.805 745.278 127.435 744.024 134.059C743.724 135.338 743.809 136.677 744.268 137.906C744.727 139.136 745.54 140.2 746.602 140.964C750.536 138.63 754.219 136.199 756.743 132.302C758.454 129.641 761.055 127.683 764.076 126.783C770.191 124.843 776.377 125.484 782.567 126.201C783.331 126.323 784.062 126.603 784.711 127.025C789.969 130.324 796.026 131.337 801.863 132.415C811.415 134.14 821.095 135.38 830.877 134.873C833.403 134.716 835.939 134.777 838.455 135.057C846.619 136.064 851.217 141.147 852.354 147.297C852.82 149.783 852.971 152.319 852.804 154.843C852.501 158.769 853.333 162.7 855.2 166.162C857.076 169.714 860.747 169.854 863.015 166.421C863.744 165.268 864.253 163.988 864.515 162.648C865.25 159.004 865.904 155.344 866.381 151.663C866.569 149.728 866.589 147.78 866.44 145.842C866.338 142.861 866.081 139.934 865.882 137.008L865.872 136.981ZM994.162 117.453C995.282 118.849 996.842 118.682 998.375 118.671C1003.33 118.628 1008.29 118.547 1013.24 118.482C1014.02 118.482 1014.79 118.526 1015.57 118.526C1104.54 118.526 1273.98 118.563 1362.95 118.585C1364.12 118.585 1365.29 118.623 1366.45 118.585C1369.36 118.423 1370.03 117.803 1370.59 114.769C1370.73 114.003 1370.59 113.152 1370.92 112.456C1372.06 109.907 1371.81 107.535 1370.43 105.169C1369.82 104.049 1369.44 102.813 1369.32 101.538C1369.2 100.264 1369.35 98.9787 1369.75 97.7634C1371.28 92.7291 1370.48 87.6518 1370.69 82.596C1370.84 79.2165 1369.58 76.6239 1366.65 74.6943C1363.71 72.7276 1361.4 69.9424 1360.01 66.6795C1357.96 62.0549 1356.09 57.3279 1353.29 53.0644C1352.72 52.2653 1352.31 51.3545 1352.1 50.3895C1351.89 49.4246 1351.89 48.4266 1352.08 47.4588C1352.74 44.6075 1353.46 41.7617 1354.36 38.9858C1355.2 36.4202 1356.99 34.5122 1359.66 34.0378C1364.36 33.2024 1367.62 30.1786 1370.92 27.1441C1371.57 26.5632 1372.1 25.8519 1372.47 25.055C1372.84 24.2581 1373.04 23.3929 1373.06 22.5141C1373.21 19.8191 1373.71 17.1241 1373.97 14.4022C1374.04 13.68 1373.77 12.9308 1373.62 11.9767C1369.28 11.2221 1365.19 10.3597 1360.87 10.3597C1336.33 10.4406 1301.08 10.3597 1276.55 10.3597C1274.61 10.4391 1272.66 10.3308 1270.74 10.0363C1264.75 8.85053 1189.09 9.0392 1183.08 9.98783C1180.66 10.3705 1178.09 9.85308 1175.58 9.7884C1170.93 9.66983 1166.23 9.12004 1161.64 9.64826C1158.57 10.0493 1155.48 10.2814 1152.39 10.3436C1142.65 10.3436 1132.92 10.3436 1123.19 10.3436C1121.68 10.3436 1120.03 9.9932 1118.46 11.8204C1118.46 13.3242 1118.37 15.2592 1118.37 17.2104C1118.37 25.4408 1118.37 33.6713 1118.37 41.9018C1118.45 43.262 1118.31 44.6255 1117.97 45.9443C1117.72 46.6935 1116.73 47.4103 1115.92 47.7122C1114.9 48.0895 1114.17 47.3187 1113.61 46.4186C1112.54 44.6399 1112.63 42.6725 1112.63 40.716C1112.63 31.898 1112.67 23.0854 1112.63 14.2675C1112.54 12.7314 1112.36 11.2018 1112.1 9.68599C1107.51 9.19012 1103.34 8.88287 1099.07 9.90157C1100.14 15.9815 1099.56 21.8511 1099.76 27.6885C1099.89 31.9735 1099.46 36.2747 1100.7 40.5166C1101.17 42.1335 1100.86 44.02 1100.82 45.7826C1100.83 46.2761 1100.67 46.7585 1100.37 47.1456C1100.06 47.5327 1099.63 47.8 1099.15 47.9008C1098.58 48.0411 1097.99 47.9685 1097.47 47.6966C1096.95 47.4247 1096.55 46.9723 1096.34 46.424C1095.44 44.2508 1095.01 41.914 1095.06 39.5626C1095.1 32.7011 1095.01 25.8451 1095.01 18.989C1095.07 15.7385 1094.36 12.5204 1092.97 9.58895C1092.3 9.45437 1091.63 9.36079 1090.95 9.30869C1074.21 9.27635 1057.46 9.2566 1040.72 9.24941C1037.6 9.24941 1031.08 11.9444 1028.75 14.2567C1025.77 17.2319 1022.41 19.3071 1018.18 20.0185C1016.3 20.3419 1014.49 21.1828 1012.68 21.8942C1004.7 25.0312 996.633 27.6777 987.966 28.1143C983.351 28.346 979.293 30.0115 976.442 33.9408C975.643 35.0458 974.914 36.21 974.024 37.2395C972.138 39.4224 968.943 38.9319 967.919 36.2154C966.183 31.6231 964.977 26.9392 966.735 22.0236C967.319 20.4066 968.295 18.7896 966.96 16.5528C965.448 15.7766 963.422 14.9951 961.707 13.7716C959.992 12.548 958.615 10.9095 957.033 9.40571C956.482 9.31028 955.925 9.24727 955.366 9.21704C948.552 9.19188 941.738 9.17754 934.924 9.17394H894.038C887.226 9.17394 880.402 8.97988 873.601 9.22243C866.799 9.46498 860.115 8.5541 853.313 9.04459C845.954 9.58358 838.525 9.16854 831.128 9.16315C830.158 9.16315 829.113 9.32486 828.223 9.03919C824.032 7.70248 819.739 8.15524 815.477 8.13368C805.937 8.07978 796.396 8.07978 786.855 8.13368C784.914 8.0726 782.971 8.18803 781.051 8.47862C777.996 8.99879 774.874 8.96593 771.831 8.3816C767.484 7.65395 762.859 6.96943 759.386 11.0766C758.941 11.4594 758.428 11.7539 757.874 11.9444C752.76 14.4065 748.508 18.37 745.68 23.3118C742.695 28.3945 738.353 31.0518 732.114 30.5667C727.708 30.2217 723.185 29.7528 718.811 31.3375C718.062 31.6031 717.25 31.6323 716.483 31.4214C715.717 31.2105 715.033 30.7694 714.523 30.1571C712.379 27.8825 710.203 25.6457 708.316 23.1825C706.708 21.1235 705.164 19.043 702.688 18.2614C698.722 17.0109 696.026 14.4238 693.941 10.985C692.59 8.75891 690.623 7.89112 688.045 8.05282C685.526 8.20913 682.985 8.05282 680.455 8.05282L560.135 8.00969C554.491 8.00969 548.847 8.04203 543.198 8.00969C541.262 7.93468 539.352 8.48223 537.747 9.57279C535.334 11.23 532.727 12.5823 529.986 13.5991C522.31 16.3318 514.544 18.8327 506.793 21.3498C502.35 22.7997 497.971 22.886 494.021 19.9107C493.341 19.3519 492.54 18.9604 491.683 18.7677C490.826 18.5749 489.936 18.5861 489.084 18.8004C486.259 19.4957 483.188 19.8353 480.739 21.2474C476.649 23.6136 472.136 24.8102 467.961 26.8315C458.313 31.4938 447.882 32.464 437.527 33.8384C435.812 34.0648 433.92 34.2049 432.295 33.736C427.498 32.3562 422.648 32.8682 417.797 32.8089C412.748 32.7496 407.752 32.9059 402.869 30.9116C399.402 29.4941 395.955 30.405 393.152 33.0676C390.745 35.3584 388.419 37.703 387.058 40.8561C385.584 44.2626 384.088 47.6744 382.352 50.9462C380.775 53.8547 379.041 56.6742 377.158 59.3922C376.579 60.1898 375.832 60.8488 374.97 61.3222C374.108 61.7955 373.153 62.0715 372.173 62.1303C368.759 62.4753 365.259 61.8824 362.954 59.4353C358.58 54.7461 352.77 51.6199 349.222 45.9982C346.917 42.3599 343.208 40.8615 338.673 40.9316C334.643 40.9909 330.558 40.3926 326.565 39.6703C321.795 38.8187 318.466 35.7518 318.209 31.8225C317.7 24.1688 317.604 16.5151 322.031 9.6806C322.52 8.77398 322.944 7.83377 323.301 6.86702H316.928C297.071 6.86702 277.213 6.86702 257.352 6.86702C255.407 6.86702 253.359 7.11495 251.548 6.59213C248.653 5.76746 245.775 5.84294 242.865 5.83755C229.631 5.83755 82.2862 5.80521 69.0471 5.79982C55.4168 5.79982 41.7865 5.76748 28.1615 5.79982C26.4946 5.79982 24.6508 5.26082 23.0374 6.93709C23.0541 7.64492 23.1421 8.34923 23.3001 9.03919C24.5811 13.0062 23.8682 16.6229 22.0566 20.3581C20.2449 24.0934 17.9669 26.9608 14.0167 28.346C13.2741 28.5839 12.5779 28.9485 11.9585 29.424C7.67051 33.0138 4.1222 37.0077 4.1222 43.1091C4.1222 65.8368 4.1222 88.5645 4.1222 111.292C4.1222 112.408 4.48668 113.518 4.69572 114.742C11.0365 115.399 17.1093 117.167 23.6967 114.262C24.0665 113.254 24.8491 111.869 25.0742 110.397C26.0765 103.822 29.1853 98.2754 33.2964 92.7291L36.925 94.5132C35.585 97.2998 34.3415 99.7038 33.2588 102.183C32.0402 104.846 30.9667 107.574 30.0429 110.354C29.6034 111.761 29.3407 113.459 31.2221 115.119C33.4732 115.119 36.1854 115.238 38.876 115.06C40.021 114.958 41.1103 114.517 42.0063 113.793C43.7965 112.3 45.2222 110.354 47.0875 108.942C49.3119 107.26 49.3118 104.539 50.3624 102.442C51.5577 102.21 52.5064 102.054 53.4551 101.838C54.5605 101.513 55.6823 101.246 56.8158 101.04C57.1002 101.024 57.3843 101.077 57.6438 101.196C57.9033 101.314 58.1305 101.494 58.3058 101.72C58.614 102.397 58.658 103.167 58.4291 103.876C57.9615 104.73 57.3545 105.498 56.6335 106.15C54.6128 108.268 52.5385 110.344 50.5125 112.456C49.8746 113.125 49.001 113.755 49.8318 115.151C59.2224 115.151 68.7523 115.151 78.2877 115.151C80.035 115.151 81.8895 114.92 83.5082 115.405C86.3919 116.272 223.403 116.143 226.297 116.165C230.381 116.192 234.471 116.165 238.561 116.165C311.373 116.197 384.186 116.237 456.999 116.283C464.659 116.283 462.976 115.593 465.168 110.403C467.441 105.013 469.992 99.7469 472.361 94.4108C474.023 90.7025 477.255 89.6515 480.851 89.258C482.209 89.1098 483.578 89.1098 484.935 89.258C487.433 89.5221 489.904 90.0773 492.402 90.2875C497.553 90.7295 498.421 91.6727 498.014 96.8093C497.965 97.3914 498.062 98.0706 497.799 98.5449C496.277 101.342 497.494 103.903 498.485 106.42C499.923 110.007 501.977 113.313 504.553 116.186C506.632 116.219 508.943 116.289 511.258 116.289C528.78 116.289 546.301 116.1 563.823 116.353C581.511 116.607 599.199 115.243 616.86 117.351C637.888 117.351 658.914 117.351 679.935 117.351C680.985 117.264 682.026 117.084 683.044 116.812C682.878 113.357 682.733 110.252 682.572 107.153C682.503 105.784 682.69 104.323 682.267 103.072C681.039 99.4235 681.57 95.6936 681.474 91.9961C681.529 91.0383 681.8 90.1057 682.267 89.2688C682.803 88.1908 684.588 88.2393 685.209 89.2688C685.561 89.7297 685.812 90.2607 685.944 90.8265C686.421 95.6775 687.086 100.528 687.193 105.379C687.284 109.33 688.233 113.028 689.01 116.698C694.107 117.642 695.109 117.625 699.826 116.483C699.922 114.704 700.11 112.796 700.121 110.888C700.158 103.638 700.121 96.3889 700.169 89.1394C700.141 87.779 700.296 86.421 700.63 85.1023C700.798 84.772 701.042 84.4873 701.342 84.2724C701.643 84.0575 701.991 83.9187 702.356 83.868C702.967 83.8357 703.991 84.407 704.168 84.946C704.587 86.2316 704.801 87.5761 704.8 88.9292C704.859 96.7662 704.8 104.603 704.864 112.44C704.961 114.055 705.14 115.663 705.4 117.259C709.442 117.302 713.108 117.367 716.779 117.383C720.676 117.383 724.568 117.48 728.459 117.383C732.093 117.275 735.802 117.981 739.538 116.704C739.857 111.59 741.191 106.592 743.461 102.005C745.877 96.7916 750.059 92.6129 755.259 90.2174C757.569 89.1394 759.675 89.0532 761.932 90.2659C764.504 91.6458 767.168 92.8639 769.768 94.1898C770.545 94.5914 771.397 94.8278 772.269 94.8844C773.141 94.9409 774.016 94.8164 774.838 94.5186C779.279 93.0604 783.488 90.9694 787.338 88.3094C790.26 86.3914 793.303 84.6683 796.45 83.1512C797.784 82.499 799.575 81.9438 800.904 82.2942C805.728 83.5662 810.654 84.6226 814.55 88.3902C821.55 95.1438 829.955 98.9384 839.795 98.5557C844.335 98.3778 848.666 99.5097 853.077 100.038C855.602 100.383 857.999 101.364 860.045 102.889C863.923 105.822 867.605 109.009 871.065 112.429C877.015 118.267 874.844 117.404 883.211 117.415C920.191 117.462 957.178 117.483 994.172 117.48L994.162 117.453ZM348.584 7.41141C346.858 7.95041 345.213 8.68345 343.224 7.48688C342.056 6.77541 340.19 6.86702 338.716 7.09879C336.197 7.49225 333.812 7.93963 331.271 6.96943C330.441 6.62529 329.52 6.57607 328.658 6.82988C327.797 7.08369 327.047 7.62537 326.533 8.36545C324.743 10.8933 323.065 13.4859 323.767 16.9409C324.025 18.2075 323.692 19.6359 323.451 20.9564C323.06 23.0639 322.379 25.1282 322.074 27.2465C321.538 30.9009 322.99 33.294 326.362 34.6361C327.274 34.9685 328.225 35.1804 329.192 35.2667C332.858 35.671 336.524 36.1345 340.206 36.3447C344.671 36.6142 348.906 37.7246 351.548 41.4544C355.118 46.4941 359.99 50.0783 364.294 54.3256C365.556 55.5345 367.025 56.5041 368.63 57.1877C370.538 58.0124 372.521 57.8076 373.808 55.8402C375.416 53.3932 377.051 50.9569 378.412 48.3805C379.682 45.9658 380.588 43.3571 381.687 40.8346C383.378 37.0793 385.69 33.6401 388.526 30.6637C392.75 26.1469 397.853 24.3305 403.866 26.411C408.186 27.9094 412.603 28.2113 417.105 28.1682C420.997 28.1358 424.92 27.9472 428.774 28.3784C433.459 28.9174 438.047 28.6047 442.71 28.2867C453.8 27.5267 463.876 23.4358 473.996 19.4095C478.16 16.2186 483.317 15.6042 488.082 14.0195C490.328 13.2649 492.734 13.1356 494.733 14.8603C498.432 18.035 502.516 17.9596 506.815 16.4773C513.783 14.0519 520.777 11.6264 527.745 9.19549C528.115 9.06613 528.351 8.55409 528.849 7.99354C525.564 7.82645 522.664 7.64318 519.737 7.54077C516.254 7.42219 512.77 7.28745 509.286 7.31979C506.568 7.31979 503.851 7.85878 501.144 7.75098C491.818 7.42759 482.513 6.71072 473.16 6.87242C464.584 7.01795 456.035 6.70533 447.469 6.6676C441.831 6.64065 436.187 6.83469 430.543 6.7754C419.287 6.65682 407.999 6.43044 396.432 6.23641C395.194 7.47071 393.934 8.99068 392.418 10.1819C390.451 11.756 388.353 13.1554 386.146 14.3645C383.756 15.6311 381.124 16.4342 378.675 17.5985C377.293 18.3263 375.763 18.7253 374.204 18.7645C372.644 18.8038 371.097 18.4823 369.681 17.8248C368.072 17.1392 366.396 16.6279 364.68 16.2995C359.02 15.1622 353.869 13.114 349.983 8.57566C349.552 8.14647 349.084 7.75683 348.584 7.41141ZM353.66 5.95072C355.268 7.43296 355.949 8.44091 356.876 8.8721C359.163 9.8932 361.51 10.7751 363.903 11.5132C366.288 12.2678 368.786 12.6774 371.139 13.5075C372.131 13.8866 373.189 14.0597 374.249 14.0162C375.309 13.9726 376.35 13.7134 377.308 13.2541C379.945 12.063 382.668 11.0658 385.289 9.8369C386.613 9.21705 388.135 8.6511 388.65 6.53285C381.607 5.09373 374.365 6.75925 367.478 4.80269L353.66 5.95072Z" fill="#1B1615"/>
<path d="M1373.61 11.9495C1369.27 11.1949 1365.18 10.3325 1360.86 10.3325C1336.32 10.4134 1301.07 10.3325 1276.54 10.3325C1274.6 10.4119 1272.65 10.3036 1270.73 10.0091C1264.74 8.82334 1189.07 9.01198 1183.07 9.96061C1180.64 10.3433 1178.08 9.82586 1175.57 9.76119C1170.92 9.64261 1166.21 9.09282 1161.63 9.62104C1158.56 10.0221 1155.47 10.2542 1152.38 10.3164C1142.64 10.3164 1132.91 10.3164 1123.17 10.3164C1121.67 10.3164 1120.02 9.96601 1118.45 11.7932C1118.45 13.297 1118.36 15.232 1118.36 17.1832C1118.36 25.4136 1118.36 33.6441 1118.36 41.8746C1118.43 43.2348 1118.3 44.5983 1117.96 45.9171C1117.71 46.6663 1116.72 47.3832 1115.91 47.685C1114.89 48.0623 1114.15 47.2915 1113.6 46.3914C1112.52 44.6127 1112.62 42.6454 1112.62 40.6888C1112.62 31.8708 1112.66 23.0582 1112.62 14.2402C1112.53 12.7041 1112.35 11.1745 1112.08 9.65877C1107.5 9.1629 1103.33 8.85568 1099.05 9.87439C1100.13 15.9543 1099.55 21.8239 1099.75 27.6613C1099.88 31.9463 1099.45 36.2475 1100.69 40.4894C1101.16 42.1064 1100.85 43.9929 1100.81 45.7554C1100.82 46.2489 1100.66 46.7312 1100.36 47.1184C1100.05 47.5055 1099.62 47.7728 1099.14 47.8736C1098.57 48.0139 1097.97 47.9413 1097.46 47.6694C1096.94 47.3976 1096.54 46.9451 1096.33 46.3968C1095.43 44.2236 1095 41.8868 1095.05 39.5353C1095.09 32.6739 1095 25.8179 1095 18.9619C1095.05 15.7113 1094.35 12.4933 1092.96 9.56176C1092.29 9.42718 1091.62 9.33361 1090.94 9.2815C1074.2 9.24916 1057.45 9.22938 1040.71 9.22219C1037.59 9.22219 1031.06 11.9172 1028.74 14.2295C1025.76 17.2047 1022.4 19.2799 1018.17 19.9914C1016.29 20.3148 1014.48 21.1556 1012.67 21.8671C1004.69 25.004 996.621 27.6505 987.954 28.0871C983.339 28.3188 979.282 29.9843 976.43 33.9136C975.632 35.0185 974.903 36.1828 974.013 37.2123C972.126 39.3952 968.932 38.9047 967.908 36.1882C966.171 31.5959 964.965 26.9121 966.723 21.9964C967.307 20.3794 968.283 18.7624 966.948 16.5256C965.437 15.7495 963.411 14.9679 961.696 13.7444C959.98 12.5209 958.603 10.8823 957.022 9.37852C956.47 9.2831 955.914 9.22009 955.355 9.18985C948.541 9.1647 941.726 9.15035 934.912 9.14675H894.026C887.214 9.14675 880.391 8.9527 873.589 9.19525C866.787 9.43779 860.103 8.52688 853.302 9.01737C845.943 9.55636 838.514 9.14135 831.117 9.13596C830.147 9.13596 829.102 9.29767 828.212 9.01201C824.02 7.67529 819.727 8.12802 815.466 8.10646C805.925 8.05256 796.385 8.05256 786.844 8.10646C784.903 8.04538 782.96 8.16085 781.039 8.45143C777.985 8.9716 774.863 8.93875 771.82 8.35441C767.473 7.62677 762.847 6.94224 759.374 11.0494C758.93 11.4322 758.417 11.7267 757.863 11.9172C752.749 14.3793 748.497 18.3428 745.669 23.2846C742.683 28.3674 738.342 31.0246 732.103 30.5395C727.697 30.1946 723.173 29.7256 718.799 31.3103C718.05 31.5759 717.238 31.6051 716.472 31.3942C715.706 31.1833 715.022 30.7422 714.512 30.1299C712.368 27.8553 710.191 25.6185 708.305 23.1553C706.697 21.0963 705.153 19.0158 702.677 18.2342C698.71 16.9838 696.014 14.3966 693.929 10.9578C692.579 8.73172 690.612 7.86393 688.033 8.02563C685.514 8.18194 682.974 8.02563 680.444 8.02563L560.124 7.9825C554.48 7.9825 548.836 8.01484 543.186 7.9825C541.25 7.9075 539.341 8.45504 537.735 9.54561C535.322 11.2028 532.716 12.5551 529.974 13.5719C522.299 16.3046 514.532 18.8055 506.782 21.3227C502.338 22.7726 497.959 22.8588 494.009 19.8836C493.329 19.3247 492.529 18.9333 491.672 18.7405C490.815 18.5477 489.925 18.5589 489.073 18.7732C486.248 19.4685 483.177 19.8081 480.727 21.2203C476.638 23.5864 472.124 24.783 467.949 26.8042C458.301 31.4666 447.871 32.4368 437.515 33.8112C435.8 34.0376 433.908 34.1777 432.284 33.7088C427.487 32.329 422.636 32.841 417.785 32.7817C412.736 32.7224 407.741 32.8787 402.858 30.8845C399.39 29.4669 395.944 30.3778 393.14 33.0404C390.734 35.3312 388.408 37.6758 387.046 40.8289C385.572 44.2354 384.077 47.6473 382.34 50.919C380.763 53.8275 379.03 56.647 377.146 59.365C376.567 60.1626 375.82 60.8217 374.959 61.295C374.097 61.7684 373.142 62.0443 372.162 62.1031C368.747 62.4481 365.247 61.8552 362.943 59.4082C358.569 54.7189 352.759 51.5927 349.21 45.971C346.906 42.3327 343.197 40.8343 338.662 40.9044C334.631 40.9637 330.547 40.3654 326.554 39.6431C321.784 38.7915 318.455 35.7246 318.198 31.7954C317.689 24.1416 317.592 16.4879 322.019 9.65341C322.508 8.74679 322.933 7.80658 323.29 6.83983H316.927C297.071 6.83983 277.212 6.83983 257.352 6.83983C255.406 6.83983 253.359 7.08777 251.547 6.56494C248.653 5.74028 245.774 5.81576 242.864 5.81037C229.63 5.81037 82.2856 5.77802 69.0465 5.77263C55.4162 5.77263 41.7859 5.74029 28.1609 5.77263C26.494 5.77263 24.6502 5.23363 23.0368 6.90991C23.0535 7.61773 23.1415 8.32204 23.2994 9.01201C24.5805 12.979 23.8676 16.5957 22.0559 20.3309C20.2443 24.0662 17.9663 26.9336 14.016 28.3188C13.2735 28.5566 12.5773 28.9213 11.9578 29.3968C7.66989 32.9865 4.12158 36.9805 4.12158 43.0819C4.12158 65.8096 4.12158 88.5373 4.12158 111.265C4.12158 112.381 4.48606 113.491 4.6951 114.715C11.0359 115.372 17.1087 117.14 23.6961 114.235C24.0659 113.227 24.8485 111.842 25.0736 110.37C26.0759 103.795 29.1847 98.2482 33.2957 92.7019L36.9244 94.486C35.5844 97.2726 34.3409 99.6766 33.2582 102.156C32.0396 104.819 30.966 107.547 30.0422 110.327C29.6027 111.734 29.3401 113.432 31.2214 115.092C33.4726 115.092 36.1847 115.21 38.8754 115.033C40.0204 114.931 41.1096 114.49 42.0056 113.766C43.7958 112.273 45.2216 110.327 47.0868 108.915C49.3112 107.233 49.3112 104.511 50.3618 102.415C51.557 102.183 52.5057 102.027 53.4545 101.811C54.5598 101.485 55.6816 101.219 56.8151 101.013C57.0996 100.997 57.3837 101.05 57.6432 101.169C57.9027 101.287 58.1299 101.467 58.3052 101.692C58.6133 102.37 58.6573 103.14 58.4285 103.848C57.9608 104.702 57.3539 105.471 56.6329 106.123C54.6122 108.241 52.5379 110.316 50.5118 112.429C49.874 113.098 49.0003 113.728 49.8311 115.124C59.2217 115.124 68.7517 115.124 78.287 115.124C80.0344 115.124 81.8889 114.892 83.5076 115.378C86.3913 116.245 223.402 116.116 226.296 116.138C230.381 116.164 234.47 116.138 238.56 116.138C311.373 116.17 384.186 116.209 456.999 116.256C464.658 116.256 462.975 115.566 465.167 110.376C467.44 104.986 469.991 99.7197 472.36 94.3836C474.022 90.6753 477.254 89.6243 480.85 89.2308C482.208 89.0826 483.577 89.0826 484.935 89.2308C487.432 89.4949 489.903 90.0501 492.401 90.2603C497.552 90.7023 498.42 91.6455 498.013 96.7821C497.965 97.3643 498.061 98.0434 497.799 98.5177C496.276 101.315 497.493 103.875 498.485 106.392C499.923 109.98 501.976 113.286 504.552 116.159C506.632 116.191 508.942 116.261 511.257 116.261C528.779 116.261 546.301 116.073 563.822 116.326C581.51 116.579 599.198 115.216 616.859 117.323C637.888 117.323 658.913 117.323 679.935 117.323C680.985 117.237 682.025 117.056 683.043 116.784C682.877 113.329 682.732 110.225 682.572 107.125C682.502 105.756 682.69 104.296 682.266 103.045C681.039 99.3963 681.569 95.6664 681.473 91.9689C681.528 91.0111 681.8 90.0785 682.266 89.2416C682.802 88.1636 684.587 88.2121 685.209 89.2416C685.561 89.7025 685.811 90.2335 685.943 90.7993C686.42 95.6503 687.085 100.501 687.192 105.352C687.283 109.303 688.232 113.001 689.009 116.671C694.106 117.614 695.108 117.598 699.825 116.456C699.922 114.677 700.109 112.769 700.12 110.861C700.158 103.611 700.12 96.3617 700.168 89.1122C700.14 87.7518 700.295 86.3938 700.629 85.0752C700.797 84.7448 701.041 84.4601 701.342 84.2452C701.642 84.0303 701.99 83.8915 702.355 83.8408C702.966 83.8085 703.99 84.3798 704.167 84.9188C704.586 86.2044 704.8 87.549 704.799 88.902C704.858 96.739 704.799 104.576 704.864 112.413C704.96 114.027 705.139 115.636 705.4 117.232C709.441 117.275 713.107 117.339 716.779 117.356C720.675 117.356 724.567 117.453 728.458 117.356C732.092 117.248 735.801 117.954 739.537 116.677C739.856 111.563 741.19 106.565 743.461 101.978C745.881 96.7745 750.062 92.6059 755.258 90.2172C757.568 89.1392 759.674 89.053 761.931 90.2657C764.504 91.6455 767.167 92.8636 769.767 94.1896C770.545 94.5911 771.396 94.8275 772.268 94.8841C773.141 94.9407 774.015 94.8162 774.838 94.5184C779.278 93.0601 783.487 90.9691 787.337 88.3091C790.259 86.3912 793.303 84.6681 796.449 83.1509C797.783 82.4988 799.574 81.9436 800.903 82.2939C805.727 83.566 810.653 84.6224 814.549 88.39C821.549 95.1436 829.954 98.9381 839.795 98.5554C844.335 98.3776 848.665 99.5095 853.077 100.038C855.601 100.383 857.998 101.363 860.045 102.889C863.922 105.822 867.604 109.009 871.064 112.429C877.014 118.267 874.843 117.404 883.21 117.415C920.197 117.476 957.181 117.505 994.161 117.501C999.682 117.501 1005.2 117.415 1010.72 117.501C1011.56 117.501 1012.4 118.18 1013.24 118.541C1014.02 118.541 1014.79 118.585 1015.57 118.585C1104.54 118.585 1273.98 118.622 1362.95 118.644C1364.11 118.644 1365.29 118.682 1366.45 118.644C1369.36 118.482 1370.03 117.862 1370.59 114.828C1370.73 114.062 1370.59 113.211 1370.92 112.515C1372.06 109.966 1371.81 107.594 1370.43 105.228C1369.81 104.1 1369.43 102.854 1369.31 101.568C1369.19 100.283 1369.34 98.9871 1369.75 97.7631C1371.28 92.7289 1370.48 87.6515 1370.69 82.5958C1370.84 79.2163 1369.58 76.6237 1366.64 74.6941C1363.71 72.7274 1361.4 69.9421 1360.01 66.6792C1357.96 62.0546 1356.09 57.3276 1353.29 53.0642C1352.72 52.2651 1352.31 51.3542 1352.1 50.3893C1351.89 49.4244 1351.89 48.4264 1352.08 47.4586C1352.74 44.6073 1353.46 41.7614 1354.36 38.9856C1355.2 36.42 1356.99 34.5119 1359.66 34.0376C1364.36 33.2022 1367.62 30.1784 1370.92 27.1438C1371.57 26.563 1372.1 25.8516 1372.47 25.0547C1372.84 24.2578 1373.04 23.3927 1373.06 22.5139C1373.21 19.8189 1373.71 17.1239 1373.97 14.402C1374.04 13.6797 1373.76 12.9035 1373.61 11.9495ZM32.9795 65.9623C32.7658 66.5137 32.3843 66.9831 31.8896 67.3034C31.3948 67.6238 30.8121 67.7789 30.2245 67.7464C29.646 67.6859 29.0812 67.5312 28.5522 67.2883C23.4451 65.3089 17.8455 65.0089 12.5581 66.4313C11.2285 66.717 9.86072 66.7771 8.51137 66.6091C8.15465 66.536 7.81758 66.387 7.52271 66.1723C7.22784 65.9576 6.98196 65.682 6.80155 65.3641C6.68898 65.1437 6.62271 64.9024 6.60683 64.6552C6.59096 64.4081 6.62584 64.1602 6.7093 63.9272C6.79275 63.6941 6.92298 63.4808 7.09192 63.3005C7.26087 63.1202 7.46491 62.9769 7.69132 62.8793C9.84435 62.0465 12.0743 61.4308 14.3483 61.0413C16.2458 60.7395 18.2236 60.9766 21.1233 60.9766C23.4495 61.0629 26.7941 60.5508 29.9511 61.9414C30.6741 62.2028 31.381 62.507 32.0683 62.8523C32.5461 63.192 32.8959 63.6838 33.0613 64.2481C33.2266 64.8125 33.1978 65.4165 32.9795 65.9623ZM64.1154 22.9774C63.9164 23.2949 63.6557 23.5688 63.349 23.7828C63.0424 23.9967 62.696 24.1462 62.3305 24.2225C61.6337 24.3626 60.8351 24.0123 60.0847 23.8613C55.8557 23.0043 51.6482 23.1984 47.3924 23.7967C44.5224 24.1473 41.6323 24.304 38.7414 24.2656C38.2054 24.2656 37.171 23.387 37.187 22.945C37.2981 22.0349 37.6707 21.177 38.259 20.4764C38.5485 20.0937 39.2828 19.9374 39.8402 19.8782C44.439 19.3392 49.0379 18.8002 53.6367 18.3043C53.6367 18.4229 53.6367 18.5468 53.6742 18.6654C55.8182 18.6654 57.9622 18.6654 60.0793 18.6654C60.8619 18.658 61.6327 18.8566 62.3154 19.2414C62.998 19.6262 63.5686 20.1839 63.9706 20.8591C64.1507 21.1828 64.2571 21.5426 64.2821 21.9127C64.3071 22.2827 64.2502 22.6537 64.1154 22.9989V22.9774ZM347.517 103.935C346.514 106.263 345.555 108.613 344.499 110.942C344.065 111.89 343.121 112.612 342.167 112.144C341.758 111.921 341.399 111.614 341.116 111.242C340.832 110.871 340.63 110.443 340.522 109.988C340.442 108.835 340.625 107.679 341.058 106.608C341.873 104.226 342.843 101.897 343.813 99.3963C340.431 96.6474 339.82 93.1116 340.356 89.247C340.437 88.4759 340.664 87.7275 341.026 87.0425C341.53 86.1531 342.441 85.5333 343.454 85.9645C343.778 86.1282 344.066 86.3558 344.3 86.6335C344.535 86.9113 344.712 87.2336 344.821 87.5815C345.001 88.5405 345.044 89.5207 344.949 90.4921C344.901 92.1091 345.206 93.5967 346.423 94.804C349.264 97.5098 348.926 100.663 347.517 103.935Z" fill="#604723"/>
<path d="M348.583 7.41117C349.108 7.75654 349.599 8.14988 350.052 8.58617C353.938 13.1245 359.089 15.1727 364.749 16.31C366.465 16.6384 368.141 17.1497 369.75 17.8354C371.166 18.4928 372.714 18.8143 374.273 18.7751C375.832 18.7358 377.362 18.3369 378.744 17.609C381.193 16.434 383.825 15.6308 386.215 14.375C388.422 13.1659 390.521 11.7665 392.487 10.1924C394.003 9.00122 395.263 7.49742 396.501 6.24695C408.068 6.4356 419.34 6.66198 430.612 6.78594C436.256 6.84523 441.9 6.65119 447.538 6.67814C456.114 6.71587 464.69 7.02849 473.229 6.88296C482.582 6.72126 491.887 7.42196 501.213 7.76153C503.92 7.85316 506.637 7.35725 509.355 7.3303C512.839 7.29796 516.323 7.43273 519.806 7.55131C522.706 7.65372 525.606 7.83696 528.918 8.00405C528.42 8.54304 528.184 9.08206 527.814 9.20603C520.846 11.6585 513.878 14.057 506.884 16.4879C502.596 17.9863 498.501 18.0617 494.802 14.8709C492.803 13.1461 490.397 13.2539 488.151 14.0301C483.386 15.647 478.229 16.2453 474.065 19.42C463.945 23.4625 453.869 27.5373 442.779 28.2973C438.105 28.6153 433.517 28.9117 428.843 28.3889C424.989 27.9577 421.066 28.1464 417.174 28.1787C412.672 28.2218 408.255 27.92 403.935 26.4216C397.922 24.341 392.819 26.1575 388.595 30.6743C385.759 33.6506 383.447 37.0898 381.756 40.8451C380.684 43.3514 379.751 45.9602 378.481 48.3911C377.12 50.9675 375.474 53.4037 373.877 55.8508C372.59 57.8181 370.607 58.0067 368.699 57.1982C367.094 56.5146 365.625 55.545 364.363 54.3362C360.075 50.1104 355.187 46.5046 351.617 41.4649C348.975 37.7351 344.74 36.614 340.275 36.3553C336.593 36.1343 332.927 35.6707 329.261 35.2773C328.294 35.191 327.343 34.979 326.431 34.6467C323.038 33.3046 321.607 30.9114 322.143 27.257C322.448 25.1388 323.129 23.0744 323.52 20.9669C323.761 19.6464 324.094 18.218 323.836 16.9514C323.134 13.4964 324.812 10.9038 326.602 8.37596C327.116 7.63588 327.866 7.09423 328.727 6.84042C329.589 6.58661 330.511 6.63583 331.34 6.97998C333.881 7.95017 336.266 7.51897 338.785 7.10933C340.259 6.87756 342.125 6.78595 343.293 7.49742C345.212 8.68322 346.857 7.95016 348.583 7.41117ZM327.776 20.9184C327.278 21.5275 326.549 22.0234 326.409 22.6486C325.562 26.4755 326.945 29.5963 330.161 31.6822C332.791 33.3813 335.931 34.0968 339.032 33.7034C345.555 33.0674 351.263 35.0455 356.387 39.0071C358.081 40.3061 359.786 41.5889 361.485 42.8771C362.101 43.346 362.659 44.0144 363.355 44.2138C363.701 44.3182 364.066 44.3448 364.424 44.2917C364.781 44.2387 365.123 44.1072 365.424 43.9066C365.641 43.6151 365.787 43.2762 365.849 42.9176C365.911 42.5589 365.889 42.1905 365.783 41.8422C365.408 40.9452 364.812 40.1588 364.052 39.5569C361.463 37.5195 358.783 35.6007 356.146 33.6279C351.762 30.3562 346.756 29.1597 341.396 29.1704C339.648 29.1704 337.901 29.2675 336.159 29.1704C332.6 29.0141 330.954 27.6936 329.92 24.2386C329.695 23.5002 329.727 22.6594 329.384 21.991C329.154 21.5598 328.478 21.3658 327.776 20.9184ZM436.363 10.3864C434.042 10.3864 431.721 10.3864 429.395 10.4188C429.213 10.4528 429.042 10.5337 428.901 10.6537C428.759 10.7736 428.65 10.9286 428.586 11.1033C428.489 11.6423 428.436 12.3753 428.725 12.7203C430.237 14.4451 432.316 14.8763 434.492 15.0487C439.534 15.3907 444.597 14.9397 449.5 13.712C451.108 13.3132 453.15 13.1353 453.37 10.8284C453.515 9.35696 451.473 8.52688 448.476 9.39467C444.467 10.5427 440.426 10.5643 436.352 10.3864H436.363ZM375.479 32.0541C375.265 31.6013 375.029 30.4371 374.327 29.7741C373.625 29.1111 372.135 30.4802 371.856 32.1619C371.784 32.5347 371.752 32.9141 371.76 33.2938C371.819 34.4364 371.803 35.6546 373.271 35.9888C374.343 36.2205 375.11 35.3689 375.319 33.8328C375.378 33.4393 375.399 33.0836 375.479 32.0541Z" fill="#77B855"/>
<path d="M353.659 5.95052L367.499 4.80249C374.386 6.75905 381.627 5.09353 388.67 6.53265C388.134 8.6509 386.634 9.22763 385.31 9.8367C382.689 11.0656 379.95 12.0628 377.329 13.2539C376.371 13.7132 375.33 13.9724 374.27 14.016C373.209 14.0595 372.151 13.8864 371.159 13.5073C368.806 12.6772 366.309 12.2676 363.923 11.513C361.531 10.7749 359.184 9.893 356.897 8.87191C355.948 8.44071 355.256 7.43276 353.659 5.95052Z" fill="#77B855"/>
<path d="M343.824 99.3801C340.442 96.6312 339.831 93.0954 340.367 89.2308C340.448 88.4597 340.676 87.7114 341.037 87.0263C341.541 86.137 342.452 85.5171 343.465 85.9483C343.789 86.1121 344.077 86.3396 344.311 86.6173C344.546 86.8951 344.723 87.2175 344.832 87.5653C345.012 88.5244 345.056 89.5045 344.96 90.4759C344.912 92.0929 345.218 93.5805 346.434 94.7878C349.264 97.5475 348.927 100.717 347.506 103.951C346.504 106.279 345.545 108.629 344.489 110.958C344.054 111.906 343.111 112.629 342.157 112.16C341.747 111.937 341.389 111.63 341.105 111.258C340.822 110.887 340.619 110.459 340.512 110.004C340.432 108.851 340.615 107.695 341.048 106.624C341.884 104.231 342.854 101.886 343.824 99.3801Z" fill="#1B150A"/>
<path d="M21.1237 60.9982C23.4499 61.0844 26.7945 60.5724 29.9515 61.963C30.6745 62.2244 31.3815 62.5286 32.0687 62.8739C32.5417 63.2124 32.8885 63.7005 33.0536 64.2602C33.2188 64.82 33.1928 65.4192 32.9799 65.9623C32.7662 66.5137 32.3847 66.9831 31.89 67.3034C31.3952 67.6238 30.8125 67.7789 30.2249 67.7464C29.6464 67.6859 29.0816 67.5312 28.5526 67.2883C23.4455 65.3089 17.8459 65.0089 12.5586 66.4313C11.2289 66.717 9.86113 66.7771 8.51178 66.6091C8.15506 66.536 7.81799 66.387 7.52312 66.1723C7.22825 65.9576 6.98238 65.682 6.80196 65.3641C6.68939 65.1437 6.62312 64.9024 6.60725 64.6552C6.59137 64.4081 6.62625 64.1602 6.70971 63.9272C6.79316 63.6941 6.92339 63.4808 7.09234 63.3005C7.26128 63.1202 7.46532 62.9769 7.69173 62.8793C9.84476 62.0465 12.0747 61.4308 14.3488 61.0413C16.2462 60.761 18.224 60.9982 21.1237 60.9982Z" fill="#1B150A"/>
<path d="M53.6744 18.687C55.8183 18.687 57.9623 18.687 60.0795 18.687C60.862 18.6796 61.6329 18.8782 62.3155 19.263C62.9981 19.6478 63.5688 20.2055 63.9708 20.8807C64.1468 21.2009 64.251 21.556 64.276 21.9211C64.301 22.2861 64.2462 22.6522 64.1155 22.9936C63.9165 23.3111 63.6559 23.585 63.3492 23.799C63.0425 24.0129 62.6961 24.1625 62.3307 24.2387C61.6339 24.3788 60.8352 24.0285 60.0848 23.8775C55.8559 23.0205 51.6483 23.2146 47.3925 23.8129C44.5225 24.1635 41.6324 24.3202 38.7416 24.2818C38.2056 24.2818 37.1711 23.4032 37.1872 22.9612C37.2983 22.0511 37.6708 21.1932 38.2592 20.4927C38.5486 20.11 39.2829 19.9537 39.8404 19.8944C44.4392 19.3554 49.038 18.8164 53.6368 18.3205L53.6744 18.687Z" fill="#1B150A"/>
<path d="M327.776 20.9185C328.489 21.3658 329.165 21.5599 329.384 21.9964C329.722 22.6648 329.69 23.5056 329.92 24.2441C330.992 27.7098 332.6 29.0196 336.181 29.1921C337.923 29.2729 339.67 29.1921 341.417 29.1921C346.777 29.1921 351.783 30.3778 356.168 33.6495C358.805 35.6223 361.485 37.5411 364.074 39.5785C364.834 40.1804 365.43 40.9668 365.805 41.8638C365.911 42.2121 365.933 42.5805 365.871 42.9392C365.808 43.2978 365.663 43.6367 365.446 43.9282C365.145 44.1288 364.803 44.2602 364.445 44.3133C364.088 44.3664 363.723 44.3398 363.377 44.2354C362.68 44.036 362.123 43.3677 361.506 42.8987C359.807 41.6105 358.103 40.3277 356.409 39.0287C351.285 35.0671 345.577 33.0998 339.054 33.725C335.945 34.1236 332.797 33.4079 330.161 31.7038C326.978 29.6179 325.568 26.4971 326.41 22.6702C326.538 22.0234 327.267 21.5275 327.776 20.9185Z" fill="#ECDE18"/>
<path d="M436.353 10.3865C440.426 10.5643 444.468 10.5428 448.471 9.38393C451.468 8.51614 453.51 9.34618 453.365 10.8176C453.145 13.1245 451.114 13.3024 449.495 13.7013C444.592 14.9289 439.529 15.3799 434.487 15.038C432.311 14.8763 430.232 14.4343 428.72 12.7095C428.431 12.3753 428.484 11.6315 428.581 11.0925C428.645 10.9178 428.754 10.7629 428.896 10.6429C429.038 10.5229 429.208 10.442 429.39 10.408C431.711 10.3595 434.032 10.3865 436.353 10.3865Z" fill="#ECDE18"/>
<path d="M375.48 32.0541C375.389 33.0567 375.367 33.4393 375.319 33.8166C375.11 35.3582 374.322 36.2098 373.271 35.9726C371.803 35.6492 371.819 34.4311 371.76 33.2776C371.752 32.898 371.784 32.5185 371.856 32.1458C372.135 30.4641 373.577 29.0573 374.327 29.758C375.078 30.4587 375.276 31.6014 375.48 32.0541Z" fill="#ECDE18"/>
</g>
<defs>
<clipPath id="clip0">
<rect width="1377" height="183" fill="white"/>
</clipPath>
</defs>
</svg>
