<svg width="688" height="183" viewBox="0 0 688 183" fill="none" xmlns="http://www.w3.org/2000/svg">
<g clip-path="url(#clip0)">
<path d="M-685.457 122.967C-684.552 123.258 -683.651 123.797 -682.745 123.797C-650.232 123.754 -606.988 123.657 -574.475 123.581C-508.081 123.425 -371.955 123.269 -305.561 123.129C-286.673 123.085 -267.79 123.129 -248.901 123.048C-230.994 122.951 -213.081 122.692 -195.173 122.509C-193.238 122.509 -191.303 122.509 -189.106 122.509C-188.211 124.26 -187.407 125.991 -186.458 127.64C-185.579 129.16 -184.394 130.513 -183.622 132.081C-183.015 133.287 -182.673 134.611 -182.62 135.962C-182.558 138.898 -182.666 141.835 -182.942 144.758C-183.649 151.927 -182.063 158.772 -180.364 165.634C-180.036 166.972 -179.436 168.226 -178.6 169.317C-177.763 170.409 -176.71 171.313 -175.508 171.972C-170.598 174.813 -166.449 173.886 -163.646 168.97C-161.395 165.03 -159.969 160.767 -160.226 156.104C-160.312 154.536 -160.484 152.973 -160.473 151.41C-160.473 146.074 -157.718 140.349 -149.967 139.552C-147.833 139.308 -145.682 139.232 -143.536 139.325C-133.743 139.864 -124.047 138.711 -114.474 137.078C-107.849 135.951 -101.026 134.841 -95.0442 131.24C-94.5679 130.888 -94.0179 130.651 -93.4362 130.545C-88.2049 130.206 -82.9736 129.57 -77.7745 130.976C-75.3028 131.669 -73.1913 133.292 -71.8785 135.509C-69.3594 139.428 -65.6449 141.94 -61.8823 144.365C-58.3554 146.634 -55.6594 145.917 -53.494 142.446C-52.0053 140.119 -51.3111 137.368 -51.5161 134.609C-51.6716 132.453 -52.0146 130.335 -52.363 128.211C-52.6846 126.255 -52.899 124.352 -51.4626 122.282C-50.3102 122.223 -48.9862 122.094 -47.6623 122.094C-22.744 122.045 2.18512 121.954 27.1035 122.007C34.6931 122.007 42.2774 122.638 49.8671 122.606C60.587 122.563 71.2747 122.067 81.9839 121.959C100.867 121.77 119.755 121.738 138.638 121.625C151.095 121.549 163.546 121.409 176.003 121.382C179.277 121.382 182.552 121.684 186.283 121.873C186.663 121.253 187.264 120.304 187.837 119.339C188.727 117.841 189.67 116.364 190.469 114.817C192.168 111.529 193.985 108.285 195.357 104.857C195.968 103.326 195.732 101.402 195.668 99.666C195.537 98.3317 195.315 97.008 195.003 95.7044C203.488 93.5484 205.236 93.5107 210.944 95.5481C213.195 100.275 215.725 105.336 218.019 110.505C219.011 112.634 219.443 114.984 219.273 117.329C219.016 120.563 220.651 121.711 223.99 121.641C229.239 121.508 234.488 121.425 239.738 121.393C249.46 121.323 259.183 121.317 268.906 121.264C274.55 121.231 280.194 121.123 285.838 121.102C317.576 120.998 349.312 120.908 381.047 120.832C412.386 120.768 577.832 120.746 609.171 120.73C621.043 120.73 632.921 120.606 644.783 120.924C650.223 121.07 655.626 120.876 661.045 120.708C669.567 120.455 678.084 120.417 686.863 121.528C687.104 120.55 687.283 119.558 687.399 118.558C687.662 111.707 688.027 104.857 688.075 98.0059C688.123 90.5624 687.839 83.1188 687.748 75.6753C687.603 64.1192 687.212 52.5578 687.475 41.0125C687.635 33.6929 684.5 28.691 678.77 24.8857C677.619 24.1569 676.409 23.5276 675.152 23.0046C671.598 21.4361 669.931 18.3369 669.01 14.8873C667.863 10.6238 671.416 6.06932 675.843 5.96691C677.987 5.92379 680.169 6.50589 681.927 4.80805C682.463 4.30679 683.213 3.43903 683.074 2.98088C682.78 2.11419 682.163 1.39567 681.353 0.975797C678.802 -0.177656 676.074 -0.172267 673.314 0.199641C671.021 0.589794 668.706 0.831059 666.383 0.92191C635.231 0.99737 469.974 0.92191 438.822 1.05666C396.961 1.1968 355.105 1.48245 313.244 1.64415C265.362 1.82741 217.465 1.97654 169.555 2.09152C152.403 2.15081 135.288 2.37181 118.153 2.46883C98.6854 2.57663 79.2181 2.61436 59.7294 2.70599C38.5112 2.8066 17.2894 2.91979 -3.93597 3.04556H-7.07153C-7.7254 4.03731 -8.39545 4.95899 -8.96893 5.93996C-10.9048 9.37123 -13.7738 12.176 -17.2393 14.0249C-20.351 15.6794 -22.9687 18.1369 -24.8236 21.145C-25.5579 22.2931 -26.4745 23.301 -27.316 24.379C-27.7589 25.0294 -28.3954 25.5217 -29.1342 25.7852C-29.8729 26.0486 -30.6758 26.0696 -31.4271 25.8451C-35.415 24.8805 -39.5624 24.7886 -43.5887 25.5756C-47.2657 26.2547 -50.278 24.9719 -52.2022 21.9482C-56.5974 15.0328 -62.6059 9.9986 -69.2897 5.46025C-72.2001 3.48213 -74.6496 1.68728 -78.2086 3.21264C-84.6405 3.21264 -91.0724 3.24498 -97.5044 3.21264C-103.341 3.16952 -109.173 2.91079 -115.005 2.9593C-137.393 3.15873 -159.781 3.49831 -182.17 3.68157C-210.578 3.89178 -239.023 3.97263 -267.447 4.11815C-268.218 4.11815 -268.99 4.19361 -270.025 4.24751C-272.831 7.68743 -276.501 10.3111 -280.654 11.8473C-283.869 13.0116 -284.765 15.4532 -284.186 19.0268C-283.875 20.9618 -283.382 22.8591 -282.99 24.7779C-282.599 26.6967 -282.637 28.5509 -283.526 30.1301C-285.408 30.5559 -285.917 29.2084 -286.603 28.4215C-287.848 26.9091 -289.402 25.6832 -291.159 24.8268C-292.916 23.9703 -294.835 23.5034 -296.787 23.4573C-306.472 23.1232 -315.482 20.0886 -324.348 16.4504C-325.397 15.9298 -326.517 15.5667 -327.671 15.3724C-333.513 14.8765 -337.26 11.6318 -339.645 6.46817C-339.891 5.92917 -340.229 5.46562 -340.717 4.63557C-341.869 4.57628 -343.188 4.44694 -344.501 4.45233C-412.261 4.65176 -560.507 4.85658 -628.235 5.06679C-634.27 5.06679 -640.321 5.46565 -646.33 5.06679C-652.103 4.71106 -657.907 4.5278 -663.653 3.58995C-666.505 3.12102 -669.485 3.27731 -672.39 3.43901C-676.855 3.69234 -681.303 4.17743 -685.758 4.61402C-686.477 4.74559 -687.184 4.94038 -687.869 5.19615C-688.941 8.96912 -689.311 20.4551 -688.647 28.0119C-683.694 32.9868 -678.602 37.7515 -671.039 39.6164C-670.668 41.6181 -670.187 43.5975 -669.597 45.5454C-668.665 48.1919 -669.292 50.3964 -670.589 52.7464C-672.46 56.1474 -673.907 59.7533 -675.793 63.1706C-677.005 65.3266 -678.318 67.7359 -680.215 69.2127C-683.876 72.0694 -686.229 75.7669 -688.4 79.6962C-688.4 80.467 -688.4 81.2431 -688.4 82.0193C-687.987 82.7363 -687.773 83.5519 -687.78 84.3806C-687.788 85.2093 -688.017 86.0208 -688.443 86.7301L-688.363 92.589C-687.827 94.427 -687.382 96.2757 -686.813 98.0921C-685.929 100.922 -686.428 103.396 -688.518 105.514C-688.518 107.882 -688.504 110.248 -688.475 112.613C-687.485 116.087 -686.479 119.539 -685.457 122.967ZM-177.871 136.981C-177.941 135.903 -178.016 134.825 -178.086 133.747C-178.793 130.588 -180.814 128.179 -182.658 125.662C-184.241 123.506 -184.278 121.341 -182.77 119.167C-182.106 118.208 -181.339 117.313 -180.707 116.332C-178.525 112.925 -174.811 111.325 -171.943 108.705C-169.105 105.983 -165.401 104.358 -161.486 104.118C-158.388 103.946 -155.301 103.444 -152.213 103.455C-141.622 103.493 -132.483 99.7523 -124.663 92.7507C-121.88 90.3157 -118.613 88.5041 -115.08 87.4362C-113.327 86.8649 -111.665 86.687 -110.02 87.5656C-107.463 88.9346 -104.842 90.2228 -102.414 91.7967C-98.3352 94.4485 -94.2724 97.0303 -89.5825 98.5826C-86.6666 99.5475 -83.8741 99.79 -81.0709 98.6797C-78.5518 97.6941 -76.0989 96.5455 -73.7277 95.2409C-71.439 93.9688 -69.2039 93.9581 -67.1028 95.2409C-64.4872 96.8579 -61.9466 98.6904 -61.1747 102.011V101.978C-57.9159 105.385 -56.6885 109.573 -56.6724 114.176C-56.6724 120.805 -57.2781 127.435 -56.0239 134.059C-55.7239 135.338 -55.8089 136.677 -56.268 137.906C-56.7271 139.136 -57.5396 140.2 -58.602 140.964C-62.5361 138.63 -66.2184 136.199 -68.743 132.302C-70.4535 129.641 -73.0543 127.683 -76.0754 126.783C-82.191 124.843 -88.3764 125.484 -94.5671 126.201C-95.3311 126.323 -96.0613 126.603 -96.7111 127.025C-101.969 130.324 -108.026 131.337 -113.863 132.415C-123.414 134.14 -133.094 135.38 -142.876 134.873C-145.403 134.716 -147.939 134.777 -150.455 135.057C-158.618 136.064 -163.217 141.147 -164.354 147.297C-164.819 149.783 -164.971 152.319 -164.804 154.843C-164.5 158.769 -165.332 162.7 -167.2 166.162C-169.076 169.714 -172.747 169.854 -175.014 166.421C-175.744 165.268 -176.253 163.988 -176.515 162.648C-177.25 159.004 -177.903 155.344 -178.38 151.663C-178.569 149.728 -178.589 147.78 -178.439 145.842C-178.338 142.861 -178.08 139.934 -177.882 137.008L-177.871 136.981ZM-306.161 117.453C-307.282 118.849 -308.841 118.682 -310.374 118.671C-315.332 118.628 -320.285 118.547 -325.243 118.482C-326.02 118.482 -326.792 118.526 -327.569 118.526C-416.544 118.526 -585.977 118.563 -674.947 118.585C-676.115 118.585 -677.289 118.623 -678.452 118.585C-681.362 118.423 -682.027 117.803 -682.59 114.769C-682.734 114.003 -682.59 113.152 -682.917 112.456C-684.064 109.907 -683.807 107.535 -682.434 105.169C-681.819 104.049 -681.44 102.813 -681.322 101.538C-681.204 100.264 -681.349 98.9787 -681.748 97.7634C-683.276 92.7291 -682.477 87.6518 -682.692 82.596C-682.836 79.2165 -681.582 76.6239 -678.645 74.6943C-675.707 72.7276 -673.403 69.9424 -672.015 66.6795C-669.962 62.0549 -668.091 57.3279 -665.293 53.0644C-664.716 52.2653 -664.311 51.3545 -664.102 50.3895C-663.894 49.4246 -663.887 48.4266 -664.082 47.4588C-664.741 44.6075 -665.459 41.7617 -666.36 38.9858C-667.196 36.4202 -668.986 34.5122 -671.661 34.0378C-676.356 33.2024 -679.62 30.1786 -682.917 27.1441C-683.573 26.5632 -684.102 25.8519 -684.471 25.055C-684.84 24.2581 -685.041 23.3929 -685.061 22.5141C-685.211 19.8191 -685.709 17.1241 -685.967 14.4022C-686.036 13.68 -685.768 12.9308 -685.624 11.9767C-681.282 11.2221 -677.187 10.3597 -672.867 10.3597C-648.335 10.4406 -613.077 10.3597 -588.55 10.3597C-586.607 10.4391 -584.661 10.3308 -582.74 10.0363C-576.752 8.85053 -501.086 9.0392 -495.083 9.98783C-492.655 10.3705 -490.093 9.85308 -487.579 9.7884C-482.927 9.66983 -478.226 9.12004 -473.643 9.64826C-470.573 10.0493 -467.483 10.2814 -464.387 10.3436C-454.653 10.3436 -444.919 10.3436 -435.186 10.3436C-433.68 10.3436 -432.029 9.9932 -430.464 11.8204C-430.464 13.3242 -430.373 15.2592 -430.373 17.2104C-430.373 25.4408 -430.373 33.6713 -430.373 41.9018C-430.446 43.262 -430.31 44.6255 -429.971 45.9443C-429.719 46.6935 -428.732 47.4103 -427.923 47.7122C-426.905 48.0895 -426.165 47.3187 -425.608 46.4186C-424.536 44.6399 -424.632 42.6725 -424.632 40.716C-424.632 31.898 -424.67 23.0854 -424.632 14.2675C-424.54 12.7314 -424.361 11.2018 -424.096 9.68599C-419.508 9.19012 -415.343 8.88287 -411.066 9.90157C-412.138 15.9815 -411.565 21.8511 -411.758 27.6885C-411.891 31.9735 -411.463 36.2747 -412.701 40.5166C-413.173 42.1335 -412.862 44.02 -412.819 45.7826C-412.832 46.2761 -412.672 46.7585 -412.367 47.1456C-412.062 47.5327 -411.632 47.8 -411.152 47.9008C-410.584 48.0411 -409.986 47.9685 -409.468 47.6966C-408.95 47.4247 -408.548 46.9723 -408.338 46.424C-407.443 44.2508 -407.009 41.914 -407.062 39.5626C-407.1 32.7011 -407.009 25.8451 -407.014 18.989C-407.065 15.7385 -406.364 12.5204 -404.966 9.58895C-404.301 9.45437 -403.628 9.36079 -402.951 9.30869C-386.207 9.27635 -369.464 9.2566 -352.723 9.24941C-349.604 9.24941 -343.075 11.9444 -340.755 14.2567C-337.774 17.2319 -334.408 19.3071 -330.185 20.0185C-328.298 20.3419 -326.486 21.1828 -324.68 21.8942C-316.704 25.0312 -308.632 27.6777 -299.965 28.1143C-295.35 28.346 -291.293 30.0115 -288.441 33.9408C-287.643 35.0458 -286.914 36.21 -286.024 37.2395C-284.137 39.4224 -280.943 38.9319 -279.919 36.2154C-278.183 31.6231 -276.977 26.9392 -278.735 22.0236C-279.319 20.4066 -280.294 18.7896 -278.96 16.5528C-277.448 15.7766 -275.422 14.9951 -273.707 13.7716C-271.992 12.548 -270.614 10.9095 -269.033 9.40571C-268.482 9.31028 -267.925 9.24727 -267.366 9.21704C-260.552 9.19188 -253.738 9.17754 -246.923 9.17394H-206.038C-199.225 9.17394 -192.402 8.97988 -185.6 9.22243C-178.799 9.46498 -172.115 8.5541 -165.313 9.04459C-157.954 9.58358 -150.525 9.16854 -143.128 9.16315C-142.158 9.16315 -141.113 9.32486 -140.223 9.03919C-136.032 7.70248 -131.738 8.15524 -127.477 8.13368C-117.936 8.07978 -108.396 8.07978 -98.8551 8.13368C-96.9138 8.0726 -94.9709 8.18803 -93.0503 8.47862C-89.996 8.99879 -86.8739 8.96593 -83.8312 8.3816C-79.4843 7.65395 -74.8586 6.96943 -71.3854 11.0766C-70.9407 11.4594 -70.4279 11.7539 -69.8739 11.9444C-64.7598 14.4065 -60.5082 18.37 -57.6801 23.3118C-54.6946 28.3945 -50.353 31.0518 -44.114 30.5667C-39.7082 30.2217 -35.1844 29.7528 -30.8107 31.3375C-30.0615 31.6031 -29.2495 31.6323 -28.4832 31.4214C-27.717 31.2105 -27.033 30.7694 -26.5228 30.1571C-24.3788 27.8825 -22.2026 25.6457 -20.3159 23.1825C-18.7079 21.1235 -17.1642 19.043 -14.688 18.2614C-10.7216 17.0109 -8.02557 14.4238 -5.94055 10.985C-4.5899 8.75891 -2.6228 7.89112 -0.0446777 8.05282C2.47455 8.20913 5.01514 8.05282 7.54504 8.05282L127.865 8.00969C133.509 8.00969 139.153 8.04203 144.802 8.00969C146.738 7.93468 148.648 8.48223 150.253 9.57279C152.666 11.23 155.273 12.5823 158.015 13.5991C165.69 16.3318 173.457 18.8327 181.207 21.3498C185.65 22.7997 190.029 22.886 193.98 19.9107C194.66 19.3519 195.46 18.9604 196.317 18.7677C197.174 18.5749 198.064 18.5861 198.916 18.8004C201.741 19.4957 204.812 19.8353 207.262 21.2474C211.351 23.6136 215.864 24.8102 220.04 26.8315C229.688 31.4938 240.118 32.464 250.473 33.8384C252.189 34.0648 254.081 34.2049 255.705 33.736C260.502 32.3562 265.353 32.8682 270.203 32.8089C275.252 32.7496 280.248 32.9059 285.131 30.9116C288.599 29.4941 292.045 30.405 294.848 33.0676C297.255 35.3584 299.581 37.703 300.943 40.8561C302.417 44.2626 303.912 47.6744 305.649 50.9462C307.225 53.8547 308.959 56.6742 310.842 59.3922C311.421 60.1898 312.168 60.8488 313.03 61.3222C313.892 61.7955 314.847 62.0715 315.827 62.1303C319.241 62.4753 322.742 61.8824 325.046 59.4353C329.42 54.7461 335.23 51.6199 338.778 45.9982C341.083 42.3599 344.792 40.8615 349.327 40.9316C353.357 40.9909 357.442 40.3926 361.435 39.6703C366.205 38.8187 369.534 35.7518 369.791 31.8225C370.3 24.1688 370.397 16.5151 365.969 9.6806C365.481 8.77398 365.056 7.83377 364.699 6.86702H371.072C390.929 6.86702 410.787 6.86702 430.648 6.86702C432.593 6.86702 434.641 7.11495 436.453 6.59213C439.347 5.76746 442.225 5.84294 445.136 5.83755C458.369 5.83755 605.714 5.80521 618.953 5.79982C632.583 5.79982 646.214 5.76748 659.839 5.79982C661.506 5.79982 663.349 5.26082 664.963 6.93709C664.946 7.64492 664.858 8.34923 664.7 9.03919C663.419 13.0062 664.132 16.6229 665.944 20.3581C667.755 24.0934 670.033 26.9608 673.984 28.346C674.726 28.5839 675.422 28.9485 676.042 29.424C680.33 33.0138 683.878 37.0077 683.878 43.1091C683.878 65.8368 683.878 88.5645 683.878 111.292C683.878 112.408 683.514 113.518 683.305 114.742C676.964 115.399 670.891 117.167 664.304 114.262C663.934 113.254 663.151 111.869 662.926 110.397C661.924 103.822 658.815 98.2754 654.704 92.7291L651.075 94.5132C652.415 97.2998 653.659 99.7038 654.741 102.183C655.96 104.846 657.034 107.574 657.957 110.354C658.397 111.761 658.66 113.459 656.778 115.119C654.527 115.119 651.815 115.238 649.124 115.06C647.979 114.958 646.89 114.517 645.994 113.793C644.204 112.3 642.778 110.354 640.913 108.942C638.688 107.26 638.688 104.539 637.638 102.442C636.443 102.21 635.494 102.054 634.545 101.838C633.44 101.513 632.318 101.246 631.184 101.04C630.9 101.024 630.616 101.077 630.356 101.196C630.097 101.314 629.87 101.494 629.694 101.72C629.386 102.397 629.342 103.167 629.571 103.876C630.039 104.73 630.646 105.498 631.367 106.15C633.387 108.268 635.462 110.344 637.488 112.456C638.126 113.125 638.999 113.755 638.168 115.151C628.778 115.151 619.248 115.151 609.713 115.151C607.965 115.151 606.111 114.92 604.492 115.405C601.608 116.272 464.598 116.143 461.703 116.165C457.619 116.192 453.529 116.165 449.44 116.165C376.627 116.197 303.814 116.237 231.001 116.283C223.341 116.283 225.025 115.593 222.832 110.403C220.56 105.013 218.008 99.7469 215.639 94.4108C213.978 90.7025 210.746 89.6515 207.149 89.258C205.792 89.1098 204.422 89.1098 203.065 89.258C200.567 89.5221 198.096 90.0773 195.598 90.2875C190.448 90.7295 189.579 91.6727 189.987 96.8093C190.035 97.3914 189.938 98.0706 190.201 98.5449C191.723 101.342 190.507 103.903 189.515 106.42C188.077 110.007 186.023 113.313 183.447 116.186C181.368 116.219 179.058 116.289 176.742 116.289C159.221 116.289 141.699 116.1 124.177 116.353C106.49 116.607 88.8016 115.243 71.1406 117.351C50.1118 117.351 29.0866 117.351 8.06494 117.351C7.01483 117.264 5.97443 117.084 4.95618 116.812C5.12231 113.357 5.26703 110.252 5.42786 107.153C5.4975 105.784 5.30994 104.323 5.7334 103.072C6.96082 99.4235 6.43018 95.6936 6.52661 91.9961C6.47107 91.0383 6.19983 90.1057 5.7334 89.2688C5.19739 88.1908 3.41254 88.2393 2.79077 89.2688C2.43878 89.7297 2.18842 90.2607 2.05646 90.8265C1.57947 95.6775 0.914734 100.528 0.807556 105.379C0.716431 109.33 -0.2323 113.028 -1.00946 116.698C-6.10675 117.642 -7.10901 117.625 -11.8258 116.483C-11.9222 114.704 -12.1099 112.796 -12.1206 110.888C-12.1581 103.638 -12.1206 96.3889 -12.1688 89.1394C-12.1408 87.779 -12.2958 86.421 -12.6298 85.1023C-12.7973 84.772 -13.0417 84.4873 -13.3422 84.2724C-13.6427 84.0575 -13.9904 83.9187 -14.3557 83.868C-14.9667 83.8357 -15.9904 84.407 -16.1673 84.946C-16.5869 86.2316 -16.8005 87.5761 -16.7998 88.9292C-16.8588 96.7662 -16.7998 104.603 -16.8641 112.44C-16.9608 114.055 -17.1397 115.663 -17.4001 117.259C-21.4415 117.302 -25.1077 117.367 -28.7792 117.383C-32.676 117.383 -36.5673 117.48 -40.4586 117.383C-44.0927 117.275 -47.8016 117.981 -51.5375 116.704C-51.8565 111.59 -53.1906 106.592 -55.4611 102.005C-57.8763 96.7916 -62.0583 92.6129 -67.2583 90.2174C-69.5684 89.1394 -71.6749 89.0532 -73.9314 90.2659C-76.5042 91.6458 -79.168 92.8639 -81.7676 94.1898C-82.5452 94.5914 -83.3966 94.8278 -84.2689 94.8844C-85.1412 94.9409 -86.0157 94.8164 -86.8381 94.5186C-91.2784 93.0604 -95.4876 90.9694 -99.3375 88.3094C-102.259 86.3914 -105.303 84.6683 -108.449 83.1512C-109.784 82.499 -111.574 81.9438 -112.904 82.2942C-117.727 83.5662 -122.653 84.6226 -126.55 88.3902C-133.55 95.1438 -141.954 98.9384 -151.795 98.5557C-156.335 98.3778 -160.666 99.5097 -165.077 100.038C-167.602 100.383 -169.998 101.364 -172.045 102.889C-175.923 105.822 -179.604 109.009 -183.065 112.429C-189.015 118.267 -186.844 117.404 -195.211 117.415C-232.191 117.462 -269.178 117.483 -306.172 117.48L-306.161 117.453ZM339.416 7.41141C341.142 7.95041 342.788 8.68345 344.776 7.48688C345.945 6.77541 347.81 6.86702 349.284 7.09879C351.803 7.49225 354.188 7.93963 356.729 6.96943C357.559 6.62529 358.481 6.57607 359.342 6.82988C360.203 7.08369 360.953 7.62537 361.467 8.36545C363.257 10.8933 364.935 13.4859 364.233 16.9409C363.976 18.2075 364.308 19.6359 364.549 20.9564C364.94 23.0639 365.621 25.1282 365.927 27.2465C366.463 30.9009 365.01 33.294 361.639 34.6361C360.726 34.9685 359.775 35.1804 358.809 35.2667C355.142 35.671 351.476 36.1345 347.794 36.3447C343.329 36.6142 339.095 37.7246 336.452 41.4544C332.883 46.4941 328.01 50.0783 323.706 54.3256C322.444 55.5345 320.975 56.5041 319.37 57.1877C317.462 58.0124 315.479 57.8076 314.192 55.8402C312.584 53.3932 310.95 50.9569 309.588 48.3805C308.318 45.9658 307.412 43.3571 306.313 40.8346C304.623 37.0793 302.31 33.6401 299.474 30.6637C295.25 26.1469 290.148 24.3305 284.134 26.411C279.814 27.9094 275.397 28.2113 270.895 28.1682C267.004 28.1358 263.08 27.9472 259.226 28.3784C254.542 28.9174 249.954 28.6047 245.29 28.2867C234.201 27.5267 224.124 23.4358 214.004 19.4095C209.84 16.2186 204.684 15.6042 199.919 14.0195C197.673 13.2649 195.266 13.1356 193.267 14.8603C189.569 18.035 185.484 17.9596 181.186 16.4773C174.218 14.0519 167.223 11.6264 160.255 9.19549C159.885 9.06613 159.649 8.55409 159.151 7.99354C162.437 7.82645 165.336 7.64318 168.263 7.54077C171.747 7.42219 175.231 7.28745 178.715 7.31979C181.432 7.31979 184.15 7.85878 186.856 7.75098C196.183 7.42759 205.488 6.71072 214.841 6.87242C223.417 7.01795 231.966 6.70533 240.531 6.6676C246.169 6.64065 251.813 6.83469 257.457 6.7754C268.713 6.65682 280.001 6.43044 291.568 6.23641C292.806 7.47071 294.066 8.99068 295.583 10.1819C297.549 11.756 299.647 13.1554 301.854 14.3645C304.244 15.6311 306.876 16.4342 309.326 17.5985C310.707 18.3263 312.237 18.7253 313.796 18.7645C315.356 18.8038 316.903 18.4823 318.32 17.8248C319.928 17.1392 321.604 16.6279 323.32 16.2995C328.98 15.1622 334.131 13.114 338.017 8.57566C338.448 8.14647 338.916 7.75683 339.416 7.41141ZM334.34 5.95072C332.732 7.43296 332.052 8.44091 331.124 8.8721C328.837 9.8932 326.49 10.7751 324.098 11.5132C321.712 12.2678 319.215 12.6774 316.862 13.5075C315.87 13.8866 314.812 14.0597 313.751 14.0162C312.691 13.9726 311.65 13.7134 310.692 13.2541C308.055 12.063 305.332 11.0658 302.711 9.8369C301.388 9.21705 299.865 8.6511 299.351 6.53285C306.394 5.09373 313.635 6.75925 320.523 4.80269L334.34 5.95072Z" fill="#1B1615"/>
<path d="M-685.612 11.9495C-681.271 11.1949 -677.176 10.3325 -672.856 10.3325C-648.323 10.4134 -613.066 10.3325 -588.539 10.3325C-586.596 10.4119 -584.65 10.3036 -582.728 10.0091C-576.741 8.82334 -501.075 9.01198 -495.072 9.96061C-492.644 10.3433 -490.082 9.82586 -487.568 9.76119C-482.916 9.64261 -478.215 9.09282 -473.632 9.62104C-470.562 10.0221 -467.471 10.2542 -464.376 10.3164C-454.642 10.3164 -444.908 10.3164 -435.175 10.3164C-433.669 10.3164 -432.018 9.96601 -430.453 11.7932C-430.453 13.297 -430.362 15.232 -430.362 17.1832C-430.362 25.4136 -430.362 33.6441 -430.362 41.8746C-430.435 43.2348 -430.299 44.5983 -429.959 45.9171C-429.708 46.6663 -428.721 47.3832 -427.912 47.685C-426.894 48.0623 -426.154 47.2915 -425.596 46.3914C-424.524 44.6127 -424.621 42.6454 -424.621 40.6888C-424.621 31.8708 -424.659 23.0582 -424.621 14.2402C-424.528 12.7041 -424.349 11.1745 -424.085 9.65877C-419.497 9.1629 -415.332 8.85568 -411.055 9.87439C-412.127 15.9543 -411.553 21.8239 -411.746 27.6613C-411.88 31.9463 -411.452 36.2475 -412.69 40.4894C-413.161 42.1064 -412.851 43.9929 -412.808 45.7554C-412.821 46.2489 -412.661 46.7312 -412.356 47.1184C-412.052 47.5055 -411.621 47.7728 -411.141 47.8736C-410.573 48.0139 -409.974 47.9413 -409.456 47.6694C-408.938 47.3976 -408.537 46.9451 -408.327 46.3968C-407.432 44.2236 -406.998 41.8868 -407.051 39.5353C-407.089 32.6739 -406.998 25.8179 -407.003 18.9619C-407.054 15.7113 -406.353 12.4933 -404.955 9.56176C-404.29 9.42718 -403.617 9.33361 -402.94 9.2815C-386.196 9.24916 -369.453 9.22938 -352.712 9.22219C-349.593 9.22219 -343.064 11.9172 -340.743 14.2295C-337.763 17.2047 -334.397 19.2799 -330.174 19.9914C-328.287 20.3148 -326.475 21.1556 -324.669 21.8671C-316.693 25.004 -308.621 27.6505 -299.954 28.0871C-295.339 28.3188 -291.282 29.9843 -288.43 33.9136C-287.632 35.0185 -286.903 36.1828 -286.013 37.2123C-284.126 39.3952 -280.932 38.9047 -279.908 36.1882C-278.172 31.5959 -276.965 26.9121 -278.723 21.9964C-279.308 20.3794 -280.283 18.7624 -278.949 16.5256C-277.437 15.7495 -275.411 14.9679 -273.696 13.7444C-271.981 12.5209 -270.603 10.8823 -269.022 9.37852C-268.471 9.2831 -267.914 9.22009 -267.355 9.18985C-260.541 9.1647 -253.727 9.15035 -246.912 9.14675H-206.027C-199.214 9.14675 -192.391 8.9527 -185.589 9.19525C-178.787 9.43779 -172.104 8.52688 -165.302 9.01737C-157.943 9.55636 -150.514 9.14135 -143.117 9.13596C-142.147 9.13596 -141.102 9.29767 -140.212 9.01201C-136.021 7.67529 -131.727 8.12802 -127.466 8.10646C-117.925 8.05256 -108.385 8.05256 -98.8441 8.10646C-96.9028 8.04538 -94.9599 8.16085 -93.0392 8.45143C-89.985 8.9716 -86.8629 8.93875 -83.8202 8.35441C-79.4733 7.62677 -74.8477 6.94224 -71.3744 11.0494C-70.9297 11.4322 -70.4167 11.7267 -69.8629 11.9172C-64.7488 14.3793 -60.4971 18.3428 -57.669 23.2846C-54.6835 28.3674 -50.342 31.0246 -44.103 30.5395C-39.6971 30.1946 -35.1734 29.7256 -30.7997 31.3103C-30.0505 31.5759 -29.2384 31.6051 -28.4722 31.3942C-27.7059 31.1833 -27.022 30.7422 -26.5118 30.1299C-24.3678 27.8553 -22.1917 25.6185 -20.3049 23.1553C-18.697 21.0963 -17.1533 19.0158 -14.677 18.2342C-10.7106 16.9838 -8.01453 14.3966 -5.92957 10.9578C-4.57886 8.73172 -2.61176 7.86393 -0.0336304 8.02563C2.48553 8.18194 5.02612 8.02563 7.55603 8.02563L127.876 7.9825C133.52 7.9825 139.164 8.01484 144.813 7.9825C146.749 7.9075 148.659 8.45504 150.264 9.54561C152.677 11.2028 155.284 12.5551 158.026 13.5719C165.701 16.3046 173.467 18.8055 181.218 21.3227C185.661 22.7726 190.04 22.8588 193.991 19.8836C194.671 19.3247 195.471 18.9333 196.328 18.7405C197.185 18.5477 198.075 18.5589 198.927 18.7732C201.752 19.4685 204.823 19.8081 207.273 21.2203C211.362 23.5864 215.875 24.783 220.051 26.8042C229.699 31.4666 240.129 32.4368 250.484 33.8112C252.2 34.0376 254.092 34.1777 255.716 33.7088C260.513 32.329 265.364 32.841 270.214 32.7817C275.263 32.7224 280.259 32.8787 285.142 30.8845C288.61 29.4669 292.056 30.3778 294.859 33.0404C297.266 35.3312 299.592 37.6758 300.954 40.8289C302.428 44.2354 303.923 47.6473 305.66 50.919C307.236 53.8275 308.97 56.647 310.853 59.365C311.432 60.1626 312.179 60.8217 313.041 61.295C313.903 61.7684 314.858 62.0443 315.838 62.1031C319.252 62.4481 322.752 61.8552 325.057 59.4082C329.431 54.7189 335.241 51.5927 338.789 45.971C341.094 42.3327 344.803 40.8343 349.338 40.9044C353.368 40.9637 357.453 40.3654 361.446 39.6431C366.216 38.7915 369.545 35.7246 369.802 31.7954C370.311 24.1416 370.408 16.4879 365.98 9.65341C365.492 8.74679 365.067 7.80658 364.71 6.83983H371.072C390.929 6.83983 410.788 6.83983 430.648 6.83983C432.594 6.83983 434.641 7.08777 436.453 6.56494C439.347 5.74028 442.225 5.81576 445.136 5.81037C458.37 5.81037 605.714 5.77802 618.953 5.77263C632.584 5.77263 646.214 5.74029 659.839 5.77263C661.506 5.77263 663.35 5.23363 664.963 6.90991C664.946 7.61773 664.858 8.32204 664.7 9.01201C663.419 12.979 664.132 16.5957 665.944 20.3309C667.755 24.0662 670.033 26.9336 673.984 28.3188C674.726 28.5566 675.422 28.9213 676.042 29.3968C680.33 32.9865 683.878 36.9805 683.878 43.0819C683.878 65.8096 683.878 88.5373 683.878 111.265C683.878 112.381 683.514 113.491 683.305 114.715C676.964 115.372 670.891 117.14 664.304 114.235C663.934 113.227 663.151 111.842 662.926 110.37C661.924 103.795 658.815 98.2482 654.704 92.7019L651.075 94.486C652.415 97.2726 653.659 99.6766 654.742 102.156C655.96 104.819 657.034 107.547 657.958 110.327C658.397 111.734 658.66 113.432 656.778 115.092C654.527 115.092 651.815 115.21 649.124 115.033C647.979 114.931 646.89 114.49 645.994 113.766C644.204 112.273 642.778 110.327 640.913 108.915C638.689 107.233 638.689 104.511 637.638 102.415C636.443 102.183 635.494 102.027 634.545 101.811C633.44 101.485 632.318 101.219 631.185 101.013C630.9 100.997 630.616 101.05 630.357 101.169C630.097 101.287 629.87 101.467 629.695 101.692C629.386 102.37 629.342 103.14 629.571 103.848C630.039 104.702 630.646 105.471 631.367 106.123C633.388 108.241 635.462 110.316 637.488 112.429C638.126 113.098 638.999 113.728 638.169 115.124C628.778 115.124 619.248 115.124 609.713 115.124C607.965 115.124 606.111 114.892 604.492 115.378C601.609 116.245 464.598 116.116 461.703 116.138C457.619 116.164 453.53 116.138 449.44 116.138C376.627 116.17 303.814 116.209 231.001 116.256C223.342 116.256 225.025 115.566 222.833 110.376C220.56 104.986 218.009 99.7197 215.639 94.3836C213.978 90.6753 210.746 89.6243 207.149 89.2308C205.792 89.0826 204.422 89.0826 203.065 89.2308C200.567 89.4949 198.096 90.0501 195.599 90.2603C190.448 90.7023 189.579 91.6455 189.987 96.7821C190.035 97.3643 189.939 98.0434 190.201 98.5177C191.723 101.315 190.507 103.875 189.515 106.392C188.077 109.98 186.023 113.286 183.448 116.159C181.368 116.191 179.058 116.261 176.742 116.261C159.221 116.261 141.699 116.073 124.178 116.326C106.49 116.579 88.8019 115.216 71.1409 117.323C50.1121 117.323 29.0869 117.323 8.06519 117.323C7.01508 117.237 5.97473 117.056 4.95648 116.784C5.12262 113.329 5.26733 110.225 5.42816 107.125C5.4978 105.756 5.31024 104.296 5.7337 103.045C6.96112 99.3963 6.43048 95.6664 6.52698 91.9689C6.47137 91.0111 6.20013 90.0785 5.7337 89.2416C5.19769 88.1636 3.41284 88.2121 2.79108 89.2416C2.43909 89.7025 2.18866 90.2335 2.0567 90.7993C1.57965 95.6503 0.9151 100.501 0.807861 105.352C0.716736 109.303 -0.231934 113.001 -1.00916 116.671C-6.10645 117.614 -7.1087 117.598 -11.8254 116.456C-11.9219 114.677 -12.1096 112.769 -12.1203 110.861C-12.1578 103.611 -12.1204 96.3617 -12.1686 89.1122C-12.1406 87.7518 -12.2955 86.3938 -12.6295 85.0752C-12.797 84.7448 -13.0414 84.4601 -13.3419 84.2452C-13.6424 84.0303 -13.9901 83.8915 -14.3553 83.8408C-14.9664 83.8085 -15.9902 84.3798 -16.1671 84.9188C-16.5867 86.2044 -16.8002 87.549 -16.7995 88.902C-16.8585 96.739 -16.7996 104.576 -16.8639 112.413C-16.9605 114.027 -17.1395 115.636 -17.3999 117.232C-21.4413 117.275 -25.1075 117.339 -28.779 117.356C-32.6757 117.356 -36.567 117.453 -40.4583 117.356C-44.0923 117.248 -47.8014 117.954 -51.5373 116.677C-51.8563 111.563 -53.1902 106.565 -55.4608 101.978C-57.8812 96.7745 -62.0626 92.6059 -67.2579 90.2172C-69.5681 89.1392 -71.6746 89.053 -73.9311 90.2657C-76.5039 91.6455 -79.1677 92.8636 -81.7673 94.1896C-82.5449 94.5911 -83.3962 94.8275 -84.2686 94.8841C-85.1409 94.9407 -86.0154 94.8162 -86.8378 94.5184C-91.278 93.0601 -95.4873 90.9691 -99.3372 88.3091C-102.259 86.3912 -105.303 84.6681 -108.449 83.1509C-109.784 82.4988 -111.574 81.9436 -112.903 82.2939C-117.727 83.566 -122.653 84.6224 -126.55 88.39C-133.55 95.1436 -141.954 98.9381 -151.795 98.5554C-156.335 98.3776 -160.666 99.5095 -165.077 100.038C-167.601 100.383 -169.998 101.363 -172.045 102.889C-175.923 105.822 -179.604 109.009 -183.065 112.429C-189.014 118.267 -186.844 117.404 -195.21 117.415C-232.198 117.476 -269.181 117.505 -306.161 117.501C-311.682 117.501 -317.203 117.415 -322.718 117.501C-323.565 117.501 -324.401 118.18 -325.242 118.541C-326.02 118.541 -326.791 118.585 -327.569 118.585C-416.544 118.585 -585.977 118.622 -674.946 118.644C-676.115 118.644 -677.288 118.682 -678.451 118.644C-681.362 118.482 -682.026 117.862 -682.589 114.828C-682.734 114.062 -682.589 113.211 -682.916 112.515C-684.063 109.966 -683.806 107.594 -682.434 105.228C-681.81 104.1 -681.427 102.854 -681.308 101.568C-681.19 100.283 -681.34 98.9871 -681.748 97.7631C-683.276 92.7289 -682.477 87.6515 -682.691 82.5958C-682.836 79.2163 -681.582 76.6237 -678.645 74.6941C-675.707 72.7274 -673.403 69.9421 -672.014 66.6792C-669.961 62.0546 -668.091 57.3276 -665.293 53.0642C-664.716 52.2651 -664.311 51.3542 -664.102 50.3893C-663.893 49.4244 -663.886 48.4264 -664.082 47.4586C-664.741 44.6073 -665.459 41.7614 -666.359 38.9856C-667.196 36.42 -668.986 34.5119 -671.66 34.0376C-676.356 33.2022 -679.62 30.1784 -682.916 27.1438C-683.573 26.563 -684.102 25.8516 -684.471 25.0547C-684.84 24.2578 -685.041 23.3927 -685.06 22.5139C-685.21 19.8189 -685.709 17.1239 -685.966 14.402C-686.036 13.6797 -685.757 12.9035 -685.612 11.9495ZM655.02 65.9623C655.234 66.5137 655.615 66.9831 656.11 67.3034C656.605 67.6238 657.188 67.7789 657.775 67.7464C658.354 67.6859 658.919 67.5312 659.448 67.2883C664.555 65.3089 670.154 65.0089 675.442 66.4313C676.771 66.717 678.139 66.7771 679.488 66.6091C679.845 66.536 680.182 66.387 680.477 66.1723C680.772 65.9576 681.018 65.682 681.198 65.3641C681.311 65.1437 681.377 64.9024 681.393 64.6552C681.409 64.4081 681.374 64.1602 681.29 63.9272C681.207 63.6941 681.077 63.4808 680.908 63.3005C680.739 63.1202 680.535 62.9769 680.308 62.8793C678.155 62.0465 675.925 61.4308 673.651 61.0413C671.754 60.7395 669.776 60.9766 666.876 60.9766C664.55 61.0629 661.206 60.5508 658.049 61.9414C657.326 62.2028 656.619 62.507 655.931 62.8523C655.454 63.192 655.104 63.6838 654.938 64.2481C654.773 64.8125 654.802 65.4165 655.02 65.9623ZM623.884 22.9774C624.083 23.2949 624.344 23.5688 624.651 23.7828C624.957 23.9967 625.304 24.1462 625.669 24.2225C626.366 24.3626 627.165 24.0123 627.915 23.8613C632.144 23.0043 636.352 23.1984 640.607 23.7967C643.477 24.1473 646.368 24.304 649.258 24.2656C649.794 24.2656 650.829 23.387 650.813 22.945C650.702 22.0349 650.329 21.177 649.741 20.4764C649.451 20.0937 648.717 19.9374 648.16 19.8782C643.561 19.3392 638.962 18.8002 634.363 18.3043C634.363 18.4229 634.363 18.5468 634.326 18.6654C632.182 18.6654 630.038 18.6654 627.92 18.6654C627.138 18.658 626.367 18.8566 625.684 19.2414C625.002 19.6262 624.431 20.1839 624.029 20.8591C623.849 21.1828 623.743 21.5426 623.718 21.9127C623.693 22.2827 623.75 22.6537 623.884 22.9989V22.9774ZM340.483 103.935C341.485 106.263 342.445 108.613 343.501 110.942C343.935 111.89 344.878 112.612 345.832 112.144C346.242 111.921 346.601 111.614 346.884 111.242C347.168 110.871 347.37 110.443 347.478 109.988C347.558 108.835 347.374 107.679 346.942 106.608C346.127 104.226 345.157 101.897 344.187 99.3963C347.569 96.6474 348.18 93.1116 347.644 89.247C347.563 88.4759 347.335 87.7275 346.974 87.0425C346.47 86.1531 345.559 85.5333 344.546 85.9645C344.222 86.1282 343.934 86.3558 343.699 86.6335C343.465 86.9113 343.288 87.2336 343.179 87.5815C342.999 88.5405 342.955 89.5207 343.051 90.4921C343.099 92.1091 342.793 93.5967 341.577 94.804C338.736 97.5098 339.073 100.663 340.483 103.935Z" fill="#604723"/>
<path d="M339.416 7.41117C338.892 7.75654 338.4 8.14988 337.948 8.58617C334.062 13.1245 328.911 15.1727 323.251 16.31C321.535 16.6384 319.858 17.1497 318.25 17.8354C316.834 18.4928 315.286 18.8143 313.727 18.7751C312.167 18.7358 310.638 18.3369 309.256 17.609C306.807 16.434 304.175 15.6308 301.784 14.375C299.578 13.1659 297.479 11.7665 295.513 10.1924C293.996 9.00122 292.737 7.49742 291.499 6.24695C279.932 6.4356 268.66 6.66198 257.388 6.78594C251.744 6.84523 246.1 6.65119 240.461 6.67814C231.885 6.71587 223.309 7.02849 214.771 6.88296C205.418 6.72126 196.113 7.42196 186.787 7.76153C184.08 7.85316 181.363 7.35725 178.645 7.3303C175.161 7.29796 171.677 7.43273 168.193 7.55131C165.294 7.65372 162.394 7.83696 159.081 8.00405C159.58 8.54304 159.816 9.08206 160.186 9.20603C167.153 11.6585 174.121 14.057 181.116 16.4879C185.404 17.9863 189.499 18.0617 193.197 14.8709C195.197 13.1461 197.603 13.2539 199.849 14.0301C204.614 15.647 209.77 16.2453 213.935 19.42C224.055 23.4625 234.131 27.5373 245.221 28.2973C249.895 28.6153 254.483 28.9117 259.157 28.3889C263.011 27.9577 266.934 28.1464 270.825 28.1787C275.328 28.2218 279.744 27.92 284.064 26.4216C290.078 24.341 295.181 26.1575 299.405 30.6743C302.241 33.6506 304.553 37.0898 306.244 40.8451C307.316 43.3514 308.248 45.9602 309.519 48.3911C310.88 50.9675 312.526 53.4037 314.123 55.8508C315.409 57.8181 317.392 58.0067 319.301 57.1982C320.906 56.5146 322.375 55.545 323.637 54.3362C327.925 50.1104 332.813 46.5046 336.383 41.4649C339.025 37.7351 343.26 36.614 347.724 36.3553C351.407 36.1343 355.073 35.6707 358.739 35.2773C359.705 35.191 360.657 34.979 361.569 34.6467C364.962 33.3046 366.393 30.9114 365.857 27.257C365.551 25.1388 364.871 23.0744 364.48 20.9669C364.238 19.6464 363.906 18.218 364.163 16.9514C364.865 13.4964 363.188 10.9038 361.398 8.37596C360.884 7.63588 360.134 7.09423 359.272 6.84042C358.411 6.58661 357.489 6.63583 356.659 6.97998C354.119 7.95017 351.734 7.51897 349.214 7.10933C347.74 6.87756 345.875 6.78595 344.707 7.49742C342.788 8.68322 341.142 7.95016 339.416 7.41117ZM360.224 20.9184C360.722 21.5275 361.451 22.0234 361.59 22.6486C362.437 26.4755 361.055 29.5963 357.839 31.6822C355.209 33.3813 352.069 34.0968 348.968 33.7034C342.445 33.0674 336.736 35.0455 331.612 39.0071C329.919 40.3061 328.214 41.5889 326.515 42.8771C325.899 43.346 325.341 44.0144 324.644 44.2138C324.298 44.3182 323.934 44.3448 323.576 44.2917C323.218 44.2387 322.877 44.1072 322.576 43.9066C322.359 43.6151 322.213 43.2762 322.151 42.9176C322.088 42.5589 322.111 42.1905 322.216 41.8422C322.592 40.9452 323.187 40.1588 323.948 39.5569C326.537 37.5195 329.216 35.6007 331.854 33.6279C336.238 30.3562 341.244 29.1597 346.604 29.1704C348.351 29.1704 350.099 29.2675 351.841 29.1704C355.4 29.0141 357.045 27.6936 358.08 24.2386C358.305 23.5002 358.273 22.6594 358.616 21.991C358.846 21.5598 359.522 21.3658 360.224 20.9184ZM251.637 10.3864C253.958 10.3864 256.278 10.3864 258.605 10.4188C258.787 10.4528 258.957 10.5337 259.099 10.6537C259.241 10.7736 259.349 10.9286 259.414 11.1033C259.511 11.6423 259.564 12.3753 259.275 12.7203C257.763 14.4451 255.684 14.8763 253.507 15.0487C248.466 15.3907 243.403 14.9397 238.5 13.712C236.892 13.3132 234.849 13.1353 234.63 10.8284C234.485 9.35696 236.527 8.52688 239.523 9.39467C243.533 10.5427 247.574 10.5643 251.647 10.3864H251.637ZM312.52 32.0541C312.735 31.6013 312.971 30.4371 313.673 29.7741C314.375 29.1111 315.865 30.4802 316.144 32.1619C316.216 32.5347 316.248 32.9141 316.24 33.2938C316.181 34.4364 316.197 35.6546 314.729 35.9888C313.657 36.2205 312.89 35.3689 312.681 33.8328C312.622 33.4393 312.601 33.0836 312.52 32.0541Z" fill="#77B855"/>
<path d="M334.341 5.95052L320.501 4.80249C313.614 6.75905 306.372 5.09353 299.329 6.53265C299.865 8.6509 301.366 9.22763 302.69 9.8367C305.311 11.0656 308.05 12.0628 310.671 13.2539C311.629 13.7132 312.67 13.9724 313.73 14.016C314.79 14.0595 315.848 13.8864 316.84 13.5073C319.193 12.6772 321.691 12.2676 324.076 11.513C326.469 10.7749 328.816 9.893 331.103 8.87191C332.052 8.44071 332.743 7.43276 334.341 5.95052Z" fill="#77B855"/>
<path d="M344.176 99.3801C347.558 96.6312 348.169 93.0954 347.633 89.2308C347.552 88.4597 347.324 87.7114 346.963 87.0263C346.459 86.137 345.548 85.5171 344.535 85.9483C344.211 86.1121 343.923 86.3396 343.689 86.6173C343.454 86.8951 343.277 87.2175 343.168 87.5653C342.988 88.5244 342.944 89.5045 343.04 90.4759C343.088 92.0929 342.782 93.5805 341.566 94.7878C338.736 97.5475 339.073 100.717 340.494 103.951C341.496 106.279 342.455 108.629 343.511 110.958C343.946 111.906 344.889 112.629 345.843 112.16C346.253 111.937 346.611 111.63 346.895 111.258C347.178 110.887 347.381 110.459 347.488 110.004C347.568 108.851 347.385 107.695 346.952 106.624C346.116 104.231 345.146 101.886 344.176 99.3801Z" fill="#1B150A"/>
<path d="M666.877 60.9982C664.55 61.0844 661.206 60.5724 658.049 61.963C657.326 62.2244 656.619 62.5286 655.932 62.8739C655.458 63.2124 655.112 63.7005 654.947 64.2602C654.781 64.82 654.807 65.4192 655.02 65.9623C655.234 66.5137 655.616 66.9831 656.11 67.3034C656.605 67.6238 657.188 67.7789 657.775 67.7464C658.354 67.6859 658.919 67.5312 659.448 67.2883C664.555 65.3089 670.154 65.0089 675.442 66.4313C676.771 66.717 678.139 66.7771 679.488 66.6091C679.845 66.536 680.182 66.387 680.477 66.1723C680.772 65.9576 681.018 65.682 681.198 65.3641C681.311 65.1437 681.377 64.9024 681.393 64.6552C681.409 64.4081 681.374 64.1602 681.291 63.9272C681.207 63.6941 681.077 63.4808 680.908 63.3005C680.739 63.1202 680.535 62.9769 680.309 62.8793C678.155 62.0465 675.926 61.4308 673.651 61.0413C671.754 60.761 669.776 60.9982 666.877 60.9982Z" fill="#1B150A"/>
<path d="M634.326 18.687C632.182 18.687 630.038 18.687 627.921 18.687C627.138 18.6796 626.367 18.8782 625.684 19.263C625.002 19.6478 624.431 20.2055 624.029 20.8807C623.853 21.2009 623.749 21.556 623.724 21.9211C623.699 22.2861 623.754 22.6522 623.884 22.9936C624.083 23.3111 624.344 23.585 624.651 23.799C624.957 24.0129 625.304 24.1625 625.669 24.2387C626.366 24.3788 627.165 24.0285 627.915 23.8775C632.144 23.0205 636.352 23.2146 640.607 23.8129C643.477 24.1635 646.368 24.3202 649.258 24.2818C649.794 24.2818 650.829 23.4032 650.813 22.9612C650.702 22.0511 650.329 21.1932 649.741 20.4927C649.451 20.11 648.717 19.9537 648.16 19.8944C643.561 19.3554 638.962 18.8164 634.363 18.3205L634.326 18.687Z" fill="#1B150A"/>
<path d="M360.224 20.9185C359.511 21.3658 358.835 21.5599 358.616 21.9964C358.278 22.6648 358.31 23.5056 358.08 24.2441C357.008 27.7098 355.4 29.0196 351.819 29.1921C350.077 29.2729 348.33 29.1921 346.583 29.1921C341.223 29.1921 336.217 30.3778 331.832 33.6495C329.195 35.6223 326.515 37.5411 323.926 39.5785C323.166 40.1804 322.57 40.9668 322.195 41.8638C322.089 42.2121 322.067 42.5805 322.129 42.9392C322.192 43.2978 322.337 43.6367 322.554 43.9282C322.855 44.1288 323.197 44.2602 323.555 44.3133C323.912 44.3664 324.277 44.3398 324.623 44.2354C325.32 44.036 325.877 43.3677 326.494 42.8987C328.193 41.6105 329.897 40.3277 331.591 39.0287C336.715 35.0671 342.423 33.0998 348.946 33.725C352.055 34.1236 355.203 33.4079 357.839 31.7038C361.022 29.6179 362.432 26.4971 361.59 22.6702C361.462 22.0234 360.733 21.5275 360.224 20.9185Z" fill="#ECDE18"/>
<path d="M251.648 10.3865C247.574 10.5643 243.533 10.5428 239.529 9.38393C236.533 8.51614 234.49 9.34618 234.635 10.8176C234.855 13.1245 236.886 13.3024 238.505 13.7013C243.408 14.9289 248.472 15.3799 253.513 15.038C255.689 14.8763 257.769 14.4343 259.28 12.7095C259.57 12.3753 259.516 11.6315 259.419 11.0925C259.355 10.9178 259.246 10.7629 259.105 10.6429C258.963 10.5229 258.792 10.442 258.61 10.408C256.289 10.3595 253.968 10.3865 251.648 10.3865Z" fill="#ECDE18"/>
<path d="M312.52 32.0541C312.611 33.0567 312.633 33.4393 312.681 33.8166C312.89 35.3582 313.678 36.2098 314.729 35.9726C316.197 35.6492 316.181 34.4311 316.24 33.2776C316.248 32.898 316.216 32.5185 316.144 32.1458C315.865 30.4641 314.423 29.0573 313.673 29.758C312.922 30.4587 312.724 31.6014 312.52 32.0541Z" fill="#ECDE18"/>
<g clip-path="url(#clip1)">
<path d="M298.505 103.242C296.991 102.787 296.097 101.534 292.67 98.1814C288.994 94.569 285.084 91.203 280.966 88.1054C278.792 86.4941 276.246 85.4583 273.565 85.0939C268.88 84.5247 264.281 83.3406 259.459 83.5285C249.007 83.9326 240.104 79.925 232.646 72.7921C228.508 68.8072 223.299 67.6687 218.153 66.3537C216.741 65.9836 214.84 66.57 213.422 67.2588C210.081 68.8611 206.848 70.681 203.745 72.7067C199.656 75.516 195.185 77.7245 190.469 79.2646C189.596 79.5792 188.667 79.7107 187.741 79.6509C186.814 79.5912 185.91 79.3415 185.084 78.9174C182.323 77.517 179.494 76.2304 176.761 74.7731C174.365 73.4923 172.128 73.5606 169.674 74.7219C164.173 77.2458 159.745 81.6391 157.179 87.1205C154.949 91.6309 153.567 96.5129 153.103 101.523C153.103 101.631 153.16 101.745 153.182 101.865C153.601 104.468 153.74 107.11 153.598 109.743C154.406 111.502 154.207 113.159 153.922 114.867C153.552 117.11 153.188 119.358 153.023 121.624C152.804 124.549 153.548 127.466 155.141 129.929C157.418 133.596 160.304 134.353 164.05 131.956C168.034 129.394 172.019 126.742 174.666 122.603C176.061 120.262 178.303 118.547 180.928 117.815C186.45 116.33 192.006 117.001 197.562 117.36C198.18 117.471 198.764 117.723 199.27 118.094C205.623 121.897 212.87 123.07 219.906 124.26C230.073 125.967 240.371 127.22 250.772 126.633C253.052 126.535 255.336 126.615 257.603 126.872C265.835 127.698 268.732 133.744 268.761 139.396C268.761 141.047 268.59 142.698 268.499 144.355C268.226 149.279 269.74 153.782 272.131 157.943C275.108 163.135 279.531 164.114 284.729 161.114C286.006 160.417 287.125 159.462 288.013 158.31C288.901 157.157 289.539 155.832 289.886 154.419C291.691 147.19 293.376 139.943 292.624 132.372C292.331 129.284 292.217 126.182 292.283 123.081C292.339 121.654 292.702 120.256 293.347 118.982C294.167 117.326 295.425 115.897 296.359 114.292C297.292 112.686 298.163 110.848 299.074 109.06C298.761 107.113 298.562 105.183 298.505 103.242ZM292.243 112.214C290.285 114.867 288.139 117.411 287.387 120.753C287.313 121.891 287.233 123.03 287.159 124.168C287.37 127.26 287.643 130.351 287.78 133.453C287.938 135.5 287.918 137.558 287.717 139.601C287.211 143.489 286.516 147.355 285.736 151.203C285.457 152.619 284.917 153.97 284.142 155.188C281.734 158.814 277.835 158.666 275.842 154.915C273.859 151.258 272.976 147.107 273.298 142.96C273.475 140.294 273.314 137.616 272.819 134.99C271.613 128.495 266.728 123.127 258.058 122.062C255.386 121.767 252.693 121.702 250.009 121.869C239.62 122.404 229.339 121.094 219.195 119.273C212.984 118.134 206.551 117.087 200.978 113.58C200.288 113.134 199.512 112.838 198.701 112.709C192.126 111.952 185.557 111.275 179.061 113.324C175.863 114.3 173.119 116.388 171.325 119.21C168.644 123.326 164.733 125.893 160.554 128.358C159.426 127.552 158.563 126.427 158.075 125.129C157.588 123.83 157.498 122.416 157.816 121.066C159.148 114.07 158.476 107.068 158.505 100.066C158.505 95.2155 159.814 90.8094 163.258 87.2173C164.078 83.7106 166.776 81.7808 169.554 80.0673C171.786 78.6897 174.16 78.7011 176.591 80.0673C179.109 81.4452 181.714 82.6584 184.39 83.6992C187.367 84.8719 190.333 84.6158 193.429 83.5968C198.411 81.9573 202.726 79.2305 207.058 76.4297C209.637 74.7674 212.42 73.4069 215.136 71.9609C216.883 71.033 218.648 71.2209 220.51 71.8243C224.262 72.9522 227.732 74.8655 230.688 77.4373C238.994 84.8378 248.7 88.7828 259.948 88.743C263.227 88.743 266.506 89.261 269.797 89.4432C273.955 89.6965 277.889 91.4126 280.903 94.2876C283.943 97.0543 287.894 98.745 290.211 102.343C290.882 103.379 291.696 104.324 292.402 105.337C293.992 107.656 293.945 109.948 292.26 112.214H292.243Z" fill="#1B1615"/>
<path d="M255.172 157.823C255.229 162.736 253.846 166.311 251.375 169.505C249.61 171.782 247.288 172.972 244.419 172.704C241.753 172.508 239.106 172.113 236.5 171.52C235.086 171.194 233.768 170.541 232.652 169.614C231.536 168.687 230.653 167.511 230.073 166.18C227.62 160.749 227.523 155.467 231.138 150.44C231.788 149.659 232.373 148.825 232.885 147.947C233.995 145.727 235.789 144.634 238.157 144.144C248.187 142.078 254.034 147.298 255.092 156.19C255.152 156.732 255.179 157.278 255.172 157.823ZM234.542 153.753C232.202 156.992 232.31 160.277 234.377 163.596C235.31 166.886 238.265 166.949 240.804 167.467C246.548 168.645 249.297 166.63 250.14 160.772C250.269 159.751 250.313 158.721 250.271 157.693C250.089 150.861 247.305 148.402 239.973 148.766C239.085 150.474 238.14 152.262 235.72 152.398C235.299 152.427 234.929 153.303 234.542 153.753Z" fill="#1B1615"/>
<path d="M180.262 136.305C180.439 134.41 180.45 133.157 180.678 131.945C181.896 125.546 189.337 121.356 195.45 123.65C197.223 124.277 198.693 125.55 199.566 127.214C200.847 129.633 201.633 132.201 201.377 134.928C201.173 137.394 200.761 139.839 200.147 142.237C198.735 147.44 194.551 149.831 189.28 149.011C184.908 148.328 182.067 146.21 181.247 141.73C180.877 139.715 180.513 137.7 180.262 136.305ZM191.608 128.335C188.915 128.495 186.485 129.093 185.596 132.115C183.655 135.605 185.067 138.918 186.422 142.049C187.686 144.952 193.492 145.322 194.699 142.561C196.321 138.844 197.545 134.882 195.906 130.732C195.12 128.723 193.788 127.772 191.608 128.307V128.335Z" fill="#1B1615"/>
<path d="M163.235 87.2685C164.055 83.7618 166.754 81.832 169.532 80.1185C171.763 78.7408 174.137 78.7522 176.568 80.1185C179.086 81.4963 181.691 82.7095 184.367 83.7504C187.344 84.9231 190.31 84.6669 193.407 83.6479C198.388 82.0084 202.703 79.2816 207.035 76.4808C209.614 74.8186 212.397 73.458 215.113 72.0121C216.86 71.0842 218.625 71.2721 220.487 71.8755C224.239 73.0033 227.709 74.9167 230.665 77.4885C238.971 84.8889 248.677 88.8339 259.926 88.7941C263.205 88.7941 266.483 89.3121 269.774 89.4943C273.932 89.7477 277.866 91.4637 280.88 94.3388C283.92 97.1054 287.871 98.7961 290.188 102.394C290.86 103.43 291.674 104.375 292.379 105.388C293.985 107.696 293.945 109.982 292.26 112.248C290.302 114.901 288.155 117.445 287.404 120.787C285.696 122.267 285.696 122.267 287.176 124.203C287.387 127.294 287.66 130.385 287.797 133.487C287.955 135.535 287.935 137.592 287.734 139.635C287.228 143.523 286.533 147.389 285.753 151.237C285.474 152.653 284.934 154.004 284.159 155.222C281.751 158.848 277.852 158.7 275.859 154.949C273.876 151.292 272.993 147.141 273.315 142.994C273.492 140.328 273.331 137.65 272.837 135.024C271.63 128.529 266.745 123.161 258.075 122.096C255.403 121.801 252.71 121.736 250.026 121.903C239.637 122.438 229.356 121.129 219.212 119.307C213.001 118.168 206.568 117.121 200.995 113.614C200.305 113.168 199.529 112.872 198.718 112.743C192.143 111.986 185.574 111.309 179.078 113.358C175.88 114.334 173.136 116.422 171.342 119.244C168.661 123.36 164.75 125.927 160.571 128.392C159.443 127.586 158.58 126.461 158.092 125.163C157.605 123.864 157.515 122.45 157.833 121.1C159.165 114.104 158.493 107.102 158.522 100.1C158.522 95.2382 159.843 90.815 163.304 87.2172C163.243 88.2415 163.256 89.2689 163.344 90.2913C163.594 91.9421 165.296 92.8131 166.566 91.7884C168.843 89.9326 171.524 88.9421 174.194 87.8434C174.441 87.758 174.666 87.6169 174.85 87.4311C175.034 87.2452 175.173 87.0195 175.256 86.7714C175.339 86.5233 175.364 86.2594 175.329 86.0002C175.294 85.7409 175.199 85.4931 175.053 85.276C174.649 84.7068 173.653 83.9895 173.118 84.1375C170.938 84.7068 168.837 85.5493 166.697 86.2551C165.53 86.6195 164.374 86.9212 163.235 87.2685ZM201.325 101.5C201.048 100.452 200.692 99.4264 200.261 98.4318C195.706 89.8074 184.828 88.7543 178.839 96.428C177.701 97.8512 177.063 99.6386 176.226 101.278C176.008 101.63 175.921 102.047 175.981 102.457C176.238 103.168 176.551 104.113 177.091 104.403C177.451 104.542 177.838 104.594 178.221 104.553C178.604 104.512 178.972 104.381 179.294 104.17C180.012 103.521 180.274 102.394 180.883 101.591C181.953 100.101 183.143 98.6994 184.441 97.4014C185.248 96.5842 186.302 96.0556 187.44 95.8972C188.578 95.7387 189.737 95.9593 190.737 96.5248C192.482 97.5539 194.092 98.7969 195.53 100.225C196.247 100.891 196.481 102.058 197.124 102.827C197.767 103.595 198.894 104.016 199.862 103.328C200.471 102.918 200.841 102.149 201.325 101.5ZM281.262 106.504C281.062 101.631 279.229 97.1908 274.254 94.7543C271.525 93.3203 268.614 92.2614 265.601 91.6063C264.075 91.3253 262.503 91.4469 261.038 91.959C259.574 92.4711 258.268 93.3561 257.25 94.5266C257.071 94.7589 256.948 95.0287 256.889 95.3156C256.829 95.6026 256.836 95.8992 256.908 96.1832C257.036 96.438 257.225 96.6578 257.457 96.8235C257.689 96.9891 257.958 97.0957 258.24 97.1339C259.254 97.0788 260.257 96.9049 261.229 96.6158C265.988 95.4317 272.153 97.4925 274.892 101.443C275.666 102.582 275.945 104.062 276.286 105.428C276.582 106.612 276.406 107.973 276.907 109.037C277.152 109.455 277.481 109.818 277.872 110.103C278.264 110.388 278.711 110.589 279.184 110.694C280.368 110.927 280.943 109.891 281.114 108.781C281.21 108.195 281.199 107.574 281.262 106.527V106.504Z" fill="#77B855"/>
<path d="M287.176 124.163C285.713 122.227 285.713 122.227 287.404 120.747C287.33 121.886 287.25 123.024 287.176 124.163Z" fill="#ACABA7"/>
<path d="M234.536 153.748C234.929 153.281 235.299 152.427 235.72 152.398C238.14 152.262 239.085 150.48 239.973 148.766C247.305 148.402 250.088 150.839 250.271 157.693C250.313 158.721 250.269 159.751 250.14 160.772C249.297 166.63 246.548 168.645 240.804 167.467C238.265 166.949 235.31 166.898 234.377 163.596L235.595 162.691C238.828 162.617 239.085 162.412 238.834 160.112C238.726 159.156 238.589 158.199 238.572 157.237C238.538 155.131 237.297 154.488 235.436 154.533C235.157 154.247 234.857 153.985 234.536 153.748ZM246.883 160.937C245.791 160.266 245.221 159.691 244.567 159.565C244.322 159.553 244.079 159.598 243.855 159.698C243.632 159.797 243.435 159.948 243.281 160.137C243.127 160.327 243.02 160.55 242.968 160.789C242.916 161.028 242.922 161.276 242.984 161.512C243.217 162.11 244.123 162.97 244.515 162.861C245.261 162.645 245.836 161.842 246.883 160.937Z" fill="#76B353"/>
<path d="M234.377 163.596C232.311 160.277 232.202 156.992 234.542 153.748C234.859 153.986 235.158 154.249 235.436 154.533C235.485 157.254 235.538 159.973 235.595 162.691L234.377 163.596Z" fill="#76B353"/>
<path d="M191.608 128.307C193.788 127.772 195.12 128.723 195.906 130.704C197.545 134.854 196.321 138.816 194.699 142.533C193.492 145.294 187.686 144.924 186.422 142.021C185.067 138.89 183.655 135.577 185.596 132.087C186.906 134.54 187.304 134.785 189.012 133.994C189.741 133.658 190.448 133.278 191.13 132.855C192.849 131.74 192.889 131.273 191.608 128.307Z" fill="#76B353"/>
<path d="M191.608 128.307C192.889 131.273 192.849 131.723 191.112 132.861C190.431 133.284 189.723 133.664 188.995 134C187.321 134.791 186.905 134.569 185.579 132.093C186.496 129.064 188.915 128.466 191.608 128.307Z" fill="#E2D71D"/>
<path d="M201.325 101.5C200.841 102.126 200.471 102.895 199.862 103.328C198.894 104.016 197.824 103.663 197.124 102.827C196.424 101.99 196.247 100.891 195.53 100.225C194.093 98.7969 192.482 97.5539 190.737 96.5248C189.737 95.9593 188.578 95.7387 187.44 95.8972C186.302 96.0556 185.248 96.5842 184.441 97.4014C183.143 98.6994 181.953 100.101 180.883 101.591C180.274 102.394 180.012 103.521 179.295 104.17C178.972 104.381 178.604 104.512 178.221 104.553C177.838 104.594 177.451 104.542 177.092 104.403C176.522 104.113 176.238 103.168 175.981 102.457C175.921 102.047 176.008 101.63 176.226 101.278C177.063 99.6387 177.723 97.8626 178.839 96.428C184.828 88.7657 195.689 89.8074 200.261 98.4318C200.692 99.4264 201.048 100.452 201.325 101.5Z" fill="#1B1615"/>
<path d="M281.262 106.527C281.199 107.574 281.21 108.195 281.119 108.804C280.949 109.914 280.374 110.95 279.19 110.717C278.716 110.612 278.27 110.411 277.878 110.126C277.486 109.841 277.157 109.478 276.912 109.06C276.412 107.996 276.588 106.635 276.292 105.451C275.95 104.085 275.671 102.605 274.897 101.466C272.142 97.5154 265.977 95.4546 261.235 96.6387C260.262 96.9278 259.259 97.1017 258.246 97.1567C257.964 97.1185 257.695 97.012 257.462 96.8464C257.23 96.6807 257.042 96.4609 256.914 96.2061C256.842 95.9221 256.835 95.6254 256.894 95.3385C256.954 95.0515 257.077 94.7817 257.256 94.5495C258.274 93.3789 259.58 92.494 261.044 91.9819C262.508 91.4698 264.081 91.3482 265.607 91.6291C268.62 92.2843 271.53 93.3432 274.26 94.7772C279.241 97.2137 281.062 101.654 281.262 106.527Z" fill="#ECDE18"/>
<path d="M163.236 87.2685C164.374 86.9326 165.513 86.6309 166.651 86.2552C168.792 85.5493 170.892 84.684 173.072 84.1375C173.608 84.0066 174.604 84.7068 175.008 85.276C175.153 85.4926 175.247 85.7395 175.281 85.9978C175.316 86.2561 175.292 86.519 175.209 86.7662C175.127 87.0135 174.989 87.2386 174.806 87.4243C174.623 87.6101 174.4 87.7515 174.154 87.8377C171.484 88.925 168.826 89.9269 166.526 91.7828C165.256 92.8074 163.554 91.9365 163.304 90.2856C163.216 89.2632 163.203 88.2359 163.264 87.2116L163.236 87.2685Z" fill="#ECDE18"/>
<path d="M235.595 162.691C235.542 159.97 235.489 157.25 235.436 154.533C237.297 154.488 238.538 155.131 238.572 157.237C238.572 158.199 238.726 159.156 238.834 160.112C239.085 162.412 238.823 162.617 235.595 162.691Z" fill="#E2D71D"/>
<path d="M246.884 160.937C245.836 161.843 245.261 162.645 244.515 162.862C244.145 162.97 243.217 162.11 242.984 161.512C242.922 161.276 242.917 161.028 242.968 160.789C243.02 160.55 243.127 160.327 243.281 160.137C243.435 159.948 243.632 159.797 243.856 159.698C244.079 159.598 244.323 159.553 244.567 159.566C245.221 159.691 245.791 160.266 246.884 160.937Z" fill="#E2D71D"/>
</g>
</g>
<defs>
<clipPath id="clip0">
<rect width="1377" height="183" fill="white" transform="matrix(-1 0 0 1 688 0)"/>
</clipPath>
<clipPath id="clip1">
<rect width="146" height="106.499" fill="white" transform="translate(153 66.2397)"/>
</clipPath>
</defs>
</svg>
