<svg width="175" height="58" viewBox="0 0 175 58" fill="none" xmlns="http://www.w3.org/2000/svg">
<path d="M173.73 53.8585C171.165 54.5741 168.691 55.1284 166.322 55.9549C162.558 57.2702 159.171 56.852 156.011 54.3726C154.157 52.9161 152.453 51.1674 149.727 50.7491C149.273 51.0414 148.467 51.2833 148.099 51.8275C145.549 55.5719 141.548 56.3632 137.572 56.7411C131.579 57.3398 125.558 57.6124 119.535 57.5575C110.237 57.4114 100.944 56.8419 91.6512 56.3934C83.4367 55.9952 75.2273 55.4711 67.0128 55.0932C60.0784 54.7706 53.1288 54.6749 46.1994 54.2667C43.8414 54.0693 41.5199 53.561 39.2952 52.7548C36.7049 51.883 34.3665 51.8326 31.9475 53.2588C30.875 53.9467 29.6459 54.3524 28.3745 54.4381C24.1917 54.4381 20.0542 55.1537 15.8058 54.6144C12.2781 54.1659 8.5539 53.8938 5.06653 55.6223C3.52946 56.3884 2.11336 55.6224 1.6598 53.9895C1.30556 52.764 1.10247 51.4997 1.05504 50.2249C0.723587 42.531 1.76629 34.8396 4.13422 27.5117C4.5777 26.1661 4.67849 24.7046 4.9607 23.3036C5.31347 21.5297 5.69145 19.7759 6.16013 17.4981C5.81293 16.8541 5.42228 16.2344 4.99094 15.6435C3.16158 13.3051 2.97512 10.604 3.2523 7.82214C3.71594 3.3974 4.6533 2.61627 9.08307 2.78258C11.2753 2.85313 13.4725 2.81786 15.6647 2.78258C50.4108 2.29542 85.1552 1.79147 119.898 1.27071C135.626 1.03889 151.35 0.766725 167.073 0.48451C168.172 0.48451 169.27 0.398808 170.364 0.454243C172.884 0.570153 173.388 1.23035 173.468 3.81061C173.534 5.9625 174.088 8.15472 173.811 10.2512C173.554 12.1813 172.4 13.9754 171.795 15.8804C171.392 16.9065 171.237 18.0132 171.342 19.1107C172.39 24.9213 171.432 30.732 171.558 36.5325C171.624 39.5562 172.632 42.6052 173.292 45.6037C173.604 47.0299 174.174 48.4007 174.476 49.8269C174.779 51.2531 174.824 52.8002 173.73 53.8585ZM13.7699 48.3452C15.5877 49.3529 17.6049 49.9484 19.6785 50.0895C21.7522 50.2306 23.8315 49.9138 25.769 49.1616L29.2413 48.5065C29.7755 48.4208 30.3903 48.4762 30.8288 48.2243C33.9382 46.4201 37.1081 46.4554 40.2931 47.9068C42.712 49.0104 45.2469 48.9903 47.8121 49.0054C51.6472 49.0356 55.4873 49.0659 59.3174 49.2523C62.0388 49.3834 64.7399 49.8168 67.4563 50.0234C69.0941 50.1494 70.8227 49.7966 72.3749 50.1947C76.9105 51.3538 81.4461 50.9053 85.9817 51.0918C92.1652 51.3438 98.4092 50.6584 104.527 52.1652C105.252 52.2765 105.988 52.3018 106.719 52.2408C115.861 52.2408 125.003 52.1148 134.14 52.2408C137.239 52.276 139.87 51.1875 142.4 49.721C143.806 48.8995 145.096 47.7707 145.035 45.8405C147.489 45.2711 149.898 44.3287 152.499 44.9384C152.61 45.2761 152.625 45.7599 152.862 45.9464C155.351 47.7505 157.841 49.5597 160.421 51.2379C161.132 51.7015 162.25 52.1198 162.941 51.883C164.957 51.2278 167.33 51.2127 168.691 49.1919C168.121 46.5108 167.335 43.8902 167.053 41.2142C166.771 38.5382 166.977 35.7614 166.972 33.03C166.967 30.2985 167.018 27.5721 166.942 24.8407C166.902 23.3994 166.942 21.8724 166.438 20.552C165.723 18.5715 166.327 16.989 167.275 15.3966C167.834 14.4642 168.58 13.6428 169.109 12.6954C171.09 9.16766 169.402 6.18931 165.274 5.98269C163.09 5.88636 160.902 5.92168 158.723 6.0885C158.118 6.13385 157.559 6.789 156.979 7.16193L143.216 6.80918C141.245 6.5572 139.275 6.09857 137.305 6.08345C128.883 6.02802 120.467 6.08345 112.051 6.14393C110.585 6.14393 109.053 5.96755 107.677 6.34048C104.608 7.172 101.509 7.00568 98.4093 7.0208C80.6599 7.0964 62.9055 7.05104 45.1613 7.27278C36.0397 7.38869 26.9231 7.98338 17.8065 8.36134C17.625 8.38472 17.445 8.41834 17.2673 8.46211L13.4876 8.72922C11.7288 8.12448 9.95995 7.85234 8.22634 8.72922C7.08236 10.745 8.29185 12.3376 9.38543 13.6781C11.0787 15.7594 11.1342 17.997 10.6151 20.3655C9.39047 26.025 8.0046 31.6491 6.8707 37.3237C6.52473 39.469 6.38802 41.6429 6.4625 43.8146C6.4625 44.4194 7.09244 45.0241 7.43513 45.6339C7.53592 46.4654 7.36962 47.5187 7.81814 48.063C8.26666 48.6073 9.33001 48.7786 10.1212 48.7887C11.3463 48.7259 12.5654 48.5777 13.7699 48.3452Z" fill="#1B1615"/>
<path d="M157.039 7.12665C157.619 6.75372 158.178 6.11874 158.783 6.05322C160.963 5.88641 163.151 5.85103 165.334 5.94735C169.462 6.15397 171.15 9.15254 169.17 12.6601C168.64 13.6075 167.895 14.429 167.335 15.3613C166.388 16.9538 165.783 18.5362 166.499 20.5167C166.972 21.8371 166.952 23.3641 167.003 24.8054C167.078 27.5368 167.028 30.2683 167.033 32.9947C167.038 35.7211 166.831 38.4777 167.113 41.1789C167.396 43.8801 168.182 46.4755 168.751 49.1565C167.391 51.1724 165.012 51.1724 163.001 51.8477C162.291 52.0846 161.172 51.6663 160.481 51.2026C157.906 49.5244 155.442 47.7152 152.922 45.9111C152.685 45.7347 152.67 45.2509 152.559 44.9032C153.44 44.8966 154.32 44.9776 155.185 45.1451C156.399 45.5029 157.523 46.153 158.738 46.5208C159.126 46.6317 160.013 46.2537 160.093 45.9463C160.196 45.2877 160.125 44.6137 159.887 43.991C159.801 43.7088 159.383 43.487 159.07 43.3106C156.692 41.8492 154.152 40.9068 151.304 41.0479C146.018 41.3049 140.721 41.4813 135.556 42.7966C130.248 44.151 124.785 44.8017 119.308 44.7318C116.017 44.6966 112.732 44.7318 109.446 44.7318C99.5833 44.6562 89.7209 44.5504 79.8585 44.4899C78.261 44.4899 76.6634 44.6612 75.0357 44.752C75.3582 47.1558 75.459 47.423 76.477 47.4986C78.2912 47.6346 80.1206 47.685 81.9399 47.7203C90.1594 47.8614 98.4041 47.5993 106.583 48.2242C116.501 48.965 126.238 48.5165 135.908 46.2084C138.967 45.4827 142.001 45.0947 145.096 45.8304C145.156 47.7606 143.866 48.8895 142.46 49.7109C139.94 51.1875 137.299 52.2761 134.2 52.2307C125.063 52.1198 115.922 52.2307 106.78 52.2307C106.049 52.2918 105.313 52.2664 104.588 52.1551C98.4696 50.6432 92.2256 51.3337 86.042 51.0817C81.5064 50.8952 76.9255 51.3437 72.4352 50.1846C70.883 49.7865 69.1545 50.1393 67.5166 50.0133C64.8003 49.8067 62.0991 49.3732 59.3777 49.2422C55.5477 49.0558 51.7075 49.0255 47.8724 48.9953C45.3073 48.9953 42.7724 48.9953 40.3534 47.8966C37.1684 46.4452 33.9985 46.41 30.8891 48.2141C30.4507 48.4661 29.8358 48.4107 29.3017 48.4964C29.6191 47.1811 29.7199 45.7901 28.067 45.4726C24.383 44.6965 20.679 43.9608 16.9446 43.5223C15.594 43.356 14.1376 43.9557 12.7467 44.2833C11.008 44.6915 9.28451 45.1753 7.55594 45.6288C7.21325 45.0191 6.58331 44.4143 6.58331 43.8096C6.50883 41.6378 6.64554 39.4639 6.99151 37.3186C8.12541 31.6441 9.51129 26.0199 10.7359 20.3605C11.2399 17.9919 11.1995 15.7544 9.50624 13.673C8.41266 12.3325 7.20317 10.7551 8.34715 8.72415C10.1009 7.83215 11.8748 8.10429 13.6034 8.72415C13.3565 9.89837 12.5451 11.128 14.1074 12.2518C16.1232 11.884 17.6804 11.0222 17.3932 8.43692C17.5709 8.39316 17.7509 8.35947 17.9324 8.3361C27.049 7.95813 36.1655 7.36351 45.2871 7.2476C63.0314 7.02585 80.7858 7.07121 98.5351 6.99562C101.634 6.99562 104.734 7.14675 107.803 6.31523C109.179 5.9423 110.711 6.12378 112.177 6.11874C120.593 6.07842 129.009 6.00283 137.43 6.05827C139.401 6.05827 141.371 6.53195 143.342 6.77889C142.631 7.69105 141.921 8.60322 141.134 9.62121C144.662 10.7753 152.549 10.7753 156.808 9.70186C156.828 8.88041 156.939 8.00353 157.039 7.12665Z" fill="#899BD0"/>
<path d="M145.055 45.8154C141.961 45.0796 138.927 45.4676 135.868 46.1933C126.212 48.4863 116.461 48.9349 106.543 48.2092C98.3638 47.5994 90.1191 47.8614 81.8996 47.7052C80.0803 47.6699 78.2509 47.6196 76.4367 47.4835C75.4288 47.4079 75.3179 47.1408 74.9954 44.737C76.6231 44.6462 78.2207 44.4648 79.8182 44.4749C89.6806 44.5354 99.5431 44.6412 109.405 44.7168C112.691 44.7168 115.957 44.7168 119.268 44.7168C124.745 44.7866 130.208 44.136 135.515 42.7816C140.666 41.4663 145.978 41.2697 151.264 41.0328C154.111 40.8917 156.651 41.8341 159.03 43.2956C159.332 43.4871 159.761 43.6938 159.846 43.976C160.084 44.5987 160.156 45.2727 160.053 45.9313C159.972 46.2387 159.085 46.6167 158.697 46.5058C157.483 46.153 156.359 45.4979 155.144 45.13C154.279 44.9625 153.4 44.8815 152.519 44.8881C149.918 44.3035 147.51 45.2459 145.055 45.8154Z" fill="#E5E3E0"/>
<path d="M7.49548 45.6137C9.22405 45.1602 10.9476 44.6764 12.6862 44.2682C14.0771 43.9406 15.5336 43.3409 16.8842 43.5072C20.6185 43.9658 24.3226 44.6814 28.0065 45.4575C29.6595 45.8002 29.5587 47.1911 29.2412 48.4812L25.7689 49.1364C22.6998 47.1458 19.2175 46.7073 15.72 46.8232C15.0548 46.8232 14.4198 47.7958 13.7697 48.3351C12.5848 48.558 11.3859 48.6995 10.1816 48.7584C9.38533 48.7584 8.31694 48.5619 7.87849 48.0327C7.44005 47.5035 7.59627 46.4705 7.49548 45.6137Z" fill="#E5E3E0"/>
<path d="M157.039 7.12662C156.939 8.0035 156.833 8.88037 156.742 9.69174C152.484 10.7652 144.602 10.7651 141.069 9.61109C141.855 8.60318 142.581 7.68093 143.276 6.76877L157.039 7.12662Z" fill="#E5E3E0"/>
<path d="M13.7698 48.3452C14.4199 47.8412 15.0549 46.8686 15.7201 46.8333C19.2478 46.7174 22.6999 47.1559 25.769 49.1465C23.8325 49.901 21.7538 50.2202 19.6802 50.0818C17.6065 49.9433 15.5887 49.3504 13.7698 48.3452Z" fill="#899BD0"/>
<path d="M17.3278 8.42679C17.615 11.0121 16.0729 11.8738 14.042 12.2417C12.4847 11.0927 13.2961 9.86304 13.538 8.71402L17.3278 8.42679Z" fill="#899BD0"/>
<path d="M43.6821 28.0775C43.6821 27.8255 43.6261 27.5455 43.6821 27.2655C43.7381 26.9295 43.8501 26.6495 43.9061 26.3415C44.1861 25.4455 44.4941 24.5775 44.8581 23.7095C45.4181 22.4215 46.2021 21.2455 47.1261 20.1815C47.3221 19.9855 47.5461 19.8455 47.7421 19.6495C47.8821 19.5095 48.0221 19.3975 48.1341 19.2575C48.4421 18.8375 48.8621 18.5295 49.2821 18.2495C50.0941 17.6335 51.0461 17.2975 52.0821 17.1575C52.5581 17.0735 53.0341 17.0735 53.5101 17.2975C53.6221 17.3535 53.7901 17.4655 53.9301 17.5495C54.0421 17.6335 54.1541 17.7175 54.2941 17.7735C54.7701 17.9695 55.0501 18.3615 55.1901 18.8655C55.4981 19.8175 55.3581 20.6855 54.8821 21.5255C54.7701 21.8055 54.6301 22.0015 54.5181 22.2255C54.4341 22.2815 54.3501 22.3935 54.2941 22.4495C54.1541 22.5615 54.0701 22.5615 53.9581 22.4775C53.7901 22.3375 53.6501 22.1975 53.5381 22.0295C53.4541 21.8335 53.3421 21.6655 53.2301 21.4975C52.9221 21.0775 52.6141 21.0215 52.1381 21.1895C51.6341 21.4135 51.1301 21.7215 50.6821 22.1415C49.4781 23.1775 48.6941 24.4655 48.1901 25.9215C47.9661 26.5935 47.7981 27.2655 47.7421 27.9935C47.6581 28.8055 47.7421 29.5895 48.0221 30.3735C48.1901 30.9335 48.5821 31.2135 49.1421 31.3255C49.7301 31.4655 50.2901 31.4375 50.8501 31.3255C52.1101 31.1575 53.3421 30.7375 54.4621 30.1495C55.2181 29.7575 55.9741 29.4215 56.7301 29.1135C56.8981 29.0575 57.0661 28.9455 57.1781 28.8335C57.5141 28.6375 57.8501 28.4695 58.2701 28.4135C58.6341 28.3855 58.9701 28.4415 59.3341 28.5535C59.3621 28.5535 59.3901 28.6095 59.3901 28.6375L59.8101 29.7295C59.8661 29.8975 59.8381 30.0095 59.8101 30.1775C59.5581 30.9895 59.1101 31.6055 58.4941 32.1935C57.9621 32.6695 57.3741 33.0335 56.7581 33.4255C55.7501 34.0415 54.6861 34.5735 53.5381 34.9935C52.8381 35.2735 52.1101 35.4415 51.3541 35.4975C49.5061 35.7215 47.7701 35.3575 46.2021 34.3215C45.1381 33.5935 44.4661 32.5855 44.0741 31.3815C43.8501 30.7095 43.7381 30.0375 43.7101 29.3935C43.6821 28.9455 43.6821 28.4975 43.6261 28.0775H43.6821ZM65.561 34.4895C63.769 34.4335 62.201 33.8735 61.221 32.1935C60.465 30.9055 60.633 29.6175 61.165 28.3575C62.089 26.2575 63.545 24.5775 65.617 23.4295C66.261 23.0655 67.017 23.0655 67.661 23.3175C68.753 23.8215 69.565 24.6895 69.985 25.8095C70.097 26.1455 70.041 26.5655 70.041 26.9575C70.041 27.2375 69.929 27.5455 69.985 27.8815C70.041 28.5255 70.153 29.1135 70.209 29.7575C70.321 31.7175 69.285 33.0055 67.661 33.9295C67.017 34.3215 66.317 34.5735 65.561 34.4895ZM66.317 26.8455C65.225 27.8255 64.413 28.8895 63.937 30.2055C63.545 31.1295 64.049 31.6615 65.057 31.4935C65.225 31.4375 65.449 31.3815 65.617 31.2975C67.241 30.4855 67.605 28.4135 66.317 26.8455ZM75.7843 25.1375C76.3163 24.7735 76.7083 24.4655 77.1283 24.2135C78.5003 23.4295 79.6203 23.5415 80.5443 24.6615C80.8243 24.9695 81.0763 25.4735 81.0763 25.8655C81.0763 27.2935 80.9643 28.6935 80.8523 30.1495C80.8243 31.0735 80.6843 31.9415 80.6003 32.8655C80.5443 33.0895 80.5443 33.3135 80.5163 33.5375C80.3483 34.2375 79.9003 34.5455 79.1443 34.4895C78.1083 34.4055 77.3523 33.7615 77.1843 32.2215C77.1003 31.3255 77.1843 30.4015 77.1843 29.4495C77.0443 29.6175 76.8763 29.7855 76.7923 29.9255C76.1763 30.9615 75.5883 31.9415 75.0003 32.9775C74.1603 34.2655 72.6483 34.1255 71.8643 32.7815C71.5283 32.1095 71.5003 31.5215 71.6683 30.7655C72.0323 29.1135 72.3403 27.4615 72.5923 25.7535C72.7043 25.1655 72.7883 24.6335 73.5163 24.4095C74.1883 24.2415 74.9163 24.0455 75.4203 24.8295C75.5323 24.8855 75.6443 24.9695 75.7843 25.1375ZM86.421 25.1375C86.953 24.7735 87.345 24.4655 87.765 24.2135C89.137 23.4295 90.257 23.5415 91.181 24.6615C91.461 24.9695 91.713 25.4735 91.713 25.8655C91.713 27.2935 91.601 28.6935 91.489 30.1495C91.461 31.0735 91.321 31.9415 91.237 32.8655C91.181 33.0895 91.181 33.3135 91.153 33.5375C90.985 34.2375 90.537 34.5455 89.781 34.4895C88.745 34.4055 87.989 33.7615 87.821 32.2215C87.737 31.3255 87.821 30.4015 87.821 29.4495C87.681 29.6175 87.513 29.7855 87.429 29.9255C86.813 30.9615 86.225 31.9415 85.637 32.9775C84.797 34.2655 83.285 34.1255 82.501 32.7815C82.165 32.1095 82.137 31.5215 82.305 30.7655C82.669 29.1135 82.977 27.4615 83.229 25.7535C83.341 25.1655 83.425 24.6335 84.153 24.4095C84.825 24.2415 85.553 24.0455 86.057 24.8295C86.169 24.8855 86.281 24.9695 86.421 25.1375ZM97.2537 31.2695C97.9257 31.5775 98.4297 31.4375 98.9337 31.4095C99.8577 31.3255 100.838 31.1855 101.762 31.0175C102.126 30.9615 102.518 30.8215 102.798 31.1855C103.022 31.5215 103.106 31.9415 102.938 32.4175C102.63 33.3415 101.958 33.8735 101.062 34.1535C99.4377 34.6575 97.8137 34.8815 96.1337 34.4055C93.8937 33.7895 92.0737 31.6055 92.1017 29.3655C92.1857 26.5095 93.3057 24.1855 95.6857 22.6175C96.6937 21.9735 97.7297 22.0295 98.6537 22.7575C99.0177 23.0655 99.3537 23.3735 99.7177 23.6535C100.866 24.4935 101.09 25.7815 101.174 27.0135C101.202 27.7975 100.978 28.5255 100.334 29.0295C99.5217 29.6455 98.7097 30.2055 97.8697 30.7935C97.7017 30.9055 97.5617 31.0175 97.2537 31.2695ZM95.2377 28.4415C96.4417 27.8535 97.4217 27.2095 98.4017 26.4815C98.8217 26.1175 98.7937 25.7815 98.3457 25.3895C98.0097 25.1095 97.7017 25.0815 97.2817 25.4175C96.3017 26.2015 95.4617 27.0135 95.2377 28.4415ZM108.917 34.0415C107.545 34.0415 105.977 33.2575 104.829 31.7455C104.297 31.1015 104.241 30.2895 104.297 29.5055C104.381 27.9935 104.745 26.5375 105.669 25.2495C106.593 23.9895 107.909 23.4575 109.337 23.3735C110.737 23.2615 112.389 24.7455 112.501 26.0055C112.529 26.8735 111.941 27.4615 111.129 27.3495C110.793 27.2935 110.373 27.2655 110.121 27.0415C109.617 26.6775 109.281 26.8735 108.889 27.1535C107.937 27.8815 107.741 28.9175 107.797 30.0095C107.825 30.6255 108.357 30.9055 108.889 30.9615C109.337 31.0455 109.841 30.9335 110.289 30.8775C111.017 30.6815 111.689 30.4015 112.361 30.2615C113.173 30.1215 113.453 30.2895 113.733 31.0175C113.985 31.6335 113.873 32.1095 113.313 32.5295C112.137 33.3415 110.989 34.0415 108.917 34.0415ZM124.692 25.1375H126.652C127.38 25.2215 127.492 25.4175 127.296 26.1455C127.128 27.2935 126.204 27.7695 125.224 28.0495C124.496 28.3015 124.496 28.3015 124.496 29.1415C124.412 30.4575 124.412 31.6895 124.3 32.8935C124.216 33.5655 124.048 34.0415 123.46 34.4055C123.124 34.6855 122.536 34.6855 122.256 34.4055C121.976 33.9295 121.696 33.4535 121.696 32.8935C121.5 31.9695 121.5 30.9615 121.5 30.0095C121.416 29.6175 121.416 29.3655 121.304 28.8895C120.38 28.9735 119.54 29.1415 118.7 29.2815L116.544 29.5335C115.704 29.7295 115.06 29.3655 114.584 28.6095C114.136 27.9655 114.22 27.1255 114.976 26.7335C115.704 26.3695 116.46 26.0615 117.216 25.8935C118.504 25.6135 119.904 25.5295 121.416 25.2215C121.5 24.3815 121.612 23.5415 121.696 22.6175C121.808 21.1335 121.892 19.7335 122.06 18.2215C122.144 17.8295 122.368 17.3815 122.536 16.9055C122.732 16.3455 123.376 16.1495 123.964 16.0655C124.496 15.9815 124.972 16.4295 125.14 17.0735C125.224 17.5775 125.14 18.1375 125.14 18.6695C125.056 20.5455 124.888 22.3375 124.692 24.2135V25.1375Z" fill="#E5E3E0"/>
</svg>
