<svg width="139" height="81" viewBox="0 0 139 81" fill="none" xmlns="http://www.w3.org/2000/svg">
<path d="M10.5999 35.928V14.6584H2.06192V2.05417H27.5257V14.6584H18.9878V35.928H10.5999Z" fill="#FEE939"/>
<path d="M25.4638 4.10833V12.6441H16.8858V33.9037H12.6218V12.6441H4.08381V4.13821H25.4238L25.4638 4.10833ZM29.5476 0.0298834H0V16.7524H8.53798V38.0121H21.0497V16.7225H29.5877V0L29.5476 0.0298834Z" fill="#282828"/>
<path d="M27.6659 35.928V2.02423H53.1297V35.928H27.6659ZM44.7418 23.3138V10.4105H40.3277V23.3138H44.7418Z" fill="#FEE939"/>
<path d="M51.0678 4.10833V33.8738H29.7278V4.10833H51.0678ZM38.2658 25.368H46.8038V8.35628H38.2658V25.368ZM55.1916 0H25.614V37.9821H55.1916V0ZM42.3897 12.4646H42.6799V21.2596H42.3897V12.4646Z" fill="#282828"/>
<path d="M70.3558 35.928V23.1742H65.9317V35.928H53.2798V2.02423H78.7436V35.928H70.3558ZM70.3558 14.8179V10.4105H65.9317V14.8179H70.3558Z" fill="#FEE939"/>
<path d="M76.6817 4.10833V33.8738H72.4077V21.12H63.9298V33.8738H55.3918V4.10833H76.7318H76.6817ZM63.9298 16.8621H72.4578V8.35628H63.9298V16.8621ZM80.8556 0H51.2179V37.9821H68.0036V25.2283H68.2939V37.9821H80.8056V0H80.8556ZM68.0536 12.4646H68.3439V12.7637H68.0536V12.4646Z" fill="#282828"/>
<path d="M78.9438 35.928V2.02423H100.134V6.28216H104.398V35.8981L78.9438 35.928ZM95.9598 27.6016V10.4105H91.5456V27.6016H95.9598Z" fill="#FEE939"/>
<path d="M98.0217 4.10833V8.35628H89.4837V29.596H98.0217V8.35628H102.296V33.8738H80.9457V4.10833H98.0217ZM102.146 0H76.8319V37.9821H106.41V4.25793H102.146V0ZM93.6075 12.4646H93.8978V25.5175H93.6075V12.4646Z" fill="#282828"/>
<path d="M104.498 35.928V19.0659H108.772V14.808H113.036V10.56H117.3V10.4104H104.498V2.05417H134.236V14.6584H129.962V18.9163H125.698V23.1642H121.424V27.4221H117.16V27.5617H134.236V35.928H104.498Z" fill="#FEE939"/>
<path d="M132.174 4.10833V12.6441H127.9V16.892H123.636V21.15H119.362V25.3979H115.098V29.596H132.174V33.8439H106.56V21.12H110.824V16.8621H115.098V12.6441H119.362V8.35628H106.56V4.10833H132.174ZM136.287 0H102.436V12.4646H110.974V12.7637H106.71V17.0117H102.436V37.9522H136.287V25.4876H123.486V25.1985H127.759V20.9405H131.993V16.6926H136.257V0H136.287Z" fill="#282828"/>
<path d="M11.4507 76.7121C10.0205 76.6163 8.65745 76.0718 7.55705 75.1566C6.3758 74.2229 5.38965 73.0677 4.65435 71.7562L4.33404 71.2577C3.91391 70.6526 3.68884 69.9343 3.68884 69.1985C3.68884 68.4627 3.91391 67.7445 4.33404 67.1394L4.41413 67.0197C4.76066 66.5214 5.20577 66.099 5.72215 65.7783C6.23853 65.4576 6.81528 65.2455 7.41694 65.1549C9.03729 64.9454 10.6267 64.5437 12.1513 63.9584C10.5078 63.3369 8.99421 62.4172 7.68718 61.2461C6.23184 59.9862 5.10232 58.3958 4.39409 56.6093L4.34406 56.4597C3.9598 55.1978 3.84054 53.8706 3.99372 52.5608C4.12989 51.6732 4.47268 50.8297 4.99466 50.0977L5.13481 49.8983C6.10328 48.5592 7.3986 47.4884 8.8983 46.7871C10.4495 46.0476 12.0439 45.4016 13.6728 44.8526C15.8111 44.1496 17.9863 43.5637 20.1889 43.0976C20.8444 42.9383 21.5161 42.8546 22.1907 42.8483C22.4991 42.8464 22.8071 42.8697 23.1116 42.9181C24.6365 43.036 26.1279 43.4244 27.5157 44.0649H27.6058L27.6959 44.1147C28.6084 44.6571 29.3732 45.4146 29.9229 46.3205C30.4727 47.2264 30.7907 48.253 30.8489 49.31C30.904 49.8431 30.8488 50.3818 30.6866 50.8929C30.5244 51.4039 30.2588 51.8764 29.906 52.2811C29.5533 52.6858 29.121 53.0141 28.6358 53.2457C28.1506 53.4773 27.6229 53.6073 27.0853 53.6277H26.9652C26.1417 53.5934 25.3327 53.4004 24.583 53.0593L23.2117 52.4012L23.1016 52.3314C22.8844 52.1906 22.63 52.1178 22.3709 52.122C22.1499 52.1268 21.9307 52.1638 21.7203 52.2317H21.6002C20.1048 52.5775 18.6636 53.1243 17.3162 53.8571L19.0678 54.5451L21.7704 55.6021C24.0039 56.549 25.9105 58.1262 27.2555 60.1392C27.8358 60.9302 28.3322 61.779 28.7369 62.672C29.1511 63.4511 29.3818 64.314 29.4112 65.1952C29.4407 66.0764 29.2683 66.9527 28.907 67.7576C28.294 69.4082 27.1503 70.8106 25.654 71.7463C22.0181 74.0848 17.9637 75.7032 13.7128 76.5127C13.1056 76.6267 12.489 76.6834 11.8711 76.6822L11.4507 76.7121Z" fill="#CCC2B9"/>
<path d="M22.1707 44.8726C22.3872 44.8529 22.6049 44.8529 22.8213 44.8726C24.1264 44.9737 25.4018 45.3117 26.5849 45.8698C27.2324 46.2481 27.7743 46.7823 28.1608 47.4234C28.5473 48.0646 28.766 48.7921 28.7969 49.5394C28.8558 49.8772 28.8104 50.2249 28.6668 50.5365C28.54 50.8625 28.3215 51.1451 28.0374 51.3503C27.7533 51.5555 27.4157 51.6746 27.0653 51.6932V51.6932C26.4978 51.6648 25.9407 51.5295 25.4238 51.2944L24.2226 50.716C23.6765 50.3664 23.0401 50.1828 22.3909 50.1875C21.9773 50.1878 21.5659 50.2482 21.1698 50.367C18.4814 51.009 15.9536 52.1935 13.7428 53.8471C13.2924 54.1762 13.2924 54.1762 13.1923 54.5052C13.2824 54.5651 13.4726 54.6149 13.6227 54.7147C16.1151 55.6321 18.5674 56.6392 21.0597 57.5965C22.9088 58.3977 24.4867 59.7134 25.6039 61.3857C26.1222 62.0978 26.5682 62.8593 26.9352 63.6592C27.2192 64.1774 27.3788 64.7542 27.4014 65.3442C27.424 65.9342 27.3089 66.5214 27.0653 67.0596C26.6049 68.298 25.7462 69.3498 24.623 70.0511C21.1974 72.2668 17.3735 73.8007 13.3625 74.5683C12.8808 74.6591 12.3913 74.7025 11.9011 74.6979H11.5608C10.5693 74.6106 9.62898 74.2206 8.86828 73.5811C7.88272 72.7973 7.05707 71.8326 6.43602 70.7392L6.07569 70.1408C5.86642 69.8467 5.75993 69.4922 5.77258 69.1319C5.78524 68.7716 5.91634 68.4253 6.14574 68.1465C6.33324 67.8765 6.57518 67.6484 6.85609 67.4767C7.13699 67.305 7.45071 67.1935 7.77727 67.1493C9.79223 66.8822 11.7618 66.3456 13.6327 65.5539C14.5806 65.2318 15.5039 64.8419 16.3953 64.3872C16.7457 64.2077 16.9959 64.0183 17.2862 63.8886V63.7889C16.8558 63.5795 16.4254 63.4199 15.8949 63.1607C14.984 62.8316 14.0131 62.5624 13.0522 62.1635C11.5997 61.6245 10.2594 60.8233 9.09851 59.8002C7.86978 58.7504 6.91496 57.4194 6.31591 55.9213C6.00473 54.9324 5.90583 53.8894 6.02563 52.8599C6.14818 52.2185 6.41891 51.6142 6.81638 51.0949C7.59146 50.0311 8.62456 49.1803 9.81919 48.622C11.296 47.9209 12.8134 47.3082 14.3634 46.7872C16.4102 46.1172 18.4919 45.558 20.5993 45.1119C21.1202 44.9829 21.654 44.9126 22.1907 44.9025L22.1707 44.8726ZM22.1907 40.854C21.3707 40.863 20.5545 40.9667 19.7585 41.1631C17.5178 41.6293 15.3055 42.222 13.1323 42.9381H13.0722H13.0222C11.3156 43.503 9.64438 44.1689 8.01751 44.9324C6.21108 45.7922 4.65153 47.0921 3.48324 48.7117L3.42319 48.7915L3.37315 48.8713L3.29309 48.9909C2.59832 49.9788 2.14889 51.1169 1.98184 52.3115C1.79707 53.8892 1.94018 55.4879 2.40224 57.0081V57.1478L2.4623 57.2974C3.2826 59.3815 4.59401 61.2386 6.28588 62.712L6.80636 63.1706C5.14746 63.497 3.68211 64.456 2.72255 65.843L2.64246 65.9727L2.5624 66.1023C1.95238 67.0243 1.62723 68.1042 1.62723 69.2085C1.62723 70.3127 1.95238 71.3928 2.5624 72.3147L2.86267 72.7933C3.72671 74.3072 4.87536 75.6411 6.24584 76.7222C7.63208 77.8672 9.33631 78.563 11.1304 78.7165H11.8811C12.6235 78.7184 13.3644 78.6482 14.0932 78.5071C18.5866 77.6535 22.8723 75.9437 26.715 73.4714C28.5468 72.3146 29.9518 70.5964 30.7187 68.5753C31.1873 67.5082 31.4115 66.3505 31.3752 65.1863C31.3388 64.0221 31.0428 62.8805 30.5085 61.8444C30.0444 60.8458 29.4846 59.894 28.837 59.0025C27.9249 57.6683 26.7988 56.4926 25.5038 55.5224C25.9459 55.611 26.3945 55.6644 26.8451 55.6819H27.0253C28.1588 55.662 29.2624 55.3165 30.2035 54.6867C31.1446 54.057 31.8831 53.1698 32.3302 52.132C32.7562 51.1957 32.9188 50.1617 32.8007 49.1405C32.7125 47.7756 32.2952 46.4521 31.5843 45.2822C30.8734 44.1122 29.8898 43.1302 28.7169 42.4196L28.5467 42.3099L28.3665 42.2201C26.7735 41.4712 25.0576 41.0151 23.3018 40.874C22.9144 40.8136 22.5228 40.7835 22.1307 40.7842L22.1907 40.854Z" fill="#282828"/>
<path d="M38.1056 72.0554C36.9429 71.9871 35.7947 71.7623 34.6924 71.3873C32.9292 70.8787 31.3266 69.9277 30.0381 68.6252C29.5061 68.0675 29.085 67.4145 28.7969 66.7006C28.5528 66.0441 28.2721 65.4016 27.9561 64.7761L27.8861 64.6265C27.5081 63.6642 27.2493 62.6597 27.1153 61.635V61.4754V61.3059C27.1035 61.0438 27.0666 60.7834 27.0052 60.5282C26.8455 59.5293 26.9105 58.5075 27.1954 57.5367V57.3871C27.4957 56.4977 27.8952 55.6448 28.3865 54.8443L28.4566 54.7346C28.7474 54.3383 28.9706 53.897 29.1172 53.4283L29.1773 53.2787C29.6229 52.1873 30.3732 51.2461 31.3393 50.5665C31.6488 50.3211 31.9844 50.1104 32.3402 49.9382C32.7845 49.6112 33.209 49.2582 33.6114 48.8812L33.6915 48.8114C34.951 47.7602 36.4607 47.0493 38.0756 46.7473C38.5683 46.6634 39.0671 46.6201 39.567 46.6176C41.1156 46.6202 42.6356 47.0332 43.9711 47.8143C45.5822 48.7104 46.889 50.0642 47.7246 51.7032V51.773V51.8528C48.0863 52.6492 48.2379 53.5244 48.165 54.3955C48.1689 54.5601 48.2136 54.7211 48.2952 54.8642C49.2935 56.8174 49.707 59.0154 49.4863 61.1962C49.2488 64.0871 47.9435 66.7874 45.8228 68.7747C44.2996 70.2673 42.4017 71.3246 40.3277 71.836C39.6413 71.9921 38.9398 72.0723 38.2357 72.0753L38.1056 72.0554ZM38.6662 58.6834C38.132 59.3989 37.8921 60.2905 37.9955 61.1763C38.018 61.4123 38.0615 61.646 38.1256 61.8743C38.3093 61.7681 38.4749 61.6335 38.6161 61.4754L38.7062 61.3857L38.8063 61.2959C38.9063 61.2268 38.9896 61.1363 39.0502 61.0311C39.1108 60.9259 39.1472 60.8086 39.1566 60.6877V60.5082C39.2193 60.197 39.1879 59.8743 39.0665 59.5808L38.6662 58.6834Z" fill="#CCC2B9"/>
<path d="M39.6371 48.6219C40.8272 48.6181 41.9962 48.935 43.0202 49.5393C44.3084 50.2344 45.3552 51.3016 46.023 52.6006C46.2731 53.1144 46.3704 53.6888 46.3033 54.2559C46.2871 54.8035 46.4221 55.3451 46.6937 55.8215C47.4935 57.4228 47.8198 59.2177 47.6346 60.9968C47.4535 63.396 46.3831 65.6423 44.6317 67.2989C43.369 68.544 41.792 69.426 40.0675 69.8516C39.5347 69.9687 38.9915 70.0322 38.446 70.0411H38.2558C37.2672 69.9738 36.2916 69.7794 35.3531 69.4627C33.9082 69.0462 32.595 68.2668 31.5395 67.1992C31.2071 66.8332 30.9427 66.4111 30.7588 65.9527C30.4929 65.2487 30.1889 64.5597 29.8479 63.8886C29.5351 63.0861 29.32 62.2492 29.2073 61.3957C29.2147 60.9687 29.1642 60.5427 29.0572 60.1292C28.9654 59.4304 29.0234 58.7201 29.2273 58.0452C29.4832 57.297 29.8188 56.5783 30.2283 55.9013C30.638 55.3326 30.9555 54.7034 31.1691 54.0366C31.4791 53.3007 31.9886 52.6654 32.6405 52.2017C32.8983 51.9926 33.1848 51.8214 33.4913 51.6932C34.0735 51.2844 34.6254 50.8345 35.1429 50.347C36.1379 49.5177 37.3307 48.9579 38.6061 48.7216C38.9735 48.6628 39.345 48.6328 39.7171 48.6319L39.6371 48.6219ZM37.7153 64.1578C37.9243 64.1539 38.131 64.1134 38.3259 64.0381C39.026 63.7898 39.6572 63.3798 40.1676 62.8416C40.4608 62.5935 40.7005 62.2889 40.8726 61.9462C41.0446 61.6035 41.1453 61.2297 41.1685 60.8472C41.2847 60.175 41.2083 59.4839 40.9483 58.8529C40.588 58.0651 40.2677 57.3272 39.9474 56.6391L39.3568 55.4525C39.2567 55.4525 39.2067 55.4525 39.1566 55.5921C38.4269 55.9949 37.7787 56.5291 37.2448 57.1677C36.7526 57.7671 36.3872 58.4594 36.1704 59.2032C35.9537 59.9469 35.8901 60.7266 35.9836 61.4954C36.0405 62.1612 36.2311 62.809 36.5442 63.4C36.6378 63.6213 36.7932 63.8113 36.9919 63.9474C37.1906 64.0835 37.4243 64.1599 37.6652 64.1678L37.7153 64.1578ZM39.6671 44.6033C39.0908 44.6026 38.5152 44.6459 37.9455 44.733H37.8654H37.7853C35.8345 45.1055 34.0097 45.963 32.4804 47.2259L32.4003 47.2957L32.3202 47.3755C31.9899 47.6746 31.6796 47.9438 31.3794 48.1732C30.963 48.3851 30.5676 48.6355 30.1982 48.9211C28.9451 49.8207 27.9678 51.0498 27.3756 52.471L27.3156 52.6206L27.2655 52.7701C27.1782 53.0425 27.0463 53.2985 26.8751 53.528L26.8051 53.6377L26.735 53.7473C26.1663 54.6737 25.703 55.6603 25.3537 56.689L25.3037 56.8286V56.9782C24.9447 58.208 24.8559 59.5004 25.0434 60.7674V60.8572V60.9469C25.0708 61.0585 25.0909 61.1718 25.1035 61.286V61.5652V61.9042C25.2614 63.0866 25.564 64.2452 26.0043 65.3544L26.0644 65.514L26.1344 65.6535C26.4547 66.3017 26.685 66.8302 26.8651 67.3089V67.3787V67.4485C27.2369 68.3647 27.7728 69.2061 28.4466 69.9314L28.5066 70.0012L28.5767 70.0611C30.1048 71.6102 32.013 72.7343 34.1119 73.3218C35.3645 73.7379 36.6672 73.9861 37.9855 74.0597H38.3158C39.1405 74.0556 39.9624 73.9654 40.7681 73.7905H40.9083H40.9683C43.397 73.1935 45.6199 71.9571 47.4043 70.2106C49.8656 67.8918 51.3805 64.7491 51.6583 61.3857C51.9106 58.8999 51.4635 56.3932 50.3671 54.1462C50.3923 53.088 50.1874 52.0369 49.7666 51.065L49.6965 50.9154L49.6264 50.7758C48.6131 48.7697 47.0152 47.1153 45.0421 46.0293C43.4102 45.0836 41.555 44.588 39.6671 44.5933V44.6033Z" fill="#282828"/>
<path d="M61.8178 78.9858C58.6808 79.0072 55.6178 78.0366 53.0696 76.2136C50.9634 74.6578 49.4496 72.4359 48.7756 69.9115C48.3929 68.6159 48.1941 67.2733 48.1851 65.9228C48.1851 65.6835 48.1851 65.4143 48.1851 65.1351C48.1851 64.6564 48.1851 64.2077 48.1851 63.8188L47.9148 61.5054H48.3752C48.4381 61.2389 48.5149 60.976 48.6055 60.7176C48.6555 60.5282 48.7156 60.3487 48.7656 60.1592V60.0396V59.9198C49.3662 58.2346 49.9768 56.699 50.6474 55.2531C51.8116 52.8699 53.3338 50.6775 55.1616 48.7516L55.2617 48.6519C55.4903 48.4421 55.731 48.2457 55.9824 48.0636C56.1181 47.9757 56.2454 47.8755 56.3627 47.7644L56.673 47.4952C56.7578 47.4273 56.838 47.354 56.9132 47.2758C57.6121 46.4701 58.4492 45.7948 59.3855 45.2814C61.1228 44.1059 63.1374 43.4013 65.231 43.2372C65.5619 43.1838 65.8967 43.1571 66.2319 43.1574C67.1401 43.15 68.0366 43.3622 68.8444 43.7757C69.0795 43.9052 69.3068 44.0484 69.525 44.2045L69.8153 44.394H69.8854C69.9498 44.4541 70.0203 44.5076 70.0956 44.5535C70.7603 44.8611 71.3431 45.3201 71.7969 45.8935C72.2507 46.4668 72.5628 47.1385 72.708 47.8541C72.9926 48.8564 73.0621 49.9072 72.9121 50.938C72.762 51.9689 72.3958 52.9567 71.8372 53.8371C71.6905 54.1502 71.5233 54.4533 71.3367 54.7445C71.2675 54.8439 71.204 54.9472 71.1465 55.0537L70.8863 55.5224L70.556 55.7318L70.2657 56.011L70.1756 56.0808C69.7383 56.4229 69.2002 56.6121 68.6442 56.6192C68.0844 56.6142 67.5435 56.417 67.1128 56.0608L67.0327 56.001C66.6177 55.6396 66.2541 55.2236 65.9517 54.7645L65.8516 54.595L65.7815 54.4155C65.7548 54.3347 65.7178 54.2576 65.6714 54.1861C65.0882 54.4441 64.5427 54.7795 64.0499 55.1833C61.4254 57.3714 59.7185 60.4594 59.2654 63.8388C59.1027 64.9412 59.1917 66.066 59.5257 67.1294V67.2291L59.5757 67.3587C59.6817 67.4267 59.8012 67.4709 59.9261 67.4884C60.3095 67.6011 60.7073 67.6582 61.1072 67.6579C61.4427 67.6559 61.7775 67.6259 62.1081 67.5682H62.2382C64.2072 67.3589 66.1244 66.8088 67.9035 65.9428C69.1847 65.3345 70.546 64.7661 72.0874 64.2077H72.2075L72.3977 64.0282L72.6179 63.9085C73.4445 63.4294 74.3609 63.1241 75.3104 63.0111H75.6908C76.3706 63.0139 77.0459 63.1215 77.6927 63.3302H78.5435L79.1641 64.3274L79.4443 64.8359V65.0553L80.0048 66.6607C80.1865 67.2363 80.2039 67.8509 80.0549 68.4357V68.5653L79.9948 68.7648C79.3883 70.4202 78.3521 71.8859 76.992 73.0127C75.9799 73.8219 74.9018 74.5457 73.769 75.1766L73.5788 75.2763C71.6467 76.3787 69.6078 77.284 67.4931 77.9786C66.0901 78.4788 64.6182 78.7612 63.1291 78.8162C62.7988 78.9658 62.3083 78.9858 61.8178 78.9858Z" fill="#CCC2B9"/>
<path d="M66.272 45.1617C66.8488 45.1592 67.4181 45.2925 67.9335 45.5506C68.1237 45.6504 68.414 45.8598 68.6442 46.0094C68.8309 46.1738 69.0398 46.3114 69.2648 46.4182C69.656 46.6066 69.9958 46.8864 70.2555 47.2335C70.5151 47.5807 70.6869 47.9851 70.7562 48.4125C70.9837 49.1815 71.0388 49.991 70.9177 50.7836C70.7967 51.5762 70.5023 52.3326 70.0555 52.9995C69.8536 53.4067 69.6297 53.8029 69.3849 54.1861C69.2402 54.2963 69.1061 54.4199 68.9845 54.5551C68.8967 54.6381 68.7844 54.6905 68.6642 54.7046C68.5654 54.6991 68.4724 54.6563 68.404 54.585C68.128 54.3564 67.8884 54.0874 67.6933 53.7873C67.5547 53.4607 67.3872 53.147 67.1929 52.8499C67.0797 52.6363 66.9117 52.4563 66.7059 52.3284C66.5002 52.2006 66.2641 52.1293 66.0217 52.122C65.7799 52.1316 65.5406 52.1751 65.3111 52.2516C64.37 52.6246 63.4974 53.1503 62.7287 53.8072C59.7224 56.3344 57.776 59.8923 57.2736 63.7789C57.0748 65.167 57.1946 66.5818 57.6239 67.9171C57.731 68.3559 57.9675 68.7528 58.3028 69.0566C58.6381 69.3605 59.057 69.5575 59.5056 69.6223C60.0397 69.7721 60.5924 69.846 61.1472 69.8417C61.5898 69.8402 62.0317 69.8035 62.4684 69.732C64.6744 69.4971 66.8221 68.8795 68.8144 67.9071C70.1556 67.2789 71.4869 66.7405 72.8181 66.2519C73.1137 66.1618 73.3844 66.0048 73.6089 65.7931C74.1975 65.4451 74.8516 65.2212 75.5306 65.135H75.7108C76.2786 65.1401 76.841 65.2447 77.3724 65.4442C77.4224 65.4442 77.4624 65.5439 77.4624 65.5838L78.1231 67.4983C78.1981 67.7522 78.1981 68.0222 78.1231 68.2761C77.6399 69.6075 76.8068 70.7853 75.7108 71.6864C74.737 72.4304 73.7062 73.0972 72.6279 73.6808C70.8141 74.6891 68.9068 75.5205 66.9326 76.1637C65.7048 76.6078 64.4145 76.8568 63.109 76.9016C62.6686 76.9016 62.2382 76.9614 61.8078 76.9614C59.0913 76.9842 56.4379 76.1461 54.2307 74.5682C52.4993 73.2756 51.2576 71.4377 50.7074 69.353C50.3812 68.2279 50.2094 67.064 50.1969 65.8929C50.1969 65.1151 50.1969 64.3373 50.1269 63.6093H50.227C50.1996 63.1401 50.2164 62.6695 50.277 62.2034C50.3971 61.625 50.6073 61.1463 50.7274 60.6178C51.2679 59.0922 51.8485 57.6263 52.5291 56.1206C53.6008 53.9277 55.0015 51.9103 56.683 50.1376C57.0333 49.8085 57.4337 49.5792 57.784 49.2502C58.029 49.0467 58.2629 48.8303 58.4847 48.602C59.0673 47.9266 59.7654 47.3594 60.5466 46.9267C62.0078 45.9313 63.7062 45.3363 65.4712 45.2017C65.7329 45.1619 65.9972 45.1419 66.262 45.1418L66.272 45.1617ZM66.262 41.1032C65.8367 41.1044 65.412 41.1344 64.9908 41.193C62.6038 41.4062 60.3101 42.2193 58.3245 43.5563C57.2474 44.1875 56.2806 44.989 55.4619 45.9296L55.3918 45.9894L55.0315 46.3085L54.8213 46.468C54.5058 46.6873 54.208 46.9307 53.9304 47.196L53.8203 47.2957L53.7302 47.3954C51.7659 49.461 50.1319 51.8152 48.8857 54.3756C48.1951 55.8813 47.5545 57.4668 46.9339 59.2218L46.8738 59.3913H45.6827L46.1331 63.9783C46.1331 64.2874 46.1331 64.6963 46.1331 65.1251C46.1331 65.5538 46.1331 65.6735 46.1331 65.9527C46.1517 67.4824 46.3807 69.0022 46.8138 70.4699C47.6036 73.4057 49.3675 75.989 51.8185 77.7991C54.7116 79.8656 58.1879 80.9653 61.7478 80.9401C62.2582 80.9401 62.7487 80.9401 63.2992 80.8803C64.9679 80.7901 66.614 80.4541 68.1838 79.8831C70.395 79.1524 72.5275 78.2037 74.5497 77.0512L74.7299 76.9415C75.9437 76.2751 77.0988 75.5079 78.1831 74.648H78.2332H78.2832C79.8937 73.2876 81.113 71.5258 81.8165 69.5425L81.9066 69.2932L81.9666 69.0339V68.9741C82.1757 68.085 82.1481 67.157 81.8866 66.2817V66.202V66.1222L81.316 64.457C81.1429 63.7573 80.7911 63.1141 80.2948 62.59C79.7984 62.0658 79.1744 61.6784 78.4834 61.4655C77.5693 61.1479 76.6088 60.9828 75.6408 60.9768H75.0702C73.8527 61.1075 72.6762 61.4914 71.617 62.1036L71.1565 62.343L71.0765 62.4227C69.5851 62.9712 68.2438 63.5296 67.0027 64.1179C65.4331 64.8903 63.7388 65.3798 61.998 65.5638H61.8578H61.7277L61.1972 65.6236C61.1274 65.1375 61.1274 64.6439 61.1972 64.1578V64.0481C61.3097 63.1591 61.535 62.2879 61.8679 61.4555C62.5047 59.6902 63.5953 58.1223 65.0308 56.9084C65.201 57.0879 65.3811 57.2574 65.5813 57.4369L65.6614 57.5167L65.7515 57.5865C66.5305 58.2204 67.5027 58.5717 68.5086 58.5825C69.5144 58.5934 70.494 58.2633 71.2867 57.6463L71.4769 57.5067L71.647 57.3571L71.7371 57.2674L72.3277 56.9084L72.8481 55.9112L72.9682 55.7018C73.1762 55.3798 73.3666 55.0469 73.5388 54.7046C74.2109 53.5854 74.6465 52.3412 74.8186 51.0483C74.9907 49.7554 74.8958 48.4411 74.5397 47.186C74.3179 46.2294 73.8884 45.3327 73.2815 44.5592C72.6745 43.7857 71.9048 43.1541 71.0264 42.7087L70.9063 42.609L70.7262 42.4893L70.546 42.3697C70.3057 42.2101 70.0355 42.0306 69.7352 41.8611C68.6427 41.3014 67.4303 41.014 66.2019 41.0235L66.262 41.1032Z" fill="#282828"/>
<path d="M86.7211 77.3703C86.5377 77.3802 86.354 77.3802 86.1706 77.3703C84.48 77.1519 82.9352 76.304 81.8466 74.9971C81.08 74.0372 80.4965 72.9455 80.1249 71.7762C79.6232 70.3089 79.2875 68.7905 79.124 67.249L78.8237 62.8416C78.7343 61.1157 78.7778 59.3855 78.9539 57.6663C79.0439 56.5096 79.124 55.3828 79.3242 54.1164C79.4213 53.1953 79.6681 52.296 80.0549 51.4539V51.3841V51.3043C80.6901 50.2928 81.5326 49.4263 82.5272 48.7615L82.6373 48.6918C83.6232 48.0506 84.773 47.7045 85.9504 47.6946H86.2807C86.9697 47.7505 87.635 47.9708 88.2204 48.3371C88.8058 48.7033 89.2941 49.2046 89.6439 49.7986C89.96 50.305 90.2058 50.8518 90.3745 51.424C92.3764 49.8983 94.5685 48.2231 96.8106 46.4381L96.8906 46.3783L96.9707 46.3285L97.4011 46.0393C97.9764 45.629 98.602 45.2939 99.2628 45.0421C99.931 44.7599 100.649 44.6141 101.375 44.6133C101.963 44.6158 102.547 44.71 103.106 44.8925H103.207C103.659 45.0406 104.077 45.2786 104.435 45.5923C104.793 45.9059 105.083 46.2887 105.288 46.7173L105.339 46.8171C105.754 47.557 106.047 48.3582 106.209 49.1903C106.349 49.9525 106.319 50.7358 106.121 51.4852C105.924 52.2345 105.565 52.9318 105.068 53.528C104.601 54.164 104.06 54.743 103.457 55.2531C101.496 57.1494 99.3839 58.8836 97.1409 60.4384C99.1427 61.0965 101.485 61.8544 103.837 62.5723C104.838 62.9114 105.839 63.2604 106.84 63.5695C107.661 63.8686 108.471 64.1578 109.292 64.427H109.362H109.442C110.473 64.8365 111.327 65.592 111.857 66.5626C112.387 67.5332 112.559 68.6579 112.345 69.742C112.248 70.2849 112.018 70.7954 111.674 71.2277L111.584 71.3773L111.414 71.5767L111.254 71.7762C110.926 72.2674 110.454 72.6467 109.903 72.8631C109.632 72.9687 109.35 73.0423 109.062 73.0825H108.922C108.827 73.1168 108.73 73.1435 108.632 73.1622L108.171 73.2719C108.016 73.2972 107.862 73.3305 107.711 73.3717C107.089 73.5515 106.446 73.6454 105.799 73.6508C105.438 73.6456 105.077 73.6223 104.718 73.581L104.077 73.5212C102.931 73.4176 101.795 73.2141 100.684 72.913C100.314 72.8232 99.9535 72.7335 99.5932 72.6637C98.322 72.3845 97.1208 72.0753 95.9497 71.7762C95.3292 71.6066 94.7086 71.4471 94.078 71.2975H93.9879H93.8978C92.957 70.9685 91.956 70.6594 90.895 70.3602C90.8999 70.3832 90.8999 70.407 90.895 70.43C90.9751 70.9087 91.0452 71.3873 91.1052 71.8659C91.2223 72.7195 91.1154 73.5886 90.7949 74.3887C90.5238 75.2536 89.9822 76.0094 89.2493 76.5458C88.5164 77.0822 87.6305 77.3711 86.7211 77.3703Z" fill="#CCC2B9"/>
<path d="M101.415 46.6077C101.795 46.6111 102.173 46.6716 102.536 46.7871C102.738 46.842 102.927 46.9375 103.09 47.0679C103.254 47.1982 103.389 47.3606 103.487 47.545C103.843 48.1663 104.1 48.8391 104.247 49.5393C104.337 50.0317 104.313 50.5378 104.178 51.0197C104.043 51.5016 103.799 51.9466 103.467 52.3214C103.076 52.8619 102.619 53.3511 102.105 53.7773C99.7878 56.0365 97.2343 58.0422 94.4884 59.7603L94.098 60.0894C93.7673 60.3472 93.4158 60.5773 93.047 60.7774C93.5725 61.1812 94.1477 61.5163 94.7586 61.7746C97.5512 62.702 100.394 63.6194 103.237 64.4969C105.068 65.0952 106.84 65.7832 108.622 66.3815C109.241 66.6136 109.754 67.0625 110.066 67.6442C110.377 68.226 110.465 68.9008 110.313 69.5425C110.232 69.8212 110.092 70.0795 109.903 70.3004C109.592 70.6295 109.442 70.9685 109.192 71.0483C109.035 71.1133 108.87 71.1569 108.702 71.1779C108.5 71.1972 108.302 71.2407 108.111 71.3075C107.771 71.3873 107.671 71.3873 107.18 71.5169C106.725 71.6513 106.254 71.7218 105.779 71.7263C105.328 71.7263 104.888 71.6565 104.207 71.6067C102.788 71.4351 101.383 71.1618 100.004 70.789C98.1218 70.3802 96.3801 69.8816 94.5484 69.4329C93.1571 68.9442 91.7058 68.5155 90.2644 68.1266C89.7739 68.0069 89.3435 67.7476 88.8631 67.5881C88.8631 67.5881 88.773 67.5881 88.6729 67.5881C88.6029 68.1977 88.6029 68.8133 88.6729 69.4229C88.793 70.3502 88.9532 71.2776 89.0633 72.205C89.1493 72.7449 89.0799 73.2982 88.8631 73.8005C88.7214 74.2641 88.4316 74.6689 88.0377 74.9533C87.6438 75.2377 87.1674 75.3861 86.6811 75.3759H86.3808C85.2063 75.2206 84.134 74.6294 83.378 73.7207C82.7712 72.9326 82.3071 72.0451 82.0067 71.0981C81.5496 69.7829 81.2375 68.4221 81.0758 67.0396L80.7956 62.712C80.7122 61.096 80.749 59.4762 80.9056 57.8657C80.9957 56.7089 81.0858 55.5921 81.276 54.3856C81.3448 53.671 81.5343 52.9731 81.8365 52.3214C82.3313 51.5562 82.9828 50.9038 83.7483 50.4069C84.4114 49.9833 85.1827 49.7583 85.9704 49.7587H86.1105C86.4827 49.7816 86.8434 49.8967 87.1597 50.0934C87.476 50.2902 87.7381 50.5624 87.9222 50.8855C88.3233 51.5682 88.5947 52.3186 88.723 53.0992C88.8254 53.467 88.9089 53.8398 88.9732 54.2161C88.9732 54.4653 89.0633 54.5152 89.2034 54.6149C89.2451 54.6321 89.2919 54.6321 89.3335 54.6149C89.9241 54.3593 90.4765 54.0237 90.9751 53.6178C93.3173 51.8628 95.7195 49.998 98.0717 48.1433C98.6721 47.6873 99.3238 47.3025 100.014 46.9966C100.442 46.8067 100.906 46.7081 101.375 46.7073L101.415 46.6077ZM101.375 42.6588C100.395 42.6649 99.4262 42.8613 98.5221 43.2372C97.7132 43.5559 96.9494 43.9783 96.25 44.4937L95.8697 44.7529L95.7095 44.8526L95.5493 44.9723C94.0279 46.1789 92.5465 47.3356 91.1052 48.4425C90.5758 47.6883 89.8861 47.0595 89.0851 46.6011C88.2841 46.1426 87.3915 45.8657 86.4708 45.79H85.9504C84.385 45.7939 82.8534 46.2437 81.5362 47.0863L81.4361 47.1461L81.3361 47.2159C80.1221 48.0504 79.0988 49.131 78.3333 50.3869L78.2532 50.5365L78.1831 50.6861C77.7028 51.7127 77.3951 52.8108 77.2722 53.9368C77.0721 55.2531 76.982 56.4497 76.8919 57.6065C76.711 59.4054 76.6675 61.2155 76.7618 63.0211L77.052 67.3887V67.5482C77.2472 69.246 77.6264 70.9177 78.1831 72.534C78.641 73.9266 79.3387 75.229 80.245 76.3831C81.6349 78.0644 83.6058 79.1671 85.7702 79.4743H85.9504C86.2095 79.5054 86.4701 79.5221 86.7311 79.5242C88.0536 79.5302 89.3446 79.1225 90.4221 78.3586C91.4996 77.5946 92.3092 76.513 92.7367 75.2663C92.9706 74.6615 93.1189 74.0271 93.1771 73.3816H93.2272L93.4074 73.4414H93.5975L95.4292 73.9101C96.6204 74.2193 97.8515 74.5483 99.1627 74.8275C99.5131 74.8973 99.8534 74.987 100.164 75.0668C101.39 75.3967 102.642 75.6202 103.907 75.735H104.478C104.878 75.735 105.278 75.8048 105.759 75.8048C106.592 75.7995 107.42 75.6821 108.221 75.4557L108.531 75.3859L109.072 75.2663H109.252H109.352C109.759 75.2068 110.159 75.1031 110.543 74.9571C111.467 74.6041 112.264 73.9865 112.835 73.1822L112.886 73.1124L113.106 72.883L113.266 72.6337C113.777 71.9554 114.12 71.166 114.267 70.3303V70.2206C114.55 68.6954 114.296 67.1194 113.546 65.7599C112.796 64.4004 111.597 63.3411 110.153 62.7618L110.003 62.692L109.853 62.6421C109.052 62.3829 108.261 62.0937 107.46 61.8045C106.46 61.4555 105.459 61.0965 104.458 60.7575C103.457 60.4583 102.456 60.1392 101.505 59.8401C102.586 58.9426 103.687 57.9654 104.848 56.8486C105.542 56.2556 106.166 55.5866 106.71 54.8543C107.378 54.0521 107.866 53.1159 108.139 52.1092C108.412 51.1026 108.464 50.0492 108.291 49.0208V48.9411C108.111 47.9151 107.774 46.9229 107.29 45.9994L107.23 45.8797C106.913 45.2281 106.467 44.6462 105.921 44.1685C105.374 43.6907 104.737 43.3266 104.047 43.0976H103.947H103.847C103.091 42.8514 102.301 42.7236 101.505 42.7187L101.375 42.6588Z" fill="#282828"/>
<path d="M120.633 77.0811L120.703 75.0868L120.603 77.0811C119.962 77.0811 119.242 77.0811 118.501 76.9515H118.411H118.321C116.858 76.642 115.465 76.071 114.207 75.2663L114.097 75.1965L113.636 74.8475C113.346 74.6181 113.056 74.4087 112.796 74.1594L112.695 74.0597C112.468 73.8368 112.276 73.5814 112.125 73.3019C112.006 73.1055 111.905 72.8985 111.825 72.6836L111.705 72.4443C111.659 72.3449 111.602 72.2512 111.534 72.1651C111.215 71.7299 111 71.2281 110.905 70.6977C110.809 70.1673 110.836 69.6222 110.984 69.1038C111.371 67.594 112.159 66.2161 113.266 65.1151C114.07 64.2711 114.933 63.4847 115.848 62.7618L115.958 62.6621C115.908 62.4626 115.868 62.2831 115.828 62.1036V61.9441V61.7746C115.795 61.189 115.901 60.6039 116.138 60.0668C116.374 59.5297 116.735 59.0557 117.19 58.6834H117.26L117.36 58.6136C117.16 58.5138 116.959 58.4141 116.769 58.3044C116.128 57.9905 115.552 57.5612 115.068 57.0381C114.462 56.3718 114.076 55.5367 113.962 54.6453C113.847 53.7539 114.01 52.8489 114.427 52.0522C114.537 51.793 114.667 51.5536 114.787 51.3243L114.948 51.0052L114.998 50.9055L115.058 50.8058C115.349 50.3408 115.73 49.9375 116.179 49.6191L116.309 49.5294C116.826 49.1727 117.412 48.9281 118.03 48.8114L118.391 48.7117H118.501C119.302 48.5023 120.102 48.3328 120.913 48.1632C121.724 47.9937 122.284 47.8741 122.985 47.6946H123.125L125.868 47.2059C126.421 47.1254 126.98 47.0854 127.539 47.0863H128.54H128.66H128.78C129.271 47.1561 129.781 47.196 130.232 47.2259L131.103 47.2957C131.846 47.359 132.566 47.5794 133.217 47.9423C133.868 48.3051 134.433 48.8019 134.876 49.3997C134.962 49.5219 135.056 49.6385 135.156 49.7488C135.785 50.2179 136.283 50.8404 136.6 51.5565C136.917 52.2726 137.044 53.058 136.968 53.8371V53.9368V54.0266C136.745 55.1455 136.347 56.2224 135.787 57.2176C135.338 58.1606 134.795 59.056 134.165 59.89L133.595 60.7375L133.535 60.8173C132.541 62.0833 131.45 63.2702 130.272 64.3672L129.091 65.4841L129.952 65.2348L132.224 64.7162C132.515 64.6442 132.814 64.6074 133.114 64.6065C133.82 64.6103 134.509 64.8239 135.092 65.2201C135.675 65.6163 136.126 66.177 136.388 66.8303C136.865 67.923 136.982 69.1386 136.721 70.3018C136.46 71.465 135.835 72.5156 134.936 73.3019C133.101 74.8862 130.871 75.9472 128.48 76.3731C127.411 76.5972 126.327 76.7472 125.237 76.8219C124.336 76.9415 123.486 77.0113 122.685 77.0711C122.246 77.1219 121.805 77.1486 121.364 77.1509H120.753L120.633 77.0811Z" fill="#CCC2B9"/>
<path d="M127.489 48.9211H128.43C129.251 49.0507 130.072 49.0706 130.852 49.1504C131.314 49.1846 131.762 49.3182 132.167 49.542C132.571 49.7658 132.922 50.0745 133.195 50.4467C133.386 50.7169 133.604 50.9674 133.845 51.1946C134.225 51.4534 134.526 51.8099 134.719 52.2261C134.911 52.6423 134.986 53.1026 134.936 53.558C134.744 54.4984 134.407 55.4033 133.935 56.2403C133.346 57.3888 132.656 58.4833 131.873 59.511C130.942 60.7088 129.91 61.8262 128.79 62.8515L123.506 67.8374C123.385 67.9891 123.251 68.1294 123.105 68.2562C123.045 68.3559 123.045 68.4057 123.105 68.4556C123.165 68.5054 123.185 68.6351 123.295 68.6351H123.496C124.496 68.4756 125.347 68.3559 126.278 68.1964C127.699 67.9072 129.131 67.4684 130.452 67.0796L132.664 66.571C132.808 66.5359 132.956 66.5191 133.104 66.5211C133.415 66.5256 133.716 66.6231 133.97 66.801C134.223 66.9789 134.417 67.2289 134.526 67.5183C134.829 68.2087 134.903 68.9774 134.738 69.7128C134.572 70.4481 134.175 71.1116 133.605 71.6067C132.051 72.9686 130.149 73.8762 128.11 74.2292C127.098 74.448 126.071 74.5914 125.037 74.658C124.156 74.7777 123.325 74.8475 122.445 74.9073C121.876 74.9661 121.305 74.9961 120.733 74.9971C120.102 74.9971 119.422 74.997 118.731 74.8774C117.504 74.6108 116.334 74.1279 115.278 73.4514C114.897 73.1523 114.517 72.893 114.187 72.5939C114.071 72.4778 113.976 72.3429 113.907 72.195C113.78 71.9908 113.676 71.7735 113.596 71.5468C113.472 71.308 113.332 71.0781 113.176 70.8588C113.04 70.6597 112.951 70.4322 112.916 70.1938C112.882 69.9553 112.902 69.7122 112.976 69.4827C113.284 68.3466 113.892 67.3135 114.737 66.4912C115.619 65.5902 116.558 64.7474 117.55 63.9683L117.75 63.7789C117.909 63.6726 118.031 63.519 118.097 63.34C118.164 63.161 118.172 62.9657 118.121 62.7818C117.99 62.3929 117.91 62.0538 117.82 61.6649C117.805 61.3921 117.855 61.1197 117.967 60.8701C118.078 60.6204 118.248 60.4007 118.461 60.229C119.408 59.5117 120.532 59.0637 121.714 58.9326H122.294C122.414 58.9712 122.539 58.9913 122.665 58.9925C123.008 58.9798 123.334 58.8372 123.576 58.5936C124.299 57.7766 125.075 57.0072 125.898 56.2902C126.018 56.1541 126.153 56.0305 126.298 55.9212C125.903 55.9186 125.509 55.9689 125.127 56.0708L123.125 56.8785C122.564 57.1494 121.947 57.286 121.323 57.2774C121.077 57.2926 120.829 57.2926 120.583 57.2774C119.584 57.2652 118.605 56.9973 117.74 56.4995C117.294 56.2888 116.893 55.9943 116.559 55.632C116.216 55.2637 116.002 54.795 115.948 54.2955C115.893 53.7961 116.003 53.2926 116.259 52.8599C116.419 52.481 116.629 52.142 116.779 51.8628C116.963 51.5795 117.206 51.3382 117.49 51.1547C117.953 50.8743 118.456 50.6658 118.981 50.5365C120.453 50.1476 121.924 49.9083 123.445 49.5393L126.188 49.0507C126.619 48.9871 127.054 48.9571 127.489 48.961V48.9211ZM127.489 44.9723C126.85 44.968 126.211 45.0114 125.577 45.1019H125.477L122.735 45.5905H122.585H122.445C121.794 45.7501 121.143 45.8897 120.443 46.0393C119.742 46.1888 118.801 46.3783 117.94 46.6077H117.82H117.72H117.51C116.637 46.773 115.806 47.1121 115.068 47.6048H115.008H114.948L114.877 47.6547C114.242 48.1243 113.702 48.7097 113.286 49.3798L113.166 49.5693L113.066 49.7786L112.946 50.008C112.836 50.2174 112.685 50.4966 112.545 50.8157C111.945 51.9601 111.71 53.2596 111.871 54.5408C112.032 55.822 112.581 57.0237 113.446 57.9853H113.496C113.738 58.2431 113.996 58.4862 114.267 58.7133C113.854 59.5773 113.661 60.5295 113.706 61.4854C113.002 62.0734 112.334 62.7027 111.705 63.3701C110.375 64.7146 109.428 66.3871 108.962 68.2163V68.3061C108.751 69.098 108.72 69.9267 108.871 70.7321C109.022 71.5376 109.35 72.2995 109.833 72.9628V73.0326V73.1024C109.945 73.4009 110.086 73.688 110.253 73.96C110.481 74.366 110.76 74.7413 111.084 75.0768L111.184 75.1865L111.304 75.2862C111.622 75.5744 111.956 75.8441 112.305 76.0939L112.625 76.3332L112.826 76.4928L113.046 76.6324C114.511 77.5781 116.135 78.2536 117.84 78.6267H118.01H118.181C119.011 78.7165 119.782 78.7464 120.463 78.7663H121.273C121.772 78.7646 122.27 78.7314 122.765 78.6666C123.556 78.6068 124.396 78.537 125.297 78.4273C126.464 78.3394 127.625 78.1762 128.77 77.9387C131.496 77.4404 134.037 76.2212 136.127 74.4087C137.365 73.3376 138.222 71.898 138.574 70.3031C138.926 68.7082 138.752 67.0428 138.079 65.5539C137.746 64.7879 137.247 64.1051 136.617 63.555C135.987 63.0049 135.242 62.6011 134.436 62.3729C134.636 62.1136 134.836 61.8643 135.026 61.605L135.086 61.5153L135.146 61.4355C135.327 61.1663 135.507 60.8971 135.697 60.6378C136.382 59.6972 136.978 58.6958 137.479 57.6463C138.117 56.4827 138.573 55.2283 138.83 53.9269V53.7474V53.5679C138.937 52.4893 138.772 51.4011 138.351 50.4018C137.93 49.4024 137.265 48.5233 136.418 47.8441L136.318 47.7145L136.267 47.6547C135.654 46.8375 134.874 46.1591 133.979 45.664C133.084 45.169 132.093 44.8687 131.073 44.7828L130.182 44.713C129.711 44.713 129.271 44.6433 128.891 44.5834H128.65H128.42H127.339L127.489 44.9723Z" fill="#282828"/>
</svg>
