<svg width="50" height="48" viewBox="0 0 50 48" fill="none" xmlns="http://www.w3.org/2000/svg">
<path d="M23.2036 47.0919C18.8943 46.9941 14.7233 46.2103 10.7462 44.5115C8.39646 43.515 6.31171 41.9839 4.65778 40.04C2.82943 37.9072 1.75626 35.4151 1.16483 32.6916C0.226802 28.368 0.649706 24.1365 2.02733 19.9726C4.83266 11.4891 11.9044 4.55087 20.4309 1.92043C21.8387 1.4856 23.2736 1.16285 24.7609 1.15888C24.9342 1.17063 25.1082 1.15724 25.2776 1.11913C26.4843 0.749487 27.6934 0.913242 28.8715 1.1867C30.6403 1.59848 32.3804 2.12791 33.9695 3.05083C34.2938 3.23844 34.6229 3.42047 34.9337 3.62874C38.731 6.1789 42.0708 9.35152 44.8124 13.013C46.9516 15.8525 48.2831 19.0545 48.9358 22.5379C49.2831 24.3949 49.2601 26.2741 49.0621 28.151C48.8949 29.8764 48.491 31.5707 47.8618 33.1861C46.8172 35.8141 45.159 38.0113 43.0985 39.9144C40.0953 42.6864 36.5999 44.5799 32.6849 45.7087C30.409 46.3576 28.0741 46.7778 25.7148 46.9631C24.8778 47.0315 24.0447 47.115 23.2036 47.0919ZM48.3237 25.5038C48.3602 24.7884 48.2736 23.7486 48.0796 22.7271C47.4572 19.448 46.2393 16.4121 44.2448 13.7197C41.5282 10.0383 38.1929 6.85659 34.3876 4.31637C34.0768 4.10809 33.7405 3.93718 33.4162 3.74958C31.9495 2.90138 30.3303 2.47052 28.7134 2.04285C27.928 1.83537 27.0917 1.67957 26.3134 1.83855C25.4803 2.00947 24.6568 1.95223 23.8324 2.0349C23.7466 2.04365 23.6599 2.05477 23.5749 2.07147C22.357 2.30995 21.1464 2.57307 19.9746 2.99359C12.9665 5.50718 7.76598 10.1003 4.34139 16.6943C2.68395 19.8868 1.78487 23.309 1.55911 26.9005C1.44067 28.8139 1.62827 30.7106 2.03607 32.5827C3.17283 37.8063 6.18326 41.5305 11.0618 43.6864C14.7479 45.3144 18.6487 46.0712 22.6679 46.1992C25.3063 46.2842 27.9144 45.9218 30.4829 45.3637C34.8193 44.4233 38.7327 42.6053 42.089 39.6561C44.3346 37.6807 46.1264 35.3737 47.1765 32.543C47.9778 30.3808 48.3038 28.1327 48.3229 25.5038H48.3237Z" fill="#1B1615"/>
<path d="M48.3228 25.5038C48.3037 28.1326 47.9746 30.3807 47.1717 32.5429C46.1216 35.3737 44.3298 37.6806 42.0842 39.656C38.7319 42.6052 34.8184 44.4256 30.4781 45.3637C27.9057 45.9201 25.3014 46.2842 22.6631 46.1991C18.6462 46.0688 14.7455 45.3144 11.057 43.6863C6.17845 41.5305 3.16802 37.8038 2.03126 32.5827C1.62426 30.7106 1.43665 28.8139 1.5543 26.9005C1.77688 23.3089 2.67596 19.8867 4.33658 16.6943C7.76117 10.0963 12.9616 5.50713 19.9698 2.99354C21.1415 2.57302 22.3546 2.3091 23.5701 2.07142C23.6551 2.05472 23.7418 2.0436 23.8276 2.03485C24.652 1.95536 25.4755 2.00942 26.3086 1.83851C27.0869 1.67952 27.9231 1.8385 28.7085 2.0428C30.3254 2.47048 31.9447 2.90133 33.4114 3.74953C33.7357 3.93713 34.072 4.10804 34.3828 4.31632C38.1881 6.85654 41.5233 10.0382 44.24 13.7196C46.2345 16.4121 47.4523 19.4479 48.0748 22.727C48.2727 23.7485 48.3594 24.7883 48.3228 25.5038ZM19.8172 33.5771V33.6344C20.0763 33.6527 20.3347 33.6773 20.5946 33.6861C20.8832 33.6964 21.1725 33.7004 21.4603 33.6861C21.6327 33.6833 21.804 33.6582 21.9699 33.6113C22.0392 33.5898 22.103 33.5534 22.1569 33.5048C22.2108 33.4562 22.2536 33.3965 22.2822 33.3298C22.3109 33.2631 22.3247 33.1909 22.3228 33.1184C22.3209 33.0458 22.3033 32.9745 22.2711 32.9094C22.2004 32.7854 22.1087 32.6746 22.0001 32.5819C21.9158 32.5024 21.7894 32.4404 21.8554 32.31C22.0144 31.9976 21.8347 31.6844 21.884 31.372C22.0104 30.5683 21.9683 29.7567 21.9635 28.9482C21.9556 27.4736 21.9889 26.0006 22.1074 24.5308C22.1265 24.301 22.1503 24.0705 22.1869 23.8431C22.2513 23.4552 22.4778 23.2318 22.8777 23.1865C23.4222 23.1261 23.9652 23.045 24.5105 22.9957C25.2304 22.9417 25.9435 22.819 26.6401 22.6293C28.9923 21.948 30.5258 20.4273 31.18 18.0648C31.7118 16.1458 31.6117 14.23 30.9741 12.35C30.4972 10.9413 29.5702 9.88564 28.2204 9.27434C26.668 8.56663 24.9958 8.15882 23.2918 8.07239C21.2624 7.96905 19.3474 8.44602 17.4824 9.2179C15.6175 9.98978 14.3623 11.4556 13.1898 13.0074C13.1229 13.0855 13.0821 13.1826 13.073 13.285C13.0638 13.3874 13.0869 13.4902 13.1389 13.5789C13.5364 14.2546 13.7566 15.0098 14.0769 15.7165C14.1989 15.9775 14.3345 16.232 14.4832 16.4788C14.6192 16.702 14.8109 16.8858 15.0396 17.0123C15.2566 17.1371 15.4991 17.1657 15.697 17.017C16.3664 16.5154 17.1605 16.1839 17.7464 15.5742C18.2893 15.0082 18.8974 14.5249 19.5175 14.0519C20.9196 12.9751 22.5601 12.2513 24.3006 11.9414C24.5979 11.8873 24.8833 11.9008 25.1289 12.0836C25.9732 12.7124 26.5932 13.4827 26.6067 14.5972C26.6107 14.9152 26.5559 15.2332 26.532 15.5448C26.439 16.7785 25.7593 17.56 24.6401 17.9964C24.3451 18.1117 24.0415 18.2063 23.737 18.2929C23.4604 18.3724 23.1718 18.4121 22.8968 18.4956C21.6471 18.874 20.4539 19.37 19.4165 20.1904C18.7639 20.7079 18.2734 21.3375 18.0103 22.1237C17.608 23.328 17.2153 24.5363 16.8584 25.7542C16.6022 26.5868 16.5402 27.4671 16.6772 28.3274C16.9078 29.6653 17.0628 31.0151 17.1414 32.3704C17.1553 32.5429 17.1778 32.7146 17.209 32.8848C17.2662 33.2441 17.4968 33.446 17.8338 33.5207C18.0325 33.5575 18.2343 33.5748 18.4364 33.5724C18.8943 33.5819 19.3553 33.5771 19.8172 33.5771ZM24.9207 38.4565C24.9684 37.71 24.741 37.0359 24.4437 36.3682C24.0128 35.3896 23.2624 34.8578 22.2393 34.6193C21.4007 34.4214 20.5819 34.4913 19.7576 34.6503C19.5048 34.6996 19.2719 34.764 19.0071 34.6408C18.6097 34.4563 18.2122 34.5541 17.8569 34.7839C16.8473 35.4381 16.108 36.3173 15.9419 37.5304C15.7495 38.9461 16.0412 40.2864 16.9029 41.4597C17.6184 42.4351 18.554 42.9312 19.8037 42.804C20.694 42.7133 21.5613 42.5067 22.4397 42.3572C22.8423 42.2875 23.2097 42.0842 23.4826 41.7801C24.3396 40.8333 24.9127 39.7641 24.9246 38.4565H24.9207ZM43.0587 22.3987C43.0256 21.3329 42.889 20.2728 42.6509 19.2333C42.426 18.2508 42.0651 17.3016 41.9291 16.2976C41.9204 16.2407 41.9038 16.1854 41.8798 16.1331C41.8542 16.0656 41.8089 16.0074 41.7498 15.966C41.6907 15.9246 41.6205 15.902 41.5484 15.9009C41.461 15.9002 41.3766 15.9327 41.3122 15.9916C41.2477 16.0506 41.208 16.1318 41.201 16.2189C41.1678 16.5932 41.2033 16.9704 41.3059 17.3318C41.48 18.0306 41.6437 18.7325 41.8162 19.432C42.1965 20.9182 42.2733 22.4658 42.042 23.9823C41.7813 25.6302 41.4641 27.2741 40.9291 28.8632C40.8977 28.9433 40.8784 29.0277 40.8719 29.1136C40.8679 29.2008 40.8917 29.2871 40.9398 29.3599C40.9879 29.4328 41.0579 29.4885 41.1398 29.519C41.2075 29.5446 41.2811 29.5508 41.3522 29.5367C41.4233 29.5227 41.4891 29.489 41.542 29.4395C41.7646 29.2694 41.8226 29.0182 41.8894 28.7638C42.2622 27.3425 42.5993 25.9116 42.8473 24.4632C42.9641 23.7851 43.0707 23.0975 43.0587 22.4035V22.3987ZM5.35568 20.6022C5.14026 20.6022 5.02102 20.723 4.94073 20.8836C4.75631 21.2501 4.70225 21.6491 4.66728 22.0529C4.6315 22.5116 4.58778 22.9703 4.55519 23.4298C4.44708 24.8988 4.44628 26.3663 4.68873 27.8234C4.78333 28.3934 4.96299 28.9443 5.33343 29.4069C5.38306 29.479 5.45599 29.5318 5.53996 29.5564C5.62393 29.581 5.71381 29.5759 5.79449 29.542C5.98448 29.4626 6.03854 29.2956 5.998 29.116C5.95507 28.9212 5.86445 28.7376 5.80642 28.546C5.6999 28.1883 5.55363 27.8305 5.50991 27.4673C5.39464 26.4958 5.25314 25.5157 5.35807 24.5387C5.48367 23.3678 5.33979 22.1738 5.66015 21.0195C5.66969 20.9629 5.66532 20.9048 5.64743 20.8502C5.63326 20.7825 5.59682 20.7216 5.54394 20.6771C5.49106 20.6325 5.42477 20.607 5.35568 20.6046V20.6022Z" fill="#6C82C0"/>
<path d="M19.8173 33.5772C19.3554 33.5772 18.8944 33.582 18.4325 33.5772C18.2304 33.5796 18.0286 33.5623 17.8299 33.5255C17.4929 33.4524 17.2624 33.2505 17.2051 32.8896C17.174 32.7194 17.1514 32.5477 17.1375 32.3752C17.0589 31.0199 16.9039 29.6701 16.6733 28.3322C16.5363 27.4719 16.5983 26.5916 16.8545 25.759C17.2107 24.5411 17.6042 23.3328 18.0064 22.1285C18.2695 21.3423 18.76 20.7127 19.4127 20.1952C20.4461 19.3717 21.6432 18.8788 22.8929 18.5004C23.1679 18.417 23.4565 18.3764 23.7331 18.2977C24.0376 18.2111 24.3413 18.1165 24.6362 18.0012C25.7555 17.5648 26.4351 16.7834 26.5281 15.5496C26.552 15.2316 26.6076 14.9137 26.6029 14.602C26.5893 13.4891 25.9669 12.7173 25.1251 12.0885C24.8794 11.9056 24.594 11.8921 24.2967 11.9462C22.5562 12.2561 20.9158 12.98 19.5136 14.0567C18.8936 14.5337 18.2854 15.0106 17.7425 15.579C17.1566 16.1887 16.3625 16.5202 15.6931 17.0218C15.4952 17.1705 15.2527 17.1419 15.0357 17.0171C14.8071 16.8906 14.6153 16.7068 14.4793 16.4837C14.3306 16.2368 14.195 15.9824 14.0731 15.7213C13.7551 15.0122 13.5317 14.2594 13.135 13.5837C13.083 13.495 13.06 13.3923 13.0691 13.2898C13.0782 13.1874 13.119 13.0903 13.1859 13.0122C14.3624 11.4605 15.6105 9.99857 17.4786 9.22271C19.3467 8.44685 21.2585 7.97387 23.288 8.07721C24.9919 8.16364 26.6642 8.57145 28.2166 9.27916C29.568 9.89285 30.4925 10.9485 30.9702 12.3548C31.6062 14.2348 31.7079 16.1506 31.1761 18.0696C30.5219 20.4321 28.9885 21.9528 26.6362 22.6341C25.9397 22.8238 25.2265 22.9465 24.5066 23.0006C23.9613 23.0498 23.4183 23.1309 22.8738 23.1913C22.4763 23.2367 22.2474 23.46 22.183 23.848C22.1456 24.0753 22.1218 24.3058 22.1035 24.5356C21.9851 26.0054 21.9517 27.4768 21.9596 28.953C21.9596 29.7615 22.0057 30.5731 21.8801 31.3768C21.8308 31.6892 22.0097 32.0024 21.8515 32.3148C21.7855 32.4452 21.9119 32.508 21.9962 32.5867C22.1048 32.6794 22.1965 32.7902 22.2673 32.9142C22.2994 32.9793 22.317 33.0506 22.3189 33.1232C22.3208 33.1958 22.307 33.2679 22.2784 33.3346C22.2497 33.4013 22.207 33.461 22.1531 33.5096C22.0991 33.5582 22.0353 33.5946 21.966 33.6161C21.8001 33.663 21.6288 33.6881 21.4564 33.6909C21.1687 33.7012 20.8793 33.6972 20.5907 33.6909C20.3308 33.6821 20.0724 33.6575 19.8133 33.6392L19.8173 33.5772ZM19.5629 32.6972V32.7338C19.7926 32.7587 20.0235 32.7699 20.2545 32.7671C20.4723 32.7528 20.7577 32.9015 20.8904 32.6741C20.9787 32.5279 20.9111 32.2894 20.9167 32.0922C20.9156 31.9768 20.9233 31.8615 20.9397 31.7472C21.148 30.6343 21.0733 29.5015 21.0844 28.3767C21.0979 26.9609 21.1027 25.5451 21.2537 24.1357C21.4167 22.6182 21.9692 22.4107 22.9954 22.2907C23.8834 22.1865 24.7761 22.1055 25.6553 21.9512C28.0624 21.5291 29.6967 20.1857 30.3454 17.7913C30.8271 16.0154 30.7167 14.2412 30.0926 12.5106C29.6809 11.369 28.9002 10.5161 27.7937 10.0463C26.1927 9.3666 24.5169 8.94369 22.7593 8.94051C21.2998 8.94051 19.9119 9.28233 18.5335 9.74419C16.7313 10.3468 15.4109 11.5527 14.2408 12.9764C14.147 13.0917 14.0747 13.2149 14.1263 13.3691C14.2058 13.6139 14.1708 13.8771 14.2949 14.1219C14.5158 14.5583 14.686 15.0202 14.8911 15.4653C14.9791 15.6469 15.0817 15.8211 15.1979 15.986C15.2128 16.0108 15.2326 16.0323 15.2561 16.0493C15.2796 16.0662 15.3062 16.0782 15.3345 16.0845C15.3627 16.0908 15.3919 16.0913 15.4204 16.086C15.4488 16.0807 15.4759 16.0697 15.5 16.0536C16.0739 15.7205 16.6781 15.4177 17.1368 14.9327C17.6765 14.362 18.295 13.893 18.9095 13.4144C20.4354 12.2159 22.2338 11.4131 24.1449 11.0773C24.6115 10.9978 25.079 11.0026 25.482 11.2776C26.3842 11.8937 27.1029 12.6568 27.3668 13.7666C27.6053 14.7555 27.4757 15.7181 27.172 16.6649C26.9248 17.4368 26.4319 18.0163 25.7268 18.4313C25.1013 18.7892 24.4247 19.0493 23.7204 19.2023C22.3325 19.5203 21.0176 20.0227 19.8952 20.9361C19.4103 21.3288 19.0414 21.7978 18.8475 22.3892C18.4595 23.5665 18.0668 24.7423 17.7155 25.9307C17.472 26.7359 17.4246 27.5876 17.5771 28.4149C17.7083 29.1232 17.7711 29.8458 17.8506 30.5612C17.9174 31.1638 17.9627 31.7687 18.0199 32.3721C18.039 32.57 18.14 32.69 18.3482 32.6964C18.7552 32.6996 19.1591 32.6972 19.5629 32.6972Z" fill="#1B1615"/>
<path d="M24.9247 38.4565C24.9167 39.7641 24.3436 40.8333 23.4938 41.7777C23.2209 42.0818 22.8535 42.2851 22.4509 42.3548C21.5764 42.5043 20.702 42.711 19.8148 42.8016C18.5652 42.9288 17.6304 42.4327 16.9141 41.4574C16.0524 40.284 15.7607 38.9438 15.953 37.528C16.1176 36.3149 16.8585 35.4357 17.868 34.7815C18.2234 34.5517 18.6216 34.454 19.0183 34.6384C19.283 34.7616 19.5159 34.6972 19.7687 34.6479C20.5931 34.489 21.4119 34.419 22.2505 34.6169C23.2736 34.8554 24.024 35.3896 24.4549 36.3658C24.7411 37.0359 24.9684 37.71 24.9247 38.4565ZM19.4889 41.9494C19.8307 41.9073 20.1749 41.8779 20.5144 41.8206C20.9397 41.7507 21.3578 41.614 21.7863 41.5822C22.4914 41.5337 22.9652 41.172 23.3142 40.5996C23.4843 40.3333 23.6357 40.0555 23.7673 39.7681C24.3062 38.5209 24.0773 37.3531 23.3698 36.2442C23.2171 35.9964 22.9876 35.8052 22.7164 35.6996C22.0661 35.454 21.4047 35.2879 20.694 35.3928C20.0366 35.489 19.3919 35.6241 18.779 35.8833C18.5572 35.9771 18.3482 36.0423 18.1312 35.8833C17.9459 35.7434 17.8132 35.8554 17.6908 35.9874C17.0874 36.6178 16.7448 37.3555 16.7814 38.2426C16.8299 39.3929 17.0906 40.4685 17.9459 41.3095C18.3665 41.7324 18.8561 41.9995 19.4849 41.9494H19.4889Z" fill="#1B1615"/>
<path d="M43.0589 22.4036C43.0708 23.0999 42.9643 23.7876 42.8474 24.4704C42.5994 25.9188 42.2623 27.3497 41.8895 28.771C41.8227 29.0254 41.7647 29.2766 41.5421 29.4467C41.4892 29.4962 41.4235 29.5299 41.3524 29.5439C41.2813 29.558 41.2077 29.5518 41.1399 29.5262C41.0581 29.4957 40.9881 29.44 40.9399 29.3671C40.8918 29.2943 40.868 29.208 40.872 29.1208C40.8786 29.0349 40.8978 28.9505 40.9292 28.8704C41.4642 27.2805 41.7814 25.6374 42.0422 23.9895C42.2734 22.473 42.1966 20.9254 41.8164 19.4393C41.6439 18.7397 41.4801 18.0378 41.306 17.339C41.2035 16.9776 41.1679 16.6004 41.2011 16.2261C41.2081 16.139 41.2479 16.0579 41.3123 15.9989C41.3768 15.9399 41.4611 15.9075 41.5485 15.9082C41.6207 15.9092 41.6908 15.9319 41.7499 15.9732C41.809 16.0146 41.8544 16.0728 41.88 16.1403C41.9039 16.1926 41.9205 16.248 41.9293 16.3048C42.0652 17.3088 42.4261 18.258 42.6511 19.2405C42.889 20.2792 43.0256 21.3385 43.0589 22.4036Z" fill="white"/>
<path d="M5.35578 20.6046C5.4252 20.6072 5.49174 20.633 5.54467 20.678C5.59759 20.723 5.63383 20.7845 5.64753 20.8526C5.66542 20.9072 5.66979 20.9653 5.66025 21.022C5.34228 22.1762 5.48377 23.3702 5.35817 24.5411C5.25324 25.5181 5.39474 26.4983 5.51001 27.4697C5.55373 27.8362 5.7 28.1907 5.80652 28.5484C5.86455 28.74 5.95517 28.9236 5.9981 29.1184C6.03864 29.298 5.98458 29.4682 5.79459 29.5445C5.71391 29.5784 5.62403 29.5834 5.54006 29.5588C5.45609 29.5342 5.38316 29.4814 5.33353 29.4093C4.96309 28.9467 4.78343 28.3958 4.68883 27.8258C4.45035 26.3687 4.45036 24.9012 4.55529 23.4322C4.58867 22.9727 4.63478 22.5141 4.66738 22.0554C4.69917 21.6515 4.7564 21.2525 4.94083 20.886C5.02112 20.7254 5.14036 20.6046 5.35578 20.6046Z" fill="white"/>
<path d="M19.5628 32.6972C19.159 32.6972 18.7551 32.6972 18.3513 32.6972C18.143 32.6972 18.0421 32.5709 18.023 32.3729C17.9658 31.7696 17.9205 31.1646 17.8537 30.562C17.7742 29.8466 17.7114 29.1248 17.5802 28.4157C17.4277 27.5885 17.4751 26.7367 17.7185 25.9315C18.0699 24.7431 18.4626 23.5674 18.8505 22.3901C19.0445 21.7987 19.4134 21.3297 19.8983 20.937C21.0239 20.0236 22.3355 19.5236 23.7235 19.2032C24.4278 19.0501 25.1044 18.7901 25.7299 18.4321C26.435 18.0203 26.9279 17.4376 27.1751 16.6658C27.4788 15.719 27.606 14.7579 27.3699 13.7674C27.106 12.6545 26.3873 11.8946 25.4851 11.2785C25.082 11.0034 24.6106 10.9947 24.148 11.0782C22.2369 11.4139 20.4385 12.2168 18.9125 13.4153C18.2981 13.8922 17.6796 14.3628 17.1398 14.9336C16.6811 15.4193 16.077 15.7214 15.5031 16.0545C15.479 16.0705 15.4519 16.0816 15.4235 16.0869C15.395 16.0922 15.3658 16.0917 15.3375 16.0854C15.3093 16.079 15.2826 16.0671 15.2592 16.0501C15.2357 16.0332 15.2159 16.0117 15.201 15.9869C15.0848 15.8219 14.9821 15.6478 14.8941 15.4662C14.689 15.021 14.5189 14.5592 14.2979 14.1228C14.1739 13.8779 14.2089 13.6148 14.1294 13.37C14.0777 13.211 14.1501 13.0925 14.2439 12.9773C15.4148 11.5535 16.7352 10.3476 18.5365 9.74505C19.915 9.28319 21.3029 8.93819 22.7624 8.94137C24.52 8.94137 26.1957 9.36746 27.7968 10.0471C28.9033 10.5169 29.6839 11.3699 30.0957 12.5114C30.7197 14.242 30.8302 16.0163 30.3485 17.7922C29.699 20.1865 28.0646 21.5284 25.6584 21.9521C24.7792 22.1063 23.8865 22.1906 22.9985 22.2915C21.9746 22.4116 21.4198 22.619 21.2568 24.1366C21.1058 25.546 21.0978 26.9618 21.0875 28.3776C21.0764 29.5024 21.1511 30.6312 20.9428 31.7481C20.9264 31.8623 20.9186 31.9777 20.9198 32.0931C20.9142 32.2902 20.9818 32.5287 20.8935 32.675C20.7576 32.9023 20.4722 32.7545 20.2576 32.768C20.0266 32.7707 19.7956 32.7596 19.566 32.7346L19.5628 32.6972Z" fill="white"/>
<path d="M19.485 41.9495C18.8562 41.9996 18.3665 41.7325 17.9381 41.3088C17.0827 40.4638 16.8251 39.3922 16.7735 38.2419C16.7369 37.3548 17.0795 36.6171 17.6829 35.9867C17.8093 35.8547 17.9381 35.7426 18.1233 35.8825C18.3403 36.0471 18.5494 35.9795 18.7711 35.8825C19.384 35.6234 20.0287 35.4851 20.6862 35.3921C21.3968 35.2871 22.0582 35.4533 22.7085 35.6989C22.9797 35.8045 23.2092 35.9956 23.3619 36.2434C24.0718 37.3524 24.3007 38.5201 23.7594 39.7674C23.6279 40.0548 23.4764 40.3326 23.3063 40.5989C22.9573 41.1713 22.4835 41.5329 21.7784 41.5814C21.3515 41.6109 20.9334 41.7476 20.5065 41.8199C20.171 41.8795 19.8268 41.9074 19.485 41.9495Z" fill="white"/>
</svg>
