<svg width="102" height="18" viewBox="0 0 102 18" fill="none" xmlns="http://www.w3.org/2000/svg">
<path d="M3.5 18H7V14.5H10.5V18H14V14.5H17.5V4H14V0.5H10.5V4H7V0.5H3.5V4H0L0 14.5H3.5V18ZM14 7.5V11H10.5V7.5H14ZM3.5 7.5H7V11H3.5V7.5ZM28 18V14.5H31.5V18H38.5V14.5H35V11H31.5V7.5H35V11H38.5V0.5H35V4H31.5V0.5H28V4H24.5V0.5H21V11H24.5V7.5H28V11H24.5V14.5H21V18H28ZM49 0.5V18H52.5V14.5H56V11H59.5V7.5H56V4H52.5V0.5H49ZM45.5 0.5H42V18H45.5V0.5ZM73.5 0.5H70V4H73.5V0.5ZM70 4H66.5V11H70V4ZM73.5 11H77V4H73.5V11ZM80.5 18V11H77V14.5H66.5V11H63V18H80.5ZM87.5 18H91V14.5H94.5V18H98V14.5H101.5V7.5H98V4H94.5V0.5H91V4H87.5V7.5H84V14.5H87.5V18Z" fill="white"/>
</svg>
