<svg width="158" height="18" viewBox="0 0 158 18" fill="none" xmlns="http://www.w3.org/2000/svg">
<path d="M17.6133 7.5V4H14.1133V7.5H17.6133ZM17.6133 14.5V11H14.1133V14.5H17.6133ZM14.1133 18V14.5H3.61328V11H14.1133V7.5H3.61328V4H14.1133V0.5H0.113281L0.113281 18H14.1133ZM24.6133 0.5H21.1133V14.5H24.6133V0.5ZM38.6133 0.5H35.1133V14.5H38.6133V0.5ZM35.1133 18V14.5H24.6133V18H35.1133ZM42.1133 0.5V4H49.1133V18H52.6133V4H59.6133V0.5H42.1133ZM77.1133 4V7.5H80.6133V4H77.1133ZM94.6133 4V0.5H80.6133V4H94.6133ZM80.6133 7.5V11H91.1133V7.5H80.6133ZM94.6133 11H91.1133V14.5H94.6133V11ZM91.1133 18V14.5H77.1133V18H91.1133ZM115.613 4V0.5H101.613V4H115.613ZM101.613 11H115.613V7.5H101.613V4H98.1133V14.5H101.613V11ZM115.613 18V14.5H101.613V18H115.613ZM136.613 7.5V4H133.113V7.5H136.613ZM122.613 11L129.613 11V14.5H133.113V7.5L122.613 7.5V4H133.113V0.5H119.113V18H122.613V11ZM136.613 18V14.5H133.113V18H136.613ZM140.113 18H143.613V14.5H140.113V18ZM147.113 18H150.613V14.5H147.113V18ZM154.113 18H157.613V14.5H154.113V18Z" fill="white"/>
</svg>
