<svg width="137" height="46" viewBox="0 0 137 46" fill="none" xmlns="http://www.w3.org/2000/svg">
<path d="M14 4V0.5H3.5V4H14ZM17.5 7.5V4H14V7.5H17.5ZM3.5 4H0L0 14.5H3.5V4ZM17.5 11H14V14.5H17.5V11ZM14 18V14.5H3.5V18H14ZM28 4H31.5V0.5H21V4H24.5V14.5H21V18H31.5V14.5H28V4ZM35 0.5V4H42V18H45.5V4H52.5V0.5H35ZM70 4V0.5H59.5V4L70 4ZM59.5 11H70V18H73.5V4H70V7.5H59.5V4H56V18H59.5V11ZM91 4V14.5H94.5V4H91ZM80.5 14.5V4H91V0.5H77V18H91V14.5H80.5ZM115.5 4V0.5H101.5V4H115.5ZM101.5 11H115.5V7.5H101.5V4H98V14.5H101.5V11ZM115.5 18V14.5H101.5V18H115.5ZM122.5 14.5V0.5H119V18H136.5V14.5H122.5ZM42 35.5V32H38.5V35.5H42ZM28 39H35V42.5H38.5V35.5H28V32H38.5V28.5H24.5V46H28V39ZM42 46V42.5H38.5V46H42ZM63 32V28.5H49V32H63ZM49 39H63V35.5H49V32H45.5V42.5H49V39ZM63 46V42.5H49V46H63ZM80.5 32V28.5H70V32H80.5ZM70 39H80.5V46H84V32H80.5V35.5H70V32H66.5V46H70V39ZM101.5 32V42.5H105V32H101.5ZM91 42.5V32H101.5V28.5H87.5V46H101.5V42.5H91ZM112 28.5H108.5V35.5H112V28.5ZM122.5 28.5V35.5H126V28.5H122.5ZM112 35.5V39H115.5V35.5H112ZM119 39H122.5V35.5H119V39ZM115.5 46H119V39H115.5V46Z" fill="white"/>
</svg>
