<svg width="172" height="18" viewBox="0 0 172 18" fill="none" xmlns="http://www.w3.org/2000/svg">
<path d="M3.5 4V0.5H0L0 18H3.5V7.5H7V4H3.5ZM14 0.5V11H10.5V14.5H14V18H17.5V0.5H14ZM7 7.5V11H10.5V7.5H7ZM28 4H31.5V0.5H21V4H24.5V14.5H21V18H31.5V14.5H28V4ZM49 4V0.5H38.5V4H49ZM52.5 7.5V4H49V7.5H52.5ZM38.5 4H35V14.5H38.5V4ZM52.5 11H49V14.5H52.5V11ZM49 18V14.5H38.5V18H49ZM73.5 4V0.5H59.5V4L73.5 4ZM59.5 11H73.5V7.5H59.5V4H56V14.5H59.5V11ZM73.5 18V14.5H59.5V18H73.5ZM94.5 11H91V14.5H94.5V11ZM108.5 0.5H98V4H105V14.5H108.5V0.5ZM105 18V14.5H94.5V18H105ZM129.5 7.5V4H126V7.5L129.5 7.5ZM115.5 11H126V7.5H115.5V4H126V0.5H112V18H115.5V11ZM150.5 4V0.5H136.5V4H150.5ZM136.5 11H150.5V7.5H136.5V4H133V14.5H136.5V11ZM150.5 18V14.5H136.5V18H150.5ZM171.5 4V0.5L157.5 0.5V4H171.5ZM157.5 4H154V14.5H157.5V4ZM171.5 18V7.5H161V11H168V14.5H157.5V18H171.5Z" fill="white"/>
</svg>
