<svg width="200" height="18" viewBox="0 0 200 18" fill="none" xmlns="http://www.w3.org/2000/svg">
<path d="M3.5 14.5V0.5H0L0 18H17.5V14.5H3.5ZM35 4V0.5L24.5 0.5V4H35ZM24.5 4H21V14.5H24.5V4ZM35 14.5H38.5V4H35V14.5ZM24.5 14.5V18H35V14.5H24.5ZM56 4V0.5H45.5V4H56ZM45.5 4H42V14.5H45.5V4ZM56 14.5H59.5V4H56V14.5ZM45.5 14.5V18H56V14.5H45.5ZM77 4H73.5V7.5H77V4ZM80.5 0.5H77V4H80.5V0.5ZM66.5 7.5V0.5H63V18H66.5V11H73.5V7.5H66.5ZM77 14.5V11H73.5V14.5H77ZM80.5 18V14.5H77V18H80.5ZM84 4V7.5H87.5V4H84ZM101.5 4V0.5L87.5 0.5V4H101.5ZM87.5 7.5V11H98V7.5H87.5ZM101.5 11H98V14.5H101.5V11ZM98 18V14.5H84V18H98ZM136.5 7.5V4H133V7.5H136.5ZM122.5 11L129.5 11V14.5H133V7.5L122.5 7.5V4H133V0.5H119V18H122.5V11ZM136.5 18V14.5H133V18H136.5ZM154 4V0.5H143.5V4H154ZM143.5 11H154V18H157.5V4H154V7.5H143.5V4H140V18H143.5V11ZM178.5 7.5V4H175V7.5H178.5ZM164.5 11H171.5V14.5H175V7.5H164.5V4H175V0.5H161V18H164.5V11ZM178.5 18V14.5H175V18H178.5ZM199.5 4V0.5H185.5V4L199.5 4ZM185.5 11H199.5V7.5H185.5V4H182V14.5H185.5V11ZM199.5 18V14.5H185.5V18H199.5Z" fill="white"/>
</svg>
