<svg width="179" height="46" viewBox="0 0 179 46" fill="none" xmlns="http://www.w3.org/2000/svg">
<path d="M38.6133 4V7.5H42.1133V4H38.6133ZM56.1133 4V0.5H42.1133V4H56.1133ZM42.1133 7.5V11H52.6133V7.5H42.1133ZM56.1133 11H52.6133V14.5H56.1133V11ZM52.6133 18V14.5H38.6133V18H52.6133ZM73.6133 0.5V14.5H77.1133V0.5H73.6133ZM63.1133 0.5H59.6133V14.5H63.1133V0.5ZM70.1133 0.5H66.6133V14.5H70.1133V0.5ZM63.1133 18H66.6133V14.5H63.1133V18ZM70.1133 18H73.6133V14.5H70.1133V18ZM98.1133 4V0.5L84.1133 0.5V4H98.1133ZM84.1133 11H98.1133V7.5H84.1133V4H80.6133V14.5H84.1133V11ZM98.1133 18V14.5H84.1133V18H98.1133ZM119.113 4V0.5H105.113V4H119.113ZM105.113 11H119.113V7.5H105.113V4H101.613V14.5H105.113V11ZM119.113 18V14.5H105.113V18H119.113ZM140.113 7.5V4H136.613V7.5H140.113ZM126.113 11H136.613V7.5H126.113V4H136.613V0.5H122.613V18H126.113V11ZM0.113267 28.5V32H7.11327V46H10.6133V32H17.6133V28.5H0.113267ZM35.1133 28.5V35.5H24.6133V28.5H21.1133V46H24.6133V39H35.1133V46H38.6133V28.5H35.1133ZM59.6133 32V28.5H45.6133V32H59.6133ZM45.6133 39H59.6133V35.5H45.6133V32H42.1133V42.5H45.6133V39ZM59.6133 46V42.5H45.6133V46H59.6133ZM94.6133 32V28.5H80.6133V32H94.6133ZM80.6133 39H94.6133V35.5H80.6133V32H77.1133V46H80.6133V39ZM101.613 42.5V28.5H98.1133V46H115.613V42.5H101.613ZM133.113 32V28.5H122.613V32H133.113ZM122.613 32H119.113V42.5H122.613V32ZM133.113 42.5H136.613V32H133.113V42.5ZM122.613 42.5V46H133.113V42.5H122.613ZM154.113 32V28.5H143.613V32H154.113ZM143.613 32H140.113V42.5H143.613V32ZM154.113 42.5H157.613V32H154.113V42.5ZM143.613 42.5V46H154.113V42.5H143.613ZM178.613 35.5V32H175.113V35.5H178.613ZM164.613 39H171.613V42.5H175.113V35.5H164.613V32H175.113V28.5H161.113V46H164.613V39ZM178.613 46V42.5H175.113V46H178.613Z" fill="white"/>
</svg>
