<svg width="186" height="18" viewBox="0 0 186 18" fill="none" xmlns="http://www.w3.org/2000/svg">
<path d="M0 0.5L0 4H7V18H10.5V4H17.5V0.5H0ZM28 4H31.5V0.5H21V4H24.5V14.5H21V18H31.5V14.5H28V4ZM38.5 4V0.5H35V18H38.5V7.5H42V4H38.5ZM49 0.5V4H45.5V7.5H49V18H52.5V0.5H49ZM42 11H45.5V7.5H42V11ZM73.5 4V0.5H59.5V4L73.5 4ZM59.5 11H73.5V7.5H59.5V4H56V14.5H59.5V11ZM73.5 18V14.5H59.5V18H73.5ZM91 0.5V4H105V0.5L91 0.5ZM108.5 4H105V7.5H108.5V4ZM105 11V7.5H94.5V11H105ZM108.5 14.5H94.5V11H91V18H108.5V14.5ZM140 4V0.5H129.5V4H140ZM129.5 11H140V18H143.5V4H140V7.5H129.5V4H126V18H129.5V11ZM164.5 7.5V4H161V7.5H164.5ZM150.5 11H161V7.5H150.5V4H161V0.5L147 0.5V18H150.5V11ZM185.5 4V0.5H171.5V4H185.5ZM171.5 11H185.5V7.5H171.5V4H168V14.5H171.5V11ZM185.5 18V14.5H171.5V18H185.5Z" fill="white"/>
</svg>
