<svg width="112" height="18" viewBox="0 0 112 18" fill="none" xmlns="http://www.w3.org/2000/svg">
<path d="M0 0.5L0 4H7V18H10.5V4H17.5V0.5H0ZM35 4V0.5L24.5 0.5V4H35ZM24.5 4H21V14.5H24.5V4ZM35 14.5H38.5V4H35V14.5ZM24.5 14.5V18H35V14.5H24.5ZM56 4V0.5H45.5V4H56ZM45.5 11H56V18H59.5V4H56V7.5H45.5V4H42V18H45.5V11ZM77 4V14.5H80.5V4H77ZM66.5 14.5V4H77V0.5H63V18H77V14.5H66.5ZM98 4H101.5V0.5L84 0.5V4H94.5V7.5H98V4ZM87.5 11V14.5H84V18H101.5V14.5H91V11H87.5ZM94.5 7.5H91V11H94.5V7.5ZM108.5 0.5V11H112V0.5H108.5ZM108.5 18H112V14.5H108.5V18Z" fill="white"/>
</svg>
