<svg width="207" height="18" viewBox="0 0 207 18" fill="none" xmlns="http://www.w3.org/2000/svg">
<path d="M14 0.5V14.5H17.5V0.5H14ZM3.5 0.5H0L0 14.5H3.5V0.5ZM10.5 0.5H7V14.5H10.5V0.5ZM3.5 18H7V14.5H3.5V18ZM10.5 18H14V14.5H10.5V18ZM38.5 4V0.5L24.5 0.5V4H38.5ZM24.5 11H38.5V7.5H24.5V4H21V14.5H24.5V11ZM38.5 18V14.5H24.5V18H38.5ZM45.5 4V0.5H42V18H45.5V7.5H49V4H45.5ZM56 0.5V11H52.5V14.5H56V18H59.5V0.5H56ZM49 7.5V11H52.5V7.5H49ZM80.5 0.5H77V14.5H80.5V0.5ZM94.5 0.5H91V14.5H94.5V0.5ZM91 18V14.5H80.5V18H91ZM98 0.5V4H105V18H108.5V4H115.5V0.5H98ZM126 4H129.5V0.5H119V4H122.5V14.5H119V18H129.5V14.5H126V4ZM136.5 14.5V0.5H133V18H150.5V14.5H136.5ZM161 4H164.5V0.5L154 0.5V4H157.5V14.5H154V18H164.5V14.5H161V4ZM168 0.5V4H175V18H178.5V4H185.5V0.5H168ZM192.5 0.5H189V7.5H192.5V0.5ZM203 0.5V7.5H206.5V0.5H203ZM192.5 7.5V11H196V7.5H192.5ZM199.5 11H203V7.5H199.5V11ZM196 18H199.5V11H196V18Z" fill="white"/>
</svg>
